<svg xmlns:dc="http://purl.org/dc/elements/1.1/" xmlns:cc="http://creativecommons.org/ns#" xmlns:rdf="http://www.w3.org/1999/02/22-rdf-syntax-ns#" xmlns:svg="http://www.w3.org/2000/svg" xmlns="http://www.w3.org/2000/svg" id="svg23" version="1.0" viewBox="1566.73 544.88 77.2 182.97">
  <metadata id="metadata27">
    <rdf:RDF>
      <cc:Work rdf:about="">
        <dc:format>image/svg+xml</dc:format>
        <dc:type rdf:resource="http://purl.org/dc/dcmitype/StillImage"/>
      </cc:Work>
    </rdf:RDF>
  </metadata>
  <defs id="defs3">
    <pattern y="0" x="0" height="6" width="6" patternUnits="userSpaceOnUse" id="WMFhbasepattern"/>
  </defs>
  <path id="path5" d="  M 1567.7314,579.87828   L 1583.3452,580.93599   L 1596.9948,583.80693   L 1606.5142,587.78594   L 1608.9318,589.49843   L 1609.6369,590.1532  " style="fill:none;stroke:#000000;stroke-width:2px;stroke-linecap:round;stroke-linejoin:round;stroke-miterlimit:4;stroke-dasharray:none;stroke-opacity:1;"/>
  <path id="path7" d="  M 1605.6076,587.383   L 1598.9591,590.25393   L 1589.7922,592.72193   L 1567.7314,594.83736  " style="fill:none;stroke:#000000;stroke-width:2px;stroke-linecap:round;stroke-linejoin:round;stroke-miterlimit:4;stroke-dasharray:none;stroke-opacity:1;"/>
  <path id="path9" d="  M 1629.9853,611.81112   L 1639.1522,601.3851   L 1641.9224,594.83736   L 1642.9297,587.73557   L 1642.1238,580.63379   L 1639.5551,574.03568   L 1630.6401,563.30745   L 1618.3001,555.65163   L 1603.2907,550.26233   L 1586.0651,546.98846   L 1567.7314,545.88038  " style="fill:none;stroke:#000000;stroke-width:2px;stroke-linecap:round;stroke-linejoin:round;stroke-miterlimit:4;stroke-dasharray:none;stroke-opacity:1;"/>
  <path id="path11" d="  M 1567.7314,677.89297   L 1583.3452,678.95068   L 1596.9948,681.82162   L 1606.5142,685.80063   L 1608.9318,687.51312   L 1609.6369,688.11752  " style="fill:none;stroke:#000000;stroke-width:2px;stroke-linecap:round;stroke-linejoin:round;stroke-miterlimit:4;stroke-dasharray:none;stroke-opacity:1;"/>
  <path id="path13" d="  M 1605.6076,685.39769   L 1598.9591,688.26863   L 1589.7922,690.73662   L 1567.7314,692.85205  " style="fill:none;stroke:#000000;stroke-width:2px;stroke-linecap:round;stroke-linejoin:round;stroke-miterlimit:4;stroke-dasharray:none;stroke-opacity:1;"/>
  <path id="path15" d="  M 1567.7314,726.84995   L 1594.7786,724.38195   L 1618.149,717.17943   L 1627.618,711.73977   L 1635.425,704.73872   L 1640.915,695.82371   L 1642.9297,685.34732   L 1640.915,674.9213   L 1635.425,666.0063   L 1627.618,659.00525   L 1618.149,653.56558   L 1594.7786,646.3127   L 1567.7314,643.89507  " style="fill:none;stroke:#000000;stroke-width:2px;stroke-linecap:round;stroke-linejoin:round;stroke-miterlimit:4;stroke-dasharray:none;stroke-opacity:1;"/>
  <path id="path17" d="  M 1629.9853,660.81847   L 1639.1522,650.39244   L 1641.9224,643.8447   L 1642.9297,636.74292   L 1642.1238,629.64113   L 1639.5551,623.04302   L 1630.6401,612.3148   L 1618.3001,604.65897   L 1603.2907,599.26967   L 1586.0651,595.9958   L 1567.7314,594.88772  " style="fill:none;stroke:#000000;stroke-width:2px;stroke-linecap:round;stroke-linejoin:round;stroke-miterlimit:4;stroke-dasharray:none;stroke-opacity:1;"/>
  <path id="path19" d="  M 1567.7314,628.88562   L 1583.3452,629.94334   L 1596.9948,632.81427   L 1606.5142,636.79328   L 1608.9318,638.50577   L 1609.6369,639.11018  " style="fill:none;stroke:#000000;stroke-width:2px;stroke-linecap:round;stroke-linejoin:round;stroke-miterlimit:4;stroke-dasharray:none;stroke-opacity:1;"/>
  <path id="path21" d="  M 1605.6076,636.39035   L 1598.9591,639.26128   L 1589.7922,641.72928   L 1567.7314,643.8447  " style="fill:none;stroke:#000000;stroke-width:2px;stroke-linecap:round;stroke-linejoin:round;stroke-miterlimit:4;stroke-dasharray:none;stroke-opacity:1;"/>
</svg>