<svg xmlns:inkscape="http://www.inkscape.org/namespaces/inkscape" xmlns:sodipodi="http://sodipodi.sourceforge.net/DTD/sodipodi-0.dtd" xmlns="http://www.w3.org/2000/svg" xmlns:svg="http://www.w3.org/2000/svg" version="1.0" id="svg9" sodipodi:docname="heating-1Element-head.wmf" viewBox="1565.12 557.76 79.02 156.05">
  <sodipodi:namedview id="namedview11" pagecolor="#ffffff" bordercolor="#000000" borderopacity="0.25" inkscape:showpageshadow="2" inkscape:pageopacity="0.0" inkscape:pagecheckerboard="0" inkscape:deskcolor="#d1d1d1" inkscape:document-units="mm"/>
  <defs id="defs3">
    <pattern id="WMFhbasepattern" patternUnits="userSpaceOnUse" width="6" height="6" x="0" y="0"/>
  </defs>
  <path style="fill:none;stroke:#000000;stroke-width:4px;stroke-linecap:round;stroke-linejoin:round;stroke-miterlimit:4;stroke-dasharray:none;stroke-opacity:1;" d="  M 1566.1247,675.11987   L 1568.3239,675.06873   L 1570.5232,674.86414   L 1572.7224,674.55727   L 1574.8705,674.14811   L 1577.0186,673.58551   L 1579.1156,672.92062   L 1581.1614,672.10229   L 1583.2072,671.23282   L 1585.1508,670.20991   L 1587.0432,669.08471   L 1588.8844,667.85722   L 1590.6233,666.52744   L 1592.3111,665.09536   L 1593.9478,663.61215   L 1595.431,661.97549   L 1596.8631,660.28769   L 1598.1929,658.54875   L 1599.4204,656.70751   L 1600.5456,654.81513   L 1601.5685,652.8716   L 1602.4379,650.82579   L 1603.2563,648.77997   L 1603.9212,646.683   L 1604.4838,644.5349   L 1604.8929,642.38679   L 1605.1998,640.18753   L 1605.4044,637.98828   L 1605.4555,635.78903   L 1605.4044,633.58977   L 1605.1998,631.39052   L 1604.8929,629.19126   L 1604.4838,627.04315   L 1603.9212,624.89505   L 1603.2563,622.79808   L 1602.4379,620.75226   L 1601.5685,618.70645   L 1600.5456,616.76292   L 1599.4204,614.87054   L 1598.1929,613.0293   L 1596.8631,611.29036   L 1595.431,609.60256   L 1593.9478,607.9659   L 1592.3111,606.48269   L 1590.6233,605.05061   L 1588.8844,603.72083   L 1587.0432,602.49334   L 1585.1508,601.36814   L 1583.2072,600.34523   L 1581.1614,599.47576   L 1579.1156,598.65743   L 1577.0186,597.99254   L 1574.8705,597.42994   L 1572.7224,597.02078   L 1570.5232,596.71391   L 1568.3239,596.50932   L 1566.1247,596.45818  " id="path5"/>
  <path style="fill:none;stroke:#000000;stroke-width:4px;stroke-linecap:round;stroke-linejoin:round;stroke-miterlimit:4;stroke-dasharray:none;stroke-opacity:1;" d="  M 1566.1247,712.81406   L 1569.1422,712.76292   L 1572.1598,712.55834   L 1575.1774,712.30261   L 1578.195,711.8423   L 1581.1614,711.33085   L 1584.1279,710.66596   L 1587.0432,709.89877   L 1589.9073,709.0293   L 1592.7714,708.05754   L 1595.5844,706.93234   L 1598.3974,705.75599   L 1601.1082,704.42621   L 1603.7677,702.99414   L 1606.3761,701.45978   L 1608.9334,699.82312   L 1611.3884,698.08418   L 1613.7922,696.29409   L 1616.1449,694.35056   L 1618.3953,692.35589   L 1620.5946,690.25892   L 1622.6915,688.05967   L 1624.6862,685.80927   L 1626.6297,683.45658   L 1628.4198,681.05274   L 1630.1588,678.59776   L 1631.7954,676.04049   L 1633.3298,673.43207   L 1634.7619,670.77251   L 1636.0916,668.0618   L 1637.268,665.2488   L 1638.3932,662.4358   L 1639.3649,659.57166   L 1640.2344,656.70751   L 1641.0016,653.79222   L 1641.6665,650.82579   L 1642.1779,647.85935   L 1642.6383,644.84177   L 1642.894,641.82419   L 1643.0986,638.80661   L 1643.1497,635.78903   L 1643.0986,632.77144   L 1642.894,629.75386   L 1642.6383,626.73628   L 1642.1779,623.7187   L 1641.6665,620.75226   L 1641.0016,617.78583   L 1640.2344,614.87054   L 1639.3649,612.00639   L 1638.3932,609.14225   L 1637.268,606.32925   L 1636.0916,603.51625   L 1634.7619,600.80554   L 1633.3298,598.14598   L 1631.7954,595.53756   L 1630.1588,592.98029   L 1628.4198,590.52531   L 1626.6297,588.12147   L 1624.6862,585.76878   L 1622.6915,583.51838   L 1620.5946,581.31913   L 1618.3953,579.22216   L 1616.1449,577.22749   L 1613.7922,575.28396   L 1611.3884,573.49387   L 1608.9334,571.75493   L 1606.3761,570.11827   L 1603.7677,568.58391   L 1601.1082,567.15184   L 1598.3974,565.82206   L 1595.5844,564.64571   L 1592.7714,563.52051   L 1589.9073,562.54875   L 1587.0432,561.67928   L 1584.1279,560.91209   L 1581.1614,560.2472   L 1578.195,559.73575   L 1575.1774,559.27544   L 1572.1598,559.01971   L 1569.1422,558.81513   L 1566.1247,558.76399  " id="path7"/>
</svg>