<?xml version="1.0" encoding="utf-8"?>
<svg xmlns="http://www.w3.org/2000/svg" id="svg505" version="1.0" viewBox="902.29 312.71 118.21 310">
  <path id="path5" d="  M 902.31579,312.73684   L 918.63158,313.63158   L 902.31579,313.63158  z " style="fill:#ffffff;fill-rule:evenodd;fill-opacity:1;stroke:none;"/>
  <path id="path7" d="  M 902.31579,313.63158   L 934.68421,316.21053   L 902.31579,316.21053  z " style="fill:#ffffff;fill-rule:evenodd;fill-opacity:1;stroke:none;"/>
  <path id="path9" d="  M 902.31579,313.63158   L 918.63158,313.63158   L 934.68421,316.21053  z " style="fill:#ffffff;fill-rule:evenodd;fill-opacity:1;stroke:none;"/>
  <path id="path11" d="  M 902.31579,316.21053   L 950.15789,320.47368   L 902.31579,320.47368  z " style="fill:#ffffff;fill-rule:evenodd;fill-opacity:1;stroke:none;"/>
  <path id="path13" d="  M 902.31579,316.21053   L 934.68421,316.21053   L 950.15789,320.47368  z " style="fill:#ffffff;fill-rule:evenodd;fill-opacity:1;stroke:none;"/>
  <path id="path15" d="  M 902.31579,320.47368   L 964.68421,326.42105   L 902.31579,326.42105  z " style="fill:#ffffff;fill-rule:evenodd;fill-opacity:1;stroke:none;"/>
  <path id="path17" d="  M 902.31579,320.47368   L 950.15789,320.47368   L 964.68421,326.42105  z " style="fill:#ffffff;fill-rule:evenodd;fill-opacity:1;stroke:none;"/>
  <path id="path19" d="  M 902.31579,326.42105   L 978.15789,333.89474   L 902.31579,333.89474  z " style="fill:#ffffff;fill-rule:evenodd;fill-opacity:1;stroke:none;"/>
  <path id="path21" d="  M 902.31579,326.42105   L 964.68421,326.42105   L 978.15789,333.89474  z " style="fill:#ffffff;fill-rule:evenodd;fill-opacity:1;stroke:none;"/>
  <path id="path23" d="  M 902.31579,333.89474   L 990.15789,342.89474   L 902.31579,342.89474  z " style="fill:#ffffff;fill-rule:evenodd;fill-opacity:1;stroke:none;"/>
  <path id="path25" d="  M 902.31579,333.89474   L 978.15789,333.89474   L 990.15789,342.89474  z " style="fill:#ffffff;fill-rule:evenodd;fill-opacity:1;stroke:none;"/>
  <path id="path27" d="  M 902.31579,342.89474   L 1000.5263,353.31579   L 902.31579,353.31579  z " style="fill:#ffffff;fill-rule:evenodd;fill-opacity:1;stroke:none;"/>
  <path id="path29" d="  M 902.31579,342.89474   L 990.15789,342.89474   L 1000.5263,353.31579  z " style="fill:#ffffff;fill-rule:evenodd;fill-opacity:1;stroke:none;"/>
  <path id="path31" d="  M 902.31579,353.31579   L 1009,365   L 902.31579,365  z " style="fill:#ffffff;fill-rule:evenodd;fill-opacity:1;stroke:none;"/>
  <path id="path33" d="  M 902.31579,353.31579   L 1000.5263,353.31579   L 1009,365  z " style="fill:#ffffff;fill-rule:evenodd;fill-opacity:1;stroke:none;"/>
  <path id="path35" d="  M 902.31579,365   L 1012.4211,371.89474   L 902.31579,371.89474  z " style="fill:#ffffff;fill-rule:evenodd;fill-opacity:1;stroke:none;"/>
  <path id="path37" d="  M 902.31579,365   L 1009,365   L 1012.4211,371.89474  z " style="fill:#ffffff;fill-rule:evenodd;fill-opacity:1;stroke:none;"/>
  <path id="path39" d="  M 902.31579,371.89474   L 1012.8421,372.73684   L 915.21053,372.73684  z " style="fill:#ffffff;fill-rule:evenodd;fill-opacity:1;stroke:none;"/>
  <path id="path41" d="  M 902.31579,371.89474   L 1012.4211,371.89474   L 1012.8421,372.73684  z " style="fill:#ffffff;fill-rule:evenodd;fill-opacity:1;stroke:none;"/>
  <path id="path43" d="  M 915.21053,372.73684   L 1014.1053,375.31579   L 927.52632,375.31579  z " style="fill:#ffffff;fill-rule:evenodd;fill-opacity:1;stroke:none;"/>
  <path id="path45" d="  M 915.21053,372.73684   L 1012.8421,372.73684   L 1014.1053,375.31579  z " style="fill:#ffffff;fill-rule:evenodd;fill-opacity:1;stroke:none;"/>
  <path id="path47" d="  M 927.52632,375.31579   L 1015.3158,377.73684   L 934.05263,377.73684  z " style="fill:#ffffff;fill-rule:evenodd;fill-opacity:1;stroke:none;"/>
  <path id="path49" d="  M 927.52632,375.31579   L 1014.1053,375.31579   L 1015.3158,377.73684  z " style="fill:#ffffff;fill-rule:evenodd;fill-opacity:1;stroke:none;"/>
  <path id="path51" d="  M 934.05263,377.73684   L 1015.7895,379.42105   L 938.47368,379.42105  z " style="fill:#ffffff;fill-rule:evenodd;fill-opacity:1;stroke:none;"/>
  <path id="path53" d="  M 934.05263,377.73684   L 1015.3158,377.73684   L 1015.7895,379.42105  z " style="fill:#ffffff;fill-rule:evenodd;fill-opacity:1;stroke:none;"/>
  <path id="path55" d="  M 938.47368,379.42105   L 1017.2632,384.57895   L 947.57895,384.57895  z " style="fill:#ffffff;fill-rule:evenodd;fill-opacity:1;stroke:none;"/>
  <path id="path57" d="  M 938.47368,379.42105   L 1015.7895,379.42105   L 1017.2632,384.57895  z " style="fill:#ffffff;fill-rule:evenodd;fill-opacity:1;stroke:none;"/>
  <path id="path59" d="  M 947.57895,384.57895   L 1018.8947,390.31579   L 954.36842,390.31579  z " style="fill:#ffffff;fill-rule:evenodd;fill-opacity:1;stroke:none;"/>
  <path id="path61" d="  M 947.57895,384.57895   L 1017.2632,384.57895   L 1018.8947,390.31579  z " style="fill:#ffffff;fill-rule:evenodd;fill-opacity:1;stroke:none;"/>
  <path id="path63" d="  M 954.36842,390.31579   L 1019.2105,391.31579   L 955.15789,391.31579  z " style="fill:#ffffff;fill-rule:evenodd;fill-opacity:1;stroke:none;"/>
  <path id="path65" d="  M 954.36842,390.31579   L 1018.8947,390.31579   L 1019.2105,391.31579  z " style="fill:#ffffff;fill-rule:evenodd;fill-opacity:1;stroke:none;"/>
  <path id="path67" d="  M 955.15789,391.31579   L 1019.5789,395.89474   L 958.63158,395.89474  z " style="fill:#ffffff;fill-rule:evenodd;fill-opacity:1;stroke:none;"/>
  <path id="path69" d="  M 955.15789,391.31579   L 1019.2105,391.31579   L 1019.5789,395.89474  z " style="fill:#ffffff;fill-rule:evenodd;fill-opacity:1;stroke:none;"/>
  <path id="path71" d="  M 958.63158,395.89474   L 1020.0526,400.73684   L 960.78947,400.73684  z " style="fill:#ffffff;fill-rule:evenodd;fill-opacity:1;stroke:none;"/>
  <path id="path73" d="  M 958.63158,395.89474   L 1019.5789,395.89474   L 1020.0526,400.73684  z " style="fill:#ffffff;fill-rule:evenodd;fill-opacity:1;stroke:none;"/>
  <path id="path75" d="  M 960.78947,400.73684   L 1020.4211,405   L 961.36842,405  z " style="fill:#ffffff;fill-rule:evenodd;fill-opacity:1;stroke:none;"/>
  <path id="path77" d="  M 960.78947,400.73684   L 1020.0526,400.73684   L 1020.4211,405  z " style="fill:#ffffff;fill-rule:evenodd;fill-opacity:1;stroke:none;"/>
  <path id="path79" d="  M 961.36842,405   L 1020.4737,405.31579   L 961.31579,405.31579  z " style="fill:#ffffff;fill-rule:evenodd;fill-opacity:1;stroke:none;"/>
  <path id="path81" d="  M 961.36842,405   L 1020.4211,405   L 1020.4737,405.31579  z " style="fill:#ffffff;fill-rule:evenodd;fill-opacity:1;stroke:none;"/>
  <path id="path83" d="  M 961.31579,405.31579   L 1020.0526,409.26316   L 960.78947,409.26316  z " style="fill:#ffffff;fill-rule:evenodd;fill-opacity:1;stroke:none;"/>
  <path id="path85" d="  M 961.31579,405.31579   L 1020.4737,405.31579   L 1020.0526,409.26316  z " style="fill:#ffffff;fill-rule:evenodd;fill-opacity:1;stroke:none;"/>
  <path id="path87" d="  M 960.78947,409.26316   L 1019.5789,414.15789   L 958.63158,414.15789  z " style="fill:#ffffff;fill-rule:evenodd;fill-opacity:1;stroke:none;"/>
  <path id="path89" d="  M 960.78947,409.26316   L 1020.0526,409.26316   L 1019.5789,414.15789  z " style="fill:#ffffff;fill-rule:evenodd;fill-opacity:1;stroke:none;"/>
  <path id="path91" d="  M 958.63158,414.15789   L 1019.0526,419.31579   L 954.68421,419.31579  z " style="fill:#ffffff;fill-rule:evenodd;fill-opacity:1;stroke:none;"/>
  <path id="path93" d="  M 958.63158,414.15789   L 1019.5789,414.15789   L 1019.0526,419.31579  z " style="fill:#ffffff;fill-rule:evenodd;fill-opacity:1;stroke:none;"/>
  <path id="path95" d="  M 954.68421,419.31579   L 1018.9474,419.73684   L 954.36842,419.73684  z " style="fill:#ffffff;fill-rule:evenodd;fill-opacity:1;stroke:none;"/>
  <path id="path97" d="  M 954.68421,419.31579   L 1019.0526,419.31579   L 1018.9474,419.73684  z " style="fill:#ffffff;fill-rule:evenodd;fill-opacity:1;stroke:none;"/>
  <path id="path99" d="  M 954.36842,419.73684   L 1017.2632,425.42105   L 947.57895,425.42105  z " style="fill:#ffffff;fill-rule:evenodd;fill-opacity:1;stroke:none;"/>
  <path id="path101" d="  M 954.36842,419.73684   L 1018.9474,419.73684   L 1017.2632,425.42105  z " style="fill:#ffffff;fill-rule:evenodd;fill-opacity:1;stroke:none;"/>
  <path id="path103" d="  M 947.57895,425.42105   L 1015.7368,430.63158   L 938.47368,430.63158  z " style="fill:#ffffff;fill-rule:evenodd;fill-opacity:1;stroke:none;"/>
  <path id="path105" d="  M 947.57895,425.42105   L 1017.2632,425.42105   L 1015.7368,430.63158  z " style="fill:#ffffff;fill-rule:evenodd;fill-opacity:1;stroke:none;"/>
  <path id="path107" d="  M 938.47368,430.63158   L 1015.1053,432.84211   L 932.47368,432.84211  z " style="fill:#ffffff;fill-rule:evenodd;fill-opacity:1;stroke:none;"/>
  <path id="path109" d="  M 938.47368,430.63158   L 1015.7368,430.63158   L 1015.1053,432.84211  z " style="fill:#ffffff;fill-rule:evenodd;fill-opacity:1;stroke:none;"/>
  <path id="path111" d="  M 932.47368,432.84211   L 1014.1579,434.68421   L 927.52632,434.68421  z " style="fill:#ffffff;fill-rule:evenodd;fill-opacity:1;stroke:none;"/>
  <path id="path113" d="  M 932.47368,432.84211   L 1015.1053,432.84211   L 1014.1579,434.68421  z " style="fill:#ffffff;fill-rule:evenodd;fill-opacity:1;stroke:none;"/>
  <path id="path115" d="  M 927.52632,434.68421   L 1012.8421,437.26316   L 915.21053,437.26316  z " style="fill:#ffffff;fill-rule:evenodd;fill-opacity:1;stroke:none;"/>
  <path id="path117" d="  M 927.52632,434.68421   L 1014.1579,434.68421   L 1012.8421,437.26316  z " style="fill:#ffffff;fill-rule:evenodd;fill-opacity:1;stroke:none;"/>
  <path id="path119" d="  M 915.21053,437.26316   L 1012.4211,438.15789   L 902.31579,438.15789  z " style="fill:#ffffff;fill-rule:evenodd;fill-opacity:1;stroke:none;"/>
  <path id="path121" d="  M 915.21053,437.26316   L 1012.8421,437.26316   L 1012.4211,438.15789  z " style="fill:#ffffff;fill-rule:evenodd;fill-opacity:1;stroke:none;"/>
  <path id="path123" d="  M 902.31579,438.15789   L 907.84211,438.57895   L 902.31579,438.57895  z " style="fill:#ffffff;fill-rule:evenodd;fill-opacity:1;stroke:none;"/>
  <path id="path125" d="  M 902.31579,438.15789   L 1012.2105,438.57895   L 914,438.57895  z " style="fill:#ffffff;fill-rule:evenodd;fill-opacity:1;stroke:none;"/>
  <path id="path127" d="  M 902.31579,438.15789   L 1012.4211,438.15789   L 1012.2105,438.57895  z " style="fill:#ffffff;fill-rule:evenodd;fill-opacity:1;stroke:none;"/>
  <path id="path129" d="  M 914,438.57895   L 1011.5789,439.89474   L 925.15789,439.89474  z " style="fill:#ffffff;fill-rule:evenodd;fill-opacity:1;stroke:none;"/>
  <path id="path131" d="  M 914,438.57895   L 1012.2105,438.57895   L 1011.5789,439.89474  z " style="fill:#ffffff;fill-rule:evenodd;fill-opacity:1;stroke:none;"/>
  <path id="path133" d="  M 925.15789,439.89474   L 1011.4737,440.05263   L 926,440.05263  z " style="fill:#ffffff;fill-rule:evenodd;fill-opacity:1;stroke:none;"/>
  <path id="path135" d="  M 925.15789,439.89474   L 1011.5789,439.89474   L 1011.4737,440.05263  z " style="fill:#ffffff;fill-rule:evenodd;fill-opacity:1;stroke:none;"/>
  <path id="path137" d="  M 902.31579,438.57895   L 926,440.05263   L 902.31579,440.05263  z " style="fill:#ffffff;fill-rule:evenodd;fill-opacity:1;stroke:none;"/>
  <path id="path139" d="  M 902.31579,438.57895   L 907.84211,438.57895   L 926,440.05263  z " style="fill:#ffffff;fill-rule:evenodd;fill-opacity:1;stroke:none;"/>
  <path id="path141" d="  M 926,440.05263   L 1011.4737,440.05263   L 926.42105,440.05263  z " style="fill:#ffffff;fill-rule:evenodd;fill-opacity:1;stroke:none;"/>
  <path id="path143" d="  M 926,440.05263   L 1011.4737,440.05263   L 1011.4737,440.05263  z " style="fill:#ffffff;fill-rule:evenodd;fill-opacity:1;stroke:none;"/>
  <path id="path145" d="  M 902.31579,440.05263   L 926.21053,440.05263   L 902.31579,440.05263  z " style="fill:#ffffff;fill-rule:evenodd;fill-opacity:1;stroke:none;"/>
  <path id="path147" d="  M 902.31579,440.05263   L 926,440.05263   L 926.21053,440.05263  z " style="fill:#ffffff;fill-rule:evenodd;fill-opacity:1;stroke:none;"/>
  <path id="path149" d="  M 926.42105,440.05263   L 1011.3684,440.26316   L 927.31579,440.26316  z " style="fill:#ffffff;fill-rule:evenodd;fill-opacity:1;stroke:none;"/>
  <path id="path151" d="  M 926.42105,440.05263   L 1011.4737,440.05263   L 1011.3684,440.26316  z " style="fill:#ffffff;fill-rule:evenodd;fill-opacity:1;stroke:none;"/>
  <path id="path153" d="  M 902.31579,440.05263   L 927.31579,440.26316   L 902.31579,440.26316  z " style="fill:#ffffff;fill-rule:evenodd;fill-opacity:1;stroke:none;"/>
  <path id="path155" d="  M 902.31579,440.05263   L 926.21053,440.05263   L 927.31579,440.26316  z " style="fill:#ffffff;fill-rule:evenodd;fill-opacity:1;stroke:none;"/>
  <path id="path157" d="  M 927.31579,440.26316   L 1010.4211,442.10526   L 936.89474,442.10526  z " style="fill:#ffffff;fill-rule:evenodd;fill-opacity:1;stroke:none;"/>
  <path id="path159" d="  M 927.31579,440.26316   L 1011.3684,440.26316   L 1010.4211,442.10526  z " style="fill:#ffffff;fill-rule:evenodd;fill-opacity:1;stroke:none;"/>
  <path id="path161" d="  M 902.31579,440.26316   L 934.84211,442.10526   L 902.31579,442.10526  z " style="fill:#ffffff;fill-rule:evenodd;fill-opacity:1;stroke:none;"/>
  <path id="path163" d="  M 902.31579,440.26316   L 927.31579,440.26316   L 934.84211,442.10526  z " style="fill:#ffffff;fill-rule:evenodd;fill-opacity:1;stroke:none;"/>
  <path id="path165" d="  M 936.89474,442.10526   L 1008.9474,445.05263   L 947.52632,445.05263  z " style="fill:#ffffff;fill-rule:evenodd;fill-opacity:1;stroke:none;"/>
  <path id="path167" d="  M 936.89474,442.10526   L 1010.4211,442.10526   L 1008.9474,445.05263  z " style="fill:#ffffff;fill-rule:evenodd;fill-opacity:1;stroke:none;"/>
  <path id="path169" d="  M 947.52632,445.05263   L 1008.6842,445.57895   L 948.94737,445.57895  z " style="fill:#ffffff;fill-rule:evenodd;fill-opacity:1;stroke:none;"/>
  <path id="path171" d="  M 947.52632,445.05263   L 1008.9474,445.05263   L 1008.6842,445.57895  z " style="fill:#ffffff;fill-rule:evenodd;fill-opacity:1;stroke:none;"/>
  <path id="path173" d="  M 902.31579,442.10526   L 948.94737,445.57895   L 902.31579,445.57895  z " style="fill:#ffffff;fill-rule:evenodd;fill-opacity:1;stroke:none;"/>
  <path id="path175" d="  M 902.31579,442.10526   L 934.84211,442.10526   L 948.94737,445.57895  z " style="fill:#ffffff;fill-rule:evenodd;fill-opacity:1;stroke:none;"/>
  <path id="path177" d="  M 948.94737,445.57895   L 1008.6842,445.57895   L 949.05263,445.57895  z " style="fill:#ffffff;fill-rule:evenodd;fill-opacity:1;stroke:none;"/>
  <path id="path179" d="  M 948.94737,445.57895   L 1008.6842,445.57895   L 1008.6842,445.57895  z " style="fill:#ffffff;fill-rule:evenodd;fill-opacity:1;stroke:none;"/>
  <path id="path181" d="  M 902.31579,445.57895   L 949,445.57895   L 902.31579,445.57895  z " style="fill:#ffffff;fill-rule:evenodd;fill-opacity:1;stroke:none;"/>
  <path id="path183" d="  M 902.31579,445.57895   L 948.94737,445.57895   L 949,445.57895  z " style="fill:#ffffff;fill-rule:evenodd;fill-opacity:1;stroke:none;"/>
  <path id="path185" d="  M 949.05263,445.57895   L 1008.5789,445.73684   L 949.57895,445.73684  z " style="fill:#ffffff;fill-rule:evenodd;fill-opacity:1;stroke:none;"/>
  <path id="path187" d="  M 949.05263,445.57895   L 1008.6842,445.57895   L 1008.5789,445.73684  z " style="fill:#ffffff;fill-rule:evenodd;fill-opacity:1;stroke:none;"/>
  <path id="path189" d="  M 902.31579,445.57895   L 949.36842,445.73684   L 902.31579,445.73684  z " style="fill:#ffffff;fill-rule:evenodd;fill-opacity:1;stroke:none;"/>
  <path id="path191" d="  M 902.31579,445.57895   L 949,445.57895   L 949.36842,445.73684  z " style="fill:#ffffff;fill-rule:evenodd;fill-opacity:1;stroke:none;"/>
  <path id="path193" d="  M 949.57895,445.73684   L 1007.3684,447.42105   L 954,447.42105  z " style="fill:#ffffff;fill-rule:evenodd;fill-opacity:1;stroke:none;"/>
  <path id="path195" d="  M 949.57895,445.73684   L 1008.5789,445.73684   L 1007.3684,447.42105  z " style="fill:#ffffff;fill-rule:evenodd;fill-opacity:1;stroke:none;"/>
  <path id="path197" d="  M 902.31579,445.73684   L 954,447.42105   L 902.31579,447.42105  z " style="fill:#ffffff;fill-rule:evenodd;fill-opacity:1;stroke:none;"/>
  <path id="path199" d="  M 902.31579,445.73684   L 949.36842,445.73684   L 954,447.42105  z " style="fill:#ffffff;fill-rule:evenodd;fill-opacity:1;stroke:none;"/>
  <path id="path201" d="  M 954,447.42105   L 1006.1053,449.05263   L 958.52632,449.05263  z " style="fill:#ffffff;fill-rule:evenodd;fill-opacity:1;stroke:none;"/>
  <path id="path203" d="  M 954,447.42105   L 1007.3684,447.42105   L 1006.1053,449.05263  z " style="fill:#ffffff;fill-rule:evenodd;fill-opacity:1;stroke:none;"/>
  <path id="path205" d="  M 958.52632,449.05263   L 1005.7895,449.52632   L 959.52632,449.52632  z " style="fill:#ffffff;fill-rule:evenodd;fill-opacity:1;stroke:none;"/>
  <path id="path207" d="  M 958.52632,449.05263   L 1006.1053,449.05263   L 1005.7895,449.52632  z " style="fill:#ffffff;fill-rule:evenodd;fill-opacity:1;stroke:none;"/>
  <path id="path209" d="  M 902.31579,447.42105   L 959.52632,449.52632   L 902.31579,449.52632  z " style="fill:#ffffff;fill-rule:evenodd;fill-opacity:1;stroke:none;"/>
  <path id="path211" d="  M 902.31579,447.42105   L 954,447.42105   L 959.52632,449.52632  z " style="fill:#ffffff;fill-rule:evenodd;fill-opacity:1;stroke:none;"/>
  <path id="path213" d="  M 959.52632,449.52632   L 1005.5263,449.89474   L 960.52632,449.89474  z " style="fill:#ffffff;fill-rule:evenodd;fill-opacity:1;stroke:none;"/>
  <path id="path215" d="  M 959.52632,449.52632   L 1005.7895,449.52632   L 1005.5263,449.89474  z " style="fill:#ffffff;fill-rule:evenodd;fill-opacity:1;stroke:none;"/>
  <path id="path217" d="  M 902.31579,449.52632   L 960.36842,449.89474   L 902.31579,449.89474  z " style="fill:#ffffff;fill-rule:evenodd;fill-opacity:1;stroke:none;"/>
  <path id="path219" d="  M 902.31579,449.52632   L 959.52632,449.52632   L 960.36842,449.89474  z " style="fill:#ffffff;fill-rule:evenodd;fill-opacity:1;stroke:none;"/>
  <path id="path221" d="  M 960.52632,449.89474   L 1004.3684,451.47368   L 963.73684,451.47368  z " style="fill:#ffffff;fill-rule:evenodd;fill-opacity:1;stroke:none;"/>
  <path id="path223" d="  M 960.52632,449.89474   L 1005.5263,449.89474   L 1004.3684,451.47368  z " style="fill:#ffffff;fill-rule:evenodd;fill-opacity:1;stroke:none;"/>
  <path id="path225" d="  M 902.31579,449.89474   L 963.73684,451.47368   L 902.31579,451.47368  z " style="fill:#ffffff;fill-rule:evenodd;fill-opacity:1;stroke:none;"/>
  <path id="path227" d="  M 902.31579,449.89474   L 960.36842,449.89474   L 963.73684,451.47368  z " style="fill:#ffffff;fill-rule:evenodd;fill-opacity:1;stroke:none;"/>
  <path id="path229" d="  M 963.73684,451.47368   L 1002.7895,453.57895   L 968.26316,453.57895  z " style="fill:#ffffff;fill-rule:evenodd;fill-opacity:1;stroke:none;"/>
  <path id="path231" d="  M 963.73684,451.47368   L 1004.3684,451.47368   L 1002.7895,453.57895  z " style="fill:#ffffff;fill-rule:evenodd;fill-opacity:1;stroke:none;"/>
  <path id="path233" d="  M 968.26316,453.57895   L 1002.1579,454.47368   L 969.78947,454.47368  z " style="fill:#ffffff;fill-rule:evenodd;fill-opacity:1;stroke:none;"/>
  <path id="path235" d="  M 968.26316,453.57895   L 1002.7895,453.57895   L 1002.1579,454.47368  z " style="fill:#ffffff;fill-rule:evenodd;fill-opacity:1;stroke:none;"/>
  <path id="path237" d="  M 902.31579,451.47368   L 969.78947,454.47368   L 902.31579,454.47368  z " style="fill:#ffffff;fill-rule:evenodd;fill-opacity:1;stroke:none;"/>
  <path id="path239" d="  M 902.31579,451.47368   L 963.73684,451.47368   L 969.78947,454.47368  z " style="fill:#ffffff;fill-rule:evenodd;fill-opacity:1;stroke:none;"/>
  <path id="path241" d="  M 969.78947,454.47368   L 1001.7895,455   L 970.84211,455  z " style="fill:#ffffff;fill-rule:evenodd;fill-opacity:1;stroke:none;"/>
  <path id="path243" d="  M 969.78947,454.47368   L 1002.1579,454.47368   L 1001.7895,455  z " style="fill:#ffffff;fill-rule:evenodd;fill-opacity:1;stroke:none;"/>
  <path id="path245" d="  M 902.31579,454.47368   L 970.73684,455   L 902.31579,455  z " style="fill:#ffffff;fill-rule:evenodd;fill-opacity:1;stroke:none;"/>
  <path id="path247" d="  M 902.31579,454.47368   L 969.78947,454.47368   L 970.73684,455  z " style="fill:#ffffff;fill-rule:evenodd;fill-opacity:1;stroke:none;"/>
  <path id="path249" d="  M 970.84211,455   L 1001.0526,455.94737   L 972.42105,455.94737  z " style="fill:#ffffff;fill-rule:evenodd;fill-opacity:1;stroke:none;"/>
  <path id="path251" d="  M 970.84211,455   L 1001.7895,455   L 1001.0526,455.94737  z " style="fill:#ffffff;fill-rule:evenodd;fill-opacity:1;stroke:none;"/>
  <path id="path253" d="  M 902.31579,455   L 972.42105,455.94737   L 902.31579,455.94737  z " style="fill:#ffffff;fill-rule:evenodd;fill-opacity:1;stroke:none;"/>
  <path id="path255" d="  M 902.31579,455   L 970.73684,455   L 972.42105,455.94737  z " style="fill:#ffffff;fill-rule:evenodd;fill-opacity:1;stroke:none;"/>
  <path id="path257" d="  M 972.42105,455.94737   L 1000.1053,457.21053   L 974.68421,457.21053  z " style="fill:#ffffff;fill-rule:evenodd;fill-opacity:1;stroke:none;"/>
  <path id="path259" d="  M 972.42105,455.94737   L 1001.0526,455.94737   L 1000.1053,457.21053  z " style="fill:#ffffff;fill-rule:evenodd;fill-opacity:1;stroke:none;"/>
  <path id="path261" d="  M 974.68421,457.21053   L 999.52632,457.78947   L 975.68421,457.78947  z " style="fill:#ffffff;fill-rule:evenodd;fill-opacity:1;stroke:none;"/>
  <path id="path263" d="  M 974.68421,457.21053   L 1000.1053,457.21053   L 999.52632,457.78947  z " style="fill:#ffffff;fill-rule:evenodd;fill-opacity:1;stroke:none;"/>
  <path id="path265" d="  M 902.31579,455.94737   L 975.42105,457.78947   L 902.31579,457.78947  z " style="fill:#ffffff;fill-rule:evenodd;fill-opacity:1;stroke:none;"/>
  <path id="path267" d="  M 902.31579,455.94737   L 972.42105,455.94737   L 975.42105,457.78947  z " style="fill:#ffffff;fill-rule:evenodd;fill-opacity:1;stroke:none;"/>
  <path id="path269" d="  M 975.68421,457.78947   L 996.31579,460.89474   L 980.47368,460.89474  z " style="fill:#ffffff;fill-rule:evenodd;fill-opacity:1;stroke:none;"/>
  <path id="path271" d="  M 975.68421,457.78947   L 999.52632,457.78947   L 996.31579,460.89474  z " style="fill:#ffffff;fill-rule:evenodd;fill-opacity:1;stroke:none;"/>
  <path id="path273" d="  M 902.31579,457.78947   L 980.47368,460.89474   L 902.31579,460.89474  z " style="fill:#ffffff;fill-rule:evenodd;fill-opacity:1;stroke:none;"/>
  <path id="path275" d="  M 902.31579,457.78947   L 975.42105,457.78947   L 980.47368,460.89474  z " style="fill:#ffffff;fill-rule:evenodd;fill-opacity:1;stroke:none;"/>
  <path id="path277" d="  M 986.68421,465.42105   L 991.63158,465.42105   L 989.36842,467.63158  z " style="fill:#ffffff;fill-rule:evenodd;fill-opacity:1;stroke:none;"/>
  <path id="path279" d="  M 980.47368,460.89474   L 991.63158,465.42105   L 986.68421,465.42105  z " style="fill:#ffffff;fill-rule:evenodd;fill-opacity:1;stroke:none;"/>
  <path id="path281" d="  M 980.47368,460.89474   L 996.31579,460.89474   L 991.63158,465.42105  z " style="fill:#ffffff;fill-rule:evenodd;fill-opacity:1;stroke:none;"/>
  <path id="path283" d="  M 902.31579,460.89474   L 986.47368,465.42105   L 902.31579,465.42105  z " style="fill:#ffffff;fill-rule:evenodd;fill-opacity:1;stroke:none;"/>
  <path id="path285" d="  M 902.31579,460.89474   L 980.47368,460.89474   L 986.47368,465.42105  z " style="fill:#ffffff;fill-rule:evenodd;fill-opacity:1;stroke:none;"/>
  <path id="path287" d="  M 902.31579,465.42105   L 989.36842,467.63158   L 902.31579,467.63158  z " style="fill:#ffffff;fill-rule:evenodd;fill-opacity:1;stroke:none;"/>
  <path id="path289" d="  M 902.31579,465.42105   L 986.47368,465.42105   L 989.36842,467.63158  z " style="fill:#ffffff;fill-rule:evenodd;fill-opacity:1;stroke:none;"/>
  <path id="path291" d="  M 902.31579,467.63158   L 991.63158,469.63158   L 902.31579,469.63158  z " style="fill:#ffffff;fill-rule:evenodd;fill-opacity:1;stroke:none;"/>
  <path id="path293" d="  M 902.31579,467.63158   L 989.36842,467.63158   L 991.63158,469.63158  z " style="fill:#ffffff;fill-rule:evenodd;fill-opacity:1;stroke:none;"/>
  <path id="path295" d="  M 902.31579,469.63158   L 995.31579,473.05263   L 902.31579,473.05263  z " style="fill:#ffffff;fill-rule:evenodd;fill-opacity:1;stroke:none;"/>
  <path id="path297" d="  M 902.31579,469.63158   L 991.63158,469.63158   L 995.31579,473.05263  z " style="fill:#ffffff;fill-rule:evenodd;fill-opacity:1;stroke:none;"/>
  <path id="path299" d="  M 902.31579,473.05263   L 999.21053,477.21053   L 902.31579,477.21053  z " style="fill:#ffffff;fill-rule:evenodd;fill-opacity:1;stroke:none;"/>
  <path id="path301" d="  M 902.31579,473.05263   L 995.31579,473.05263   L 999.21053,477.21053  z " style="fill:#ffffff;fill-rule:evenodd;fill-opacity:1;stroke:none;"/>
  <path id="path303" d="  M 902.31579,477.21053   L 1003.4737,482.31579   L 902.31579,482.31579  z " style="fill:#ffffff;fill-rule:evenodd;fill-opacity:1;stroke:none;"/>
  <path id="path305" d="  M 902.31579,477.21053   L 999.21053,477.21053   L 1003.4737,482.31579  z " style="fill:#ffffff;fill-rule:evenodd;fill-opacity:1;stroke:none;"/>
  <path id="path307" d="  M 902.31579,482.31579   L 1006.3684,486.31579   L 902.31579,486.31579  z " style="fill:#ffffff;fill-rule:evenodd;fill-opacity:1;stroke:none;"/>
  <path id="path309" d="  M 902.31579,482.31579   L 1003.4737,482.31579   L 1006.3684,486.31579  z " style="fill:#ffffff;fill-rule:evenodd;fill-opacity:1;stroke:none;"/>
  <path id="path311" d="  M 902.31579,486.31579   L 1010.2105,492.42105   L 902.31579,492.42105  z " style="fill:#ffffff;fill-rule:evenodd;fill-opacity:1;stroke:none;"/>
  <path id="path313" d="  M 902.31579,486.31579   L 1006.3684,486.31579   L 1010.2105,492.42105  z " style="fill:#ffffff;fill-rule:evenodd;fill-opacity:1;stroke:none;"/>
  <path id="path315" d="  M 902.31579,492.42105   L 1012.4737,496.73684   L 902.31579,496.73684  z " style="fill:#ffffff;fill-rule:evenodd;fill-opacity:1;stroke:none;"/>
  <path id="path317" d="  M 902.31579,492.42105   L 1010.2105,492.42105   L 1012.4737,496.73684  z " style="fill:#ffffff;fill-rule:evenodd;fill-opacity:1;stroke:none;"/>
  <path id="path319" d="  M 902.31579,496.73684   L 1012.7368,497.26316   L 902.31579,497.26316  z " style="fill:#ffffff;fill-rule:evenodd;fill-opacity:1;stroke:none;"/>
  <path id="path321" d="  M 902.31579,496.73684   L 1012.4737,496.73684   L 1012.7368,497.26316  z " style="fill:#ffffff;fill-rule:evenodd;fill-opacity:1;stroke:none;"/>
  <path id="path323" d="  M 902.31579,497.26316   L 1013.1053,498.15789   L 915.21053,498.15789  z " style="fill:#ffffff;fill-rule:evenodd;fill-opacity:1;stroke:none;"/>
  <path id="path325" d="  M 902.31579,497.26316   L 1012.7368,497.26316   L 1013.1053,498.15789  z " style="fill:#ffffff;fill-rule:evenodd;fill-opacity:1;stroke:none;"/>
  <path id="path327" d="  M 915.21053,498.15789   L 1014.2632,500.73684   L 927.52632,500.73684  z " style="fill:#ffffff;fill-rule:evenodd;fill-opacity:1;stroke:none;"/>
  <path id="path329" d="  M 915.21053,498.15789   L 1013.1053,498.15789   L 1014.2632,500.73684  z " style="fill:#ffffff;fill-rule:evenodd;fill-opacity:1;stroke:none;"/>
  <path id="path331" d="  M 927.52632,500.73684   L 1014.8947,502.10526   L 931.15789,502.10526  z " style="fill:#ffffff;fill-rule:evenodd;fill-opacity:1;stroke:none;"/>
  <path id="path333" d="  M 927.52632,500.73684   L 1014.2632,500.73684   L 1014.8947,502.10526  z " style="fill:#ffffff;fill-rule:evenodd;fill-opacity:1;stroke:none;"/>
  <path id="path335" d="  M 931.15789,502.10526   L 1015.8947,504.78947   L 938.47368,504.78947  z " style="fill:#ffffff;fill-rule:evenodd;fill-opacity:1;stroke:none;"/>
  <path id="path337" d="  M 931.15789,502.10526   L 1014.8947,502.10526   L 1015.8947,504.78947  z " style="fill:#ffffff;fill-rule:evenodd;fill-opacity:1;stroke:none;"/>
  <path id="path339" d="  M 938.47368,504.78947   L 1016.9474,507.78947   L 943.78947,507.78947  z " style="fill:#ffffff;fill-rule:evenodd;fill-opacity:1;stroke:none;"/>
  <path id="path341" d="  M 938.47368,504.78947   L 1015.8947,504.78947   L 1016.9474,507.78947  z " style="fill:#ffffff;fill-rule:evenodd;fill-opacity:1;stroke:none;"/>
  <path id="path343" d="  M 943.78947,507.78947   L 1017.5789,510   L 947.57895,510  z " style="fill:#ffffff;fill-rule:evenodd;fill-opacity:1;stroke:none;"/>
  <path id="path345" d="  M 943.78947,507.78947   L 1016.9474,507.78947   L 1017.5789,510  z " style="fill:#ffffff;fill-rule:evenodd;fill-opacity:1;stroke:none;"/>
  <path id="path347" d="  M 947.57895,510   L 1018.2632,512.47368   L 950.52632,512.47368  z " style="fill:#ffffff;fill-rule:evenodd;fill-opacity:1;stroke:none;"/>
  <path id="path349" d="  M 947.57895,510   L 1017.5789,510   L 1018.2632,512.47368  z " style="fill:#ffffff;fill-rule:evenodd;fill-opacity:1;stroke:none;"/>
  <path id="path351" d="  M 950.52632,512.47368   L 1018.8947,515.68421   L 954.36842,515.68421  z " style="fill:#ffffff;fill-rule:evenodd;fill-opacity:1;stroke:none;"/>
  <path id="path353" d="  M 950.52632,512.47368   L 1018.2632,512.47368   L 1018.8947,515.68421  z " style="fill:#ffffff;fill-rule:evenodd;fill-opacity:1;stroke:none;"/>
  <path id="path355" d="  M 954.36842,515.68421   L 1019.6316,519.42105   L 957.21053,519.42105  z " style="fill:#ffffff;fill-rule:evenodd;fill-opacity:1;stroke:none;"/>
  <path id="path357" d="  M 954.36842,515.68421   L 1018.8947,515.68421   L 1019.6316,519.42105  z " style="fill:#ffffff;fill-rule:evenodd;fill-opacity:1;stroke:none;"/>
  <path id="path359" d="  M 957.21053,519.42105   L 1019.8421,521.26316   L 958.63158,521.26316  z " style="fill:#ffffff;fill-rule:evenodd;fill-opacity:1;stroke:none;"/>
  <path id="path361" d="  M 957.21053,519.42105   L 1019.6316,519.42105   L 1019.8421,521.26316  z " style="fill:#ffffff;fill-rule:evenodd;fill-opacity:1;stroke:none;"/>
  <path id="path363" d="  M 958.63158,521.26316   L 1020.2105,524.21053   L 959.89474,524.21053  z " style="fill:#ffffff;fill-rule:evenodd;fill-opacity:1;stroke:none;"/>
  <path id="path365" d="  M 958.63158,521.26316   L 1019.8421,521.26316   L 1020.2105,524.21053  z " style="fill:#ffffff;fill-rule:evenodd;fill-opacity:1;stroke:none;"/>
  <path id="path367" d="  M 959.89474,524.21053   L 1020.2632,526.15789   L 960.78947,526.15789  z " style="fill:#ffffff;fill-rule:evenodd;fill-opacity:1;stroke:none;"/>
  <path id="path369" d="  M 959.89474,524.21053   L 1020.2105,524.21053   L 1020.2632,526.15789  z " style="fill:#ffffff;fill-rule:evenodd;fill-opacity:1;stroke:none;"/>
  <path id="path371" d="  M 960.78947,526.15789   L 1020.4737,530.42105   L 961.36842,530.42105  z " style="fill:#ffffff;fill-rule:evenodd;fill-opacity:1;stroke:none;"/>
  <path id="path373" d="  M 960.78947,526.15789   L 1020.2632,526.15789   L 1020.4737,530.42105  z " style="fill:#ffffff;fill-rule:evenodd;fill-opacity:1;stroke:none;"/>
  <path id="path375" d="  M 961.36842,530.42105   L 1020.4737,530.42105   L 961.36842,530.42105  z " style="fill:#ffffff;fill-rule:evenodd;fill-opacity:1;stroke:none;"/>
  <path id="path377" d="  M 961.36842,530.42105   L 1020.4737,530.42105   L 1020.4737,530.42105  z " style="fill:#ffffff;fill-rule:evenodd;fill-opacity:1;stroke:none;"/>
  <path id="path379" d="  M 961.36842,530.42105   L 1020.3158,534.68421   L 960.78947,534.68421  z " style="fill:#ffffff;fill-rule:evenodd;fill-opacity:1;stroke:none;"/>
  <path id="path381" d="  M 961.36842,530.42105   L 1020.4737,530.42105   L 1020.3158,534.68421  z " style="fill:#ffffff;fill-rule:evenodd;fill-opacity:1;stroke:none;"/>
  <path id="path383" d="  M 960.78947,534.68421   L 1020.2632,536.05263   L 960.15789,536.05263  z " style="fill:#ffffff;fill-rule:evenodd;fill-opacity:1;stroke:none;"/>
  <path id="path385" d="  M 960.78947,534.68421   L 1020.3158,534.68421   L 1020.2632,536.05263  z " style="fill:#ffffff;fill-rule:evenodd;fill-opacity:1;stroke:none;"/>
  <path id="path387" d="  M 960.15789,536.05263   L 1019.8421,539.57895   L 958.63158,539.57895  z " style="fill:#ffffff;fill-rule:evenodd;fill-opacity:1;stroke:none;"/>
  <path id="path389" d="  M 960.15789,536.05263   L 1020.2632,536.05263   L 1019.8421,539.57895  z " style="fill:#ffffff;fill-rule:evenodd;fill-opacity:1;stroke:none;"/>
  <path id="path391" d="  M 958.63158,539.57895   L 1019.7368,540.84211   L 957.63158,540.84211  z " style="fill:#ffffff;fill-rule:evenodd;fill-opacity:1;stroke:none;"/>
  <path id="path393" d="  M 958.63158,539.57895   L 1019.8421,539.57895   L 1019.7368,540.84211  z " style="fill:#ffffff;fill-rule:evenodd;fill-opacity:1;stroke:none;"/>
  <path id="path395" d="  M 957.63158,540.84211   L 1018.8947,545.10526   L 954.36842,545.10526  z " style="fill:#ffffff;fill-rule:evenodd;fill-opacity:1;stroke:none;"/>
  <path id="path397" d="  M 957.63158,540.84211   L 1019.7368,540.84211   L 1018.8947,545.10526  z " style="fill:#ffffff;fill-rule:evenodd;fill-opacity:1;stroke:none;"/>
  <path id="path399" d="  M 954.36842,545.10526   L 1018.4211,547.78947   L 951.21053,547.78947  z " style="fill:#ffffff;fill-rule:evenodd;fill-opacity:1;stroke:none;"/>
  <path id="path401" d="  M 954.36842,545.10526   L 1018.8947,545.10526   L 1018.4211,547.78947  z " style="fill:#ffffff;fill-rule:evenodd;fill-opacity:1;stroke:none;"/>
  <path id="path403" d="  M 951.21053,547.78947   L 1017.5789,550.84211   L 947.57895,550.84211  z " style="fill:#ffffff;fill-rule:evenodd;fill-opacity:1;stroke:none;"/>
  <path id="path405" d="  M 951.21053,547.78947   L 1018.4211,547.78947   L 1017.5789,550.84211  z " style="fill:#ffffff;fill-rule:evenodd;fill-opacity:1;stroke:none;"/>
  <path id="path407" d="  M 947.57895,550.84211   L 1017.1053,552.47368   L 944.73684,552.47368  z " style="fill:#ffffff;fill-rule:evenodd;fill-opacity:1;stroke:none;"/>
  <path id="path409" d="  M 947.57895,550.84211   L 1017.5789,550.84211   L 1017.1053,552.47368  z " style="fill:#ffffff;fill-rule:evenodd;fill-opacity:1;stroke:none;"/>
  <path id="path411" d="  M 944.73684,552.47368   L 1015.8421,556.05263   L 938.47368,556.05263  z " style="fill:#ffffff;fill-rule:evenodd;fill-opacity:1;stroke:none;"/>
  <path id="path413" d="  M 944.73684,552.47368   L 1017.1053,552.47368   L 1015.8421,556.05263  z " style="fill:#ffffff;fill-rule:evenodd;fill-opacity:1;stroke:none;"/>
  <path id="path415" d="  M 938.47368,556.05263   L 1014.8947,558.73684   L 931.21053,558.73684  z " style="fill:#ffffff;fill-rule:evenodd;fill-opacity:1;stroke:none;"/>
  <path id="path417" d="  M 938.47368,556.05263   L 1015.8421,556.05263   L 1014.8947,558.73684  z " style="fill:#ffffff;fill-rule:evenodd;fill-opacity:1;stroke:none;"/>
  <path id="path419" d="  M 931.21053,558.73684   L 1014.3158,560.10526   L 927.52632,560.10526  z " style="fill:#ffffff;fill-rule:evenodd;fill-opacity:1;stroke:none;"/>
  <path id="path421" d="  M 931.21053,558.73684   L 1014.8947,558.73684   L 1014.3158,560.10526  z " style="fill:#ffffff;fill-rule:evenodd;fill-opacity:1;stroke:none;"/>
  <path id="path423" d="  M 927.52632,560.10526   L 1013.1579,562.68421   L 915.21053,562.68421  z " style="fill:#ffffff;fill-rule:evenodd;fill-opacity:1;stroke:none;"/>
  <path id="path425" d="  M 927.52632,560.10526   L 1014.3158,560.10526   L 1013.1579,562.68421  z " style="fill:#ffffff;fill-rule:evenodd;fill-opacity:1;stroke:none;"/>
  <path id="path427" d="  M 915.21053,562.68421   L 1012.7368,563.57895   L 902.31579,563.57895  z " style="fill:#ffffff;fill-rule:evenodd;fill-opacity:1;stroke:none;"/>
  <path id="path429" d="  M 915.21053,562.68421   L 1013.1579,562.68421   L 1012.7368,563.57895  z " style="fill:#ffffff;fill-rule:evenodd;fill-opacity:1;stroke:none;"/>
  <path id="path431" d="  M 902.31579,563.57895   L 1012.7368,563.57895   L 902.31579,563.57895  z " style="fill:#ffffff;fill-rule:evenodd;fill-opacity:1;stroke:none;"/>
  <path id="path433" d="  M 902.31579,563.57895   L 1012.7368,563.57895   L 1012.7368,563.57895  z " style="fill:#ffffff;fill-rule:evenodd;fill-opacity:1;stroke:none;"/>
  <path id="path435" d="  M 902.31579,563.57895   L 1010.4737,567.89474   L 902.31579,567.89474  z " style="fill:#ffffff;fill-rule:evenodd;fill-opacity:1;stroke:none;"/>
  <path id="path437" d="  M 902.31579,563.57895   L 1012.7368,563.57895   L 1010.4737,567.89474  z " style="fill:#ffffff;fill-rule:evenodd;fill-opacity:1;stroke:none;"/>
  <path id="path439" d="  M 902.31579,567.89474   L 1006.7368,574.05263   L 902.31579,574.05263  z " style="fill:#ffffff;fill-rule:evenodd;fill-opacity:1;stroke:none;"/>
  <path id="path441" d="  M 902.31579,567.89474   L 1010.4737,567.89474   L 1006.7368,574.05263  z " style="fill:#ffffff;fill-rule:evenodd;fill-opacity:1;stroke:none;"/>
  <path id="path443" d="  M 902.31579,574.05263   L 1003.8421,578.05263   L 902.31579,578.05263  z " style="fill:#ffffff;fill-rule:evenodd;fill-opacity:1;stroke:none;"/>
  <path id="path445" d="  M 902.31579,574.05263   L 1006.7368,574.05263   L 1003.8421,578.05263  z " style="fill:#ffffff;fill-rule:evenodd;fill-opacity:1;stroke:none;"/>
  <path id="path447" d="  M 902.31579,578.05263   L 995.73684,587.31579   L 902.31579,587.31579  z " style="fill:#ffffff;fill-rule:evenodd;fill-opacity:1;stroke:none;"/>
  <path id="path449" d="  M 902.31579,578.05263   L 1003.8421,578.05263   L 995.73684,587.31579  z " style="fill:#ffffff;fill-rule:evenodd;fill-opacity:1;stroke:none;"/>
  <path id="path451" d="  M 902.31579,587.31579   L 992.10526,590.84211   L 902.31579,590.84211  z " style="fill:#ffffff;fill-rule:evenodd;fill-opacity:1;stroke:none;"/>
  <path id="path453" d="  M 902.31579,587.31579   L 995.73684,587.31579   L 992.10526,590.84211  z " style="fill:#ffffff;fill-rule:evenodd;fill-opacity:1;stroke:none;"/>
  <path id="path455" d="  M 902.31579,590.84211   L 986.36842,595.63158   L 902.31579,595.63158  z " style="fill:#ffffff;fill-rule:evenodd;fill-opacity:1;stroke:none;"/>
  <path id="path457" d="  M 902.31579,590.84211   L 992.10526,590.84211   L 986.36842,595.63158  z " style="fill:#ffffff;fill-rule:evenodd;fill-opacity:1;stroke:none;"/>
  <path id="path459" d="  M 902.31579,595.63158   L 980.10526,600.21053   L 902.31579,600.21053  z " style="fill:#ffffff;fill-rule:evenodd;fill-opacity:1;stroke:none;"/>
  <path id="path461" d="  M 902.31579,595.63158   L 986.36842,595.63158   L 980.10526,600.21053  z " style="fill:#ffffff;fill-rule:evenodd;fill-opacity:1;stroke:none;"/>
  <path id="path463" d="  M 902.31579,600.21053   L 973.63158,604.26316   L 902.31579,604.26316  z " style="fill:#ffffff;fill-rule:evenodd;fill-opacity:1;stroke:none;"/>
  <path id="path465" d="  M 902.31579,600.21053   L 980.10526,600.21053   L 973.63158,604.26316  z " style="fill:#ffffff;fill-rule:evenodd;fill-opacity:1;stroke:none;"/>
  <path id="path467" d="  M 902.31579,604.26316   L 957.10526,612.36842   L 902.31579,612.36842  z " style="fill:#ffffff;fill-rule:evenodd;fill-opacity:1;stroke:none;"/>
  <path id="path469" d="  M 902.31579,604.26316   L 973.63158,604.26316   L 957.10526,612.36842  z " style="fill:#ffffff;fill-rule:evenodd;fill-opacity:1;stroke:none;"/>
  <path id="path471" d="  M 902.31579,612.36842   L 949.68421,615.10526   L 902.31579,615.10526  z " style="fill:#ffffff;fill-rule:evenodd;fill-opacity:1;stroke:none;"/>
  <path id="path473" d="  M 902.31579,612.36842   L 957.10526,612.36842   L 949.68421,615.10526  z " style="fill:#ffffff;fill-rule:evenodd;fill-opacity:1;stroke:none;"/>
  <path id="path475" d="  M 902.31579,615.10526   L 939.10526,618.21053   L 902.31579,618.21053  z " style="fill:#ffffff;fill-rule:evenodd;fill-opacity:1;stroke:none;"/>
  <path id="path477" d="  M 902.31579,615.10526   L 949.68421,615.10526   L 939.10526,618.21053  z " style="fill:#ffffff;fill-rule:evenodd;fill-opacity:1;stroke:none;"/>
  <path id="path479" d="  M 902.31579,618.21053   L 931.26316,619.94737   L 902.31579,619.94737  z " style="fill:#ffffff;fill-rule:evenodd;fill-opacity:1;stroke:none;"/>
  <path id="path481" d="  M 902.31579,618.21053   L 939.10526,618.21053   L 931.26316,619.94737  z " style="fill:#ffffff;fill-rule:evenodd;fill-opacity:1;stroke:none;"/>
  <path id="path483" d="  M 902.31579,619.94737   L 920,621.68421   L 902.31579,621.68421  z " style="fill:#ffffff;fill-rule:evenodd;fill-opacity:1;stroke:none;"/>
  <path id="path485" d="  M 902.31579,619.94737   L 931.26316,619.94737   L 920,621.68421  z " style="fill:#ffffff;fill-rule:evenodd;fill-opacity:1;stroke:none;"/>
  <path id="path487" d="  M 902.31579,622.36842   L 912,622.36842   L 902.31579,622.68421  z " style="fill:#ffffff;fill-rule:evenodd;fill-opacity:1;stroke:none;"/>
  <path id="path489" d="  M 902.31579,621.68421   L 912,622.36842   L 902.31579,622.36842  z " style="fill:#ffffff;fill-rule:evenodd;fill-opacity:1;stroke:none;"/>
  <path id="path491" d="  M 902.31579,621.68421   L 920,621.68421   L 912,622.36842  z " style="fill:#ffffff;fill-rule:evenodd;fill-opacity:1;stroke:none;"/>
  <path id="path493" d="  M 989.36842,467.63158   L 1000.1053,457.21053   L 1008.6842,445.57895   L 1015.1053,432.84211   L 1019.0526,419.31579   L 1020.4737,405.31579   L 1019.2105,391.31579   L 1015.3158,377.73684   L 1009,365   L 1000.5263,353.31579   L 990.15789,342.89474   L 978.15789,333.89474   L 964.68421,326.42105   L 950.15789,320.47368   L 934.68421,316.21053   L 918.63158,313.63158   L 902.31579,312.73684   L 902.31579,371.89474   L 915.21053,372.73684   L 927.52632,375.31579   L 938.47368,379.42105   L 947.57895,384.57895   L 954.36842,390.31579   L 958.63158,395.89474   L 960.78947,400.73684   L 961.36842,405   L 960.78947,409.26316   L 958.63158,414.15789   L 954.36842,419.73684   L 947.57895,425.42105   L 938.47368,430.63158   L 927.52632,434.68421   L 915.21053,437.26316   L 902.31579,438.15789   L 926.42105,440.05263   L 949.57895,445.73684   L 960.52632,449.89474   L 970.84211,455   L 980.47368,460.89474   L 989.36842,467.63158  z " style="fill:none;stroke:#ffffff;stroke-width:10px;stroke-linecap:round;stroke-linejoin:round;stroke-miterlimit:4;stroke-dasharray:none;stroke-opacity:1;"/>
  <path id="path497" d="  M 902.31579,622.68421   L 905.10526,622.63158   L 906.52632,622.57895   L 907.94737,622.57895   L 909.31579,622.52632   L 910.05263,622.47368   L 910.73684,622.47368   L 912.10526,622.36842   L 913.52632,622.26316   L 914.94737,622.15789   L 916.31579,622.05263   L 917.73684,621.89474   L 919.10526,621.78947   L 920.52632,621.57895   L 921.89474,621.42105   L 923.26316,621.26316   L 924.68421,621.05263   L 926.05263,620.84211   L 927.42105,620.63158   L 928.78947,620.36842   L 930.15789,620.10526   L 931.52632,619.84211   L 932.89474,619.57895   L 934.26316,619.31579   L 935.63158,619   L 936.94737,618.68421   L 938.31579,618.36842   L 939.63158,618.05263   L 941,617.68421   L 942.31579,617.31579   L 943.63158,616.94737   L 944.94737,616.57895   L 946.26316,616.21053   L 947.57895,615.78947   L 948.84211,615.36842   L 950.15789,614.94737   L 951.47368,614.47368   L 952.73684,614.05263   L 954,613.57895   L 955.26316,613.05263   L 956.52632,612.57895   L 957.78947,612.10526   L 959.05263,611.57895   L 960.26316,611.05263   L 961.47368,610.47368   L 962.73684,609.94737   L 963.94737,609.36842   L 965.15789,608.78947   L 966.31579,608.21053   L 967.52632,607.63158   L 968.68421,607   L 969.89474,606.36842   L 971.05263,605.73684   L 972.21053,605.10526   L 973.31579,604.47368   L 974.47368,603.78947   L 975.57895,603.10526   L 976.68421,602.42105   L 977.78947,601.73684   L 978.36842,601.36842   L 978.89474,601   L 979.42105,600.68421   L 980,600.31579   L 980.52632,599.94737   L 981.05263,599.57895   L 981.57895,599.21053   L 982.10526,598.84211   L 982.63158,598.42105   L 983.15789,598.05263   L 983.68421,597.68421   L 984.21053,597.31579   L 984.73684,596.89474   L 985.21053,596.52632   L 985.73684,596.15789   L 986.26316,595.73684   L 986.73684,595.31579   L 987.26316,594.94737   L 987.73684,594.52632   L 988.26316,594.15789   L 988.73684,593.73684   L 989.21053,593.31579   L 989.73684,592.89474   L 990.21053,592.47368   L 990.68421,592.05263   L 991.15789,591.63158   L 991.63158,591.21053   L 992.10526,590.78947   L 992.57895,590.36842   L 993.05263,589.94737   L 993.52632,589.52632   L 993.94737,589.05263   L 994.42105,588.63158   L 994.89474,588.21053   L 995.31579,587.73684   L 995.78947,587.31579   L 996.21053,586.84211   L 996.63158,586.42105   L 997.10526,585.94737   L 997.52632,585.47368   L 997.94737,585.05263   L 998.36842,584.57895   L 998.78947,584.10526   L 999.21053,583.63158   L 999.63158,583.15789   L 1000.0526,582.68421   L 1000.4737,582.21053   L 1000.8421,581.73684   L 1001.2632,581.26316   L 1001.6316,580.78947   L 1002.0526,580.31579   L 1002.4211,579.84211   L 1002.8421,579.36842   L 1003.2105,578.84211   L 1003.5789,578.36842   L 1003.9474,577.89474   L 1004.3158,577.36842   L 1004.7368,576.89474   L 1005.0526,576.36842   L 1005.4211,575.89474   L 1005.7895,575.36842   L 1006.1579,574.84211   L 1006.4737,574.36842   L 1006.8421,573.84211   L 1007.2105,573.31579   L 1007.5263,572.78947   L 1007.8421,572.31579   L 1008.2105,571.78947   L 1008.5263,571.26316   L 1008.8421,570.73684   L 1009.1579,570.21053   L 1009.4737,569.68421   L 1009.7895,569.15789   L 1010.1053,568.63158   L 1010.3684,568.10526   L 1010.6842,567.52632   L 1011,567   L 1011.2632,566.47368   L 1011.5789,565.94737   L 1011.8421,565.36842   L 1012.1053,564.84211   L 1012.4211,564.31579   L 1012.6842,563.73684   L 1012.9474,563.21053   L 1013.2105,562.63158   L 1013.4737,562.10526   L 1013.6842,561.52632   L 1013.9474,561   L 1014.2105,560.42105   L 1014.4211,559.84211   L 1014.6842,559.31579   L 1014.8947,558.73684   L 1015.1053,558.15789   L 1015.3158,557.57895   L 1015.5789,557.05263   L 1015.7895,556.47368   L 1016,555.89474   L 1016.1579,555.31579   L 1016.3684,554.73684   L 1016.5789,554.15789   L 1016.7895,553.57895   L 1016.9474,553   L 1017.1053,552.42105   L 1017.3158,551.84211   L 1017.4737,551.26316   L 1017.6316,550.68421   L 1017.7895,550.10526   L 1017.9474,549.52632   L 1018.1053,548.94737   L 1018.2632,548.36842   L 1018.4211,547.78947   L 1018.5263,547.15789   L 1018.6842,546.57895   L 1018.7895,546   L 1018.9474,545.42105   L 1019.0526,544.78947   L 1019.1579,544.21053   L 1019.2632,543.63158   L 1019.3684,543.05263   L 1019.4737,542.42105   L 1019.5789,541.84211   L 1019.6842,541.26316   L 1019.7368,540.63158   L 1019.8421,540.05263   L 1019.8947,539.42105   L 1020,538.84211   L 1020.0526,538.26316   L 1020.1053,537.63158   L 1020.1579,537.05263   L 1020.2105,536.42105   L 1020.2632,535.84211   L 1020.3158,535.26316   L 1020.3684,534.63158   L 1020.3684,534.05263   L 1020.4211,533.42105   L 1020.4211,532.84211   L 1020.4211,532.21053   L 1020.4737,531.63158   L 1020.4737,531   L 1020.4737,530.42105   L 1020.4737,529.78947   L 1020.4737,529.21053   L 1020.4211,528.63158   L 1020.4211,528   L 1020.4211,527.42105   L 1020.3684,526.78947   L 1020.3684,526.21053   L 1020.3158,525.57895   L 1020.2632,525   L 1020.2105,524.36842   L 1020.1579,523.78947   L 1020.1053,523.21053   L 1020.0526,522.57895   L 1020,522   L 1019.8947,521.36842   L 1019.8421,520.78947   L 1019.7368,520.21053   L 1019.6842,519.57895   L 1019.5789,519   L 1019.4737,518.42105   L 1019.3684,517.78947   L 1019.2632,517.21053   L 1019.1579,516.63158   L 1019.0526,516   L 1018.9474,515.42105   L 1018.7895,514.84211   L 1018.6842,514.26316   L 1018.5263,513.63158   L 1018.4211,513.05263   L 1018.2632,512.47368   L 1018.1053,511.89474   L 1017.9474,511.31579   L 1017.7895,510.73684   L 1017.6316,510.15789   L 1017.4737,509.57895   L 1017.3158,508.94737   L 1017.1053,508.36842   L 1016.9474,507.78947   L 1016.7895,507.21053   L 1016.5789,506.68421   L 1016.3684,506.10526   L 1016.1579,505.52632   L 1016,504.94737   L 1015.7895,504.36842   L 1015.5789,503.78947   L 1015.3158,503.21053   L 1015.1053,502.68421   L 1014.8947,502.10526   L 1014.6842,501.52632   L 1014.4211,500.94737   L 1014.2105,500.42105   L 1013.9474,499.84211   L 1013.6842,499.31579   L 1013.4211,498.73684   L 1013.2105,498.21053   L 1012.9474,497.63158   L 1012.6842,497.10526   L 1012.3684,496.52632   L 1012.1053,496   L 1011.8421,495.42105   L 1011.5789,494.89474   L 1011.2632,494.36842   L 1011,493.84211   L 1010.6842,493.26316   L 1010.3684,492.73684   L 1010.1053,492.21053   L 1009.7895,491.68421   L 1009.4737,491.15789   L 1009.1579,490.63158   L 1008.8421,490.10526   L 1008.5263,489.57895   L 1008.2105,489.05263   L 1007.8421,488.52632   L 1007.5263,488   L 1007.2105,487.52632   L 1006.8421,487   L 1006.4737,486.47368   L 1006.1579,485.94737   L 1005.7895,485.47368   L 1005.4211,484.94737   L 1005.0526,484.47368   L 1004.6842,483.94737   L 1004.3158,483.47368   L 1003.9474,482.94737   L 1003.5789,482.47368   L 1003.2105,482   L 1002.8421,481.47368   L 1002.4211,481   L 1002.0526,480.52632   L 1001.6316,480.05263   L 1001.2632,479.57895   L 1000.8421,479.10526   L 1000.4737,478.57895   L 1000.0526,478.15789   L 999.63158,477.68421   L 999.21053,477.21053   L 998.78947,476.73684   L 998.36842,476.26316   L 997.94737,475.78947   L 997.52632,475.36842   L 997.10526,474.89474   L 996.63158,474.42105   L 996.21053,474   L 995.78947,473.52632   L 995.31579,473.10526   L 994.89474,472.63158   L 994.42105,472.21053   L 993.94737,471.78947   L 993.52632,471.31579   L 993.05263,470.89474   L 992.57895,470.47368   L 992.10526,470.05263   L 991.63158,469.63158   L 991.15789,469.21053   L 990.68421,468.78947   L 990.21053,468.36842   L 989.73684,467.94737   L 989.21053,467.52632   L 988.73684,467.10526   L 988.26316,466.68421   L 987.73684,466.31579   L 987.26316,465.89474   L 986.73684,465.47368   L 986.26316,465.10526   L 985.73684,464.68421   L 985.21053,464.31579   L 984.73684,463.94737   L 984.21053,463.52632   L 983.68421,463.15789   L 983.15789,462.78947   L 982.63158,462.36842   L 982.10526,462   L 981.57895,461.63158   L 981.05263,461.26316   L 980.52632,460.89474   L 980,460.52632   L 979.42105,460.15789   L 978.89474,459.84211   L 978.36842,459.47368   L 977.78947,459.10526   L 976.68421,458.42105   L 975.57895,457.73684   L 974.47368,457.05263   L 973.31579,456.36842   L 972.21053,455.73684   L 971.05263,455.05263   L 969.89474,454.42105   L 968.68421,453.84211   L 967.52632,453.21053   L 966.31579,452.63158   L 965.15789,452.05263   L 963.94737,451.47368   L 962.73684,450.89474   L 961.47368,450.31579   L 960.26316,449.78947   L 959.05263,449.26316   L 957.78947,448.73684   L 956.52632,448.26316   L 955.26316,447.73684   L 954,447.26316   L 952.73684,446.78947   L 951.47368,446.36842   L 950.15789,445.89474   L 948.84211,445.47368   L 947.57895,445.05263   L 946.26316,444.63158   L 944.94737,444.26316   L 943.63158,443.84211   L 942.31579,443.47368   L 941,443.15789   L 939.63158,442.78947   L 938.31579,442.47368   L 936.94737,442.15789   L 935.63158,441.84211   L 934.26316,441.52632   L 932.89474,441.26316   L 931.52632,440.94737   L 930.15789,440.68421   L 928.78947,440.47368   L 927.42105,440.21053   L 926.05263,440   L 924.68421,439.78947   L 923.26316,439.57895   L 921.89474,439.42105   L 920.52632,439.26316   L 919.10526,439.10526   L 917.73684,438.94737   L 916.31579,438.78947   L 914.94737,438.68421   L 913.52632,438.57895   L 912.10526,438.47368   L 910.73684,438.36842   L 909.31579,438.31579   L 907.94737,438.26316   L 906.52632,438.21053   L 905.10526,438.21053   L 903.68421,438.15789   L 902.31579,438.15789  " style="fill:none;stroke:#000000;stroke-width:10px;stroke-linecap:round;stroke-linejoin:round;stroke-miterlimit:4;stroke-dasharray:none;stroke-opacity:1;"/>
  <path id="path499" d="  M 902.31579,497.26316   L 903.10526,497.26316   L 903.94737,497.31579   L 904.73684,497.31579   L 905.57895,497.31579   L 905.94737,497.36842   L 906.36842,497.36842   L 906.78947,497.36842   L 907.15789,497.42105   L 907.57895,497.42105   L 908,497.42105   L 908.42105,497.47368   L 908.78947,497.47368   L 909.21053,497.52632   L 909.63158,497.52632   L 910,497.57895   L 910.42105,497.63158   L 910.84211,497.63158   L 911.21053,497.68421   L 911.63158,497.73684   L 912.05263,497.78947   L 912.42105,497.78947   L 912.84211,497.84211   L 913.21053,497.89474   L 913.63158,497.94737   L 914.05263,498   L 914.42105,498.05263   L 914.84211,498.10526   L 915.21053,498.15789   L 915.63158,498.21053   L 916,498.26316   L 916.42105,498.31579   L 916.78947,498.36842   L 917.21053,498.47368   L 917.57895,498.52632   L 918,498.57895   L 918.36842,498.63158   L 918.78947,498.73684   L 919.15789,498.78947   L 919.57895,498.84211   L 919.94737,498.94737   L 920.31579,499   L 920.73684,499.10526   L 921.10526,499.15789   L 921.47368,499.26316   L 921.89474,499.31579   L 922.26316,499.42105   L 922.63158,499.47368   L 923,499.57895   L 923.42105,499.68421   L 923.78947,499.73684   L 924.15789,499.84211   L 924.52632,499.94737   L 924.89474,500.05263   L 925.26316,500.15789   L 925.63158,500.21053   L 926.05263,500.31579   L 926.42105,500.42105   L 926.78947,500.52632   L 927.15789,500.63158   L 927.52632,500.73684   L 927.89474,500.84211   L 928.21053,500.94737   L 928.57895,501.05263   L 928.94737,501.15789   L 929.31579,501.26316   L 929.68421,501.42105   L 930.05263,501.52632   L 930.42105,501.63158   L 930.73684,501.73684   L 931.10526,501.84211   L 931.47368,502   L 931.78947,502.10526   L 932.15789,502.21053   L 932.52632,502.36842   L 932.84211,502.47368   L 933.21053,502.63158   L 933.52632,502.73684   L 933.89474,502.84211   L 934.21053,503   L 934.57895,503.10526   L 934.89474,503.26316   L 935.21053,503.42105   L 935.57895,503.52632   L 935.89474,503.68421   L 936.21053,503.78947   L 936.57895,503.94737   L 936.89474,504.10526   L 937.21053,504.21053   L 937.52632,504.36842   L 937.84211,504.52632   L 938.15789,504.68421   L 938.47368,504.78947   L 938.78947,504.94737   L 939.10526,505.10526   L 939.42105,505.26316   L 939.73684,505.42105   L 940.05263,505.57895   L 940.36842,505.73684   L 940.68421,505.84211   L 940.94737,506   L 941.26316,506.15789   L 941.57895,506.31579   L 941.84211,506.47368   L 942.15789,506.63158   L 942.42105,506.78947   L 942.73684,506.94737   L 943,507.10526   L 943.31579,507.31579   L 943.57895,507.47368   L 943.89474,507.63158   L 944.15789,507.78947   L 944.42105,507.94737   L 944.68421,508.10526   L 945,508.26316   L 945.26316,508.47368   L 945.52632,508.63158   L 945.78947,508.78947   L 946.05263,508.94737   L 946.31579,509.10526   L 946.57895,509.31579   L 946.84211,509.47368   L 947.10526,509.63158   L 947.31579,509.84211   L 947.57895,510   L 947.84211,510.15789   L 948.10526,510.31579   L 948.31579,510.52632   L 948.57895,510.68421   L 948.78947,510.84211   L 949.05263,511.05263   L 949.26316,511.21053   L 949.52632,511.42105   L 949.73684,511.57895   L 949.94737,511.73684   L 950.21053,511.94737   L 950.42105,512.10526   L 950.63158,512.26316   L 950.84211,512.47368   L 951.05263,512.63158   L 951.26316,512.84211   L 951.47368,513   L 951.68421,513.15789   L 951.89474,513.36842   L 952.10526,513.52632   L 952.31579,513.73684   L 952.52632,513.89474   L 952.68421,514.10526   L 952.89474,514.26316   L 953.10526,514.42105   L 953.26316,514.63158   L 953.47368,514.78947   L 953.63158,515   L 953.84211,515.15789   L 954,515.36842   L 954.15789,515.52632   L 954.36842,515.68421   L 954.52632,515.89474   L 954.68421,516.05263   L 954.84211,516.26316   L 955,516.42105   L 955.15789,516.63158   L 955.31579,516.78947   L 955.47368,516.94737   L 955.63158,517.15789   L 955.78947,517.31579   L 955.94737,517.47368   L 956.10526,517.68421   L 956.26316,517.84211   L 956.36842,518.05263   L 956.52632,518.21053   L 956.63158,518.36842   L 956.78947,518.57895   L 956.94737,518.73684   L 957.05263,518.89474   L 957.15789,519.05263   L 957.31579,519.26316   L 957.42105,519.42105   L 957.52632,519.57895   L 957.68421,519.73684   L 957.78947,519.94737   L 957.89474,520.10526   L 958,520.26316   L 958.10526,520.42105   L 958.21053,520.63158   L 958.31579,520.78947   L 958.42105,520.94737   L 958.52632,521.10526   L 958.63158,521.26316   L 958.73684,521.42105   L 958.84211,521.57895   L 958.89474,521.78947   L 959,521.94737   L 959.10526,522.10526   L 959.15789,522.26316   L 959.26316,522.42105   L 959.36842,522.57895   L 959.42105,522.73684   L 959.52632,522.89474   L 959.57895,523.05263   L 959.63158,523.21053   L 959.73684,523.36842   L 959.78947,523.52632   L 959.89474,523.68421   L 959.94737,523.84211   L 960,523.94737   L 960.05263,524.10526   L 960.10526,524.26316   L 960.21053,524.42105   L 960.26316,524.57895   L 960.31579,524.73684   L 960.36842,524.84211   L 960.42105,525   L 960.47368,525.15789   L 960.52632,525.31579   L 960.57895,525.47368   L 960.57895,525.57895   L 960.63158,525.73684   L 960.68421,525.89474   L 960.73684,526   L 960.78947,526.15789   L 960.78947,526.31579   L 960.84211,526.42105   L 960.89474,526.57895   L 960.94737,526.73684   L 960.94737,526.84211   L 961,527   L 961,527.15789   L 961.05263,527.26316   L 961.05263,527.42105   L 961.10526,527.52632   L 961.10526,527.68421   L 961.15789,527.78947   L 961.21053,528.05263   L 961.21053,528.31579   L 961.26316,528.57895   L 961.31579,528.84211   L 961.31579,529.10526   L 961.36842,529.36842   L 961.36842,529.63158   L 961.36842,529.89474   L 961.36842,530.15789   L 961.36842,530.42105   L 961.36842,530.68421   L 961.36842,530.94737   L 961.36842,531.21053   L 961.36842,531.47368   L 961.31579,531.68421   L 961.31579,531.94737   L 961.26316,532.21053   L 961.21053,532.47368   L 961.21053,532.73684   L 961.15789,533.05263   L 961.10526,533.15789   L 961.10526,533.31579   L 961.05263,533.42105   L 961.05263,533.57895   L 961,533.68421   L 961,533.84211   L 960.94737,534   L 960.94737,534.10526   L 960.89474,534.26316   L 960.84211,534.36842   L 960.78947,534.52632   L 960.78947,534.68421   L 960.73684,534.78947   L 960.68421,534.94737   L 960.63158,535.10526   L 960.57895,535.26316   L 960.57895,535.36842   L 960.52632,535.52632   L 960.47368,535.68421   L 960.42105,535.84211   L 960.36842,535.94737   L 960.31579,536.10526   L 960.26316,536.26316   L 960.21053,536.42105   L 960.10526,536.57895   L 960.05263,536.73684   L 960,536.84211   L 959.94737,537   L 959.89474,537.15789   L 959.78947,537.31579   L 959.73684,537.47368   L 959.68421,537.63158   L 959.57895,537.78947   L 959.52632,537.94737   L 959.42105,538.10526   L 959.36842,538.26316   L 959.26316,538.42105   L 959.15789,538.57895   L 959.10526,538.73684   L 959,538.89474   L 958.89474,539.05263   L 958.84211,539.21053   L 958.73684,539.42105   L 958.63158,539.57895   L 958.52632,539.73684   L 958.42105,539.89474   L 958.31579,540.05263   L 958.21053,540.21053   L 958.10526,540.36842   L 958,540.57895   L 957.89474,540.73684   L 957.78947,540.89474   L 957.68421,541.05263   L 957.52632,541.26316   L 957.42105,541.42105   L 957.31579,541.57895   L 957.15789,541.73684   L 957.05263,541.94737   L 956.94737,542.10526   L 956.78947,542.26316   L 956.68421,542.47368   L 956.52632,542.63158   L 956.36842,542.78947   L 956.26316,543   L 956.10526,543.15789   L 955.94737,543.31579   L 955.78947,543.52632   L 955.63158,543.68421   L 955.47368,543.89474   L 955.31579,544.05263   L 955.15789,544.21053   L 955,544.42105   L 954.84211,544.57895   L 954.68421,544.78947   L 954.52632,544.94737   L 954.36842,545.10526   L 954.15789,545.31579   L 954,545.47368   L 953.84211,545.68421   L 953.63158,545.84211   L 953.47368,546.05263   L 953.26316,546.21053   L 953.10526,546.36842   L 952.89474,546.57895   L 952.68421,546.73684   L 952.52632,546.94737   L 952.31579,547.10526   L 952.10526,547.31579   L 951.89474,547.47368   L 951.68421,547.63158   L 951.47368,547.84211   L 951.26316,548   L 951.05263,548.21053   L 950.84211,548.36842   L 950.63158,548.52632   L 950.42105,548.73684   L 950.21053,548.89474   L 949.94737,549.10526   L 949.73684,549.26316   L 949.52632,549.42105   L 949.26316,549.63158   L 949.05263,549.78947   L 948.78947,549.94737   L 948.57895,550.15789   L 948.31579,550.31579   L 948.10526,550.47368   L 947.84211,550.68421   L 947.57895,550.84211   L 947.31579,551   L 947.10526,551.21053   L 946.84211,551.36842   L 946.57895,551.52632   L 946.31579,551.68421   L 946.05263,551.89474   L 945.78947,552.05263   L 945.52632,552.21053   L 945.26316,552.36842   L 945,552.57895   L 944.68421,552.73684   L 944.42105,552.89474   L 944.15789,553.05263   L 943.89474,553.21053   L 943.57895,553.36842   L 943.31579,553.52632   L 943,553.68421   L 942.73684,553.84211   L 942.42105,554.05263   L 942.15789,554.21053   L 941.84211,554.36842   L 941.57895,554.52632   L 941.26316,554.68421   L 940.94737,554.84211   L 940.68421,554.94737   L 940.36842,555.10526   L 940.05263,555.26316   L 939.73684,555.42105   L 939.42105,555.57895   L 939.10526,555.73684   L 938.78947,555.89474   L 938.47368,556.05263   L 938.15789,556.15789   L 937.84211,556.31579   L 937.52632,556.47368   L 937.21053,556.63158   L 936.89474,556.73684   L 936.57895,556.89474   L 936.21053,557.05263   L 935.89474,557.15789   L 935.57895,557.31579   L 935.21053,557.42105   L 934.89474,557.57895   L 934.57895,557.68421   L 934.21053,557.84211   L 933.89474,557.94737   L 933.52632,558.10526   L 933.21053,558.21053   L 932.84211,558.36842   L 932.52632,558.47368   L 932.15789,558.63158   L 931.78947,558.73684   L 931.47368,558.84211   L 931.10526,558.94737   L 930.73684,559.10526   L 930.42105,559.21053   L 930.05263,559.31579   L 929.68421,559.42105   L 929.31579,559.57895   L 928.94737,559.68421   L 928.57895,559.78947   L 928.26316,559.89474   L 927.89474,560   L 927.52632,560.10526   L 927.15789,560.21053   L 926.78947,560.31579   L 926.42105,560.42105   L 926.05263,560.52632   L 925.63158,560.63158   L 925.26316,560.68421   L 924.89474,560.78947   L 924.52632,560.89474   L 924.15789,561   L 923.78947,561.05263   L 923.42105,561.15789   L 923,561.26316   L 922.63158,561.31579   L 922.26316,561.42105   L 921.89474,561.52632   L 921.47368,561.57895   L 921.10526,561.68421   L 920.73684,561.73684   L 920.31579,561.84211   L 919.94737,561.89474   L 919.57895,562   L 919.15789,562.05263   L 918.78947,562.10526   L 918.36842,562.21053   L 918,562.26316   L 917.57895,562.31579   L 917.21053,562.36842   L 916.78947,562.42105   L 916.42105,562.52632   L 916,562.57895   L 915.63158,562.63158   L 915.21053,562.68421   L 914.84211,562.73684   L 914.42105,562.78947   L 914.05263,562.84211   L 913.63158,562.89474   L 913.21053,562.94737   L 912.84211,563   L 912.42105,563.05263   L 912.05263,563.05263   L 911.63158,563.10526   L 911.21053,563.15789   L 910.84211,563.21053   L 910.42105,563.21053   L 910,563.26316   L 909.63158,563.26316   L 909.21053,563.31579   L 908.78947,563.36842   L 908.42105,563.36842   L 908,563.42105   L 907.57895,563.42105   L 907.15789,563.42105   L 906.78947,563.47368   L 906.36842,563.47368   L 905.94737,563.47368   L 905.57895,563.52632   L 905.15789,563.52632   L 904.73684,563.52632   L 903.94737,563.52632   L 903.10526,563.52632   L 902.31579,563.57895  " style="fill:none;stroke:#000000;stroke-width:10px;stroke-linecap:round;stroke-linejoin:round;stroke-miterlimit:4;stroke-dasharray:none;stroke-opacity:1;"/>
  <path id="path501" d="  M 989.36842,467.63158   L 989.57895,467.42105   L 989.78947,467.26316   L 990,467.10526   L 990.21053,466.94737   L 990.42105,466.78947   L 990.63158,466.63158   L 990.78947,466.47368   L 991,466.31579   L 991.36842,466   L 991.73684,465.68421   L 992.10526,465.42105   L 992.47368,465.10526   L 992.78947,464.78947   L 993.15789,464.47368   L 993.47368,464.15789   L 993.84211,463.84211   L 994.52632,463.21053   L 995.15789,462.57895   L 995.84211,461.94737   L 996.47368,461.26316   L 997.10526,460.63158   L 997.73684,459.94737   L 998.31579,459.26316   L 998.94737,458.57895   L 999.52632,457.89474   L 1000.1053,457.21053   L 1000.7368,456.52632   L 1001.3158,455.78947   L 1001.8947,455.10526   L 1002.4211,454.42105   L 1003,453.68421   L 1003.5789,453   L 1004.1053,452.26316   L 1004.6316,451.52632   L 1005.1579,450.78947   L 1005.6842,450.05263   L 1006.2105,449.31579   L 1006.7368,448.57895   L 1007.2632,447.84211   L 1007.7368,447.10526   L 1008.2105,446.36842   L 1008.6842,445.57895   L 1009.1579,444.84211   L 1009.6316,444.05263   L 1010.0526,443.26316   L 1010.5263,442.47368   L 1010.9474,441.73684   L 1011.3684,440.94737   L 1011.7895,440.15789   L 1012.1579,439.31579   L 1012.5789,438.52632   L 1012.9474,437.73684   L 1013.3158,436.94737   L 1013.6842,436.10526   L 1014.0526,435.31579   L 1014.4211,434.47368   L 1014.7368,433.68421   L 1015.1053,432.84211   L 1015.4211,432.05263   L 1015.7368,431.21053   L 1016,430.36842   L 1016.3158,429.52632   L 1016.5789,428.68421   L 1016.8947,427.84211   L 1017.1579,427   L 1017.3684,426.15789   L 1017.6316,425.31579   L 1017.8947,424.47368   L 1018.1053,423.63158   L 1018.3158,422.73684   L 1018.5263,421.89474   L 1018.7368,421.05263   L 1018.8947,420.15789   L 1019.0526,419.31579   L 1019.2105,418.47368   L 1019.3684,417.57895   L 1019.5263,416.73684   L 1019.6842,415.84211   L 1019.7895,414.94737   L 1019.8947,414.10526   L 1020,413.21053   L 1020.1053,412.36842   L 1020.1579,411.47368   L 1020.2632,410.57895   L 1020.3158,409.73684   L 1020.3684,408.84211   L 1020.4211,407.94737   L 1020.4211,407.10526   L 1020.4737,406.21053   L 1020.4737,405.31579   L 1020.4737,404.42105   L 1020.4737,403.57895   L 1020.4211,402.68421   L 1020.3684,401.78947   L 1020.3684,400.94737   L 1020.3158,400.05263   L 1020.2105,399.15789   L 1020.1579,398.31579   L 1020.0526,397.42105   L 1020,396.52632   L 1019.8947,395.68421   L 1019.7368,394.78947   L 1019.6316,393.94737   L 1019.4737,393.05263   L 1019.3684,392.21053   L 1019.2105,391.31579   L 1019,390.47368   L 1018.8421,389.57895   L 1018.6316,388.73684   L 1018.4737,387.89474   L 1018.2632,387   L 1018.0526,386.15789   L 1017.7895,385.31579   L 1017.5789,384.47368   L 1017.3158,383.63158   L 1017.0526,382.78947   L 1016.7895,381.94737   L 1016.5263,381.10526   L 1016.2105,380.26316   L 1015.9474,379.42105   L 1015.6316,378.57895   L 1015.3158,377.73684   L 1015,376.94737   L 1014.6316,376.10526   L 1014.3158,375.31579   L 1013.9474,374.47368   L 1013.5789,373.68421   L 1013.2105,372.84211   L 1012.8421,372.05263   L 1012.4737,371.26316   L 1012.0526,370.47368   L 1011.6316,369.68421   L 1011.2105,368.89474   L 1010.7895,368.10526   L 1010.3684,367.31579   L 1009.9474,366.52632   L 1009.4737,365.73684   L 1009,365   L 1008.5263,364.21053   L 1008.0526,363.47368   L 1007.5789,362.73684   L 1007.1053,361.94737   L 1006.5789,361.21053   L 1006.1053,360.47368   L 1005.5789,359.73684   L 1005.0526,359   L 1004.5263,358.26316   L 1003.9474,357.57895   L 1003.4211,356.84211   L 1002.8421,356.10526   L 1002.2632,355.42105   L 1001.7368,354.68421   L 1001.1579,354   L 1000.5263,353.31579   L 999.94737,352.63158   L 999.36842,351.94737   L 998.73684,351.26316   L 998.10526,350.57895   L 997.47368,349.94737   L 996.84211,349.26316   L 996.21053,348.57895   L 995.57895,347.94737   L 994.94737,347.31579   L 994.26316,346.63158   L 993.57895,346   L 992.94737,345.36842   L 992.26316,344.73684   L 991.57895,344.15789   L 990.84211,343.52632   L 990.15789,342.89474   L 989.47368,342.31579   L 988.73684,341.73684   L 988.05263,341.10526   L 987.31579,340.52632   L 986.57895,339.94737   L 985.84211,339.36842   L 985.10526,338.78947   L 984.31579,338.21053   L 983.57895,337.68421   L 982.84211,337.10526   L 982.05263,336.57895   L 981.26316,336.05263   L 980.52632,335.47368   L 979.73684,334.94737   L 978.94737,334.42105   L 978.15789,333.89474   L 977.31579,333.42105   L 976.52632,332.89474   L 975.73684,332.42105   L 974.89474,331.89474   L 974.05263,331.42105   L 973.26316,330.94737   L 972.42105,330.47368   L 971.57895,330   L 970.73684,329.52632   L 969.89474,329.05263   L 969.05263,328.57895   L 968.15789,328.15789   L 967.31579,327.68421   L 966.47368,327.26316   L 965.57895,326.84211   L 964.68421,326.42105   L 963.84211,326   L 962.94737,325.57895   L 962.05263,325.21053   L 961.15789,324.78947   L 960.26316,324.42105   L 959.36842,324   L 958.47368,323.63158   L 957.52632,323.26316   L 956.63158,322.89474   L 955.73684,322.52632   L 954.78947,322.15789   L 953.89474,321.84211   L 952.94737,321.47368   L 952,321.15789   L 951.05263,320.84211   L 950.15789,320.47368   L 949.21053,320.15789   L 948.26316,319.89474   L 947.31579,319.57895   L 946.36842,319.26316   L 945.36842,319   L 944.42105,318.68421   L 943.47368,318.42105   L 942.52632,318.15789   L 941.52632,317.89474   L 940.57895,317.63158   L 939.57895,317.36842   L 938.63158,317.10526   L 937.63158,316.89474   L 936.68421,316.68421   L 935.68421,316.42105   L 934.68421,316.21053   L 933.68421,316   L 932.68421,315.78947   L 931.73684,315.57895   L 930.73684,315.42105   L 929.73684,315.21053   L 928.73684,315.05263   L 927.73684,314.89474   L 926.73684,314.68421   L 925.73684,314.52632   L 924.73684,314.42105   L 923.68421,314.26316   L 922.68421,314.10526   L 921.68421,314   L 920.68421,313.84211   L 919.68421,313.73684   L 918.63158,313.63158   L 917.63158,313.52632   L 916.63158,313.42105   L 915.57895,313.31579   L 914.57895,313.26316   L 913.57895,313.15789   L 912.52632,313.10526   L 911.52632,313.05263   L 910.47368,312.94737   L 909.47368,312.89474   L 908.42105,312.89474   L 907.42105,312.84211   L 906.42105,312.78947   L 905.36842,312.78947   L 904.36842,312.78947   L 902.31579,312.73684  " style="fill:none;stroke:#000000;stroke-width:10px;stroke-linecap:round;stroke-linejoin:round;stroke-miterlimit:4;stroke-dasharray:none;stroke-opacity:1;"/>
  <path id="path503" d="  M 902.31579,371.89474   L 903.10526,371.89474   L 903.94737,371.89474   L 904.73684,371.89474   L 905.57895,371.94737   L 905.94737,371.94737   L 906.36842,371.94737   L 906.78947,372   L 907.15789,372   L 907.57895,372   L 908,372.05263   L 908.42105,372.05263   L 908.78947,372.10526   L 909.21053,372.10526   L 909.63158,372.15789   L 910,372.15789   L 910.42105,372.21053   L 910.84211,372.26316   L 911.21053,372.26316   L 911.63158,372.31579   L 912.05263,372.36842   L 912.42105,372.42105   L 912.84211,372.47368   L 913.21053,372.47368   L 913.63158,372.52632   L 914.05263,372.57895   L 914.42105,372.63158   L 914.84211,372.68421   L 915.21053,372.73684   L 915.63158,372.78947   L 916,372.89474   L 916.42105,372.94737   L 916.78947,373   L 917.21053,373.05263   L 917.57895,373.10526   L 918,373.15789   L 918.36842,373.26316   L 918.78947,373.31579   L 919.15789,373.36842   L 919.57895,373.47368   L 919.94737,373.52632   L 920.31579,373.63158   L 920.73684,373.68421   L 921.10526,373.78947   L 921.47368,373.84211   L 921.89474,373.94737   L 922.26316,374   L 922.63158,374.10526   L 923,374.15789   L 923.42105,374.26316   L 923.78947,374.36842   L 924.15789,374.47368   L 924.52632,374.52632   L 924.89474,374.63158   L 925.26316,374.73684   L 925.63158,374.84211   L 926.05263,374.94737   L 926.42105,375.05263   L 926.78947,375.10526   L 927.15789,375.21053   L 927.52632,375.31579   L 927.89474,375.42105   L 928.21053,375.52632   L 928.57895,375.68421   L 928.94737,375.78947   L 929.31579,375.89474   L 929.68421,376   L 930.05263,376.10526   L 930.42105,376.21053   L 930.73684,376.36842   L 931.10526,376.47368   L 931.47368,376.57895   L 931.78947,376.68421   L 932.15789,376.84211   L 932.52632,376.94737   L 932.84211,377.05263   L 933.21053,377.21053   L 933.52632,377.31579   L 933.89474,377.47368   L 934.21053,377.57895   L 934.57895,377.73684   L 934.89474,377.84211   L 935.21053,378   L 935.57895,378.10526   L 935.89474,378.26316   L 936.21053,378.42105   L 936.57895,378.52632   L 936.89474,378.68421   L 937.21053,378.84211   L 937.52632,378.94737   L 937.84211,379.10526   L 938.15789,379.26316   L 938.47368,379.42105   L 938.78947,379.57895   L 939.10526,379.68421   L 939.42105,379.84211   L 939.73684,380   L 940.05263,380.15789   L 940.36842,380.31579   L 940.68421,380.47368   L 940.94737,380.63158   L 941.26316,380.78947   L 941.57895,380.94737   L 941.84211,381.10526   L 942.15789,381.26316   L 942.42105,381.42105   L 942.73684,381.57895   L 943,381.73684   L 943.31579,381.89474   L 943.57895,382.05263   L 943.89474,382.21053   L 944.15789,382.36842   L 944.42105,382.52632   L 944.68421,382.73684   L 945,382.89474   L 945.26316,383.05263   L 945.52632,383.21053   L 945.78947,383.36842   L 946.05263,383.57895   L 946.31579,383.73684   L 946.57895,383.89474   L 946.84211,384.05263   L 947.10526,384.26316   L 947.31579,384.42105   L 947.57895,384.57895   L 947.84211,384.73684   L 948.10526,384.94737   L 948.31579,385.10526   L 948.57895,385.26316   L 948.78947,385.47368   L 949.05263,385.63158   L 949.26316,385.84211   L 949.52632,386   L 949.73684,386.15789   L 949.94737,386.36842   L 950.21053,386.52632   L 950.42105,386.68421   L 950.63158,386.89474   L 950.84211,387.05263   L 951.05263,387.26316   L 951.26316,387.42105   L 951.47368,387.57895   L 951.68421,387.78947   L 951.89474,387.94737   L 952.10526,388.15789   L 952.31579,388.31579   L 952.52632,388.52632   L 952.68421,388.68421   L 952.89474,388.84211   L 953.10526,389.05263   L 953.26316,389.21053   L 953.47368,389.42105   L 953.63158,389.57895   L 953.84211,389.78947   L 954,389.94737   L 954.15789,390.10526   L 954.36842,390.31579   L 954.52632,390.47368   L 954.68421,390.68421   L 954.84211,390.84211   L 955,391   L 955.15789,391.21053   L 955.31579,391.36842   L 955.47368,391.57895   L 955.63158,391.73684   L 955.78947,391.89474   L 955.94737,392.10526   L 956.10526,392.26316   L 956.26316,392.47368   L 956.36842,392.63158   L 956.52632,392.78947   L 956.63158,393   L 956.78947,393.15789   L 956.94737,393.31579   L 957.05263,393.47368   L 957.15789,393.68421   L 957.31579,393.84211   L 957.42105,394   L 957.52632,394.21053   L 957.68421,394.36842   L 957.78947,394.52632   L 957.89474,394.68421   L 958,394.89474   L 958.10526,395.05263   L 958.21053,395.21053   L 958.31579,395.36842   L 958.42105,395.52632   L 958.52632,395.68421   L 958.63158,395.89474   L 958.73684,396.05263   L 958.84211,396.21053   L 958.89474,396.36842   L 959,396.52632   L 959.10526,396.68421   L 959.15789,396.84211   L 959.26316,397   L 959.36842,397.15789   L 959.42105,397.31579   L 959.52632,397.47368   L 959.57895,397.63158   L 959.63158,397.78947   L 959.73684,397.94737   L 959.78947,398.10526   L 959.89474,398.26316   L 959.94737,398.42105   L 960,398.57895   L 960.05263,398.73684   L 960.10526,398.89474   L 960.21053,399   L 960.26316,399.15789   L 960.31579,399.31579   L 960.36842,399.47368   L 960.42105,399.63158   L 960.47368,399.73684   L 960.52632,399.89474   L 960.57895,400.05263   L 960.57895,400.21053   L 960.63158,400.31579   L 960.68421,400.47368   L 960.73684,400.63158   L 960.78947,400.73684   L 960.78947,400.89474   L 960.84211,401.05263   L 960.89474,401.15789   L 960.94737,401.31579   L 960.94737,401.47368   L 961,401.57895   L 961,401.73684   L 961.05263,401.84211   L 961.05263,402   L 961.10526,402.15789   L 961.10526,402.26316   L 961.15789,402.42105   L 961.21053,402.68421   L 961.21053,402.94737   L 961.26316,403.21053   L 961.31579,403.47368   L 961.31579,403.73684   L 961.36842,404   L 961.36842,404.26316   L 961.36842,404.52632   L 961.36842,404.73684   L 961.36842,405   L 961.36842,405.26316   L 961.36842,405.52632   L 961.36842,405.78947   L 961.36842,406.05263   L 961.31579,406.31579   L 961.31579,406.57895   L 961.26316,406.84211   L 961.21053,407.10526   L 961.21053,407.36842   L 961.15789,407.63158   L 961.10526,407.73684   L 961.10526,407.89474   L 961.05263,408.05263   L 961.05263,408.15789   L 961,408.31579   L 961,408.42105   L 960.94737,408.57895   L 960.94737,408.73684   L 960.89474,408.84211   L 960.84211,409   L 960.78947,409.15789   L 960.78947,409.26316   L 960.73684,409.42105   L 960.68421,409.57895   L 960.63158,409.68421   L 960.57895,409.84211   L 960.57895,410   L 960.52632,410.10526   L 960.47368,410.26316   L 960.42105,410.42105   L 960.36842,410.57895   L 960.31579,410.73684   L 960.26316,410.84211   L 960.21053,411   L 960.10526,411.15789   L 960.05263,411.31579   L 960,411.47368   L 959.94737,411.63158   L 959.89474,411.78947   L 959.78947,411.94737   L 959.73684,412.05263   L 959.68421,412.21053   L 959.57895,412.36842   L 959.52632,412.52632   L 959.42105,412.68421   L 959.36842,412.84211   L 959.26316,413   L 959.15789,413.15789   L 959.10526,413.36842   L 959,413.52632   L 958.89474,413.68421   L 958.84211,413.84211   L 958.73684,414   L 958.63158,414.15789   L 958.52632,414.31579   L 958.42105,414.47368   L 958.31579,414.63158   L 958.21053,414.84211   L 958.10526,415   L 958,415.15789   L 957.89474,415.31579   L 957.78947,415.52632   L 957.68421,415.68421   L 957.52632,415.84211   L 957.42105,416   L 957.31579,416.21053   L 957.15789,416.36842   L 957.05263,416.52632   L 956.94737,416.68421   L 956.78947,416.89474   L 956.68421,417.05263   L 956.52632,417.21053   L 956.36842,417.42105   L 956.26316,417.57895   L 956.10526,417.73684   L 955.94737,417.94737   L 955.78947,418.10526   L 955.63158,418.31579   L 955.47368,418.47368   L 955.31579,418.63158   L 955.15789,418.84211   L 955,419   L 954.84211,419.21053   L 954.68421,419.36842   L 954.52632,419.52632   L 954.36842,419.73684   L 954.15789,419.89474   L 954,420.10526   L 953.84211,420.26316   L 953.63158,420.42105   L 953.47368,420.63158   L 953.26316,420.78947   L 953.10526,421   L 952.89474,421.15789   L 952.68421,421.36842   L 952.52632,421.52632   L 952.31579,421.73684   L 952.10526,421.89474   L 951.89474,422.05263   L 951.68421,422.26316   L 951.47368,422.42105   L 951.26316,422.63158   L 951.05263,422.78947   L 950.84211,422.94737   L 950.63158,423.15789   L 950.42105,423.31579   L 950.21053,423.52632   L 949.94737,423.68421   L 949.73684,423.84211   L 949.52632,424.05263   L 949.26316,424.21053   L 949.05263,424.36842   L 948.78947,424.57895   L 948.57895,424.73684   L 948.31579,424.94737   L 948.10526,425.10526   L 947.84211,425.26316   L 947.57895,425.42105   L 947.31579,425.63158   L 947.10526,425.78947   L 946.84211,425.94737   L 946.57895,426.15789   L 946.31579,426.31579   L 946.05263,426.47368   L 945.78947,426.63158   L 945.52632,426.84211   L 945.26316,427   L 945,427.15789   L 944.68421,427.31579   L 944.42105,427.47368   L 944.15789,427.63158   L 943.89474,427.84211   L 943.57895,428   L 943.31579,428.15789   L 943,428.31579   L 942.73684,428.47368   L 942.42105,428.63158   L 942.15789,428.78947   L 941.84211,428.94737   L 941.57895,429.10526   L 941.26316,429.26316   L 940.94737,429.42105   L 940.68421,429.57895   L 940.36842,429.73684   L 940.05263,429.89474   L 939.73684,430.05263   L 939.42105,430.15789   L 939.10526,430.31579   L 938.78947,430.47368   L 938.47368,430.63158   L 938.15789,430.78947   L 937.84211,430.89474   L 937.52632,431.05263   L 937.21053,431.21053   L 936.89474,431.36842   L 936.57895,431.47368   L 936.21053,431.63158   L 935.89474,431.78947   L 935.57895,431.89474   L 935.21053,432.05263   L 934.89474,432.15789   L 934.57895,432.31579   L 934.21053,432.42105   L 933.89474,432.57895   L 933.52632,432.68421   L 933.21053,432.84211   L 932.84211,432.94737   L 932.52632,433.10526   L 932.15789,433.21053   L 931.78947,433.31579   L 931.47368,433.47368   L 931.10526,433.57895   L 930.73684,433.68421   L 930.42105,433.78947   L 930.05263,433.94737   L 929.68421,434.05263   L 929.31579,434.15789   L 928.94737,434.26316   L 928.57895,434.36842   L 928.26316,434.47368   L 927.89474,434.57895   L 927.52632,434.68421   L 927.15789,434.78947   L 926.78947,434.89474   L 926.42105,435   L 926.05263,435.10526   L 925.63158,435.21053   L 925.26316,435.31579   L 924.89474,435.42105   L 924.52632,435.47368   L 924.15789,435.57895   L 923.78947,435.68421   L 923.42105,435.78947   L 923,435.84211   L 922.63158,435.94737   L 922.26316,436   L 921.89474,436.10526   L 921.47368,436.21053   L 921.10526,436.26316   L 920.73684,436.36842   L 920.31579,436.42105   L 919.94737,436.47368   L 919.57895,436.57895   L 919.15789,436.63158   L 918.78947,436.73684   L 918.36842,436.78947   L 918,436.84211   L 917.57895,436.89474   L 917.21053,437   L 916.78947,437.05263   L 916.42105,437.10526   L 916,437.15789   L 915.63158,437.21053   L 915.21053,437.26316   L 914.84211,437.31579   L 914.42105,437.36842   L 914.05263,437.42105   L 913.63158,437.47368   L 913.21053,437.52632   L 912.84211,437.57895   L 912.42105,437.63158   L 912.05263,437.68421   L 911.63158,437.68421   L 911.21053,437.73684   L 910.84211,437.78947   L 910.42105,437.84211   L 910,437.84211   L 909.63158,437.89474   L 909.21053,437.89474   L 908.78947,437.94737   L 908.42105,437.94737   L 908,438   L 907.57895,438   L 907.15789,438.05263   L 906.78947,438.05263   L 906.36842,438.05263   L 905.94737,438.10526   L 905.57895,438.10526   L 905.15789,438.10526   L 904.73684,438.10526   L 903.94737,438.15789   L 903.10526,438.15789   L 902.31579,438.15789  " style="fill:none;stroke:#000000;stroke-width:10px;stroke-linecap:round;stroke-linejoin:round;stroke-miterlimit:4;stroke-dasharray:none;stroke-opacity:1;"/>
</svg>