<svg xmlns:inkscape="http://www.inkscape.org/namespaces/inkscape" xmlns:sodipodi="http://sodipodi.sourceforge.net/DTD/sodipodi-0.dtd" xmlns="http://www.w3.org/2000/svg" xmlns:svg="http://www.w3.org/2000/svg" version="1.0" id="svg13" sodipodi:docname="heating-2Element-head-L.wmf" viewBox="1541.34 521.5 102.81 228.63">
  <sodipodi:namedview id="namedview15" pagecolor="#ffffff" bordercolor="#000000" borderopacity="0.25" inkscape:showpageshadow="2" inkscape:pageopacity="0.0" inkscape:pagecheckerboard="0" inkscape:deskcolor="#d1d1d1" inkscape:document-units="mm"/>
  <defs id="defs3">
    <pattern id="WMFhbasepattern" patternUnits="userSpaceOnUse" width="6" height="6" x="0" y="0"/>
  </defs>
  <path style="fill:none;stroke:#000000;stroke-width:2px;stroke-linecap:round;stroke-linejoin:round;stroke-miterlimit:4;stroke-dasharray:none;stroke-opacity:1;" d="  M 1641.155,635.73788   L 1642.894,625.35535   L 1643.0986,614.76825   L 1642.1779,604.23229   L 1639.9787,593.90091   L 1636.6031,583.8764   L 1632.1023,574.20991   L 1626.4763,565.15717   L 1619.8274,556.71817   L 1612.2579,549.0975   L 1603.87,542.24401   L 1594.7661,536.36228   L 1585.0485,531.45232   L 1574.8194,527.56526   L 1564.1811,524.75226   L 1553.3383,523.01332   L 1542.342,522.50186  " id="path5"/>
  <path style="fill:none;stroke:#000000;stroke-width:2px;stroke-linecap:round;stroke-linejoin:round;stroke-miterlimit:4;stroke-dasharray:none;stroke-opacity:1;" d="  M 1588.3218,635.84017   L 1585.0485,641.36388   L 1580.8546,646.47842   L 1575.7912,651.03037   L 1570.0629,654.96857   L 1563.7208,658.13958   L 1556.8673,660.44113   L 1549.6558,661.8732   L 1542.342,662.38466  " id="path7"/>
  <path style="fill:none;stroke:#000000;stroke-width:2px;stroke-linecap:round;stroke-linejoin:round;stroke-miterlimit:4;stroke-dasharray:none;stroke-opacity:1;" d="  M 1542.342,609.24454   L 1552.4177,610.16516   L 1562.1353,612.87587   L 1570.9323,617.17208   L 1578.553,622.90037   L 1584.6905,629.75386   L 1589.1401,637.42568   L 1591.8508,645.60895   L 1592.7714,653.9968   L 1591.8508,662.38466   L 1589.1401,670.56793   L 1584.6905,678.23974   L 1578.553,685.09323   L 1570.9323,690.82152   L 1562.1353,695.11774   L 1552.4177,697.82845   L 1542.342,698.74907  " id="path9"/>
  <path style="fill:none;stroke:#000000;stroke-width:2px;stroke-linecap:round;stroke-linejoin:round;stroke-miterlimit:4;stroke-dasharray:none;stroke-opacity:1;" d="  M 1542.342,749.12733   L 1552.162,748.71817   L 1561.8796,747.33724   L 1571.3926,745.13799   L 1580.7011,742.01811   L 1589.6004,738.07991   L 1598.0394,733.32339   L 1606.0181,727.79968   L 1613.3319,721.55994   L 1620.032,714.6553   L 1625.9648,707.18807   L 1631.0794,699.15823   L 1635.3756,690.66809   L 1638.7512,681.81993   L 1641.2062,672.71604   L 1642.6894,663.40757   L 1643.1497,653.9968   L 1642.6894,644.58604   L 1641.2062,635.27757   L 1638.7512,626.17368   L 1635.3756,617.32552   L 1631.0794,608.83538   L 1625.9648,600.80554   L 1620.032,593.33831   L 1613.3319,586.43367   L 1606.0181,580.19393   L 1598.0394,574.67022   L 1589.6004,569.91369   L 1580.7011,565.97549   L 1571.3926,562.85562   L 1561.8796,560.65637   L 1552.162,559.27544   L 1542.342,558.86628  " id="path11"/>
</svg>