<svg xmlns:dc="http://purl.org/dc/elements/1.1/" xmlns:cc="http://creativecommons.org/ns#" xmlns:rdf="http://www.w3.org/1999/02/22-rdf-syntax-ns#" xmlns:svg="http://www.w3.org/2000/svg" xmlns="http://www.w3.org/2000/svg" id="svg17" version="1.0" 
viewBox="1574.16 550.1 70.25 171.21">
  <metadata id="metadata21">
    <rdf:RDF>
      <cc:Work rdf:about="">
        <dc:format>image/svg+xml</dc:format>
        <dc:type rdf:resource="http://purl.org/dc/dcmitype/StillImage"/>
      </cc:Work>
    </rdf:RDF>
  </metadata>
  <defs id="defs3">
    <pattern y="0" x="0" height="6" width="6" patternUnits="userSpaceOnUse" id="WMFhbasepattern"/>
  </defs>
  <path id="path5" d="  M 1575.1647,677.06351   L 1590.7686,675.41012   L 1605.4941,670.34661  " style="fill:none;stroke:#000000;stroke-width:2px;stroke-linecap:round;stroke-linejoin:round;stroke-miterlimit:4;stroke-dasharray:none;stroke-opacity:1;"/>
  <path id="path7" d="  M 1639.2853,635.72874   L 1643.0054,620.89989   L 1642.8504,605.6577   L 1638.6652,590.93219   L 1630.8116,577.60172   L 1619.8579,566.44133   L 1606.3724,558.07104   L 1591.1819,552.85253   L 1575.1647,551.0958  " style="fill:none;stroke:#000000;stroke-width:2px;stroke-linecap:round;stroke-linejoin:round;stroke-miterlimit:4;stroke-dasharray:none;stroke-opacity:1;"/>
  <path id="path9" d="  M 1575.1647,585.24865   L 1584.5684,586.38536   L 1593.197,589.64047   L 1600.3789,594.70398   L 1605.4424,601.0592  " style="fill:none;stroke:#000000;stroke-width:2px;stroke-linecap:round;stroke-linejoin:round;stroke-miterlimit:4;stroke-dasharray:none;stroke-opacity:1;"/>
  <path id="path11" d="  M 1597.5888,635.78041   L 1587.2034,641.05059   L 1575.1647,642.91066  " style="fill:none;stroke:#000000;stroke-width:2px;stroke-linecap:round;stroke-linejoin:round;stroke-miterlimit:4;stroke-dasharray:none;stroke-opacity:1;"/>
  <path id="path13" d="  M 1575.1647,628.49516   L 1588.7018,630.87191   L 1599.8622,637.48547   L 1606.9408,646.83746   L 1609.3175,657.32616   L 1606.9408,667.81485   L 1599.8622,677.16685   L 1588.7018,683.78041   L 1575.1647,686.15716  " style="fill:none;stroke:#000000;stroke-width:2px;stroke-linecap:round;stroke-linejoin:round;stroke-miterlimit:4;stroke-dasharray:none;stroke-opacity:1;"/>
  <path id="path15" d="  M 1575.1647,720.31001   L 1588.3402,719.12164   L 1601.0506,715.60818   L 1612.831,709.87298   L 1623.1647,702.12271   L 1631.7417,692.61572   L 1638.1485,681.71367   L 1642.0753,669.77826   L 1643.4187,657.32616   L 1642.0753,644.87406   L 1638.1485,632.93864   L 1631.7417,622.0366   L 1623.1647,612.5296   L 1612.831,604.77933   L 1601.0506,599.04413   L 1588.3402,595.53068   L 1575.1647,594.3423  " style="fill:none;stroke:#000000;stroke-width:2px;stroke-linecap:round;stroke-linejoin:round;stroke-miterlimit:4;stroke-dasharray:none;stroke-opacity:1;"/>
</svg>