<svg xmlns:dc="http://purl.org/dc/elements/1.1/" xmlns:cc="http://creativecommons.org/ns#" xmlns:rdf="http://www.w3.org/1999/02/22-rdf-syntax-ns#" xmlns:svg="http://www.w3.org/2000/svg" xmlns="http://www.w3.org/2000/svg" id="svg29" 
version="1.0" 
preserveAspectRatio="none" 
viewBox="1562.77 468.52 81.38 334.6"
width="50"
height="205.5787663"
>
  <metadata id="metadata33">
    <rdf:RDF>
      <cc:Work rdf:about="">
        <dc:format>image/svg+xml</dc:format>
        <dc:type rdf:resource="http://purl.org/dc/dcmitype/StillImage"/>
      </cc:Work>
    </rdf:RDF>
  </metadata>
  <defs id="defs3">
    <pattern y="0" x="0" height="6" width="6" patternUnits="userSpaceOnUse" id="WMFhbasepattern"/>
  </defs>
  <path id="path5" d="  M 1563.772,583.16036   L 1567.1476,583.21151   L 1570.4209,583.26265   L 1573.6942,583.41609   L 1576.9164,583.56953   L 1578.5019,583.67182   L 1580.0362,583.82525   L 1581.5706,583.92754   L 1583.105,584.08098   L 1584.537,584.23442   L 1586.0202,584.38785   L 1587.4012,584.54129   L 1588.7821,584.74587   L 1590.0607,584.89931   L 1591.3394,585.10389   L 1592.5669,585.30847   L 1593.7432,585.51305   L 1594.8684,585.76878   L 1595.8913,585.97336   L 1596.8631,586.17794   L 1597.7837,586.38253   L 1598.602,586.58711   L 1599.3692,586.79169   L 1599.983,586.99627   L 1600.5967,587.20085   L 1600.8524,587.30314   L 1601.057,587.35429   L 1601.2104,587.40543   L 1601.3639,587.45658   L 1601.4662,587.50773  " style="fill:none;stroke:#000000;stroke-width:2px;stroke-linecap:round;stroke-linejoin:round;stroke-miterlimit:4;stroke-dasharray:none;stroke-opacity:1;"/>
  <path id="path7" d="  M 1563.772,606.99414   L 1567.301,606.99414   L 1570.83,606.89185   L 1574.3079,606.78956   L 1577.7858,606.63612   L 1581.2126,606.43154   L 1584.5882,606.17581   L 1587.9126,605.86894   L 1591.1348,605.51092   L 1594.3058,605.1529   L 1597.4257,604.69259   L 1600.4433,604.23229   L 1601.9265,603.97656   L 1603.3586,603.72083   L 1604.7906,603.4651   L 1606.2227,603.15823   L 1607.6036,602.85136   L 1608.9845,602.54449   L 1610.3143,602.18647   L 1611.6441,601.8796   L 1612.9227,601.52158   L 1614.2014,601.16356   L 1615.48,600.7544   L 1616.7075,600.34523   L 1617.935,599.93607   L 1619.1625,599.47576   L 1620.3388,599.01545   L 1621.5663,598.55514   L 1622.7427,598.04369   L 1623.8679,597.48109   L 1625.0442,596.91849   L 1626.1694,596.30474   L 1627.3458,595.63985   L 1628.471,594.92381   L 1629.5962,594.15663   L 1630.7214,593.38945   L 1631.7954,592.51998   L 1632.9206,591.59936   L 1633.9435,590.6276   L 1635.0176,589.55354   L 1635.9893,588.47949   L 1636.9611,587.30314   L 1637.8817,586.07565   L 1638.7512,584.74587   L 1639.5184,583.41609   L 1640.2856,582.03516   L 1640.9505,580.55194   L 1641.5131,579.06873   L 1642.0245,577.53436   L 1642.4337,576   L 1642.7405,574.36335   L 1642.9963,572.77784   L 1643.0986,571.14118   L 1643.1497,569.50453   L 1643.0986,567.86787   L 1642.9963,566.28237   L 1642.7405,564.64571   L 1642.4337,563.0602   L 1642.0245,561.52584   L 1641.5131,559.99148   L 1640.9505,558.45711   L 1640.2856,557.02504   L 1639.5184,555.64411   L 1638.7512,554.26319   L 1637.8817,552.98455   L 1636.9611,551.75706   L 1635.9893,550.58071   L 1635.0176,549.50666   L 1633.9435,548.43261   L 1632.9206,547.46084   L 1631.7954,546.54022   L 1630.7214,545.67075   L 1629.5962,544.85242   L 1628.471,544.13639   L 1627.3458,543.42035   L 1626.2206,542.75546   L 1625.0442,542.14172   L 1623.8679,541.57912   L 1622.7427,541.01652   L 1621.5663,540.50506   L 1620.3388,539.99361   L 1619.1625,539.5333   L 1617.935,539.12413   L 1616.7075,538.66383   L 1615.48,538.30581   L 1614.2014,537.89664   L 1612.9227,537.53863   L 1611.6441,537.18061   L 1610.3143,536.82259   L 1608.9845,536.51572   L 1607.6036,536.20884   L 1606.2227,535.90197   L 1604.7906,535.5951   L 1603.3586,535.33937   L 1601.9265,535.08364   L 1600.4433,534.82792   L 1597.4257,534.31646   L 1594.357,533.9073   L 1591.1348,533.49814   L 1587.9126,533.19126   L 1584.5882,532.88439   L 1581.2126,532.62866   L 1577.7858,532.42408   L 1574.3079,532.27064   L 1570.83,532.16835   L 1567.301,532.06606   L 1563.772,532.06606  " style="fill:none;stroke:#000000;stroke-width:2px;stroke-linecap:round;stroke-linejoin:round;stroke-miterlimit:4;stroke-dasharray:none;stroke-opacity:1;"/>
  <path id="path9" d="  M 1623.203,635.78903   L 1624.6351,635.17528   L 1625.9648,634.51039   L 1627.3458,633.74321   L 1628.6755,632.92488   L 1630.0053,632.00426   L 1631.284,631.0325   L 1632.6137,629.95844   L 1633.8412,628.83324   L 1634.455,628.2195   L 1635.0687,627.60575   L 1635.6825,626.94086   L 1636.2451,626.27597   L 1636.8077,625.61108   L 1637.3703,624.89505   L 1637.8817,624.12786   L 1638.3932,623.41183   L 1638.9046,622.5935   L 1639.3649,621.82632   L 1639.8253,621.00799   L 1640.2344,620.18966   L 1640.6436,619.32019   L 1641.0016,618.45072   L 1641.3596,617.58125   L 1641.6665,616.71177   L 1641.9734,615.79116   L 1642.2291,614.87054   L 1642.4337,613.94992   L 1642.6383,613.0293   L 1642.8428,612.05754   L 1642.9451,611.13692   L 1643.0474,610.16516   L 1643.1497,609.19339   L 1643.1497,608.22163   L 1643.1497,607.30101   L 1643.1497,606.32925   L 1643.0986,605.35749   L 1642.9963,604.38572   L 1642.8428,603.4651   L 1642.6894,602.49334   L 1642.4848,601.57272   L 1642.2802,600.6521   L 1642.0245,599.73149   L 1641.7688,598.81087   L 1641.4619,597.9414   L 1641.1039,597.02078   L 1640.7459,596.15131   L 1640.3367,595.33298   L 1639.9275,594.46351   L 1639.5184,593.64518   L 1639.0581,592.82685   L 1638.5466,592.05967   L 1638.0352,591.34363   L 1637.4726,590.6276   L 1636.91,589.91156   L 1635.7848,588.58178  " style="fill:none;stroke:#000000;stroke-width:2px;stroke-linecap:round;stroke-linejoin:round;stroke-miterlimit:4;stroke-dasharray:none;stroke-opacity:1;"/>
  <path id="path11" d="  M 1563.772,621.31486   L 1567.1476,621.31486   L 1570.4209,621.36601   L 1573.6942,621.51945   L 1576.9164,621.67288   L 1578.5019,621.82632   L 1580.0362,621.92861   L 1581.5706,622.0309   L 1583.105,622.18434   L 1584.537,622.33777   L 1586.0202,622.49121   L 1587.4012,622.69579   L 1588.7821,622.84923   L 1590.0607,623.05381   L 1591.3394,623.25839   L 1592.5669,623.46297   L 1593.7432,623.66755   L 1594.8684,623.87214   L 1595.8913,624.07672   L 1596.8631,624.2813   L 1597.7837,624.53703   L 1598.602,624.74161   L 1599.3692,624.94619   L 1599.983,625.15077   L 1600.5967,625.30421   L 1600.8524,625.4065   L 1601.057,625.45765   L 1601.2104,625.55994   L 1601.3639,625.61108   L 1601.4662,625.61108   L 1601.4662,625.66223  " style="fill:none;stroke:#000000;stroke-width:2px;stroke-linecap:round;stroke-linejoin:round;stroke-miterlimit:4;stroke-dasharray:none;stroke-opacity:1;"/>
  <path id="path13" d="  M 1563.772,677.626   L 1567.1476,677.67714   L 1570.4209,677.72829   L 1573.6942,677.88173   L 1576.9164,678.03516   L 1578.5019,678.13745   L 1580.0362,678.29089   L 1581.5706,678.39318   L 1583.105,678.54662   L 1584.537,678.70005   L 1586.0202,678.85349   L 1587.4012,679.00693   L 1588.7821,679.21151   L 1590.0607,679.41609   L 1591.3394,679.56953   L 1592.5669,679.77411   L 1593.7432,679.97869   L 1594.8684,680.23442   L 1595.8913,680.439   L 1596.8631,680.64358   L 1597.7837,680.84816   L 1598.602,681.10389   L 1599.3692,681.30847   L 1599.983,681.46191   L 1600.5967,681.66649   L 1600.8524,681.76878   L 1601.057,681.81993   L 1601.2104,681.92222   L 1601.3639,681.97336   L 1601.4662,681.97336  " style="fill:none;stroke:#000000;stroke-width:2px;stroke-linecap:round;stroke-linejoin:round;stroke-miterlimit:4;stroke-dasharray:none;stroke-opacity:1;"/>
  <path id="path15" d="  M 1563.772,701.45978   L 1567.301,701.45978   L 1570.83,701.35749   L 1574.3079,701.25519   L 1577.7858,701.10176   L 1581.2126,700.89718   L 1584.5882,700.64145   L 1587.9126,700.33458   L 1591.1348,699.97656   L 1594.3058,699.61854   L 1597.4257,699.15823   L 1600.4433,698.69792   L 1601.9265,698.44219   L 1603.3586,698.18647   L 1604.7906,697.93074   L 1606.2227,697.62387   L 1607.6036,697.317   L 1608.9845,697.01012   L 1610.3143,696.70325   L 1611.6441,696.34523   L 1612.9227,695.98721   L 1614.2014,695.6292   L 1615.48,695.22003   L 1616.7075,694.81087   L 1617.935,694.4017   L 1619.1625,693.9414   L 1620.3388,693.48109   L 1621.5663,693.02078   L 1622.7427,692.50932   L 1623.8679,691.94672   L 1625.0442,691.38412   L 1626.1694,690.77038   L 1627.3458,690.10549   L 1628.471,689.38945   L 1629.5962,688.62227   L 1630.7214,687.85509   L 1631.7954,686.98562   L 1632.9206,686.065   L 1633.9435,685.09323   L 1635.0176,684.01918   L 1635.9893,682.94513   L 1636.9611,681.76878   L 1637.8817,680.54129   L 1638.7512,679.21151   L 1639.5184,677.88173   L 1640.2856,676.5008   L 1640.9505,675.01758   L 1641.5131,673.53436   L 1642.0245,672   L 1642.4337,670.46564   L 1642.7405,668.82898   L 1642.9963,667.24347   L 1643.0986,665.60682   L 1643.1497,663.97017   L 1643.0986,662.38466   L 1642.9963,660.748   L 1642.7405,659.11135   L 1642.4337,657.52584   L 1642.0245,655.99148   L 1641.5131,654.45711   L 1640.9505,652.92275   L 1640.2856,651.49068   L 1639.5184,650.10975   L 1638.7512,648.72882   L 1637.8817,647.45019   L 1636.9611,646.2227   L 1635.9893,645.04635   L 1635.0176,643.9723   L 1633.9435,642.89824   L 1632.9206,641.92648   L 1631.7954,641.00586   L 1630.7214,640.13639   L 1629.5962,639.36921   L 1628.471,638.60202   L 1627.3458,637.88599   L 1626.2206,637.2211   L 1625.0442,636.60735   L 1623.8679,636.04475   L 1622.7427,635.48215   L 1621.5663,634.9707   L 1620.3388,634.45924   L 1619.1625,633.99893   L 1617.935,633.58977   L 1616.7075,633.12946   L 1615.48,632.77144   L 1614.2014,632.36228   L 1612.9227,632.00426   L 1611.6441,631.64624   L 1610.3143,631.28823   L 1608.9845,630.98135   L 1607.6036,630.67448   L 1606.2227,630.36761   L 1604.7906,630.06074   L 1603.3586,629.80501   L 1601.9265,629.54928   L 1600.4433,629.29355   L 1597.4257,628.7821   L 1594.357,628.37294   L 1591.1348,627.96377   L 1587.9126,627.6569   L 1584.5882,627.35003   L 1581.2126,627.0943   L 1577.7858,626.88972   L 1574.3079,626.73628   L 1570.83,626.63399   L 1567.301,626.5317   L 1563.772,626.5317  " style="fill:none;stroke:#000000;stroke-width:2px;stroke-linecap:round;stroke-linejoin:round;stroke-miterlimit:4;stroke-dasharray:none;stroke-opacity:1;"/>
  <path id="path17" d="  M 1563.772,520.66063   L 1567.1476,520.71177   L 1570.4209,520.76292   L 1573.6942,520.91636   L 1576.9164,521.06979   L 1578.5019,521.17208   L 1580.0362,521.27437   L 1581.5706,521.42781   L 1583.105,521.58125   L 1584.537,521.73468   L 1586.0202,521.88812   L 1587.4012,522.04156   L 1588.7821,522.24614   L 1590.0607,522.39957   L 1591.3394,522.60416   L 1592.5669,522.80874   L 1593.7432,523.01332   L 1594.8684,523.2179   L 1595.8913,523.47363   L 1596.8631,523.67821   L 1597.7837,523.88279   L 1598.602,524.08737   L 1599.3692,524.29196   L 1599.983,524.49654   L 1600.5967,524.70112   L 1600.8524,524.75226   L 1601.057,524.85456   L 1601.2104,524.9057   L 1601.3639,524.95685   L 1601.4662,525.00799  " style="fill:none;stroke:#000000;stroke-width:2px;stroke-linecap:round;stroke-linejoin:round;stroke-miterlimit:4;stroke-dasharray:none;stroke-opacity:1;"/>
  <path id="path19" d="  M 1615.2243,538.20352   L 1617.1167,537.64092   L 1618.9579,537.02717   L 1620.748,536.36228   L 1622.5381,535.64624   L 1624.2259,534.82792   L 1625.9648,533.9073   L 1627.6526,532.93554   L 1628.471,532.37294   L 1629.3404,531.86148   L 1630.1588,531.24774   L 1630.9771,530.63399   L 1631.7954,530.02025   L 1632.6137,529.30421   L 1633.4321,528.63932   L 1634.1993,527.87214   L 1634.9664,527.10495   L 1635.7336,526.28663   L 1636.4497,525.41716   L 1637.1657,524.54768   L 1637.8306,523.62706   L 1638.4443,522.6553   L 1639.0581,521.68354   L 1639.6718,520.66063   L 1640.1833,519.63772   L 1640.6947,518.56367   L 1641.155,517.48961   L 1641.5642,516.36441   L 1641.9734,515.18807   L 1642.2802,514.06287   L 1642.536,512.88652   L 1642.7917,511.71018   L 1642.9451,510.48269   L 1643.0986,509.30634   L 1643.1497,508.07885   L 1643.1497,506.85136   L 1643.1497,505.67501   L 1643.0474,504.44752   L 1642.894,503.27118   L 1642.7405,502.04369   L 1642.4848,500.86734   L 1642.2291,499.691   L 1641.8711,498.5658   L 1641.5131,497.4406   L 1641.0527,496.3154   L 1640.5924,495.1902   L 1640.081,494.16729   L 1639.5184,493.09323   L 1638.9558,492.12147   L 1638.342,491.14971   L 1637.6771,490.17794   L 1637.0123,489.25733   L 1636.2962,488.38785   L 1635.529,487.56953   L 1634.813,486.7512   L 1634.0458,485.98402   L 1633.2275,485.26798   L 1632.4603,484.55194   L 1631.642,483.88705   L 1630.8237,483.22216   L 1629.9542,482.60842   L 1629.1359,482.04582   L 1628.3175,481.48322   L 1627.4481,480.97176   L 1625.7603,480   L 1624.0213,479.13053   L 1622.2824,478.3122   L 1620.5434,477.59616   L 1618.7533,476.88013   L 1616.9632,476.26638   L 1615.122,475.65264   L 1613.2296,475.09004   L 1611.2861,474.57858   L 1609.2914,474.06713   L 1607.2456,473.60682   L 1605.1998,473.14651   L 1603.0517,472.73735   L 1600.9036,472.37933   L 1598.6532,472.02131   L 1596.4028,471.66329   L 1594.0501,471.35642   L 1591.6974,471.04955   L 1589.2936,470.79382   L 1586.8897,470.58924   L 1584.3836,470.33351   L 1581.8775,470.18007   L 1579.3713,469.97549   L 1576.8141,469.8732   L 1574.2056,469.71977   L 1571.6484,469.66862   L 1569.04,469.61747   L 1563.772,469.51518  " style="fill:none;stroke:#000000;stroke-width:2px;stroke-linecap:round;stroke-linejoin:round;stroke-miterlimit:4;stroke-dasharray:none;stroke-opacity:1;"/>
  <path id="path21" d="  M 1563.772,778.28023   L 1567.1476,778.28023   L 1570.4209,778.38253   L 1573.6942,778.48482   L 1576.9164,778.6894   L 1578.5019,778.79169   L 1580.0362,778.89398   L 1581.5706,779.04742   L 1583.105,779.14971   L 1584.537,779.30314   L 1586.0202,779.45658   L 1587.4012,779.66116   L 1588.7821,779.8146   L 1590.0607,780.01918   L 1591.3394,780.22376   L 1592.5669,780.42834   L 1593.7432,780.63292   L 1594.8684,780.83751   L 1595.8913,781.04209   L 1596.8631,781.29782   L 1597.7837,781.5024   L 1598.602,781.70698   L 1599.3692,781.91156   L 1599.983,782.11614   L 1600.5967,782.26958   L 1600.8524,782.37187   L 1601.057,782.47416   L 1601.2104,782.52531   L 1601.3639,782.57645   L 1601.4662,782.6276  " style="fill:none;stroke:#000000;stroke-width:2px;stroke-linecap:round;stroke-linejoin:round;stroke-miterlimit:4;stroke-dasharray:none;stroke-opacity:1;"/>
  <path id="path23" d="  M 1563.772,802.11401   L 1567.301,802.06287   L 1570.83,802.01172   L 1574.3079,801.90943   L 1577.7858,801.70485   L 1581.2126,801.50027   L 1584.5882,801.24454   L 1587.9126,800.98881   L 1591.1348,800.63079   L 1594.3058,800.22163   L 1597.4257,799.81247   L 1600.4433,799.35216   L 1601.9265,799.09643   L 1603.3586,798.78956   L 1604.7906,798.53383   L 1606.2227,798.22696   L 1607.6036,797.97123   L 1608.9845,797.61321   L 1610.3143,797.30634   L 1611.6441,796.94832   L 1612.9227,796.5903   L 1614.2014,796.23229   L 1615.48,795.87427   L 1616.7075,795.4651   L 1617.935,795.05594   L 1619.1625,794.59563   L 1620.3388,794.13532   L 1621.5663,793.62387   L 1622.7427,793.11241   L 1623.8679,792.54981   L 1625.0442,791.98721   L 1626.1694,791.37347   L 1627.3458,790.70858   L 1628.471,789.99254   L 1629.5962,789.27651   L 1630.7214,788.45818   L 1631.7954,787.58871   L 1632.9206,786.66809   L 1633.9435,785.69632   L 1635.0176,784.67342   L 1635.9893,783.54822   L 1636.9611,782.37187   L 1637.8817,781.14438   L 1638.7512,779.86574   L 1639.5184,778.48482   L 1640.2856,777.10389   L 1640.9505,775.67182   L 1641.5131,774.1886   L 1642.0245,772.65424   L 1642.4337,771.06873   L 1642.7405,769.48322   L 1642.9963,767.84656   L 1643.0986,766.26105   L 1643.1497,764.6244   L 1643.0986,762.98775   L 1642.9963,761.35109   L 1642.7405,759.76558   L 1642.4337,758.18007   L 1642.0245,756.59457   L 1641.5131,755.0602   L 1640.9505,753.57698   L 1640.2856,752.14491   L 1639.5184,750.71284   L 1638.7512,749.38306   L 1637.8817,748.10442   L 1636.9611,746.87693   L 1635.9893,745.70059   L 1635.0176,744.57539   L 1633.9435,743.55248   L 1632.9206,742.52957   L 1631.7954,741.60895   L 1630.7214,740.79062   L 1629.5962,739.9723   L 1628.471,739.20511   L 1627.3458,738.54022   L 1626.2206,737.87533   L 1625.0442,737.26159   L 1623.8679,736.64784   L 1622.7427,736.13639   L 1621.5663,735.57379   L 1620.3388,735.11348   L 1619.1625,734.65317   L 1617.935,734.19286   L 1616.7075,733.7837   L 1615.48,733.37453   L 1614.2014,732.96537   L 1612.9227,732.60735   L 1611.6441,732.24933   L 1610.3143,731.94246   L 1608.9845,731.58444   L 1607.6036,731.27757   L 1606.2227,730.9707   L 1604.7906,730.71497   L 1603.3586,730.4081   L 1601.9265,730.15237   L 1600.4433,729.89664   L 1597.4257,729.43633   L 1594.357,728.97603   L 1591.1348,728.61801   L 1587.9126,728.25999   L 1584.5882,727.95312   L 1581.2126,727.69739   L 1577.7858,727.49281   L 1574.3079,727.33937   L 1570.83,727.23708   L 1567.301,727.18594   L 1563.772,727.13479  " style="fill:none;stroke:#000000;stroke-width:2px;stroke-linecap:round;stroke-linejoin:round;stroke-miterlimit:4;stroke-dasharray:none;stroke-opacity:1;"/>
  <path id="path25" d="  M 1615.2243,733.32339   L 1616.9632,732.76079   L 1618.7022,732.19819   L 1620.39,731.63559   L 1622.0266,730.91955   L 1623.6633,730.20352   L 1625.2488,729.38519   L 1626.8343,728.51572   L 1628.4198,727.54395   L 1629.187,727.0325   L 1629.9542,726.4699   L 1630.7725,725.9073   L 1631.4885,725.3447   L 1632.2557,724.73095   L 1633.0229,724.06606   L 1633.7389,723.40117   L 1634.455,722.68514   L 1635.171,721.9691   L 1635.8871,721.20192   L 1636.5519,720.38359   L 1637.2168,719.56526   L 1637.8306,718.69579   L 1638.4443,717.82632   L 1639.0069,716.9057   L 1639.5695,715.93394   L 1640.081,715.01332   L 1640.5413,713.99041   L 1641.0016,712.9675   L 1641.4108,711.94459   L 1641.7688,710.92168   L 1642.0757,709.84763   L 1642.3825,708.77357   L 1642.6383,707.64838   L 1642.7917,706.57432   L 1642.9963,705.44912   L 1643.0986,704.32392   L 1643.1497,703.19872   L 1643.1497,702.07352   L 1643.1497,700.94832   L 1643.0986,699.82312   L 1642.9451,698.69792   L 1642.7917,697.57272   L 1642.5871,696.44752   L 1642.3314,695.37347   L 1642.0757,694.29941   L 1641.7176,693.22536   L 1641.3596,692.15131   L 1640.9505,691.1284   L 1640.4901,690.10549   L 1640.0298,689.13372   L 1639.5184,688.16196   L 1638.9558,687.1902   L 1638.3932,686.32072   L 1637.7794,685.45125   L 1637.1145,684.63292   L 1635.7848,683.04742  " style="fill:none;stroke:#000000;stroke-width:2px;stroke-linecap:round;stroke-linejoin:round;stroke-miterlimit:4;stroke-dasharray:none;stroke-opacity:1;"/>
  <path id="path27" d="  M 1563.772,715.7805   L 1567.1476,715.7805   L 1570.4209,715.88279   L 1573.6942,715.98508   L 1576.9164,716.18966   L 1578.5019,716.29196   L 1580.0362,716.39425   L 1581.5706,716.49654   L 1583.105,716.64997   L 1584.537,716.80341   L 1586.0202,716.95685   L 1587.4012,717.16143   L 1588.7821,717.31486   L 1590.0607,717.51945   L 1591.3394,717.72403   L 1592.5669,717.92861   L 1593.7432,718.13319   L 1594.8684,718.33777   L 1595.8913,718.54235   L 1596.8631,718.74694   L 1597.7837,719.00266   L 1598.602,719.20725   L 1599.3692,719.41183   L 1599.983,719.61641   L 1600.5967,719.76985   L 1600.8524,719.87214   L 1601.057,719.92328   L 1601.2104,720.02557   L 1601.3639,720.07672   L 1601.4662,720.07672   L 1601.4662,720.12786  " style="fill:none;stroke:#000000;stroke-width:2px;stroke-linecap:round;stroke-linejoin:round;stroke-miterlimit:4;stroke-dasharray:none;stroke-opacity:1;"/>
</svg>