<svg xmlns:inkscape="http://www.inkscape.org/namespaces/inkscape" xmlns:sodipodi="http://sodipodi.sourceforge.net/DTD/sodipodi-0.dtd" xmlns="http://www.w3.org/2000/svg" xmlns:svg="http://www.w3.org/2000/svg" version="1.0" id="svg17" sodipodi:docname="heating-2Element-head.wmf" 
viewBox="1573.87 549.02 70.28 173.59">
  <sodipodi:namedview id="namedview19" pagecolor="#ffffff" bordercolor="#000000" borderopacity="0.25" inkscape:showpageshadow="2" inkscape:pageopacity="0.0" inkscape:pagecheckerboard="0" inkscape:deskcolor="#d1d1d1" inkscape:document-units="mm"/>
  <defs id="defs3">
    <pattern id="WMFhbasepattern" patternUnits="userSpaceOnUse" width="6" height="6" x="0" y="0"/>
  </defs>
  <path style="fill:none;stroke:#000000;stroke-width:2px;stroke-linecap:round;stroke-linejoin:round;stroke-miterlimit:4;stroke-dasharray:none;stroke-opacity:1;" d="  M 1574.8705,673.02291   L 1592.1066,671.02824   L 1608.3197,665.14651  " id="path5"/>
  <path style="fill:none;stroke:#000000;stroke-width:2px;stroke-linecap:round;stroke-linejoin:round;stroke-miterlimit:4;stroke-dasharray:none;stroke-opacity:1;" d="  M 1637.4726,635.78903   L 1642.3314,621.11028   L 1642.8428,605.76665   L 1639.1604,590.78103   L 1631.5397,577.17635   L 1620.4923,565.77091   L 1606.8364,557.17848   L 1591.3394,551.85935   L 1574.8705,550.01811  " id="path7"/>
  <path style="fill:none;stroke:#000000;stroke-width:2px;stroke-linecap:round;stroke-linejoin:round;stroke-miterlimit:4;stroke-dasharray:none;stroke-opacity:1;" d="  M 1574.8705,584.18327   L 1586.8897,585.97336   L 1597.2211,590.93447   L 1604.586,598.14598   L 1608.3197,606.48269  " id="path9"/>
  <path style="fill:none;stroke:#000000;stroke-width:2px;stroke-linecap:round;stroke-linejoin:round;stroke-miterlimit:4;stroke-dasharray:none;stroke-opacity:1;" d="  M 1590.2653,635.73788   L 1582.8492,638.14172   L 1574.8705,638.85775  " id="path11"/>
  <path style="fill:none;stroke:#000000;stroke-width:2px;stroke-linecap:round;stroke-linejoin:round;stroke-miterlimit:4;stroke-dasharray:none;stroke-opacity:1;" d="  M 1574.8705,632.77144   L 1588.5775,635.07299   L 1599.7784,641.46617   L 1606.7342,650.36548   L 1609.0357,660.08311   L 1606.7342,669.85189   L 1599.7784,678.7512   L 1588.5775,685.14438   L 1574.8705,687.44592  " id="path13"/>
  <path style="fill:none;stroke:#000000;stroke-width:2px;stroke-linecap:round;stroke-linejoin:round;stroke-miterlimit:4;stroke-dasharray:none;stroke-opacity:1;" d="  M 1574.8705,721.61108   L 1588.0149,720.43474   L 1600.699,717.05914   L 1612.4624,711.48428   L 1622.7938,703.9659   L 1631.3863,694.65743   L 1637.8306,683.96803   L 1641.8199,672.30687   L 1643.1497,660.08311   L 1641.8199,647.9105   L 1637.8306,636.19819   L 1631.3863,625.50879   L 1622.7938,616.25147   L 1612.4624,608.73308   L 1600.699,603.15823   L 1588.0149,599.73149   L 1574.8705,598.60629  " id="path15"/>
</svg>