<svg xmlns="http://www.w3.org/2000/svg" id="svg259" version="1.0" viewBox="625.58 302.16 198.58 305.58">
  <path id="path5" d="  M 820.15789,306.15789   L 820.15789,306.78947   L 802.05263,306.78947  z " style="fill:#ffffff;fill-rule:evenodd;fill-opacity:1;stroke:none;"/>
  <path id="path7" d="  M 802.05263,306.78947   L 820.15789,308.78947   L 784.10526,308.78947  z " style="fill:#ffffff;fill-rule:evenodd;fill-opacity:1;stroke:none;"/>
  <path id="path9" d="  M 802.05263,306.78947   L 820.15789,306.78947   L 820.15789,308.78947  z " style="fill:#ffffff;fill-rule:evenodd;fill-opacity:1;stroke:none;"/>
  <path id="path11" d="  M 784.10526,308.78947   L 820.15789,312.05263   L 766.42105,312.05263  z " style="fill:#ffffff;fill-rule:evenodd;fill-opacity:1;stroke:none;"/>
  <path id="path13" d="  M 784.10526,308.78947   L 820.15789,308.78947   L 820.15789,312.05263  z " style="fill:#ffffff;fill-rule:evenodd;fill-opacity:1;stroke:none;"/>
  <path id="path15" d="  M 766.42105,312.05263   L 820.15789,316.63158   L 749.26316,316.63158  z " style="fill:#ffffff;fill-rule:evenodd;fill-opacity:1;stroke:none;"/>
  <path id="path17" d="  M 766.42105,312.05263   L 820.15789,312.05263   L 820.15789,316.63158  z " style="fill:#ffffff;fill-rule:evenodd;fill-opacity:1;stroke:none;"/>
  <path id="path19" d="  M 749.26316,316.63158   L 820.15789,322.42105   L 732.68421,322.42105  z " style="fill:#ffffff;fill-rule:evenodd;fill-opacity:1;stroke:none;"/>
  <path id="path21" d="  M 749.26316,316.63158   L 820.15789,316.63158   L 820.15789,322.42105  z " style="fill:#ffffff;fill-rule:evenodd;fill-opacity:1;stroke:none;"/>
  <path id="path23" d="  M 732.68421,322.42105   L 820.15789,329.47368   L 716.89474,329.47368  z " style="fill:#ffffff;fill-rule:evenodd;fill-opacity:1;stroke:none;"/>
  <path id="path25" d="  M 732.68421,322.42105   L 820.15789,322.42105   L 820.15789,329.47368  z " style="fill:#ffffff;fill-rule:evenodd;fill-opacity:1;stroke:none;"/>
  <path id="path27" d="  M 716.89474,329.47368   L 820.15789,337.68421   L 701.94737,337.68421  z " style="fill:#ffffff;fill-rule:evenodd;fill-opacity:1;stroke:none;"/>
  <path id="path29" d="  M 716.89474,329.47368   L 820.15789,329.47368   L 820.15789,337.68421  z " style="fill:#ffffff;fill-rule:evenodd;fill-opacity:1;stroke:none;"/>
  <path id="path31" d="  M 701.94737,337.68421   L 820.15789,347.05263   L 688.05263,347.05263  z " style="fill:#ffffff;fill-rule:evenodd;fill-opacity:1;stroke:none;"/>
  <path id="path33" d="  M 701.94737,337.68421   L 820.15789,337.68421   L 820.15789,347.05263  z " style="fill:#ffffff;fill-rule:evenodd;fill-opacity:1;stroke:none;"/>
  <path id="path35" d="  M 688.05263,347.05263   L 820.15789,357.57895   L 675.31579,357.57895  z " style="fill:#ffffff;fill-rule:evenodd;fill-opacity:1;stroke:none;"/>
  <path id="path37" d="  M 688.05263,347.05263   L 820.15789,347.05263   L 820.15789,357.57895  z " style="fill:#ffffff;fill-rule:evenodd;fill-opacity:1;stroke:none;"/>
  <path id="path39" d="  M 675.31579,357.57895   L 820.15789,369.10526   L 663.89474,369.10526  z " style="fill:#ffffff;fill-rule:evenodd;fill-opacity:1;stroke:none;"/>
  <path id="path41" d="  M 675.31579,357.57895   L 820.15789,357.57895   L 820.15789,369.10526  z " style="fill:#ffffff;fill-rule:evenodd;fill-opacity:1;stroke:none;"/>
  <path id="path43" d="  M 663.89474,369.10526   L 820.15789,381.63158   L 653.84211,381.63158  z " style="fill:#ffffff;fill-rule:evenodd;fill-opacity:1;stroke:none;"/>
  <path id="path45" d="  M 663.89474,369.10526   L 820.15789,369.10526   L 820.15789,381.63158  z " style="fill:#ffffff;fill-rule:evenodd;fill-opacity:1;stroke:none;"/>
  <path id="path47" d="  M 653.84211,381.63158   L 820.15789,395.05263   L 645.36842,395.05263  z " style="fill:#ffffff;fill-rule:evenodd;fill-opacity:1;stroke:none;"/>
  <path id="path49" d="  M 653.84211,381.63158   L 820.15789,381.63158   L 820.15789,395.05263  z " style="fill:#ffffff;fill-rule:evenodd;fill-opacity:1;stroke:none;"/>
  <path id="path51" d="  M 645.36842,395.05263   L 820.15789,401.47368   L 642.31579,401.47368  z " style="fill:#ffffff;fill-rule:evenodd;fill-opacity:1;stroke:none;"/>
  <path id="path53" d="  M 645.36842,395.05263   L 820.15789,395.05263   L 820.15789,401.47368  z " style="fill:#ffffff;fill-rule:evenodd;fill-opacity:1;stroke:none;"/>
  <path id="path55" d="  M 642.31579,401.47368   L 809.68421,401.84211   L 642.10526,401.84211  z " style="fill:#ffffff;fill-rule:evenodd;fill-opacity:1;stroke:none;"/>
  <path id="path57" d="  M 642.31579,401.47368   L 820.15789,401.47368   L 809.68421,401.84211  z " style="fill:#ffffff;fill-rule:evenodd;fill-opacity:1;stroke:none;"/>
  <path id="path59" d="  M 642.10526,401.84211   L 799.31579,402.89474   L 641.63158,402.89474  z " style="fill:#ffffff;fill-rule:evenodd;fill-opacity:1;stroke:none;"/>
  <path id="path61" d="  M 642.10526,401.84211   L 809.68421,401.84211   L 799.31579,402.89474  z " style="fill:#ffffff;fill-rule:evenodd;fill-opacity:1;stroke:none;"/>
  <path id="path63" d="  M 641.63158,402.89474   L 789.21053,404.68421   L 640.78947,404.68421  z " style="fill:#ffffff;fill-rule:evenodd;fill-opacity:1;stroke:none;"/>
  <path id="path65" d="  M 641.63158,402.89474   L 799.31579,402.89474   L 789.21053,404.68421  z " style="fill:#ffffff;fill-rule:evenodd;fill-opacity:1;stroke:none;"/>
  <path id="path67" d="  M 640.78947,404.68421   L 779.52632,407.05263   L 639.63158,407.05263  z " style="fill:#ffffff;fill-rule:evenodd;fill-opacity:1;stroke:none;"/>
  <path id="path69" d="  M 640.78947,404.68421   L 789.21053,404.68421   L 779.52632,407.05263  z " style="fill:#ffffff;fill-rule:evenodd;fill-opacity:1;stroke:none;"/>
  <path id="path71" d="  M 639.63158,407.05263   L 772.78947,409.26316   L 638.57895,409.26316  z " style="fill:#ffffff;fill-rule:evenodd;fill-opacity:1;stroke:none;"/>
  <path id="path73" d="  M 639.63158,407.05263   L 779.52632,407.05263   L 772.78947,409.26316  z " style="fill:#ffffff;fill-rule:evenodd;fill-opacity:1;stroke:none;"/>
  <path id="path75" d="  M 638.57895,409.26316   L 770.31579,410.10526   L 638.31579,410.10526  z " style="fill:#ffffff;fill-rule:evenodd;fill-opacity:1;stroke:none;"/>
  <path id="path77" d="  M 638.57895,409.26316   L 772.78947,409.26316   L 770.31579,410.10526  z " style="fill:#ffffff;fill-rule:evenodd;fill-opacity:1;stroke:none;"/>
  <path id="path79" d="  M 638.31579,410.10526   L 761.78947,413.63158   L 637.10526,413.63158  z " style="fill:#ffffff;fill-rule:evenodd;fill-opacity:1;stroke:none;"/>
  <path id="path81" d="  M 638.31579,410.10526   L 770.31579,410.10526   L 761.78947,413.63158  z " style="fill:#ffffff;fill-rule:evenodd;fill-opacity:1;stroke:none;"/>
  <path id="path83" d="  M 637.10526,413.63158   L 754.05263,417.63158   L 635.78947,417.63158  z " style="fill:#ffffff;fill-rule:evenodd;fill-opacity:1;stroke:none;"/>
  <path id="path85" d="  M 637.10526,413.63158   L 761.78947,413.63158   L 754.05263,417.63158  z " style="fill:#ffffff;fill-rule:evenodd;fill-opacity:1;stroke:none;"/>
  <path id="path87" d="  M 635.78947,417.63158   L 747.10526,422   L 634.36842,422  z " style="fill:#ffffff;fill-rule:evenodd;fill-opacity:1;stroke:none;"/>
  <path id="path89" d="  M 635.78947,417.63158   L 754.05263,417.63158   L 747.10526,422  z " style="fill:#ffffff;fill-rule:evenodd;fill-opacity:1;stroke:none;"/>
  <path id="path91" d="  M 634.36842,422   L 744.36842,424.10526   L 633.63158,424.10526  z " style="fill:#ffffff;fill-rule:evenodd;fill-opacity:1;stroke:none;"/>
  <path id="path93" d="  M 634.36842,422   L 747.10526,422   L 744.36842,424.10526  z " style="fill:#ffffff;fill-rule:evenodd;fill-opacity:1;stroke:none;"/>
  <path id="path95" d="  M 633.63158,424.10526   L 741.15789,426.57895   L 633.15789,426.57895  z " style="fill:#ffffff;fill-rule:evenodd;fill-opacity:1;stroke:none;"/>
  <path id="path97" d="  M 633.63158,424.10526   L 744.36842,424.10526   L 741.15789,426.57895  z " style="fill:#ffffff;fill-rule:evenodd;fill-opacity:1;stroke:none;"/>
  <path id="path99" d="  M 633.15789,426.57895   L 736.21053,431.21053   L 632.21053,431.21053  z " style="fill:#ffffff;fill-rule:evenodd;fill-opacity:1;stroke:none;"/>
  <path id="path101" d="  M 633.15789,426.57895   L 741.15789,426.57895   L 736.21053,431.21053  z " style="fill:#ffffff;fill-rule:evenodd;fill-opacity:1;stroke:none;"/>
  <path id="path103" d="  M 632.21053,431.21053   L 732.26316,435.78947   L 631.31579,435.78947  z " style="fill:#ffffff;fill-rule:evenodd;fill-opacity:1;stroke:none;"/>
  <path id="path105" d="  M 632.21053,431.21053   L 736.21053,431.21053   L 732.26316,435.78947  z " style="fill:#ffffff;fill-rule:evenodd;fill-opacity:1;stroke:none;"/>
  <path id="path107" d="  M 631.31579,435.78947   L 729.84211,439.42105   L 630.63158,439.42105  z " style="fill:#ffffff;fill-rule:evenodd;fill-opacity:1;stroke:none;"/>
  <path id="path109" d="  M 631.31579,435.78947   L 732.26316,435.78947   L 729.84211,439.42105  z " style="fill:#ffffff;fill-rule:evenodd;fill-opacity:1;stroke:none;"/>
  <path id="path111" d="  M 630.63158,439.42105   L 729.31579,440.21053   L 630.57895,440.21053  z " style="fill:#ffffff;fill-rule:evenodd;fill-opacity:1;stroke:none;"/>
  <path id="path113" d="  M 630.63158,439.42105   L 729.84211,439.42105   L 729.31579,440.21053  z " style="fill:#ffffff;fill-rule:evenodd;fill-opacity:1;stroke:none;"/>
  <path id="path115" d="  M 630.57895,440.21053   L 727.21053,444.31579   L 630.31579,444.31579  z " style="fill:#ffffff;fill-rule:evenodd;fill-opacity:1;stroke:none;"/>
  <path id="path117" d="  M 630.57895,440.21053   L 729.31579,440.21053   L 727.21053,444.31579  z " style="fill:#ffffff;fill-rule:evenodd;fill-opacity:1;stroke:none;"/>
  <path id="path119" d="  M 630.31579,444.31579   L 725.84211,448.05263   L 630.05263,448.05263  z " style="fill:#ffffff;fill-rule:evenodd;fill-opacity:1;stroke:none;"/>
  <path id="path121" d="  M 630.31579,444.31579   L 727.21053,444.31579   L 725.84211,448.05263  z " style="fill:#ffffff;fill-rule:evenodd;fill-opacity:1;stroke:none;"/>
  <path id="path123" d="  M 630.05263,448.05263   L 724.89474,454.94737   L 629.57895,454.94737  z " style="fill:#ffffff;fill-rule:evenodd;fill-opacity:1;stroke:none;"/>
  <path id="path125" d="  M 630.05263,448.05263   L 725.84211,448.05263   L 724.89474,454.94737  z " style="fill:#ffffff;fill-rule:evenodd;fill-opacity:1;stroke:none;"/>
  <path id="path127" d="  M 629.57895,454.94737   L 724.89474,454.94737   L 629.57895,454.94737  z " style="fill:#ffffff;fill-rule:evenodd;fill-opacity:1;stroke:none;"/>
  <path id="path129" d="  M 629.57895,454.94737   L 724.89474,454.94737   L 724.89474,454.94737  z " style="fill:#ffffff;fill-rule:evenodd;fill-opacity:1;stroke:none;"/>
  <path id="path131" d="  M 629.57895,454.94737   L 725.84211,461.78947   L 630.05263,461.78947  z " style="fill:#ffffff;fill-rule:evenodd;fill-opacity:1;stroke:none;"/>
  <path id="path133" d="  M 629.57895,454.94737   L 724.89474,454.94737   L 725.84211,461.78947  z " style="fill:#ffffff;fill-rule:evenodd;fill-opacity:1;stroke:none;"/>
  <path id="path135" d="  M 630.05263,461.78947   L 727.21053,465.57895   L 630.31579,465.57895  z " style="fill:#ffffff;fill-rule:evenodd;fill-opacity:1;stroke:none;"/>
  <path id="path137" d="  M 630.05263,461.78947   L 725.84211,461.78947   L 727.21053,465.57895  z " style="fill:#ffffff;fill-rule:evenodd;fill-opacity:1;stroke:none;"/>
  <path id="path139" d="  M 630.31579,465.57895   L 729.31579,469.68421   L 630.57895,469.68421  z " style="fill:#ffffff;fill-rule:evenodd;fill-opacity:1;stroke:none;"/>
  <path id="path141" d="  M 630.31579,465.57895   L 727.21053,465.57895   L 729.31579,469.68421  z " style="fill:#ffffff;fill-rule:evenodd;fill-opacity:1;stroke:none;"/>
  <path id="path143" d="  M 630.57895,469.68421   L 729.84211,470.47368   L 630.63158,470.47368  z " style="fill:#ffffff;fill-rule:evenodd;fill-opacity:1;stroke:none;"/>
  <path id="path145" d="  M 630.57895,469.68421   L 729.31579,469.68421   L 729.84211,470.47368  z " style="fill:#ffffff;fill-rule:evenodd;fill-opacity:1;stroke:none;"/>
  <path id="path147" d="  M 630.63158,470.47368   L 732.26316,474.05263   L 631.31579,474.05263  z " style="fill:#ffffff;fill-rule:evenodd;fill-opacity:1;stroke:none;"/>
  <path id="path149" d="  M 630.63158,470.47368   L 729.84211,470.47368   L 732.26316,474.05263  z " style="fill:#ffffff;fill-rule:evenodd;fill-opacity:1;stroke:none;"/>
  <path id="path151" d="  M 631.31579,474.05263   L 736.21053,478.63158   L 632.21053,478.63158  z " style="fill:#ffffff;fill-rule:evenodd;fill-opacity:1;stroke:none;"/>
  <path id="path153" d="  M 631.31579,474.05263   L 732.26316,474.05263   L 736.21053,478.63158  z " style="fill:#ffffff;fill-rule:evenodd;fill-opacity:1;stroke:none;"/>
  <path id="path155" d="  M 632.21053,478.63158   L 741.15789,483.31579   L 633.15789,483.31579  z " style="fill:#ffffff;fill-rule:evenodd;fill-opacity:1;stroke:none;"/>
  <path id="path157" d="  M 632.21053,478.63158   L 736.21053,478.63158   L 741.15789,483.31579  z " style="fill:#ffffff;fill-rule:evenodd;fill-opacity:1;stroke:none;"/>
  <path id="path159" d="  M 633.15789,483.31579   L 744.36842,485.73684   L 633.63158,485.73684  z " style="fill:#ffffff;fill-rule:evenodd;fill-opacity:1;stroke:none;"/>
  <path id="path161" d="  M 633.15789,483.31579   L 741.15789,483.31579   L 744.36842,485.73684  z " style="fill:#ffffff;fill-rule:evenodd;fill-opacity:1;stroke:none;"/>
  <path id="path163" d="  M 633.63158,485.73684   L 747.10526,487.89474   L 634.36842,487.89474  z " style="fill:#ffffff;fill-rule:evenodd;fill-opacity:1;stroke:none;"/>
  <path id="path165" d="  M 633.63158,485.73684   L 744.36842,485.73684   L 747.10526,487.89474  z " style="fill:#ffffff;fill-rule:evenodd;fill-opacity:1;stroke:none;"/>
  <path id="path167" d="  M 634.36842,487.89474   L 754.05263,492.21053   L 635.78947,492.21053  z " style="fill:#ffffff;fill-rule:evenodd;fill-opacity:1;stroke:none;"/>
  <path id="path169" d="  M 634.36842,487.89474   L 747.10526,487.89474   L 754.05263,492.21053  z " style="fill:#ffffff;fill-rule:evenodd;fill-opacity:1;stroke:none;"/>
  <path id="path171" d="  M 635.78947,492.21053   L 761.78947,496.21053   L 637.10526,496.21053  z " style="fill:#ffffff;fill-rule:evenodd;fill-opacity:1;stroke:none;"/>
  <path id="path173" d="  M 635.78947,492.21053   L 754.05263,492.21053   L 761.78947,496.21053  z " style="fill:#ffffff;fill-rule:evenodd;fill-opacity:1;stroke:none;"/>
  <path id="path175" d="  M 637.10526,496.21053   L 770.31579,499.78947   L 638.31579,499.78947  z " style="fill:#ffffff;fill-rule:evenodd;fill-opacity:1;stroke:none;"/>
  <path id="path177" d="  M 637.10526,496.21053   L 761.78947,496.21053   L 770.31579,499.78947  z " style="fill:#ffffff;fill-rule:evenodd;fill-opacity:1;stroke:none;"/>
  <path id="path179" d="  M 638.31579,499.78947   L 772.84211,500.63158   L 638.57895,500.63158  z " style="fill:#ffffff;fill-rule:evenodd;fill-opacity:1;stroke:none;"/>
  <path id="path181" d="  M 638.31579,499.78947   L 770.31579,499.78947   L 772.84211,500.63158  z " style="fill:#ffffff;fill-rule:evenodd;fill-opacity:1;stroke:none;"/>
  <path id="path183" d="  M 638.57895,500.63158   L 779.52632,502.78947   L 639.63158,502.78947  z " style="fill:#ffffff;fill-rule:evenodd;fill-opacity:1;stroke:none;"/>
  <path id="path185" d="  M 638.57895,500.63158   L 772.84211,500.63158   L 779.52632,502.78947  z " style="fill:#ffffff;fill-rule:evenodd;fill-opacity:1;stroke:none;"/>
  <path id="path187" d="  M 639.63158,502.78947   L 789.21053,505.21053   L 640.78947,505.21053  z " style="fill:#ffffff;fill-rule:evenodd;fill-opacity:1;stroke:none;"/>
  <path id="path189" d="  M 639.63158,502.78947   L 779.52632,502.78947   L 789.21053,505.21053  z " style="fill:#ffffff;fill-rule:evenodd;fill-opacity:1;stroke:none;"/>
  <path id="path191" d="  M 640.78947,505.21053   L 799.31579,506.94737   L 641.63158,506.94737  z " style="fill:#ffffff;fill-rule:evenodd;fill-opacity:1;stroke:none;"/>
  <path id="path193" d="  M 640.78947,505.21053   L 789.21053,505.21053   L 799.31579,506.94737  z " style="fill:#ffffff;fill-rule:evenodd;fill-opacity:1;stroke:none;"/>
  <path id="path195" d="  M 641.63158,506.94737   L 809.68421,508.05263   L 642.10526,508.05263  z " style="fill:#ffffff;fill-rule:evenodd;fill-opacity:1;stroke:none;"/>
  <path id="path197" d="  M 641.63158,506.94737   L 799.31579,506.94737   L 809.68421,508.05263  z " style="fill:#ffffff;fill-rule:evenodd;fill-opacity:1;stroke:none;"/>
  <path id="path199" d="  M 642.10526,508.05263   L 820.15789,508.36842   L 642.31579,508.36842  z " style="fill:#ffffff;fill-rule:evenodd;fill-opacity:1;stroke:none;"/>
  <path id="path201" d="  M 642.10526,508.05263   L 809.68421,508.05263   L 820.15789,508.36842  z " style="fill:#ffffff;fill-rule:evenodd;fill-opacity:1;stroke:none;"/>
  <path id="path203" d="  M 642.31579,508.36842   L 820.15789,514.84211   L 645.36842,514.84211  z " style="fill:#ffffff;fill-rule:evenodd;fill-opacity:1;stroke:none;"/>
  <path id="path205" d="  M 642.31579,508.36842   L 820.15789,508.36842   L 820.15789,514.84211  z " style="fill:#ffffff;fill-rule:evenodd;fill-opacity:1;stroke:none;"/>
  <path id="path207" d="  M 645.36842,514.84211   L 820.15789,528.26316   L 653.84211,528.26316  z " style="fill:#ffffff;fill-rule:evenodd;fill-opacity:1;stroke:none;"/>
  <path id="path209" d="  M 645.36842,514.84211   L 820.15789,514.84211   L 820.15789,528.26316  z " style="fill:#ffffff;fill-rule:evenodd;fill-opacity:1;stroke:none;"/>
  <path id="path211" d="  M 653.84211,528.26316   L 820.15789,540.78947   L 663.89474,540.78947  z " style="fill:#ffffff;fill-rule:evenodd;fill-opacity:1;stroke:none;"/>
  <path id="path213" d="  M 653.84211,528.26316   L 820.15789,528.26316   L 820.15789,540.78947  z " style="fill:#ffffff;fill-rule:evenodd;fill-opacity:1;stroke:none;"/>
  <path id="path215" d="  M 663.89474,540.78947   L 820.15789,552.31579   L 675.31579,552.31579  z " style="fill:#ffffff;fill-rule:evenodd;fill-opacity:1;stroke:none;"/>
  <path id="path217" d="  M 663.89474,540.78947   L 820.15789,540.78947   L 820.15789,552.31579  z " style="fill:#ffffff;fill-rule:evenodd;fill-opacity:1;stroke:none;"/>
  <path id="path219" d="  M 675.31579,552.31579   L 820.15789,562.78947   L 688.05263,562.78947  z " style="fill:#ffffff;fill-rule:evenodd;fill-opacity:1;stroke:none;"/>
  <path id="path221" d="  M 675.31579,552.31579   L 820.15789,552.31579   L 820.15789,562.78947  z " style="fill:#ffffff;fill-rule:evenodd;fill-opacity:1;stroke:none;"/>
  <path id="path223" d="  M 688.05263,562.78947   L 820.15789,572.15789   L 701.94737,572.15789  z " style="fill:#ffffff;fill-rule:evenodd;fill-opacity:1;stroke:none;"/>
  <path id="path225" d="  M 688.05263,562.78947   L 820.15789,562.78947   L 820.15789,572.15789  z " style="fill:#ffffff;fill-rule:evenodd;fill-opacity:1;stroke:none;"/>
  <path id="path227" d="  M 701.94737,572.15789   L 820.15789,580.42105   L 716.89474,580.42105  z " style="fill:#ffffff;fill-rule:evenodd;fill-opacity:1;stroke:none;"/>
  <path id="path229" d="  M 701.94737,572.15789   L 820.15789,572.15789   L 820.15789,580.42105  z " style="fill:#ffffff;fill-rule:evenodd;fill-opacity:1;stroke:none;"/>
  <path id="path231" d="  M 716.89474,580.42105   L 820.15789,587.42105   L 732.68421,587.42105  z " style="fill:#ffffff;fill-rule:evenodd;fill-opacity:1;stroke:none;"/>
  <path id="path233" d="  M 716.89474,580.42105   L 820.15789,580.42105   L 820.15789,587.42105  z " style="fill:#ffffff;fill-rule:evenodd;fill-opacity:1;stroke:none;"/>
  <path id="path235" d="  M 732.68421,587.42105   L 820.15789,593.26316   L 749.26316,593.26316  z " style="fill:#ffffff;fill-rule:evenodd;fill-opacity:1;stroke:none;"/>
  <path id="path237" d="  M 732.68421,587.42105   L 820.15789,587.42105   L 820.15789,593.26316  z " style="fill:#ffffff;fill-rule:evenodd;fill-opacity:1;stroke:none;"/>
  <path id="path239" d="  M 749.26316,593.26316   L 820.15789,597.78947   L 766.42105,597.78947  z " style="fill:#ffffff;fill-rule:evenodd;fill-opacity:1;stroke:none;"/>
  <path id="path241" d="  M 749.26316,593.26316   L 820.15789,593.26316   L 820.15789,597.78947  z " style="fill:#ffffff;fill-rule:evenodd;fill-opacity:1;stroke:none;"/>
  <path id="path243" d="  M 766.42105,597.78947   L 820.15789,601.10526   L 784.10526,601.10526  z " style="fill:#ffffff;fill-rule:evenodd;fill-opacity:1;stroke:none;"/>
  <path id="path245" d="  M 766.42105,597.78947   L 820.15789,597.78947   L 820.15789,601.10526  z " style="fill:#ffffff;fill-rule:evenodd;fill-opacity:1;stroke:none;"/>
  <path id="path247" d="  M 802.05263,603.05263   L 820.15789,603.05263   L 820.15789,603.73684  z " style="fill:#ffffff;fill-rule:evenodd;fill-opacity:1;stroke:none;"/>
  <path id="path249" d="  M 784.10526,601.10526   L 820.15789,603.05263   L 802.05263,603.05263  z " style="fill:#ffffff;fill-rule:evenodd;fill-opacity:1;stroke:none;"/>
  <path id="path251" d="  M 784.10526,601.10526   L 820.15789,601.10526   L 820.15789,603.05263  z " style="fill:#ffffff;fill-rule:evenodd;fill-opacity:1;stroke:none;"/>
  <path id="path255" d="  M 820.15789,306.15789   L 811.10526,306.31579   L 806.57895,306.52632   L 802.05263,306.78947   L 797.52632,307.15789   L 793.05263,307.63158   L 788.57895,308.15789   L 784.10526,308.78947   L 779.63158,309.47368   L 775.21053,310.26316   L 770.84211,311.10526   L 766.42105,312.05263   L 762.10526,313.05263   L 757.78947,314.15789   L 753.52632,315.36842   L 749.26316,316.63158   L 745.05263,317.94737   L 740.89474,319.36842   L 736.78947,320.84211   L 732.68421,322.42105   L 728.68421,324.05263   L 724.68421,325.78947   L 720.78947,327.57895   L 716.89474,329.47368   L 713.05263,331.42105   L 709.31579,333.42105   L 705.63158,335.52632   L 701.94737,337.68421   L 698.36842,339.94737   L 694.89474,342.26316   L 691.42105,344.63158   L 688.05263,347.05263   L 684.78947,349.57895   L 681.52632,352.21053   L 678.42105,354.84211   L 675.31579,357.57895   L 672.31579,360.36842   L 669.42105,363.21053   L 666.63158,366.10526   L 663.89474,369.10526   L 661.21053,372.15789   L 658.68421,375.26316   L 656.21053,378.42105   L 653.84211,381.63158   L 651.57895,384.89474   L 649.36842,388.26316   L 647.31579,391.63158   L 645.36842,395.05263   L 643.52632,398.52632   L 641.73684,402.05263   L 640.10526,405.63158   L 638.57895,409.26316   L 637.15789,412.94737   L 635.89474,416.63158   L 634.68421,420.36842   L 633.63158,424.10526   L 632.68421,427.89474   L 631.89474,431.73684   L 631.21053,435.57895   L 630.63158,439.42105   L 630.15789,443.26316   L 629.84211,447.15789   L 629.68421,451.05263   L 629.57895,454.94737   L 629.68421,458.84211   L 629.84211,462.73684   L 630.15789,466.57895   L 630.63158,470.47368   L 631.21053,474.31579   L 631.89474,478.15789   L 632.68421,481.94737   L 633.63158,485.73684   L 634.68421,489.52632   L 635.89474,493.26316   L 637.15789,496.94737   L 638.57895,500.63158   L 640.10526,504.21053   L 641.73684,507.78947   L 643.52632,511.31579   L 645.36842,514.84211   L 647.31579,518.26316   L 649.42105,521.63158   L 651.57895,524.94737   L 653.84211,528.26316   L 656.21053,531.47368   L 658.68421,534.63158   L 661.21053,537.73684   L 663.89474,540.78947   L 666.63158,543.73684   L 669.42105,546.68421   L 672.31579,549.52632   L 675.31579,552.31579   L 678.42105,555.05263   L 681.52632,557.68421   L 684.78947,560.26316   L 688.05263,562.78947   L 691.42105,565.26316   L 694.89474,567.63158   L 698.36842,569.94737   L 701.94737,572.15789   L 705.63158,574.31579   L 709.31579,576.42105   L 713.05263,578.47368   L 716.89474,580.42105   L 720.78947,582.26316   L 724.68421,584.05263   L 728.68421,585.78947   L 732.68421,587.42105   L 736.78947,589   L 740.89474,590.52632   L 745.05263,591.89474   L 749.26316,593.26316   L 753.52632,594.52632   L 757.78947,595.68421   L 762.10526,596.78947   L 766.42105,597.78947   L 770.84211,598.73684   L 775.21053,599.63158   L 779.63158,600.36842   L 784.10526,601.10526   L 788.57895,601.68421   L 793.05263,602.21053   L 797.52632,602.68421   L 802.05263,603.05263   L 806.57895,603.36842   L 811.10526,603.57895   L 820.15789,603.73684  " style="fill:none;stroke:#000000;stroke-width:15px;stroke-linecap:round;stroke-linejoin:round;stroke-miterlimit:4;stroke-dasharray:none;stroke-opacity:1;"/>
  <path id="path257" d="  M 820.15789,508.36842   L 814.89474,508.26316   L 809.68421,508.05263   L 804.47368,507.57895   L 799.31579,506.94737   L 794.21053,506.15789   L 789.21053,505.21053   L 784.31579,504.10526   L 779.52632,502.78947   L 774.84211,501.36842   L 770.31579,499.78947   L 766,498.05263   L 761.78947,496.21053   L 757.78947,494.26316   L 754.05263,492.21053   L 750.47368,490.10526   L 747.10526,487.89474   L 744,485.63158   L 741.15789,483.31579   L 738.57895,481   L 736.21053,478.63158   L 734.10526,476.36842   L 732.26316,474.05263   L 730.68421,471.84211   L 729.31579,469.68421   L 728.15789,467.57895   L 727.21053,465.57895   L 726.47368,463.63158   L 725.84211,461.78947   L 725.42105,460   L 725.10526,458.26316   L 724.94737,456.57895   L 724.89474,454.94737   L 724.94737,453.26316   L 725.10526,451.57895   L 725.42105,449.84211   L 725.84211,448.05263   L 726.47368,446.21053   L 727.21053,444.31579   L 728.15789,442.26316   L 729.31579,440.21053   L 730.68421,438.05263   L 732.26316,435.78947   L 734.10526,433.52632   L 736.21053,431.21053   L 738.57895,428.89474   L 741.15789,426.57895   L 744,424.26316   L 747.10526,422   L 750.47368,419.78947   L 754.05263,417.63158   L 757.78947,415.57895   L 761.78947,413.63158   L 766,411.78947   L 770.31579,410.10526   L 774.84211,408.52632   L 779.52632,407.05263   L 784.31579,405.78947   L 789.21053,404.68421   L 794.21053,403.68421   L 799.31579,402.89474   L 804.47368,402.26316   L 809.68421,401.84211   L 814.89474,401.57895   L 820.15789,401.47368  " style="fill:none;stroke:#000000;stroke-width:15px;stroke-linecap:round;stroke-linejoin:round;stroke-miterlimit:4;stroke-dasharray:none;stroke-opacity:1;"/>
</svg>