<svg xmlns:dc="http://purl.org/dc/elements/1.1/" xmlns:cc="http://creativecommons.org/ns#" xmlns:rdf="http://www.w3.org/1999/02/22-rdf-syntax-ns#" xmlns:svg="http://www.w3.org/2000/svg" xmlns="http://www.w3.org/2000/svg" id="svg101" version="1.0" 
viewBox="137.19 1.76 1372.03 1268.11">
  <metadata id="metadata105">
    <rdf:RDF>
      <cc:Work rdf:about="">
        <dc:format>image/svg+xml</dc:format>
        <dc:type rdf:resource="http://purl.org/dc/dcmitype/StillImage"/>
      </cc:Work>
    </rdf:RDF>
  </metadata>
  <defs id="defs3">
    <pattern y="0" x="0" height="6" width="6" patternUnits="userSpaceOnUse" id="WMFhbasepattern"/>
  </defs>
  <path id="path5" d="  M 667.4992,1241.5045   L 674.30155,1240.7885   L 680.79702,1238.7938   L 686.78103,1235.5717   L 691.94672,1231.2754   L 696.14065,1226.0075   L 699.15823,1220.0234   L 700.84603,1213.5791   L 701.20405,1206.9302   L 700.18114,1200.3836   L 697.7773,1194.1438   L 694.19712,1188.4667   L 689.49174,1183.659   L 683.86574,1179.8743   L 677.57485,1177.2658   L 670.92595,1175.8849   L 664.07246,1175.8849   L 657.3724,1177.2658   L 651.13266,1179.8743   L 645.50666,1183.659   L 640.80128,1188.4667   L 637.16995,1194.1438   L 634.81726,1200.3836   L 633.79435,1206.9302   L 634.15237,1213.5791   L 635.84017,1220.0234   L 638.85775,1226.0075   L 643.05168,1231.2754   L 648.21737,1235.5717   L 654.20139,1238.7938   L 660.69686,1240.7885   L 667.4992,1241.5045  z " style="fill:none;stroke:#000000;stroke-width:8px;stroke-linecap:round;stroke-linejoin:round;stroke-miterlimit:4;stroke-dasharray:none;stroke-opacity:1;"/>
  <path id="path7" d="  M 1196.8034,531.04315   L 1508.228,531.04315  " style="fill:none;stroke:#000000;stroke-width:8px;stroke-linecap:round;stroke-linejoin:round;stroke-miterlimit:4;stroke-dasharray:none;stroke-opacity:1;"/>
  <path id="path9" d="  M 1508.228,162.79595   L 1196.8034,162.79595  " style="fill:none;stroke:#000000;stroke-width:8px;stroke-linecap:round;stroke-linejoin:round;stroke-miterlimit:4;stroke-dasharray:none;stroke-opacity:1;"/>
  <path id="path11" d="  M 1057.1763,3.7847629   L 1057.1763,3.2733085   L 1057.1763,2.761854   L 277.82206,2.761854   L 277.82206,3.2733085   L 277.82206,3.7847629  z " style="fill:#000000;fill-rule:evenodd;fill-opacity:1;stroke:none;"/>
  <path id="path13" d="  M 1057.1763,3.7847629   L 1057.1763,3.2733085   L 1057.1763,2.761854   L 277.82206,2.761854   L 277.82206,3.2733085   L 277.82206,3.7847629   L 1057.1763,3.7847629  z " style="fill:none;stroke:#000000;stroke-width:8px;stroke-linecap:round;stroke-linejoin:round;stroke-miterlimit:4;stroke-dasharray:none;stroke-opacity:1;"/>
  <path id="path15" d="  M 532.47523,1173.5322   L 802.52318,1173.5322  " style="fill:none;stroke:#000000;stroke-width:8px;stroke-linecap:round;stroke-linejoin:round;stroke-miterlimit:4;stroke-dasharray:none;stroke-opacity:1;"/>
  <path id="path17" d="  M 1508.228,162.79595   L 1508.228,531.04315  " style="fill:none;stroke:#000000;stroke-width:8px;stroke-linecap:round;stroke-linejoin:round;stroke-miterlimit:4;stroke-dasharray:none;stroke-opacity:1;"/>
  <path id="path19" d="  M 814.79808,1189.0804   L 814.79808,1141.0549  " style="fill:none;stroke:#000000;stroke-width:8px;stroke-linecap:round;stroke-linejoin:round;stroke-miterlimit:4;stroke-dasharray:none;stroke-opacity:1;"/>
  <path id="path21" d="  M 520.20032,1189.0804   L 520.20032,1141.0549  " style="fill:none;stroke:#000000;stroke-width:8px;stroke-linecap:round;stroke-linejoin:round;stroke-miterlimit:4;stroke-dasharray:none;stroke-opacity:1;"/>
  <path id="path23" d="  M 689.4406,1183.659   L 688.77571,1184.9377  " style="fill:none;stroke:#000000;stroke-width:8px;stroke-linecap:round;stroke-linejoin:round;stroke-miterlimit:4;stroke-dasharray:none;stroke-opacity:1;"/>
  <path id="path25" d="  M 646.2227,1184.9377   L 645.50666,1183.659  " style="fill:none;stroke:#000000;stroke-width:8px;stroke-linecap:round;stroke-linejoin:round;stroke-miterlimit:4;stroke-dasharray:none;stroke-opacity:1;"/>
  <path id="path27" d="  M 653.33191,1188.5178   L 648.9334,1181.1529  " style="fill:none;stroke:#000000;stroke-width:8px;stroke-linecap:round;stroke-linejoin:round;stroke-miterlimit:4;stroke-dasharray:none;stroke-opacity:1;"/>
  <path id="path29" d="  M 653.33191,1188.5178   L 653.33191,1192.5072  " style="fill:none;stroke:#000000;stroke-width:8px;stroke-linecap:round;stroke-linejoin:round;stroke-miterlimit:4;stroke-dasharray:none;stroke-opacity:1;"/>
  <path id="path31" d="  M 681.66649,1188.5178   L 681.66649,1192.5072  " style="fill:none;stroke:#000000;stroke-width:8px;stroke-linecap:round;stroke-linejoin:round;stroke-miterlimit:4;stroke-dasharray:none;stroke-opacity:1;"/>
  <path id="path33" d="  M 686.01385,1181.1529   L 681.66649,1188.5178  " style="fill:none;stroke:#000000;stroke-width:8px;stroke-linecap:round;stroke-linejoin:round;stroke-miterlimit:4;stroke-dasharray:none;stroke-opacity:1;"/>
  <path id="path35" d="  M 681.66649,1188.5178   L 653.33191,1188.5178  " style="fill:none;stroke:#000000;stroke-width:8px;stroke-linecap:round;stroke-linejoin:round;stroke-miterlimit:4;stroke-dasharray:none;stroke-opacity:1;"/>
  <path id="path37" d="  M 138.19499,38.563665   L 138.19499,1097.2232  " style="fill:none;stroke:#000000;stroke-width:8px;stroke-linecap:round;stroke-linejoin:round;stroke-miterlimit:4;stroke-dasharray:none;stroke-opacity:1;"/>
  <path id="path39" d="  M 138.19499,38.563665   L 1196.8034,38.563665  " style="fill:none;stroke:#000000;stroke-width:8px;stroke-linecap:round;stroke-linejoin:round;stroke-miterlimit:4;stroke-dasharray:none;stroke-opacity:1;"/>
  <path id="path41" d="  M 1196.8034,38.563665   L 1196.8034,1097.2232  " style="fill:none;stroke:#000000;stroke-width:8px;stroke-linecap:round;stroke-linejoin:round;stroke-miterlimit:4;stroke-dasharray:none;stroke-opacity:1;"/>
  <path id="path43" d="  M 138.19499,1097.2232   L 1196.8034,1097.2232  " style="fill:none;stroke:#000000;stroke-width:8px;stroke-linecap:round;stroke-linejoin:round;stroke-miterlimit:4;stroke-dasharray:none;stroke-opacity:1;"/>
  <path id="path45" d="  M 968.18327,1134.3548   L 802.52318,1134.3548  " style="fill:none;stroke:#000000;stroke-width:8px;stroke-linecap:round;stroke-linejoin:round;stroke-miterlimit:4;stroke-dasharray:none;stroke-opacity:1;"/>
  <path id="path47" d="  M 532.47523,1134.3548   L 366.81513,1134.3548  " style="fill:none;stroke:#000000;stroke-width:8px;stroke-linecap:round;stroke-linejoin:round;stroke-miterlimit:4;stroke-dasharray:none;stroke-opacity:1;"/>
  <path id="path49" d="  M 366.81513,1097.2232   L 366.81513,1141.0549  " style="fill:none;stroke:#000000;stroke-width:8px;stroke-linecap:round;stroke-linejoin:round;stroke-miterlimit:4;stroke-dasharray:none;stroke-opacity:1;"/>
  <path id="path51" d="  M 968.18327,1097.2232   L 968.18327,1141.0549  " style="fill:none;stroke:#000000;stroke-width:8px;stroke-linecap:round;stroke-linejoin:round;stroke-miterlimit:4;stroke-dasharray:none;stroke-opacity:1;"/>
  <path id="path53" d="  M 968.18327,1141.0549   L 802.52318,1141.0549  " style="fill:none;stroke:#000000;stroke-width:8px;stroke-linecap:round;stroke-linejoin:round;stroke-miterlimit:4;stroke-dasharray:none;stroke-opacity:1;"/>
  <path id="path55" d="  M 532.47523,1141.0549   L 366.81513,1141.0549  " style="fill:none;stroke:#000000;stroke-width:8px;stroke-linecap:round;stroke-linejoin:round;stroke-miterlimit:4;stroke-dasharray:none;stroke-opacity:1;"/>
  <path id="path57" d="  M 278.33351,3.2733085   L 277.82206,3.2733085   L 277.3106,3.2733085   L 277.3106,38.563665   L 277.82206,38.563665   L 278.33351,38.563665  z " style="fill:#000000;fill-rule:evenodd;fill-opacity:1;stroke:none;"/>
  <path id="path59" d="  M 278.33351,3.2733085   L 277.82206,3.2733085   L 277.3106,3.2733085   L 277.3106,38.563665   L 277.82206,38.563665   L 278.33351,38.563665   L 278.33351,3.2733085  z " style="fill:none;stroke:#000000;stroke-width:8px;stroke-linecap:round;stroke-linejoin:round;stroke-miterlimit:4;stroke-dasharray:none;stroke-opacity:1;"/>
  <path id="path61" d="  M 1057.6878,3.2733085   L 1057.1763,3.2733085   L 1056.6649,3.2733085   L 1056.6649,38.563665   L 1057.1763,38.563665   L 1057.6878,38.563665  z " style="fill:#000000;fill-rule:evenodd;fill-opacity:1;stroke:none;"/>
  <path id="path63" d="  M 1057.6878,3.2733085   L 1057.1763,3.2733085   L 1056.6649,3.2733085   L 1056.6649,38.563665   L 1057.1763,38.563665   L 1057.6878,38.563665   L 1057.6878,3.2733085  z " style="fill:none;stroke:#000000;stroke-width:8px;stroke-linecap:round;stroke-linejoin:round;stroke-miterlimit:4;stroke-dasharray:none;stroke-opacity:1;"/>
  <path id="path65" d="  M 532.47523,1140.9014   L 802.52318,1140.9014  " style="fill:none;stroke:#000000;stroke-width:8px;stroke-linecap:round;stroke-linejoin:round;stroke-miterlimit:4;stroke-dasharray:none;stroke-opacity:1;"/>
  <path id="path67" d="  M 532.47523,1232.5029   L 532.47523,1119.8295  " style="fill:none;stroke:#000000;stroke-width:8px;stroke-linecap:round;stroke-linejoin:round;stroke-miterlimit:4;stroke-dasharray:none;stroke-opacity:1;"/>
  <path id="path69" d="  M 802.52318,1119.8295   L 802.52318,1232.5029  " style="fill:none;stroke:#000000;stroke-width:8px;stroke-linecap:round;stroke-linejoin:round;stroke-miterlimit:4;stroke-dasharray:none;stroke-opacity:1;"/>
  <path id="path71" d="  M 790.24827,1108.8844   L 544.75013,1108.8844  " style="fill:none;stroke:#000000;stroke-width:8px;stroke-linecap:round;stroke-linejoin:round;stroke-miterlimit:4;stroke-dasharray:none;stroke-opacity:1;"/>
  <path id="path73" d="  M 765.69845,1268.8673   L 765.69845,1268.3559   L 765.69845,1267.8444   L 569.29995,1267.8444   L 569.29995,1268.3559   L 569.29995,1268.8673  z " style="fill:#000000;fill-rule:evenodd;fill-opacity:1;stroke:none;"/>
  <path id="path75" d="  M 765.69845,1268.8673   L 765.69845,1268.3559   L 765.69845,1267.8444   L 569.29995,1267.8444   L 569.29995,1268.3559   L 569.29995,1268.8673   L 765.69845,1268.8673  z " style="fill:none;stroke:#000000;stroke-width:8px;stroke-linecap:round;stroke-linejoin:round;stroke-miterlimit:4;stroke-dasharray:none;stroke-opacity:1;"/>
  <path id="path77" d="  M 802.47203,1221.5067   L 803.9041,1219.8189   L 805.28503,1218.0799   L 806.51252,1216.2387   L 807.74001,1214.3974   L 808.81406,1212.4539   L 809.83697,1210.5104   L 810.75759,1208.4646   L 811.57592,1206.4188   L 812.29196,1204.3218   L 812.95685,1202.2248   L 813.51945,1200.0767   L 813.92861,1197.8775   L 814.28663,1195.7294   L 814.54235,1193.5301   L 814.69579,1191.2797   L 814.74694,1189.0804  " style="fill:none;stroke:#000000;stroke-width:8px;stroke-linecap:round;stroke-linejoin:round;stroke-miterlimit:4;stroke-dasharray:none;stroke-opacity:1;"/>
  <path id="path79" d="  M 520.25147,1189.0804   L 520.30261,1191.2797   L 520.45605,1193.5301   L 520.71177,1195.7294   L 521.06979,1197.8775   L 521.47896,1200.0767   L 522.04156,1202.2248   L 522.70645,1204.3218   L 523.42248,1206.4188   L 524.24081,1208.4646   L 525.16143,1210.5104   L 526.18434,1212.4539   L 527.25839,1214.3974   L 528.48588,1216.2387   L 529.71337,1218.0799   L 531.0943,1219.8189   L 532.52637,1221.5067  " style="fill:none;stroke:#000000;stroke-width:8px;stroke-linecap:round;stroke-linejoin:round;stroke-miterlimit:4;stroke-dasharray:none;stroke-opacity:1;"/>
  <path id="path81" d="  M 667.44806,1202.276   L 669.03356,1202.2248   L 670.56793,1202.1225   L 672.15344,1201.8668   L 673.6878,1201.5599   L 675.17102,1201.0996   L 676.65424,1200.5882   L 678.08631,1199.9744   L 679.46723,1199.2584   L 680.79702,1198.4401   L 682.1268,1197.5706   L 683.35429,1196.5988   L 684.47949,1195.5759   L 685.60469,1194.4507   L 686.6276,1193.2744   L 687.59936,1192.0469   L 688.41769,1190.7171   L 689.23601,1189.3873   L 689.90091,1187.9552   L 690.51465,1186.5232   L 691.02611,1185.04  " style="fill:none;stroke:#000000;stroke-width:8px;stroke-linecap:round;stroke-linejoin:round;stroke-miterlimit:4;stroke-dasharray:none;stroke-opacity:1;"/>
  <path id="path83" d="  M 643.92115,1185.04   L 644.43261,1186.5232   L 645.04635,1187.9552   L 645.71124,1189.3873   L 646.52957,1190.7171   L 647.3479,1192.0469   L 648.31966,1193.2744   L 649.34257,1194.4507   L 650.46777,1195.5759   L 651.59297,1196.5988   L 652.82046,1197.5706   L 654.15024,1198.4401   L 655.48002,1199.2584   L 656.86095,1199.9744   L 658.29302,1200.5882   L 659.77624,1201.0996   L 661.25946,1201.5599   L 662.79382,1201.8668   L 664.37933,1202.1225   L 665.91369,1202.2248   L 667.4992,1202.276  " style="fill:none;stroke:#000000;stroke-width:8px;stroke-linecap:round;stroke-linejoin:round;stroke-miterlimit:4;stroke-dasharray:none;stroke-opacity:1;"/>
  <path id="path85" d="  M 667.4992,1196.8546   L 669.08471,1196.8034   L 670.67022,1196.65   L 672.25573,1196.3942   L 673.79009,1196.0874   L 675.32445,1195.6271   L 676.80767,1195.0645   L 678.29089,1194.4507   L 679.67182,1193.6835   L 681.05274,1192.8652   L 682.33138,1191.9446   L 683.61002,1190.9728   L 684.78636,1189.8988   L 685.86042,1188.7224   L 686.93447,1187.5461   L 687.85509,1186.2674   L 688.72456,1184.8865  " style="fill:none;stroke:#000000;stroke-width:8px;stroke-linecap:round;stroke-linejoin:round;stroke-miterlimit:4;stroke-dasharray:none;stroke-opacity:1;"/>
  <path id="path87" d="  M 646.27384,1184.8865   L 647.14331,1186.2674   L 648.06393,1187.5461   L 649.13799,1188.7224   L 650.21204,1189.8988   L 651.38839,1190.9728   L 652.66702,1191.9446   L 653.94566,1192.8652   L 655.32658,1193.6835   L 656.70751,1194.4507   L 658.19073,1195.0645   L 659.67395,1195.6271   L 661.20831,1196.0874   L 662.74267,1196.3942   L 664.32818,1196.65   L 665.91369,1196.8034   L 667.4992,1196.8546  " style="fill:none;stroke:#000000;stroke-width:8px;stroke-linecap:round;stroke-linejoin:round;stroke-miterlimit:4;stroke-dasharray:none;stroke-opacity:1;"/>
  <path id="path89" d="  M 802.52318,1119.8295   L 802.36974,1118.7043   L 802.16516,1117.5791   L 801.80714,1116.5051   L 801.34683,1115.4822   L 800.78423,1114.4592   L 800.17048,1113.5386   L 799.45445,1112.618   L 798.63612,1111.8508   L 797.7155,1111.1348   L 796.79489,1110.521   L 795.77198,1109.9584   L 794.69792,1109.5493   L 793.62387,1109.2424   L 792.49867,1108.9867   L 791.37347,1108.8844   L 790.24827,1108.8844  " style="fill:none;stroke:#000000;stroke-width:8px;stroke-linecap:round;stroke-linejoin:round;stroke-miterlimit:4;stroke-dasharray:none;stroke-opacity:1;"/>
  <path id="path91" d="  M 544.75013,1108.8844   L 543.62493,1108.8844   L 542.49973,1108.9867   L 541.37453,1109.2424   L 540.30048,1109.5493   L 539.22643,1109.9584   L 538.20352,1110.521   L 537.2829,1111.1348   L 536.36228,1111.8508   L 535.54395,1112.618   L 534.82792,1113.5386   L 534.21417,1114.4592   L 533.65157,1115.4822   L 533.19126,1116.5051   L 532.83324,1117.5791   L 532.62866,1118.7043   L 532.47523,1119.8295  " style="fill:none;stroke:#000000;stroke-width:8px;stroke-linecap:round;stroke-linejoin:round;stroke-miterlimit:4;stroke-dasharray:none;stroke-opacity:1;"/>
  <path id="path93" d="  M 532.52637,1232.5541   L 532.62866,1234.5487   L 532.83324,1236.5946   L 533.14012,1238.5892   L 533.54928,1240.5839   L 534.06074,1242.5786   L 534.72563,1244.471   L 535.49281,1246.3633   L 536.31113,1248.2557   L 537.2829,1250.0458   L 538.35695,1251.7848   L 539.48215,1253.4726   L 540.76079,1255.0581   L 542.09057,1256.5924   L 543.52264,1258.0757   L 545.00586,1259.4566   L 546.59137,1260.7352   L 548.22802,1261.9116   L 549.91582,1263.0368   L 551.70591,1264.0597   L 553.496,1264.9803   L 555.38839,1265.7475   L 557.28077,1266.4635   L 559.22429,1267.0773   L 561.21897,1267.5376   L 563.21364,1267.8956   L 565.25946,1268.2025   L 567.25413,1268.3047   L 569.29995,1268.3559  " style="fill:none;stroke:#000000;stroke-width:8px;stroke-linecap:round;stroke-linejoin:round;stroke-miterlimit:4;stroke-dasharray:none;stroke-opacity:1;"/>
  <path id="path95" d="  M 765.69845,1268.3559   L 767.74427,1268.3047   L 769.73895,1268.2025   L 771.78476,1267.8956   L 773.77944,1267.5376   L 775.77411,1267.0773   L 777.71763,1266.4635   L 779.61002,1265.7475   L 781.5024,1264.9803   L 783.29249,1264.0597   L 785.08258,1263.0368   L 786.77038,1261.9116   L 788.40703,1260.7352   L 789.99254,1259.4566   L 791.47576,1258.0757   L 792.90783,1256.5924   L 794.23761,1255.0581   L 795.51625,1253.4726   L 796.64145,1251.7848   L 797.7155,1250.0458   L 798.68727,1248.2557   L 799.50559,1246.3633   L 800.27278,1244.471   L 800.93767,1242.5786   L 801.44912,1240.5839   L 801.85828,1238.5892   L 802.16516,1236.5946   L 802.36974,1234.5487   L 802.47203,1232.5541  " style="fill:none;stroke:#000000;stroke-width:8px;stroke-linecap:round;stroke-linejoin:round;stroke-miterlimit:4;stroke-dasharray:none;stroke-opacity:1;"/>
  <path id="path97" d="  M 633.79435,1206.8279   L 633.99893,1208.7714   L 634.30581,1210.715   L 634.71497,1212.6074   L 635.22643,1214.4997   L 635.84017,1216.341   L 636.60735,1218.1311   L 637.42568,1219.87   L 638.3463,1221.5578   L 639.42035,1223.2456   L 640.54555,1224.8311   L 641.77304,1226.3143   L 643.05168,1227.7464   L 644.43261,1229.1273   L 645.91582,1230.406   L 647.45019,1231.5823   L 649.0357,1232.7075   L 650.72349,1233.6793   L 652.46244,1234.5999   L 654.20139,1235.4182   L 656.04262,1236.0831   L 657.88386,1236.6969   L 659.77624,1237.1572   L 661.66862,1237.5152   L 663.61215,1237.7709   L 665.50453,1237.9243   L 667.44806,1237.9755  " style="fill:none;stroke:#000000;stroke-width:8px;stroke-linecap:round;stroke-linejoin:round;stroke-miterlimit:4;stroke-dasharray:none;stroke-opacity:1;"/>
  <path id="path99" d="  M 667.4992,1237.9755   L 669.44273,1237.9243   L 671.33511,1237.7709   L 673.27864,1237.5152   L 675.17102,1237.1572   L 677.0634,1236.6969   L 678.90464,1236.0831   L 680.74587,1235.4182   L 682.48482,1234.5999   L 684.22376,1233.6793   L 685.91156,1232.7075   L 687.49707,1231.5823   L 689.03143,1230.406   L 690.51465,1229.1273   L 691.89558,1227.7464   L 693.17421,1226.3143   L 694.4017,1224.8311   L 695.5269,1223.2456   L 696.60096,1221.5578   L 697.52158,1219.87   L 698.3399,1218.1311   L 699.10709,1216.341   L 699.72083,1214.4997   L 700.23229,1212.6074   L 700.64145,1210.715   L 700.94832,1208.7714   L 701.1529,1206.8279  " style="fill:none;stroke:#000000;stroke-width:8px;stroke-linecap:round;stroke-linejoin:round;stroke-miterlimit:4;stroke-dasharray:none;stroke-opacity:1;"/>
</svg>