<svg xmlns:dc="http://purl.org/dc/elements/1.1/" xmlns:cc="http://creativecommons.org/ns#" xmlns:rdf="http://www.w3.org/1999/02/22-rdf-syntax-ns#" xmlns:svg="http://www.w3.org/2000/svg" xmlns="http://www.w3.org/2000/svg" id="svg41" version="1.0" 
viewBox="189.72 1.76 1266.98 1268.11">
  <metadata id="metadata45">
    <rdf:RDF>
      <cc:Work rdf:about="">
        <dc:format>image/svg+xml</dc:format>
        <dc:type rdf:resource="http://purl.org/dc/dcmitype/StillImage"/>
      </cc:Work>
    </rdf:RDF>
  </metadata>
  <defs id="defs3">
    <pattern y="0" x="0" height="6" width="6" patternUnits="userSpaceOnUse" id="WMFhbasepattern"/>
  </defs>
  <path id="path5" d="  M 291.88705,74.10975   L 291.83591,72.166223   L 291.63133,70.222696   L 291.32445,68.330314   L 290.91529,66.437933   L 290.35269,64.545551   L 289.6878,62.704315   L 288.86947,60.96537   L 288,59.226425   L 286.97709,57.538625   L 285.85189,55.953117   L 284.67555,54.469899   L 283.34576,52.986681   L 281.96484,51.656899   L 280.48162,50.378263   L 278.89611,49.253063   L 277.25946,48.179009   L 275.57166,47.207246   L 273.83271,46.388918   L 272.04262,45.621737   L 270.20139,45.059137   L 268.309,44.547682   L 266.41662,44.189664   L 264.4731,43.933937   L 262.52957,43.780501   L 260.58604,43.780501   L 258.64251,43.933937   L 256.69899,44.189664   L 254.80661,44.547682   L 252.91422,45.059137   L 251.07299,45.621737   L 249.2829,46.388918   L 247.54395,47.207246   L 245.85615,48.179009   L 244.2195,49.253063   L 242.63399,50.378263   L 241.15077,51.656899   L 239.76985,52.986681   L 238.44006,54.469899   L 237.26372,55.953117   L 236.13852,57.538625   L 235.11561,59.226425   L 234.24614,60.96537   L 233.42781,62.704315   L 232.76292,64.545551   L 232.20032,66.437933   L 231.79116,68.330314   L 231.48428,70.222696   L 231.2797,72.166223   L 231.22856,74.10975   L 231.2797,76.053277   L 231.48428,77.996803   L 231.79116,79.889185   L 232.20032,81.781566   L 232.76292,83.673948   L 233.42781,85.515184   L 234.24614,87.254129   L 235.11561,88.993074   L 236.13852,90.680874   L 237.26372,92.266383   L 238.44006,93.7496   L 239.76985,95.232818   L 241.15077,96.5626   L 242.63399,97.841236   L 244.2195,98.966436   L 245.85615,100.04049   L 247.54395,101.01225   L 249.2829,101.83058   L 251.07299,102.59776   L 252.91422,103.16036   L 254.80661,103.67182   L 256.69899,104.02983   L 258.64251,104.28556   L 260.58604,104.439   L 262.52957,104.439   L 264.4731,104.28556   L 266.41662,104.02983   L 268.309,103.67182   L 270.20139,103.16036   L 272.04262,102.59776   L 273.83271,101.83058   L 275.57166,101.01225   L 277.25946,100.04049   L 278.89611,98.966436   L 280.48162,97.841236   L 281.96484,96.5626   L 283.34576,95.232818   L 284.67555,93.7496   L 285.85189,92.266383   L 286.97709,90.680874   L 288,88.993074   L 288.86947,87.254129   L 289.6878,85.515184   L 290.35269,83.673948   L 290.91529,81.781566   L 291.32445,79.889185   L 291.63133,77.996803   L 291.83591,76.053277   L 291.88705,74.10975  z " style="fill:none;stroke:#000000;stroke-width:8px;stroke-linecap:round;stroke-linejoin:round;stroke-miterlimit:4;stroke-dasharray:none;stroke-opacity:1;"/>
  <path id="path7" d="  M 274.19073,74.10975   L 274.13958,72.882259   L 273.935,71.654768   L 273.62813,70.427278   L 273.21897,69.250932   L 272.70751,68.176878   L 272.04262,67.102824   L 271.32658,66.079915   L 270.50826,65.159297   L 269.58764,64.34097   L 268.56473,63.624933   L 267.49068,62.960043   L 266.41662,62.448588   L 265.24028,62.039425   L 264.01279,61.732552   L 262.7853,61.52797   L 261.55781,61.476825   L 260.33031,61.52797   L 259.10282,61.732552   L 257.87533,62.039425   L 256.69899,62.448588   L 255.62493,62.960043   L 254.55088,63.624933   L 253.52797,64.34097   L 252.60735,65.159297   L 251.78903,66.079915   L 251.07299,67.102824   L 250.4081,68.176878   L 249.89664,69.250932   L 249.48748,70.427278   L 249.18061,71.654768   L 248.97603,72.882259   L 248.92488,74.10975   L 248.97603,75.33724   L 249.18061,76.564731   L 249.48748,77.792222   L 249.89664,78.968567   L 250.4081,80.042621   L 251.07299,81.116676   L 251.78903,82.139584   L 252.60735,83.060202   L 253.52797,83.87853   L 254.55088,84.594566   L 255.62493,85.259457   L 256.69899,85.770911   L 257.87533,86.180075   L 259.10282,86.486947   L 260.33031,86.691529   L 261.55781,86.742674   L 262.7853,86.691529   L 264.01279,86.486947   L 265.24028,86.180075   L 266.41662,85.770911   L 267.49068,85.259457   L 268.56473,84.594566   L 269.58764,83.87853   L 270.50826,83.060202   L 271.32658,82.139584   L 272.04262,81.116676   L 272.70751,80.042621   L 273.21897,78.968567   L 273.62813,77.792222   L 273.935,76.564731   L 274.13958,75.33724   L 274.19073,74.10975  z " style="fill:none;stroke:#000000;stroke-width:8px;stroke-linecap:round;stroke-linejoin:round;stroke-miterlimit:4;stroke-dasharray:none;stroke-opacity:1;"/>
  <path id="path9" d="  M 291.88705,1197.5194   L 291.83591,1195.5759   L 291.63133,1193.6324   L 291.32445,1191.74   L 290.91529,1189.8476   L 290.35269,1187.9552   L 289.6878,1186.114   L 288.86947,1184.3751   L 288,1182.6361   L 286.97709,1180.9483   L 285.85189,1179.3628   L 284.67555,1177.8796   L 283.34576,1176.3964   L 281.96484,1175.0666   L 280.48162,1173.788   L 278.89611,1172.6628   L 277.25946,1171.5887   L 275.57166,1170.6169   L 273.83271,1169.7986   L 272.04262,1169.0314   L 270.20139,1168.4688   L 268.309,1167.9574   L 266.41662,1167.5994   L 264.4731,1167.3436   L 262.52957,1167.1902   L 260.58604,1167.1902   L 258.64251,1167.3436   L 256.69899,1167.5994   L 254.80661,1167.9574   L 252.91422,1168.4688   L 251.07299,1169.0314   L 249.2829,1169.7986   L 247.54395,1170.6169   L 245.85615,1171.5887   L 244.2195,1172.6628   L 242.63399,1173.788   L 241.15077,1175.0666   L 239.76985,1176.3964   L 238.44006,1177.8796   L 237.26372,1179.3628   L 236.13852,1180.9483   L 235.11561,1182.6361   L 234.24614,1184.3751   L 233.42781,1186.114   L 232.76292,1187.9552   L 232.20032,1189.8476   L 231.79116,1191.74   L 231.48428,1193.6324   L 231.2797,1195.5759   L 231.22856,1197.5194   L 231.2797,1199.463   L 231.48428,1201.4065   L 231.79116,1203.2989   L 232.20032,1205.1913   L 232.76292,1207.0836   L 233.42781,1208.9249   L 234.24614,1210.6638   L 235.11561,1212.4028   L 236.13852,1214.0906   L 237.26372,1215.6761   L 238.44006,1217.1593   L 239.76985,1218.6425   L 241.15077,1219.9723   L 242.63399,1221.2509   L 244.2195,1222.3761   L 245.85615,1223.4502   L 247.54395,1224.4219   L 249.2829,1225.2403   L 251.07299,1226.0075   L 252.91422,1226.5701   L 254.80661,1227.0815   L 256.69899,1227.4395   L 258.64251,1227.6953   L 260.58604,1227.8487   L 262.52957,1227.8487   L 264.4731,1227.6953   L 266.41662,1227.4395   L 268.309,1227.0815   L 270.20139,1226.5701   L 272.04262,1226.0075   L 273.83271,1225.2403   L 275.57166,1224.4219   L 277.25946,1223.4502   L 278.89611,1222.3761   L 280.48162,1221.2509   L 281.96484,1219.9723   L 283.34576,1218.6425   L 284.67555,1217.1593   L 285.85189,1215.6761   L 286.97709,1214.0906   L 288,1212.4028   L 288.86947,1210.6638   L 289.6878,1208.9249   L 290.35269,1207.0836   L 290.91529,1205.1913   L 291.32445,1203.2989   L 291.63133,1201.4065   L 291.83591,1199.463   L 291.88705,1197.5194  z " style="fill:none;stroke:#000000;stroke-width:8px;stroke-linecap:round;stroke-linejoin:round;stroke-miterlimit:4;stroke-dasharray:none;stroke-opacity:1;"/>
  <path id="path11" d="  M 1415.1945,1197.5194   L 1415.1433,1195.5759   L 1414.9387,1193.6324   L 1414.6319,1191.74   L 1414.2227,1189.8476   L 1413.6601,1187.9552   L 1412.9952,1186.114   L 1412.1769,1184.3751   L 1411.3074,1182.6361   L 1410.2845,1180.9483   L 1409.1593,1179.3628   L 1407.983,1177.8796   L 1406.6532,1176.3964   L 1405.2722,1175.0666   L 1403.789,1173.788   L 1402.2035,1172.6628   L 1400.5669,1171.5887   L 1398.8791,1170.6169   L 1397.1401,1169.7986   L 1395.35,1169.0314   L 1393.5088,1168.4688   L 1391.6164,1167.9574   L 1389.724,1167.5994   L 1387.7805,1167.3436   L 1385.837,1167.1902   L 1383.8934,1167.1902   L 1381.9499,1167.3436   L 1380.0064,1167.5994   L 1378.114,1167.9574   L 1376.2216,1168.4688   L 1374.3804,1169.0314   L 1372.5903,1169.7986   L 1370.8514,1170.6169   L 1369.1636,1171.5887   L 1367.5269,1172.6628   L 1365.9414,1173.788   L 1364.4582,1175.0666   L 1363.0773,1176.3964   L 1361.7475,1177.8796   L 1360.5711,1179.3628   L 1359.4459,1180.9483   L 1358.423,1182.6361   L 1357.5535,1184.3751   L 1356.7352,1186.114   L 1356.0703,1187.9552   L 1355.5077,1189.8476   L 1355.0986,1191.74   L 1354.7917,1193.6324   L 1354.5871,1195.5759   L 1354.536,1197.5194   L 1354.5871,1199.463   L 1354.7917,1201.4065   L 1355.0986,1203.2989   L 1355.5077,1205.1913   L 1356.0703,1207.0836   L 1356.7352,1208.9249   L 1357.5535,1210.6638   L 1358.423,1212.4028   L 1359.4459,1214.0906   L 1360.5711,1215.6761   L 1361.7475,1217.1593   L 1363.0773,1218.6425   L 1364.4582,1219.9723   L 1365.9414,1221.2509   L 1367.5269,1222.3761   L 1369.1636,1223.4502   L 1370.8514,1224.4219   L 1372.5903,1225.2403   L 1374.3804,1226.0075   L 1376.2216,1226.5701   L 1378.114,1227.0815   L 1380.0064,1227.4395   L 1381.9499,1227.6953   L 1383.8934,1227.8487   L 1385.837,1227.8487   L 1387.7805,1227.6953   L 1389.724,1227.4395   L 1391.6164,1227.0815   L 1393.5088,1226.5701   L 1395.35,1226.0075   L 1397.1401,1225.2403   L 1398.8791,1224.4219   L 1400.5669,1223.4502   L 1402.2035,1222.3761   L 1403.789,1221.2509   L 1405.2722,1219.9723   L 1406.6532,1218.6425   L 1407.983,1217.1593   L 1409.1593,1215.6761   L 1410.2845,1214.0906   L 1411.3074,1212.4028   L 1412.1769,1210.6638   L 1412.9952,1208.9249   L 1413.6601,1207.0836   L 1414.2227,1205.1913   L 1414.6319,1203.2989   L 1414.9387,1201.4065   L 1415.1433,1199.463   L 1415.1945,1197.5194  z " style="fill:none;stroke:#000000;stroke-width:8px;stroke-linecap:round;stroke-linejoin:round;stroke-miterlimit:4;stroke-dasharray:none;stroke-opacity:1;"/>
  <path id="path13" d="  M 1415.1945,74.10975   L 1415.1433,72.166223   L 1414.9387,70.222696   L 1414.6319,68.330314   L 1414.2227,66.437933   L 1413.6601,64.545551   L 1412.9952,62.704315   L 1412.1769,60.96537   L 1411.3074,59.226425   L 1410.2845,57.538625   L 1409.1593,55.953117   L 1407.983,54.469899   L 1406.6532,52.986681   L 1405.2722,51.656899   L 1403.789,50.378263   L 1402.2035,49.253063   L 1400.5669,48.179009   L 1398.8791,47.207246   L 1397.1401,46.388918   L 1395.35,45.621737   L 1393.5088,45.059137   L 1391.6164,44.547682   L 1389.724,44.189664   L 1387.7805,43.933937   L 1385.837,43.780501   L 1383.8934,43.780501   L 1381.9499,43.933937   L 1380.0064,44.189664   L 1378.114,44.547682   L 1376.2216,45.059137   L 1374.3804,45.621737   L 1372.5903,46.388918   L 1370.8514,47.207246   L 1369.1636,48.179009   L 1367.5269,49.253063   L 1365.9414,50.378263   L 1364.4582,51.656899   L 1363.0773,52.986681   L 1361.7475,54.469899   L 1360.5711,55.953117   L 1359.4459,57.538625   L 1358.423,59.226425   L 1357.5535,60.96537   L 1356.7352,62.704315   L 1356.0703,64.545551   L 1355.5077,66.437933   L 1355.0986,68.330314   L 1354.7917,70.222696   L 1354.5871,72.166223   L 1354.536,74.10975   L 1354.5871,76.053277   L 1354.7917,77.996803   L 1355.0986,79.889185   L 1355.5077,81.781566   L 1356.0703,83.673948   L 1356.7352,85.515184   L 1357.5535,87.254129   L 1358.423,88.993074   L 1359.4459,90.680874   L 1360.5711,92.266383   L 1361.7475,93.7496   L 1363.0773,95.232818   L 1364.4582,96.5626   L 1365.9414,97.841236   L 1367.5269,98.966436   L 1369.1636,100.04049   L 1370.8514,101.01225   L 1372.5903,101.83058   L 1374.3804,102.59776   L 1376.2216,103.16036   L 1378.114,103.67182   L 1380.0064,104.02983   L 1381.9499,104.28556   L 1383.8934,104.439   L 1385.837,104.439   L 1387.7805,104.28556   L 1389.724,104.02983   L 1391.6164,103.67182   L 1393.5088,103.16036   L 1395.35,102.59776   L 1397.1401,101.83058   L 1398.8791,101.01225   L 1400.5669,100.04049   L 1402.2035,98.966436   L 1403.789,97.841236   L 1405.2722,96.5626   L 1406.6532,95.232818   L 1407.983,93.7496   L 1409.1593,92.266383   L 1410.2845,90.680874   L 1411.3074,88.993074   L 1412.1769,87.254129   L 1412.9952,85.515184   L 1413.6601,83.673948   L 1414.2227,81.781566   L 1414.6319,79.889185   L 1414.9387,77.996803   L 1415.1433,76.053277   L 1415.1945,74.10975  z " style="fill:none;stroke:#000000;stroke-width:8px;stroke-linecap:round;stroke-linejoin:round;stroke-miterlimit:4;stroke-dasharray:none;stroke-opacity:1;"/>
  <path id="path15" d="  M 274.19073,1197.5194   L 274.13958,1196.292   L 273.935,1195.0645   L 273.62813,1193.837   L 273.21897,1192.6606   L 272.70751,1191.5866   L 272.04262,1190.5125   L 271.32658,1189.4896   L 270.50826,1188.569   L 269.58764,1187.7507   L 268.56473,1187.0346   L 267.49068,1186.3697   L 266.41662,1185.8583   L 265.24028,1185.4491   L 264.01279,1185.1422   L 262.7853,1184.9377   L 261.55781,1184.8865   L 260.33031,1184.9377   L 259.10282,1185.1422   L 257.87533,1185.4491   L 256.69899,1185.8583   L 255.62493,1186.3697   L 254.55088,1187.0346   L 253.52797,1187.7507   L 252.60735,1188.569   L 251.78903,1189.4896   L 251.07299,1190.5125   L 250.4081,1191.5866   L 249.89664,1192.6606   L 249.48748,1193.837   L 249.18061,1195.0645   L 248.97603,1196.292   L 248.92488,1197.5194   L 248.97603,1198.7469   L 249.18061,1199.9744   L 249.48748,1201.2019   L 249.89664,1202.3783   L 250.4081,1203.4523   L 251.07299,1204.5264   L 251.78903,1205.5493   L 252.60735,1206.4699   L 253.52797,1207.2882   L 254.55088,1208.0043   L 255.62493,1208.6692   L 256.69899,1209.1806   L 257.87533,1209.5898   L 259.10282,1209.8966   L 260.33031,1210.1012   L 261.55781,1210.1524   L 262.7853,1210.1012   L 264.01279,1209.8966   L 265.24028,1209.5898   L 266.41662,1209.1806   L 267.49068,1208.6692   L 268.56473,1208.0043   L 269.58764,1207.2882   L 270.50826,1206.4699   L 271.32658,1205.5493   L 272.04262,1204.5264   L 272.70751,1203.4523   L 273.21897,1202.3783   L 273.62813,1201.2019   L 273.935,1199.9744   L 274.13958,1198.7469   L 274.19073,1197.5194  z " style="fill:none;stroke:#000000;stroke-width:8px;stroke-linecap:round;stroke-linejoin:round;stroke-miterlimit:4;stroke-dasharray:none;stroke-opacity:1;"/>
  <path id="path17" d="  M 1397.4981,74.10975   L 1397.447,72.882259   L 1397.2424,71.654768   L 1396.9355,70.427278   L 1396.5264,69.250932   L 1396.0149,68.176878   L 1395.35,67.102824   L 1394.634,66.079915   L 1393.8157,65.159297   L 1392.895,64.34097   L 1391.8721,63.624933   L 1390.7981,62.960043   L 1389.724,62.448588   L 1388.5477,62.039425   L 1387.3202,61.732552   L 1386.0927,61.52797   L 1384.8652,61.476825   L 1383.6377,61.52797   L 1382.4102,61.732552   L 1381.1827,62.039425   L 1380.0064,62.448588   L 1378.9323,62.960043   L 1377.8583,63.624933   L 1376.8354,64.34097   L 1375.9148,65.159297   L 1375.0964,66.079915   L 1374.3804,67.102824   L 1373.7155,68.176878   L 1373.204,69.250932   L 1372.7949,70.427278   L 1372.488,71.654768   L 1372.2834,72.882259   L 1372.2323,74.10975   L 1372.2834,75.33724   L 1372.488,76.564731   L 1372.7949,77.792222   L 1373.204,78.968567   L 1373.7155,80.042621   L 1374.3804,81.116676   L 1375.0964,82.139584   L 1375.9148,83.060202   L 1376.8354,83.87853   L 1377.8583,84.594566   L 1378.9323,85.259457   L 1380.0064,85.770911   L 1381.1827,86.180075   L 1382.4102,86.486947   L 1383.6377,86.691529   L 1384.8652,86.742674   L 1386.0927,86.691529   L 1387.3202,86.486947   L 1388.5477,86.180075   L 1389.724,85.770911   L 1390.7981,85.259457   L 1391.8721,84.594566   L 1392.895,83.87853   L 1393.8157,83.060202   L 1394.634,82.139584   L 1395.35,81.116676   L 1396.0149,80.042621   L 1396.5264,78.968567   L 1396.9355,77.792222   L 1397.2424,76.564731   L 1397.447,75.33724   L 1397.4981,74.10975  z " style="fill:none;stroke:#000000;stroke-width:8px;stroke-linecap:round;stroke-linejoin:round;stroke-miterlimit:4;stroke-dasharray:none;stroke-opacity:1;"/>
  <path id="path19" d="  M 1397.4981,1197.5194   L 1397.447,1196.292   L 1397.2424,1195.0645   L 1396.9355,1193.837   L 1396.5264,1192.6606   L 1396.0149,1191.5866   L 1395.35,1190.5125   L 1394.634,1189.4896   L 1393.8157,1188.569   L 1392.895,1187.7507   L 1391.8721,1187.0346   L 1390.7981,1186.3697   L 1389.724,1185.8583   L 1388.5477,1185.4491   L 1387.3202,1185.1422   L 1386.0927,1184.9377   L 1384.8652,1184.8865   L 1383.6377,1184.9377   L 1382.4102,1185.1422   L 1381.1827,1185.4491   L 1380.0064,1185.8583   L 1378.9323,1186.3697   L 1377.8583,1187.0346   L 1376.8354,1187.7507   L 1375.9148,1188.569   L 1375.0964,1189.4896   L 1374.3804,1190.5125   L 1373.7155,1191.5866   L 1373.204,1192.6606   L 1372.7949,1193.837   L 1372.488,1195.0645   L 1372.2834,1196.292   L 1372.2323,1197.5194   L 1372.2834,1198.7469   L 1372.488,1199.9744   L 1372.7949,1201.2019   L 1373.204,1202.3783   L 1373.7155,1203.4523   L 1374.3804,1204.5264   L 1375.0964,1205.5493   L 1375.9148,1206.4699   L 1376.8354,1207.2882   L 1377.8583,1208.0043   L 1378.9323,1208.6692   L 1380.0064,1209.1806   L 1381.1827,1209.5898   L 1382.4102,1209.8966   L 1383.6377,1210.1012   L 1384.8652,1210.1524   L 1386.0927,1210.1012   L 1387.3202,1209.8966   L 1388.5477,1209.5898   L 1389.724,1209.1806   L 1390.7981,1208.6692   L 1391.8721,1208.0043   L 1392.895,1207.2882   L 1393.8157,1206.4699   L 1394.634,1205.5493   L 1395.35,1204.5264   L 1396.0149,1203.4523   L 1396.5264,1202.3783   L 1396.9355,1201.2019   L 1397.2424,1199.9744   L 1397.447,1198.7469   L 1397.4981,1197.5194  z " style="fill:none;stroke:#000000;stroke-width:8px;stroke-linecap:round;stroke-linejoin:round;stroke-miterlimit:4;stroke-dasharray:none;stroke-opacity:1;"/>
  <path id="path21" d="  M 1435.4481,3.7847629   L 1435.4481,3.2733085   L 1435.4481,2.761854   L 210.97496,2.761854   L 210.97496,3.2733085   L 210.97496,3.7847629  z " style="fill:#000000;fill-rule:evenodd;fill-opacity:1;stroke:none;"/>
  <path id="path23" d="  M 1435.4481,3.7847629   L 1435.4481,3.2733085   L 1435.4481,2.761854   L 210.97496,2.761854   L 210.97496,3.2733085   L 210.97496,3.7847629   L 1435.4481,3.7847629  z " style="fill:none;stroke:#000000;stroke-width:8px;stroke-linecap:round;stroke-linejoin:round;stroke-miterlimit:4;stroke-dasharray:none;stroke-opacity:1;"/>
  <path id="path25" d="  M 1455.7017,1248.1534   L 1455.7017,23.475759  " style="fill:none;stroke:#000000;stroke-width:8px;stroke-linecap:round;stroke-linejoin:round;stroke-miterlimit:4;stroke-dasharray:none;stroke-opacity:1;"/>
  <path id="path27" d="  M 210.97496,1267.8444   L 210.97496,1268.3559   L 210.97496,1268.8673   L 1435.4481,1268.8673   L 1435.4481,1268.3559   L 1435.4481,1267.8444  z " style="fill:#000000;fill-rule:evenodd;fill-opacity:1;stroke:none;"/>
  <path id="path29" d="  M 210.97496,1267.8444   L 210.97496,1268.3559   L 210.97496,1268.8673   L 1435.4481,1268.8673   L 1435.4481,1268.3559   L 1435.4481,1267.8444   L 210.97496,1267.8444  z " style="fill:none;stroke:#000000;stroke-width:8px;stroke-linecap:round;stroke-linejoin:round;stroke-miterlimit:4;stroke-dasharray:none;stroke-opacity:1;"/>
  <path id="path31" d="  M 190.72136,23.475759   L 190.72136,1248.1534  " style="fill:none;stroke:#000000;stroke-width:8px;stroke-linecap:round;stroke-linejoin:round;stroke-miterlimit:4;stroke-dasharray:none;stroke-opacity:1;"/>
  <path id="path33" d="  M 1455.6505,23.475759   L 1455.5994,22.043687   L 1455.4459,20.611614   L 1455.1902,19.179542   L 1454.8322,17.798615   L 1454.3719,16.417688   L 1453.8093,15.087906   L 1453.1955,13.80927   L 1452.4283,12.530634   L 1451.61,11.354289   L 1450.7405,10.229089   L 1449.7176,9.2061801   L 1448.6947,8.1832712   L 1447.5695,7.3137986   L 1446.3932,6.4954715   L 1445.1145,5.7282898   L 1443.8359,5.1145445   L 1442.5061,4.5519446   L 1441.1252,4.0916356   L 1439.7443,3.7336175   L 1438.3122,3.4778903   L 1436.8801,3.3244539   L 1435.4481,3.2733085  " style="fill:none;stroke:#000000;stroke-width:8px;stroke-linecap:round;stroke-linejoin:round;stroke-miterlimit:4;stroke-dasharray:none;stroke-opacity:1;"/>
  <path id="path35" d="  M 1435.4481,1268.3559   L 1436.8801,1268.3047   L 1438.3122,1268.1513   L 1439.7443,1267.8956   L 1441.1252,1267.5376   L 1442.5061,1267.0773   L 1443.8359,1266.5147   L 1445.1145,1265.9009   L 1446.3932,1265.1337   L 1447.5695,1264.3154   L 1448.6947,1263.4459   L 1449.7176,1262.423   L 1450.7405,1261.4001   L 1451.61,1260.2749   L 1452.4283,1259.0986   L 1453.1955,1257.8199   L 1453.8093,1256.5413   L 1454.3719,1255.2115   L 1454.8322,1253.8306   L 1455.1902,1252.4497   L 1455.4459,1251.0176   L 1455.5994,1249.5855   L 1455.6505,1248.1534  " style="fill:none;stroke:#000000;stroke-width:8px;stroke-linecap:round;stroke-linejoin:round;stroke-miterlimit:4;stroke-dasharray:none;stroke-opacity:1;"/>
  <path id="path37" d="  M 190.77251,1248.1534   L 190.82365,1249.5855   L 190.97709,1251.0176   L 191.23282,1252.4497   L 191.59084,1253.8306   L 192.05115,1255.2115   L 192.61375,1256.5413   L 193.22749,1257.8199   L 193.99467,1259.0986   L 194.813,1260.2749   L 195.68247,1261.4001   L 196.70538,1262.423   L 197.72829,1263.4459   L 198.85349,1264.3154   L 200.02983,1265.1337   L 201.30847,1265.9009   L 202.58711,1266.5147   L 203.91689,1267.0773   L 205.29782,1267.5376   L 206.67874,1267.8956   L 208.11082,1268.1513   L 209.54289,1268.3047   L 210.97496,1268.3559  " style="fill:none;stroke:#000000;stroke-width:8px;stroke-linecap:round;stroke-linejoin:round;stroke-miterlimit:4;stroke-dasharray:none;stroke-opacity:1;"/>
  <path id="path39" d="  M 210.97496,3.2733085   L 209.54289,3.3244539   L 208.11082,3.4778903   L 206.67874,3.7336175   L 205.29782,4.0916356   L 203.91689,4.5519446   L 202.58711,5.1145445   L 201.30847,5.7282898   L 200.02983,6.4954715   L 198.85349,7.3137986   L 197.72829,8.1832712   L 196.70538,9.2061801   L 195.68247,10.229089   L 194.813,11.354289   L 193.99467,12.530634   L 193.22749,13.80927   L 192.61375,15.087906   L 192.05115,16.417688   L 191.59084,17.798615   L 191.23282,19.179542   L 190.97709,20.611614   L 190.82365,22.043687   L 190.77251,23.475759  " style="fill:none;stroke:#000000;stroke-width:8px;stroke-linecap:round;stroke-linejoin:round;stroke-miterlimit:4;stroke-dasharray:none;stroke-opacity:1;"/>
</svg>