<svg xmlns:dc="http://purl.org/dc/elements/1.1/" xmlns:cc="http://creativecommons.org/ns#" xmlns:rdf="http://www.w3.org/1999/02/22-rdf-syntax-ns#" xmlns:svg="http://www.w3.org/2000/svg" xmlns="http://www.w3.org/2000/svg" id="svg77" version="1.0" 
viewBox="443.94 5.01 758.74 1262.46">
  <metadata id="metadata81">
    <rdf:RDF>
      <cc:Work rdf:about="">
        <dc:format>image/svg+xml</dc:format>
        <dc:type rdf:resource="http://purl.org/dc/dcmitype/StillImage"/>
      </cc:Work>
    </rdf:RDF>
  </metadata>
  <defs id="defs3">
    <pattern y="0" x="0" height="6" width="6" patternUnits="userSpaceOnUse" id="WMFhbasepattern"/>
  </defs>
  <path id="path5" d="  M 1063.1262,348.01273   L 1063.0753,343.73701   L 1062.8717,339.46129   L 1062.5663,335.18558   L 1062.1082,330.96076   L 1061.5992,326.73595   L 1060.8865,322.51113   L 1060.0721,318.28632   L 1059.1559,314.11241   L 1058.1379,309.9894   L 1056.9671,305.86638   L 1055.6946,301.79427   L 1054.2694,297.77306   L 1052.7423,293.75186   L 1051.1135,289.83245   L 1049.3828,285.91304   L 1047.4995,282.04454   L 1045.5652,278.27784   L 1043.4783,274.51113   L 1041.2895,270.84624   L 1038.9989,267.28314   L 1036.5557,263.72004   L 1034.0615,260.25875   L 1031.4655,256.84836   L 1028.7678,253.53977   L 1025.9682,250.33298   L 1023.1177,247.17709   L 1020.1145,244.12301   L 1017.0604,241.11983   L 1013.9046,238.21845   L 1010.6978,235.41888   L 1007.3892,232.7211   L 1003.9788,230.12513   L 1000.5175,227.63097   L 997.0053,225.2386   L 993.3913,222.94804   L 989.72641,220.75928   L 986.0106,218.67232   L 982.193,216.68717   L 978.3754,214.80382   L 974.45599,213.07317   L 970.53659,211.44433   L 966.51538,209.91729   L 962.49417,208.54295   L 958.42206,207.21951   L 954.29905,206.04878   L 950.17603,205.03075   L 946.00212,204.11453   L 941.82821,203.30011   L 937.60339,202.58749   L 933.37858,202.07847   L 929.10286,201.62036   L 924.87805,201.31495   L 920.60233,201.11135   L 916.32662,201.06045   L 912.0509,201.11135   L 907.77519,201.31495   L 903.55037,201.62036   L 899.27466,202.07847   L 895.04984,202.58749   L 890.82503,203.30011   L 886.65111,204.11453   L 882.4772,205.03075   L 878.35419,206.04878   L 874.23118,207.21951   L 870.15907,208.54295   L 866.13786,209.91729   L 862.11665,211.44433   L 858.19724,213.07317   L 854.27784,214.80382   L 850.46023,216.68717   L 846.64263,218.67232   L 842.92683,220.75928   L 839.26193,222.94804   L 835.64793,225.2386   L 832.13574,227.63097   L 828.67444,230.12513   L 825.26405,232.7211   L 821.95546,235.41888   L 818.74867,238.21845   L 815.59279,241.11983   L 812.53871,244.12301   L 809.53552,247.17709   L 806.68505,250.33298   L 803.88547,253.53977   L 801.1877,256.84836   L 798.59173,260.25875   L 796.09756,263.72004   L 793.65429,267.28314   L 791.36373,270.84624   L 789.17497,274.51113   L 787.08802,278.27784   L 785.15376,282.04454   L 783.27041,285.91304   L 781.53977,289.83245   L 779.91092,293.75186   L 778.38388,297.77306   L 776.95864,301.79427   L 775.68611,305.86638   L 774.51538,309.9894   L 773.49735,314.11241   L 772.58112,318.28632   L 771.7667,322.51113   L 771.05408,326.73595   L 770.54507,330.96076   L 770.08696,335.18558   L 769.78155,339.46129   L 769.57794,343.73701   L 769.52704,348.01273   L 769.57794,352.28844   L 769.78155,356.56416   L 770.08696,360.83987   L 770.54507,365.06469   L 771.05408,369.2895   L 771.7667,373.51432   L 772.58112,377.73913   L 773.49735,381.91304   L 774.51538,386.03606   L 775.68611,390.15907   L 776.95864,394.23118   L 778.38388,398.25239   L 779.91092,402.27359   L 781.53977,406.193   L 783.27041,410.11241   L 785.15376,413.98091   L 787.08802,417.74761   L 789.17497,421.46341   L 791.36373,425.17922   L 793.65429,428.74231   L 796.09756,432.30541   L 798.59173,435.7667   L 801.1877,439.17709   L 803.88547,442.48568   L 806.68505,445.69247   L 809.53552,448.84836   L 812.53871,451.90244   L 815.59279,454.90562   L 818.74867,457.807   L 821.95546,460.60657   L 825.26405,463.30435   L 828.67444,465.90032   L 832.13574,468.39449   L 835.64793,470.78685   L 839.26193,473.07741   L 842.92683,475.26617   L 846.64263,477.35313   L 850.46023,479.33828   L 854.27784,481.22163   L 858.19724,482.95228   L 862.11665,484.58112   L 866.13786,486.10817   L 870.15907,487.4825   L 874.23118,488.80594   L 878.35419,489.97667   L 882.4772,490.9947   L 886.65111,491.91092   L 890.82503,492.72534   L 895.04984,493.43796   L 899.27466,493.94698   L 903.55037,494.40509   L 907.77519,494.7105   L 912.0509,494.9141   L 916.32662,494.96501   L 920.60233,494.9141   L 924.87805,494.7105   L 929.10286,494.40509   L 933.37858,493.94698   L 937.60339,493.43796   L 941.82821,492.72534   L 946.00212,491.91092   L 950.17603,490.9947   L 954.29905,489.97667   L 958.42206,488.80594   L 962.49417,487.4825   L 966.51538,486.10817   L 970.53659,484.58112   L 974.45599,482.95228   L 978.3754,481.22163   L 982.193,479.33828   L 986.0106,477.35313   L 989.72641,475.26617   L 993.3913,473.07741   L 997.0053,470.78685   L 1000.5175,468.39449   L 1003.9788,465.90032   L 1007.3892,463.30435   L 1010.6978,460.60657   L 1013.9046,457.807   L 1017.0604,454.90562   L 1020.1145,451.90244   L 1023.1177,448.84836   L 1025.9682,445.69247   L 1028.7678,442.48568   L 1031.4655,439.17709   L 1034.0615,435.7667   L 1036.5557,432.30541   L 1038.9989,428.74231   L 1041.2895,425.17922   L 1043.4783,421.51432   L 1045.5652,417.74761   L 1047.4995,413.98091   L 1049.3828,410.11241   L 1051.1135,406.193   L 1052.7423,402.27359   L 1054.2694,398.25239   L 1055.6946,394.23118   L 1056.9671,390.15907   L 1058.1379,386.03606   L 1059.1559,381.91304   L 1060.0721,377.73913   L 1060.8865,373.51432   L 1061.5992,369.2895   L 1062.1082,365.06469   L 1062.5663,360.83987   L 1062.8717,356.56416   L 1063.0753,352.28844   L 1063.1262,348.01273  z " style="fill:none;stroke:#000000;stroke-width:0.5rem;stroke-linecap:round;stroke-linejoin:round;stroke-miterlimit:4;stroke-dasharray:none;stroke-opacity:1;"/>
  <path id="path7" d="  M 1099.8261,348.01273   L 1099.7752,343.228   L 1099.5716,338.49417   L 1099.2662,333.70944   L 1098.859,328.97561   L 1098.299,324.24178   L 1097.5864,319.50795   L 1096.8229,314.82503   L 1095.9067,310.1421   L 1094.8378,305.45917   L 1093.667,300.82715   L 1092.3945,296.24602   L 1090.9692,291.7158   L 1089.4931,287.18558   L 1087.8134,282.70626   L 1086.0827,278.27784   L 1084.1994,273.90032   L 1082.2651,269.5228   L 1080.1273,265.24708   L 1077.9385,261.02227   L 1075.6479,256.84836   L 1073.2047,252.72534   L 1070.7105,248.70414   L 1068.0636,244.73383   L 1065.315,240.81442   L 1062.5154,236.94592   L 1059.5631,233.23012   L 1056.5599,229.51432   L 1053.4549,225.90032   L 1050.1972,222.38812   L 1046.9396,218.97773   L 1043.5292,215.61824   L 1040.0679,212.36055   L 1036.5048,209.15376   L 1032.8399,206.09968   L 1029.1241,203.1474   L 1025.3574,200.24602   L 1021.4889,197.44645   L 1017.5186,194.79958   L 1013.4973,192.20361   L 1009.4252,189.70944   L 1005.3022,187.36797   L 1001.1283,185.07741   L 996.8526,182.93955   L 992.57688,180.9035   L 988.19936,178.96925   L 983.77094,177.1877   L 979.34252,175.45705   L 974.8632,173.87911   L 970.28208,172.45387   L 965.75186,171.07953   L 961.11983,169.8579   L 956.4878,168.78897   L 951.85578,167.77094   L 947.17285,166.90562   L 942.43902,166.193   L 937.7052,165.58218   L 932.97137,165.07317   L 928.23754,164.71686   L 923.45281,164.46235   L 918.71898,164.30965   L 913.93425,164.30965   L 909.20042,164.46235   L 904.41569,164.71686   L 899.68187,165.07317   L 894.94804,165.58218   L 890.21421,166.193   L 885.48038,166.90562   L 880.79745,167.77094   L 876.16543,168.78897   L 871.5334,169.8579   L 866.90138,171.07953   L 862.37116,172.45387   L 857.79003,173.87911   L 853.31071,175.45705   L 848.88229,177.1877   L 844.45387,178.96925   L 840.07635,180.9035   L 835.80064,182.93955   L 831.52492,185.07741   L 827.35101,187.36797   L 823.228,189.70944   L 819.15589,192.20361   L 815.13468,194.79958   L 811.16437,197.44645   L 807.29586,200.24602   L 803.52916,203.1474   L 799.81336,206.09968   L 796.14846,209.15376   L 792.58537,212.36055   L 789.12407,215.61824   L 785.71368,218.97773   L 782.45599,222.38812   L 779.1983,225.90032   L 776.09332,229.51432   L 773.09014,233.23012   L 770.13786,236.94592   L 767.33828,240.81442   L 764.58961,244.73383   L 761.94274,248.70414   L 759.44857,252.72534   L 757.0053,256.84836   L 754.71474,261.02227   L 752.52598,265.24708   L 750.38812,269.5228   L 748.45387,273.90032   L 746.57052,278.27784   L 744.83987,282.70626   L 743.16013,287.18558   L 741.68399,291.7158   L 740.25875,296.24602   L 738.98621,300.82715   L 737.81548,305.45917   L 736.74655,310.1421   L 735.83033,314.82503   L 735.06681,319.50795   L 734.35419,324.24178   L 733.79427,328.97561   L 733.38706,333.70944   L 733.08165,338.49417   L 732.87805,343.228   L 732.82715,348.01273   L 732.87805,352.79745   L 733.08165,357.53128   L 733.38706,362.31601   L 733.79427,367.04984   L 734.35419,371.78367   L 735.06681,376.5175   L 735.83033,381.20042   L 736.74655,385.88335   L 737.81548,390.56628   L 738.98621,395.1983   L 740.25875,399.77943   L 741.68399,404.30965   L 743.16013,408.83987   L 744.83987,413.31919   L 746.57052,417.74761   L 748.45387,422.12513   L 750.38812,426.50265   L 752.52598,430.77837   L 754.71474,435.00318   L 757.0053,439.17709   L 759.44857,443.30011   L 761.94274,447.32131   L 764.58961,451.29162   L 767.33828,455.21103   L 770.13786,459.07953   L 773.09014,462.79533   L 776.09332,466.51113   L 779.1983,470.12513   L 782.45599,473.63733   L 785.71368,477.04772   L 789.12407,480.40721   L 792.58537,483.6649   L 796.14846,486.87169   L 799.81336,489.92577   L 803.52916,492.87805   L 807.29586,495.77943   L 811.16437,498.579   L 815.13468,501.22587   L 819.15589,503.82185   L 823.228,506.31601   L 827.35101,508.65748   L 831.52492,510.94804   L 835.80064,513.0859   L 840.07635,515.12195   L 844.45387,517.0562   L 848.88229,518.83775   L 853.31071,520.5684   L 857.79003,522.14634   L 862.37116,523.57158   L 866.90138,524.94592   L 871.5334,526.16755   L 876.16543,527.23648   L 880.79745,528.25451   L 885.48038,529.11983   L 890.21421,529.83245   L 894.94804,530.44327   L 899.68187,530.95228   L 904.41569,531.30859   L 909.20042,531.5631   L 913.93425,531.7158   L 918.71898,531.7158   L 923.45281,531.5631   L 928.23754,531.30859   L 932.97137,530.95228   L 937.7052,530.44327   L 942.43902,529.83245   L 947.17285,529.11983   L 951.85578,528.25451   L 956.4878,527.23648   L 961.11983,526.16755   L 965.75186,524.94592   L 970.28208,523.57158   L 974.8632,522.14634   L 979.34252,520.5684   L 983.77094,518.83775   L 988.19936,517.0562   L 992.57688,515.12195   L 996.8526,513.0859   L 1001.1283,510.94804   L 1005.3022,508.65748   L 1009.4252,506.31601   L 1013.4973,503.82185   L 1017.5186,501.22587   L 1021.4889,498.579   L 1025.3574,495.77943   L 1029.1241,492.87805   L 1032.8399,489.92577   L 1036.5048,486.87169   L 1040.0679,483.6649   L 1043.5292,480.40721   L 1046.9396,477.04772   L 1050.1972,473.63733   L 1053.4549,470.12513   L 1056.5599,466.51113   L 1059.5631,462.79533   L 1062.5154,459.07953   L 1065.315,455.21103   L 1068.0636,451.29162   L 1070.7105,447.32131   L 1073.2047,443.30011   L 1075.6479,439.17709   L 1077.9385,435.00318   L 1080.1273,430.77837   L 1082.2651,426.50265   L 1084.1994,422.12513   L 1086.0827,417.74761   L 1087.8134,413.31919   L 1089.4931,408.83987   L 1090.9692,404.30965   L 1092.3945,399.77943   L 1093.667,395.1983   L 1094.8378,390.56628   L 1095.9067,385.88335   L 1096.8229,381.20042   L 1097.5864,376.5175   L 1098.299,371.78367   L 1098.859,367.04984   L 1099.2662,362.31601   L 1099.5716,357.53128   L 1099.7752,352.79745   L 1099.8261,348.01273  z " style="fill:none;stroke:#000000;stroke-width:0.5rem;stroke-linecap:round;stroke-linejoin:round;stroke-miterlimit:4;stroke-dasharray:none;stroke-opacity:1;"/>
  <path id="path9" d="  M 670.32025,35.630965   L 670.26935,33.696713   L 670.06575,31.813362   L 669.76034,29.879109   L 669.35313,28.04666   L 668.84411,26.163309   L 668.1824,24.38176   L 667.41888,22.600212   L 666.55355,20.869565   L 665.58643,19.240721   L 664.4666,17.662778   L 663.29586,16.135737   L 662.02333,14.710498   L 660.69989,13.336161   L 659.22375,12.063627   L 657.74761,10.892895   L 656.11877,9.8239661   L 654.48993,8.8059385   L 652.75928,7.9406151   L 651.02863,7.1770944   L 649.19618,6.5153765   L 647.36373,6.0063627   L 645.48038,5.5991516   L 643.59703,5.2937434   L 641.71368,5.0901379   L 639.77943,5.0392365   L 637.84517,5.0901379   L 635.96182,5.2937434   L 634.07847,5.5991516   L 632.19512,6.0063627   L 630.36267,6.5153765   L 628.53022,7.1770944   L 626.79958,7.9406151   L 625.06893,8.8059385   L 623.44008,9.8239661   L 621.81124,10.892895   L 620.3351,12.063627   L 618.85896,13.336161   L 617.53552,14.710498   L 616.26299,16.135737   L 615.09226,17.662778   L 613.97243,19.240721   L 613.0053,20.869565   L 612.13998,22.600212   L 611.37646,24.38176   L 610.71474,26.163309   L 610.20573,28.04666   L 609.79852,29.879109   L 609.49311,31.813362   L 609.2895,33.696713   L 609.2386,35.630965   L 609.2895,37.565217   L 609.49311,39.448568   L 609.79852,41.382821   L 610.20573,43.21527   L 610.71474,45.098621   L 611.37646,46.88017   L 612.13998,48.661718   L 613.0053,50.392365   L 613.97243,52.021209   L 615.09226,53.599152   L 616.26299,55.126193   L 617.53552,56.551432   L 618.85896,57.925769   L 620.3351,59.198303   L 621.81124,60.369035   L 623.44008,61.437964   L 625.06893,62.455992   L 626.79958,63.321315   L 628.53022,64.084836   L 630.36267,64.746554   L 632.19512,65.255567   L 634.07847,65.662778   L 635.96182,65.968187   L 637.84517,66.171792   L 639.77943,66.222694   L 641.71368,66.171792   L 643.59703,65.968187   L 645.48038,65.662778   L 647.36373,65.255567   L 649.19618,64.746554   L 651.02863,64.084836   L 652.75928,63.321315   L 654.48993,62.455992   L 656.11877,61.437964   L 657.74761,60.369035   L 659.22375,59.198303   L 660.69989,57.925769   L 662.02333,56.551432   L 663.29586,55.126193   L 664.4666,53.599152   L 665.58643,52.021209   L 666.55355,50.392365   L 667.41888,48.661718   L 668.1824,46.88017   L 668.84411,45.098621   L 669.35313,43.21527   L 669.76034,41.382821   L 670.06575,39.448568   L 670.26935,37.565217   L 670.32025,35.630965  z " style="fill:none;stroke:#000000;stroke-width:0.5rem;stroke-linecap:round;stroke-linejoin:round;stroke-miterlimit:4;stroke-dasharray:none;stroke-opacity:1;"/>
  <path id="path11" d="  M 590.8123,78.540827   L 1202.6469,78.540827  " style="fill:none;stroke:#000000;stroke-width:0.5rem;stroke-linecap:round;stroke-linejoin:round;stroke-miterlimit:4;stroke-dasharray:none;stroke-opacity:1;"/>
  <path id="path13" d="  M 590.8123,1058.3924   L 1202.6469,1058.3924  " style="fill:none;stroke:#000000;stroke-width:0.5rem;stroke-linecap:round;stroke-linejoin:round;stroke-miterlimit:4;stroke-dasharray:none;stroke-opacity:1;"/>
  <path id="path15" d="  M 1202.6469,1058.3924   L 1202.6469,78.540827  " style="fill:none;stroke:#000000;stroke-width:0.5rem;stroke-linecap:round;stroke-linejoin:round;stroke-miterlimit:4;stroke-dasharray:none;stroke-opacity:1;"/>
  <path id="path17" d="  M 656.88229,61.030753   L 731.80912,78.540827  " style="fill:none;stroke:#000000;stroke-width:0.5rem;stroke-linecap:round;stroke-linejoin:round;stroke-miterlimit:4;stroke-dasharray:none;stroke-opacity:1;"/>
  <path id="path19" d="  M 632.80594,65.459173   L 688.69565,78.540827  " style="fill:none;stroke:#000000;stroke-width:0.5rem;stroke-linecap:round;stroke-linejoin:round;stroke-miterlimit:4;stroke-dasharray:none;stroke-opacity:1;"/>
  <path id="path21" d="  M 866.49417,1237.3107   L 842.0106,1237.3107  " style="fill:none;stroke:#000000;stroke-width:0.5rem;stroke-linecap:round;stroke-linejoin:round;stroke-miterlimit:4;stroke-dasharray:none;stroke-opacity:1;"/>
  <path id="path23" d="  M 842.0106,1237.3107   L 800.32238,1058.3924  " style="fill:none;stroke:#000000;stroke-width:0.5rem;stroke-linecap:round;stroke-linejoin:round;stroke-miterlimit:4;stroke-dasharray:none;stroke-opacity:1;"/>
  <path id="path25" d="  M 830.6087,1188.3436   L 855.09226,1188.3436  " style="fill:none;stroke:#000000;stroke-width:0.5rem;stroke-linecap:round;stroke-linejoin:round;stroke-miterlimit:4;stroke-dasharray:none;stroke-opacity:1;"/>
  <path id="path27" d="  M 866.49417,1237.3107   L 824.80594,1058.3924  " style="fill:none;stroke:#000000;stroke-width:0.5rem;stroke-linecap:round;stroke-linejoin:round;stroke-miterlimit:4;stroke-dasharray:none;stroke-opacity:1;"/>
  <path id="path29" d="  M 887.10923,1163.9109   L 851.32556,1172.2587  " style="fill:none;stroke:#000000;stroke-width:0.5rem;stroke-linecap:round;stroke-linejoin:round;stroke-miterlimit:4;stroke-dasharray:none;stroke-opacity:1;"/>
  <path id="path31" d="  M 874.58749,1110.2609   L 899.58006,1217.6119  " style="fill:none;stroke:#000000;stroke-width:0.5rem;stroke-linecap:round;stroke-linejoin:round;stroke-miterlimit:4;stroke-dasharray:none;stroke-opacity:1;"/>
  <path id="path33" d="  M 899.58006,1217.6119   L 863.8473,1225.9597  " style="fill:none;stroke:#000000;stroke-width:0.5rem;stroke-linecap:round;stroke-linejoin:round;stroke-miterlimit:4;stroke-dasharray:none;stroke-opacity:1;"/>
  <path id="path35" d="  M 874.58749,1110.2609   L 838.80382,1118.6087  " style="fill:none;stroke:#000000;stroke-width:0.5rem;stroke-linecap:round;stroke-linejoin:round;stroke-miterlimit:4;stroke-dasharray:none;stroke-opacity:1;"/>
  <path id="path37" d="  M 443.96182,1096.6702   L 590.8123,1096.6702  " style="fill:none;stroke:#000000;stroke-width:0.5rem;stroke-linecap:round;stroke-linejoin:round;stroke-miterlimit:4;stroke-dasharray:none;stroke-opacity:1;"/>
  <path id="path39" d="  M 443.96182,40.26299   L 443.96182,1096.6702  " style="fill:none;stroke:#000000;stroke-width:0.5rem;stroke-linecap:round;stroke-linejoin:round;stroke-miterlimit:4;stroke-dasharray:none;stroke-opacity:1;"/>
  <path id="path41" d="  M 443.96182,40.26299   L 590.8123,40.26299  " style="fill:none;stroke:#000000;stroke-width:0.5rem;stroke-linecap:round;stroke-linejoin:round;stroke-miterlimit:4;stroke-dasharray:none;stroke-opacity:1;"/>
  <path id="path43" d="  M 590.8123,40.26299   L 590.8123,1096.6702  " style="fill:none;stroke:#000000;stroke-width:0.5rem;stroke-linecap:round;stroke-linejoin:round;stroke-miterlimit:4;stroke-dasharray:none;stroke-opacity:1;"/>
  <path id="path45" d="  M 611.12195,46.371156   L 590.8123,46.371156  " style="fill:none;stroke:#000000;stroke-width:0.5rem;stroke-linecap:round;stroke-linejoin:round;stroke-miterlimit:4;stroke-dasharray:none;stroke-opacity:1;"/>
  <path id="path47" d="  M 590.8123,56.144221   L 617.02651,56.144221  " style="fill:none;stroke:#000000;stroke-width:0.5rem;stroke-linecap:round;stroke-linejoin:round;stroke-miterlimit:4;stroke-dasharray:none;stroke-opacity:1;"/>
  <path id="path49" d="  M 568.6702,1140.3945   L 590.8123,1096.6702  " style="fill:none;stroke:#000000;stroke-width:0.5rem;stroke-linecap:round;stroke-linejoin:round;stroke-miterlimit:4;stroke-dasharray:none;stroke-opacity:1;"/>
  <path id="path51" d="  M 555.58855,1133.7264   L 568.6702,1140.3945  " style="fill:none;stroke:#000000;stroke-width:0.5rem;stroke-linecap:round;stroke-linejoin:round;stroke-miterlimit:4;stroke-dasharray:none;stroke-opacity:1;"/>
  <path id="path53" d="  M 574.37116,1096.6702   L 548.81866,1147.1644  " style="fill:none;stroke:#000000;stroke-width:0.5rem;stroke-linecap:round;stroke-linejoin:round;stroke-miterlimit:4;stroke-dasharray:none;stroke-opacity:1;"/>
  <path id="path55" d="  M 715.77519,1143.1432   L 744.78897,1267.4443  " style="fill:none;stroke:#000000;stroke-width:0.5rem;stroke-linecap:round;stroke-linejoin:round;stroke-miterlimit:4;stroke-dasharray:none;stroke-opacity:1;"/>
  <path id="path57" d="  M 730.68929,1139.6819   L 759.65217,1263.983  " style="fill:none;stroke:#000000;stroke-width:0.5rem;stroke-linecap:round;stroke-linejoin:round;stroke-miterlimit:4;stroke-dasharray:none;stroke-opacity:1;"/>
  <path id="path59" d="  M 759.65217,1263.983   L 744.78897,1267.4443  " style="fill:none;stroke:#000000;stroke-width:0.5rem;stroke-linecap:round;stroke-linejoin:round;stroke-miterlimit:4;stroke-dasharray:none;stroke-opacity:1;"/>
  <path id="path61" d="  M 703.81336,1122.9353   L 556.75928,1157.2937  " style="fill:none;stroke:#000000;stroke-width:0.5rem;stroke-linecap:round;stroke-linejoin:round;stroke-miterlimit:4;stroke-dasharray:none;stroke-opacity:1;"/>
  <path id="path63" d="  M 707.27466,1137.8494   L 560.22057,1172.2078  " style="fill:none;stroke:#000000;stroke-width:0.5rem;stroke-linecap:round;stroke-linejoin:round;stroke-miterlimit:4;stroke-dasharray:none;stroke-opacity:1;"/>
  <path id="path65" d="  M 535.17709,1140.2418   L 551.31283,1108.2757  " style="fill:none;stroke:#000000;stroke-width:0.5rem;stroke-linecap:round;stroke-linejoin:round;stroke-miterlimit:4;stroke-dasharray:none;stroke-opacity:1;"/>
  <path id="path67" d="  M 551.31283,1108.2757   L 564.9544,1115.1983  " style="fill:none;stroke:#000000;stroke-width:0.5rem;stroke-linecap:round;stroke-linejoin:round;stroke-miterlimit:4;stroke-dasharray:none;stroke-opacity:1;"/>
  <path id="path69" d="  M 715.77519,1143.1432   L 715.57158,1142.3796   L 715.26617,1141.667   L 714.85896,1140.9544   L 714.40085,1140.3436   L 713.89183,1139.7328   L 713.28102,1139.2238   L 712.6193,1138.7656   L 711.95758,1138.3584   L 711.19406,1138.1039   L 710.43054,1137.8494   L 709.66702,1137.7476   L 708.8526,1137.6967   L 708.08908,1137.7476   L 707.27466,1137.9003  " style="fill:none;stroke:#000000;stroke-width:0.5rem;stroke-linecap:round;stroke-linejoin:round;stroke-miterlimit:4;stroke-dasharray:none;stroke-opacity:1;"/>
  <path id="path71" d="  M 730.68929,1139.6819   L 730.23118,1138.1548   L 729.72216,1136.6278   L 729.11135,1135.1516   L 728.34783,1133.7264   L 727.5334,1132.403   L 726.56628,1131.0795   L 725.54825,1129.8579   L 724.47932,1128.6872   L 723.25769,1127.6182   L 722.03606,1126.6511   L 720.71262,1125.7349   L 719.33828,1124.9714   L 717.86214,1124.2587   L 716.386,1123.6479   L 714.85896,1123.1898   L 713.33192,1122.8335   L 711.75398,1122.579   L 710.17603,1122.4263   L 708.54719,1122.3754   L 706.96925,1122.4772   L 705.3913,1122.6299   L 703.81336,1122.9862  " style="fill:none;stroke:#000000;stroke-width:0.5rem;stroke-linecap:round;stroke-linejoin:round;stroke-miterlimit:4;stroke-dasharray:none;stroke-opacity:1;"/>
  <path id="path73" d="  M 535.17709,1140.2418   L 534.51538,1141.667   L 533.95546,1143.1941   L 533.49735,1144.7211   L 533.19194,1146.2481   L 532.93743,1147.8261   L 532.78473,1149.404   L 532.78473,1150.982   L 532.88653,1152.5599   L 533.09014,1154.1379   L 533.44645,1155.7158   L 533.85366,1157.2428   L 534.41357,1158.719   L 535.02439,1160.1951   L 535.78791,1161.5695   L 536.60233,1162.9438   L 537.56946,1164.2163   L 538.58749,1165.438   L 539.65642,1166.5578   L 540.87805,1167.6267   L 542.09968,1168.5938   L 543.42312,1169.4592   L 544.79745,1170.2227   L 546.22269,1170.9353   L 547.69883,1171.4952   L 549.22587,1171.9533   L 550.75292,1172.3606   L 552.33086,1172.6151   L 553.9088,1172.7169   L 555.48674,1172.7678   L 557.06469,1172.666   L 558.64263,1172.4624   L 560.22057,1172.1569  " style="fill:none;stroke:#000000;stroke-width:0.5rem;stroke-linecap:round;stroke-linejoin:round;stroke-miterlimit:4;stroke-dasharray:none;stroke-opacity:1;"/>
  <path id="path75" d="  M 548.81866,1147.1644   L 548.46235,1147.9788   L 548.20785,1148.8441   L 548.10604,1149.7094   L 548.05514,1150.6257   L 548.15695,1151.491   L 548.36055,1152.3563   L 548.66596,1153.2216   L 549.07317,1153.9852   L 549.58218,1154.7487   L 550.1421,1155.4104   L 550.85472,1155.9703   L 551.56734,1156.4793   L 552.38176,1156.8865   L 553.19618,1157.1919   L 554.06151,1157.3446   L 554.97773,1157.4464   L 555.84305,1157.3955   L 556.75928,1157.2428  " style="fill:none;stroke:#000000;stroke-width:0.5rem;stroke-linecap:round;stroke-linejoin:round;stroke-miterlimit:4;stroke-dasharray:none;stroke-opacity:1;"/>
</svg>