<svg xmlns:dc="http://purl.org/dc/elements/1.1/" xmlns:cc="http://creativecommons.org/ns#" xmlns:rdf="http://www.w3.org/1999/02/22-rdf-syntax-ns#" xmlns:svg="http://www.w3.org/2000/svg" xmlns="http://www.w3.org/2000/svg" id="svg115" version="1.0"
 viewBox="398.7 1.76 849.07 1268.11">
  <metadata id="metadata119">
    <rdf:RDF>
      <cc:Work rdf:about="">
        <dc:format>image/svg+xml</dc:format>
        <dc:type rdf:resource="http://purl.org/dc/dcmitype/StillImage"/>
      </cc:Work>
    </rdf:RDF>
  </metadata>
  <defs id="defs3">
    <pattern y="0" x="0" height="6" width="6" patternUnits="userSpaceOnUse" id="WMFhbasepattern"/>
  </defs>
  <path id="path5" d="  M 631.13479,237.92861   L 630.06074,246.72563   L 626.63399,254.96004   L 621.21257,262.01811   L 617.88812,264.9334   L 615.22856,266.77464  " style="fill:none;stroke:#000000;stroke-width:8px;stroke-linecap:round;stroke-linejoin:round;stroke-miterlimit:4;stroke-dasharray:none;stroke-opacity:1;"/>
  <path id="path7" d="  M 1031.3479,266.82579   L 1028.9952,265.29142   L 1025.5685,262.37613   L 1019.9425,255.26692   L 1016.4134,246.93021   L 1015.2371,237.92861  " style="fill:none;stroke:#000000;stroke-width:8px;stroke-linecap:round;stroke-linejoin:round;stroke-miterlimit:4;stroke-dasharray:none;stroke-opacity:1;"/>
  <path id="path9" d="  M 1015.2882,1033.7006   L 1016.3623,1024.9036   L 1019.789,1016.6692   L 1025.2104,1009.6111   L 1028.5349,1006.6958   L 1031.1945,1004.8546  " style="fill:none;stroke:#000000;stroke-width:8px;stroke-linecap:round;stroke-linejoin:round;stroke-miterlimit:4;stroke-dasharray:none;stroke-opacity:1;"/>
  <path id="path11" d="  M 615.07512,1004.8034   L 617.42781,1006.3378   L 620.85456,1009.2531   L 626.48055,1016.3623   L 630.00959,1024.699   L 631.18594,1033.7006  " style="fill:none;stroke:#000000;stroke-width:8px;stroke-linecap:round;stroke-linejoin:round;stroke-miterlimit:4;stroke-dasharray:none;stroke-opacity:1;"/>
  <path id="path13" d="  M 1246.7725,635.78903   L 1246.7214,628.52637   L 1246.5168,621.26372   L 1246.2099,614.00107   L 1245.7496,606.73841   L 1245.2381,599.47576   L 1244.5221,592.21311   L 1243.7038,585.0016   L 1242.7832,577.79009   L 1241.7091,570.57858   L 1240.5328,563.41822   L 1239.2541,556.25786   L 1237.8221,549.14864   L 1236.2877,542.03942   L 1234.5999,534.98135   L 1232.8098,527.92328   L 1230.9174,520.91636   L 1228.8716,513.90943   L 1226.7235,506.95365   L 1224.4219,500.04901   L 1222.0693,493.19552   L 1219.5631,486.39318   L 1216.9036,479.59084   L 1214.1929,472.83964   L 1211.3287,466.13958   L 1208.3623,459.54182   L 1205.2936,452.94406   L 1202.0714,446.39744   L 1198.7981,439.95312   L 1195.3713,433.50879   L 1191.8423,427.16676   L 1188.211,420.87587   L 1184.4774,414.63612   L 1180.5903,408.44752   L 1176.6521,402.36121   L 1172.6116,396.32605   L 1168.4177,390.34204   L 1164.1726,384.46031   L 1159.8253,378.62973   L 1155.3245,372.90144   L 1150.7725,367.22429   L 1146.1183,361.64944   L 1141.3617,356.17688   L 1136.5029,350.75546   L 1131.593,345.38519   L 1126.5296,340.16835   L 1121.415,335.00266   L 1116.2493,329.88812   L 1110.9302,324.92701   L 1105.5599,320.01705   L 1100.0874,315.20938   L 1094.5637,310.504   L 1088.9377,305.90091   L 1083.2094,301.40011   L 1077.4299,297.0016   L 1071.5994,292.65424   L 1065.6665,288.46031   L 1059.6825,284.36867   L 1053.5962,280.32818   L 1047.4587,276.44113   L 1041.2701,272.65637   L 1035.0304,268.97389   L 1028.6883,265.39371   L 1022.2952,261.91582   L 1015.8508,258.54022   L 1009.3554,255.26692   L 1002.7576,252.14704   L 996.15983,249.12946   L 989.51092,246.21417   L 982.81087,243.40117   L 976.05967,240.74161   L 969.25733,238.18434   L 962.40384,235.72936   L 955.4992,233.37666   L 948.59457,231.17741   L 941.58764,229.08045   L 934.63186,227.08578   L 927.57379,225.24454   L 920.51572,223.50559   L 913.4065,221.92009   L 906.29728,220.43687   L 899.18807,219.05594   L 892.0277,217.82845   L 884.8162,216.70325   L 877.60469,215.73149   L 870.39318,214.86201   L 863.18167,214.09483   L 855.91902,213.48109   L 848.65637,212.96963   L 841.39371,212.61161   L 834.13106,212.35589   L 826.86841,212.20245   L 819.60575,212.20245   L 812.3431,212.35589   L 805.08045,212.61161   L 797.81779,212.96963   L 790.55514,213.48109   L 783.29249,214.09483   L 776.08098,214.86201   L 768.86947,215.73149   L 761.65796,216.70325   L 754.44646,217.82845   L 747.28609,219.05594   L 740.17688,220.43687   L 733.06766,221.92009   L 725.95844,223.50559   L 718.90037,225.24454   L 711.8423,227.08578   L 704.88652,229.08045   L 697.8796,231.17741   L 690.97496,233.37666   L 684.07032,235.72936   L 677.21684,238.18434   L 670.41449,240.74161   L 663.66329,243.40117   L 656.96324,246.21417   L 650.31433,249.12946   L 643.71657,252.14704   L 637.11881,255.26692   L 630.62334,258.54022   L 624.17901,261.91582   L 617.78583,265.39371   L 611.49494,268.97389   L 605.20405,272.65637   L 599.01545,276.44113   L 592.878,280.32818   L 586.79169,284.36867   L 580.80767,288.46031   L 574.8748,292.65424   L 569.04422,297.0016   L 563.26478,301.40011   L 557.53649,305.90091   L 551.9105,310.504   L 546.38679,315.20938   L 540.91422,320.01705   L 535.54395,324.92701   L 530.22483,329.88812   L 525.05914,335.00266   L 519.94459,340.16835   L 514.88119,345.38519   L 509.97123,350.75546   L 505.11241,356.17688   L 500.35589,361.64944   L 495.70165,367.22429   L 491.14971,372.90144   L 486.64891,378.62973   L 482.30155,384.46031   L 478.05647,390.34204   L 473.86255,396.32605   L 469.82206,402.36121   L 465.88386,408.44752   L 461.9968,414.63612   L 458.26319,420.87587   L 454.63186,427.16676   L 451.10282,433.50879   L 447.67608,439.95312   L 444.40277,446.39744   L 441.18061,452.94406   L 438.11188,459.54182   L 435.14544,466.13958   L 432.2813,472.83964   L 429.57059,479.59084   L 426.91103,486.39318   L 424.4049,493.19552   L 422.05221,500.04901   L 419.75067,506.95365   L 417.60256,513.90943   L 415.55674,520.91636   L 413.66436,527.92328   L 411.87427,534.98135   L 410.18647,542.03942   L 408.6521,549.14864   L 407.22003,556.25786   L 405.9414,563.41822   L 404.76505,570.57858   L 403.691,577.79009   L 402.77038,585.0016   L 401.95205,592.21311   L 401.23601,599.47576   L 400.72456,606.73841   L 400.26425,614.00107   L 399.95738,621.26372   L 399.7528,628.52637   L 399.70165,635.78903   L 399.7528,643.05168   L 399.95738,650.31433   L 400.26425,657.57698   L 400.72456,664.83964   L 401.23601,672.10229   L 401.95205,679.36494   L 402.77038,686.57645   L 403.691,693.78796   L 404.76505,700.99947   L 405.9414,708.15983   L 407.22003,715.32019   L 408.6521,722.42941   L 410.18647,729.53863   L 411.87427,736.5967   L 413.66436,743.65477   L 415.55674,750.66169   L 417.60256,757.66862   L 419.75067,764.6244   L 422.05221,771.52904   L 424.4049,778.38253   L 426.91103,785.18487   L 429.57059,791.98721   L 432.2813,798.73841   L 435.14544,805.43847   L 438.11188,812.03623   L 441.18061,818.63399   L 444.40277,825.18061   L 447.67608,831.62493   L 451.10282,838.06926   L 454.63186,844.41129   L 458.26319,850.70218   L 461.9968,856.94193   L 465.88386,863.13053   L 469.82206,869.21684   L 473.86255,875.252   L 478.05647,881.23601   L 482.30155,887.11774   L 486.64891,892.94832   L 491.14971,898.67661   L 495.70165,904.35376   L 500.35589,909.92861   L 505.11241,915.40117   L 509.97123,920.82259   L 514.88119,926.19286   L 519.94459,931.4097   L 525.05914,936.57539   L 530.22483,941.68993   L 535.54395,946.65104   L 540.91422,951.561   L 546.38679,956.36867   L 551.9105,961.07405   L 557.53649,965.67714   L 563.26478,970.17794   L 569.04422,974.57645   L 574.8748,978.92381   L 580.80767,983.11774   L 586.79169,987.20938   L 592.878,991.24987   L 599.01545,995.13692   L 605.20405,998.92168   L 611.44379,1002.6042   L 617.78583,1006.1843   L 624.17901,1009.6622   L 630.62334,1013.0378   L 637.11881,1016.3111   L 643.71657,1019.431   L 650.31433,1022.4486   L 656.96324,1025.3639   L 663.66329,1028.1769   L 670.41449,1030.8364   L 677.21684,1033.3937   L 684.07032,1035.8487   L 690.97496,1038.2014   L 697.8796,1040.4006   L 704.88652,1042.4976   L 711.8423,1044.4923   L 718.90037,1046.3335   L 725.95844,1048.0725   L 733.06766,1049.658   L 740.17688,1051.1412   L 747.28609,1052.5221   L 754.44646,1053.7496   L 761.65796,1054.8748   L 768.86947,1055.8466   L 776.08098,1056.716   L 783.29249,1057.4832   L 790.55514,1058.097   L 797.81779,1058.6084   L 805.08045,1058.9664   L 812.3431,1059.2222   L 819.60575,1059.3756   L 826.86841,1059.3756   L 834.13106,1059.2222   L 841.39371,1058.9664   L 848.65637,1058.6084   L 855.91902,1058.097   L 863.18167,1057.4832   L 870.39318,1056.716   L 877.60469,1055.8466   L 884.8162,1054.8748   L 892.0277,1053.7496   L 899.18807,1052.5221   L 906.29728,1051.1412   L 913.4065,1049.658   L 920.51572,1048.0725   L 927.57379,1046.3335   L 934.63186,1044.4923   L 941.58764,1042.4976   L 948.59457,1040.4006   L 955.4992,1038.2014   L 962.40384,1035.8487   L 969.25733,1033.3937   L 976.05967,1030.8364   L 982.81087,1028.1769   L 989.51092,1025.3639   L 996.15983,1022.4486   L 1002.7576,1019.431   L 1009.3554,1016.3111   L 1015.8508,1013.0378   L 1022.2952,1009.6622   L 1028.6883,1006.1843   L 1034.9792,1002.6042   L 1041.2701,998.92168   L 1047.4587,995.13692   L 1053.5962,991.24987   L 1059.6825,987.20938   L 1065.6665,983.11774   L 1071.5994,978.92381   L 1077.4299,974.57645   L 1083.2094,970.17794   L 1088.9377,965.67714   L 1094.5637,961.07405   L 1100.0874,956.36867   L 1105.5599,951.561   L 1110.9302,946.65104   L 1116.2493,941.68993   L 1121.415,936.57539   L 1126.5296,931.4097   L 1131.593,926.19286   L 1136.5029,920.82259   L 1141.3617,915.40117   L 1146.1183,909.92861   L 1150.7725,904.35376   L 1155.3245,898.67661   L 1159.8253,892.94832   L 1164.1726,887.11774   L 1168.4177,881.23601   L 1172.6116,875.252   L 1176.6521,869.21684   L 1180.5903,863.13053   L 1184.4774,856.94193   L 1188.211,850.70218   L 1191.8423,844.41129   L 1195.3713,838.06926   L 1198.7981,831.62493   L 1202.0714,825.18061   L 1205.2936,818.63399   L 1208.3623,812.03623   L 1211.3287,805.43847   L 1214.1929,798.73841   L 1216.9036,791.98721   L 1219.5631,785.18487   L 1222.0693,778.38253   L 1224.4219,771.52904   L 1226.7235,764.6244   L 1228.8716,757.66862   L 1230.9174,750.66169   L 1232.8098,743.65477   L 1234.5999,736.5967   L 1236.2877,729.53863   L 1237.8221,722.42941   L 1239.2541,715.32019   L 1240.5328,708.15983   L 1241.7091,700.99947   L 1242.7832,693.78796   L 1243.7038,686.57645   L 1244.5221,679.36494   L 1245.2381,672.10229   L 1245.7496,664.83964   L 1246.2099,657.57698   L 1246.5168,650.31433   L 1246.7214,643.05168   L 1246.7725,635.78903  z " style="fill:none;stroke:#000000;stroke-width:8px;stroke-linecap:round;stroke-linejoin:round;stroke-miterlimit:4;stroke-dasharray:none;stroke-opacity:1;"/>
  <path id="path15" d="  M 614.20565,267.38839   L 614.25679,267.33724  " style="fill:none;stroke:#000000;stroke-width:8px;stroke-linecap:round;stroke-linejoin:round;stroke-miterlimit:4;stroke-dasharray:none;stroke-opacity:1;"/>
  <path id="path17" d="  M 1032.2174,1004.2408   L 1032.1662,1004.292  " style="fill:none;stroke:#000000;stroke-width:8px;stroke-linecap:round;stroke-linejoin:round;stroke-miterlimit:4;stroke-dasharray:none;stroke-opacity:1;"/>
  <path id="path19" d="  M 631.33937,237.92861   L 632.1577,237.36601   L 635.07299,235.42248   L 639.82952,232.4049   L 646.27384,228.4667   L 654.35482,223.71018   L 663.97017,218.44219   L 687.39478,207.13905   L 715.93394,196.09164   L 748.82046,186.78316   L 785.13372,180.54342   L 823.39052,178.34417   L 861.59616,180.59457   L 897.90943,186.83431   L 930.79595,196.19393   L 959.23282,207.24134   L 982.60629,218.54449   L 992.22163,223.81247   L 1000.2515,228.51785   L 1006.6958,232.50719   L 1011.4012,235.47363   L 1014.2653,237.36601   L 1015.0836,237.92861  " style="fill:none;stroke:#000000;stroke-width:8px;stroke-linecap:round;stroke-linejoin:round;stroke-miterlimit:4;stroke-dasharray:none;stroke-opacity:1;"/>
  <path id="path21" d="  M 1015.0836,1033.7006   L 1014.2653,1034.2632   L 1011.35,1036.2067   L 1006.5935,1039.2243   L 1000.1492,1043.1625   L 992.06819,1047.919   L 982.45285,1053.187   L 959.02824,1064.4901   L 930.48908,1075.5376   L 897.60256,1084.846   L 861.28929,1091.0858   L 823.0325,1093.285   L 784.82685,1091.0346   L 748.51359,1084.7949   L 715.62706,1075.4353   L 687.1902,1064.3879   L 663.81673,1053.0847   L 654.20139,1047.8167   L 646.17155,1043.1113   L 639.72722,1039.122   L 635.02184,1036.1556   L 632.1577,1034.2632   L 631.33937,1033.7006  " style="fill:none;stroke:#000000;stroke-width:8px;stroke-linecap:round;stroke-linejoin:round;stroke-miterlimit:4;stroke-dasharray:none;stroke-opacity:1;"/>
  <path id="path23" d="  M 1015.2371,237.92861   L 1015.2371,14.525306  " style="fill:none;stroke:#000000;stroke-width:8px;stroke-linecap:round;stroke-linejoin:round;stroke-miterlimit:4;stroke-dasharray:none;stroke-opacity:1;"/>
  <path id="path25" d="  M 631.18594,14.525306   L 631.18594,237.92861  " style="fill:none;stroke:#000000;stroke-width:8px;stroke-linecap:round;stroke-linejoin:round;stroke-miterlimit:4;stroke-dasharray:none;stroke-opacity:1;"/>
  <path id="path27" d="  M 631.18594,1033.7006   L 631.18594,1257.1039  " style="fill:none;stroke:#000000;stroke-width:8px;stroke-linecap:round;stroke-linejoin:round;stroke-miterlimit:4;stroke-dasharray:none;stroke-opacity:1;"/>
  <path id="path29" d="  M 1015.2371,1257.1039   L 1015.2371,1033.7006  " style="fill:none;stroke:#000000;stroke-width:8px;stroke-linecap:round;stroke-linejoin:round;stroke-miterlimit:4;stroke-dasharray:none;stroke-opacity:1;"/>
  <path id="path31" d="  M 769.58551,229.18274   L 876.83751,229.18274  " style="fill:none;stroke:#000000;stroke-width:8px;stroke-linecap:round;stroke-linejoin:round;stroke-miterlimit:4;stroke-dasharray:none;stroke-opacity:1;"/>
  <path id="path33" d="  M 735.67608,296.95045   L 735.67608,263.04102  " style="fill:none;stroke:#000000;stroke-width:8px;stroke-linecap:round;stroke-linejoin:round;stroke-miterlimit:4;stroke-dasharray:none;stroke-opacity:1;"/>
  <path id="path35" d="  M 910.74694,263.04102   L 910.74694,296.95045  " style="fill:none;stroke:#000000;stroke-width:8px;stroke-linecap:round;stroke-linejoin:round;stroke-miterlimit:4;stroke-dasharray:none;stroke-opacity:1;"/>
  <path id="path37" d="  M 876.83751,330.80874   L 769.58551,330.80874  " style="fill:none;stroke:#000000;stroke-width:8px;stroke-linecap:round;stroke-linejoin:round;stroke-miterlimit:4;stroke-dasharray:none;stroke-opacity:1;"/>
  <path id="path39" d="  M 769.58551,466.39531   L 876.83751,466.39531  " style="fill:none;stroke:#000000;stroke-width:8px;stroke-linecap:round;stroke-linejoin:round;stroke-miterlimit:4;stroke-dasharray:none;stroke-opacity:1;"/>
  <path id="path41" d="  M 735.67608,562.39531   L 735.67608,500.2536  " style="fill:none;stroke:#000000;stroke-width:8px;stroke-linecap:round;stroke-linejoin:round;stroke-miterlimit:4;stroke-dasharray:none;stroke-opacity:1;"/>
  <path id="path43" d="  M 910.74694,500.2536   L 910.74694,562.39531  " style="fill:none;stroke:#000000;stroke-width:8px;stroke-linecap:round;stroke-linejoin:round;stroke-miterlimit:4;stroke-dasharray:none;stroke-opacity:1;"/>
  <path id="path45" d="  M 876.83751,596.30474   L 769.58551,596.30474  " style="fill:none;stroke:#000000;stroke-width:8px;stroke-linecap:round;stroke-linejoin:round;stroke-miterlimit:4;stroke-dasharray:none;stroke-opacity:1;"/>
  <path id="path47" d="  M 769.58551,675.32445   L 876.83751,675.32445  " style="fill:none;stroke:#000000;stroke-width:8px;stroke-linecap:round;stroke-linejoin:round;stroke-miterlimit:4;stroke-dasharray:none;stroke-opacity:1;"/>
  <path id="path49" d="  M 735.67608,771.3756   L 735.67608,709.23388  " style="fill:none;stroke:#000000;stroke-width:8px;stroke-linecap:round;stroke-linejoin:round;stroke-miterlimit:4;stroke-dasharray:none;stroke-opacity:1;"/>
  <path id="path51" d="  M 910.74694,709.23388   L 910.74694,771.3756  " style="fill:none;stroke:#000000;stroke-width:8px;stroke-linecap:round;stroke-linejoin:round;stroke-miterlimit:4;stroke-dasharray:none;stroke-opacity:1;"/>
  <path id="path53" d="  M 876.83751,805.23388   L 769.58551,805.23388  " style="fill:none;stroke:#000000;stroke-width:8px;stroke-linecap:round;stroke-linejoin:round;stroke-miterlimit:4;stroke-dasharray:none;stroke-opacity:1;"/>
  <path id="path55" d="  M 769.58551,940.82046   L 876.83751,940.82046  " style="fill:none;stroke:#000000;stroke-width:8px;stroke-linecap:round;stroke-linejoin:round;stroke-miterlimit:4;stroke-dasharray:none;stroke-opacity:1;"/>
  <path id="path57" d="  M 735.67608,1008.5882   L 735.67608,974.67874  " style="fill:none;stroke:#000000;stroke-width:8px;stroke-linecap:round;stroke-linejoin:round;stroke-miterlimit:4;stroke-dasharray:none;stroke-opacity:1;"/>
  <path id="path59" d="  M 910.74694,974.67874   L 910.74694,1008.5882  " style="fill:none;stroke:#000000;stroke-width:8px;stroke-linecap:round;stroke-linejoin:round;stroke-miterlimit:4;stroke-dasharray:none;stroke-opacity:1;"/>
  <path id="path61" d="  M 876.83751,1042.4465   L 769.58551,1042.4465  " style="fill:none;stroke:#000000;stroke-width:8px;stroke-linecap:round;stroke-linejoin:round;stroke-miterlimit:4;stroke-dasharray:none;stroke-opacity:1;"/>
  <path id="path63" d="  M 642.48908,2.761854   L 642.48908,3.2733085   L 642.48908,3.7847629   L 1003.9339,3.7847629   L 1003.9339,3.2733085   L 1003.9339,2.761854  z " style="fill:#000000;fill-rule:evenodd;fill-opacity:1;stroke:none;"/>
  <path id="path65" d="  M 642.48908,2.761854   L 642.48908,3.2733085   L 642.48908,3.7847629   L 1003.9339,3.7847629   L 1003.9339,3.2733085   L 1003.9339,2.761854   L 642.48908,2.761854  z " style="fill:none;stroke:#000000;stroke-width:8px;stroke-linecap:round;stroke-linejoin:round;stroke-miterlimit:4;stroke-dasharray:none;stroke-opacity:1;"/>
  <path id="path67" d="  M 1003.9339,1268.8673   L 1003.9339,1268.3559   L 1003.9339,1267.8444   L 642.48908,1267.8444   L 642.48908,1268.3559   L 642.48908,1268.8673  z " style="fill:#000000;fill-rule:evenodd;fill-opacity:1;stroke:none;"/>
  <path id="path69" d="  M 1003.9339,1268.8673   L 1003.9339,1268.3559   L 1003.9339,1267.8444   L 642.48908,1267.8444   L 642.48908,1268.3559   L 642.48908,1268.8673   L 1003.9339,1268.8673  z " style="fill:none;stroke:#000000;stroke-width:8px;stroke-linecap:round;stroke-linejoin:round;stroke-miterlimit:4;stroke-dasharray:none;stroke-opacity:1;"/>
  <path id="path71" d="  M 1015.2371,14.525306   L 631.18594,14.525306  " style="fill:none;stroke:#000000;stroke-width:8px;stroke-linecap:round;stroke-linejoin:round;stroke-miterlimit:4;stroke-dasharray:none;stroke-opacity:1;"/>
  <path id="path73" d="  M 631.18594,1257.1039   L 1015.2371,1257.1039  " style="fill:none;stroke:#000000;stroke-width:8px;stroke-linecap:round;stroke-linejoin:round;stroke-miterlimit:4;stroke-dasharray:none;stroke-opacity:1;"/>
  <path id="path75" d="  M 642.48908,3.2733085   L 641.36388,3.3244539   L 640.28982,3.4778903   L 639.21577,3.7336175   L 638.19286,4.142781   L 637.16995,4.60309   L 636.24933,5.1656899   L 635.32872,5.8305807   L 634.51039,6.5466169   L 633.79435,7.3649441   L 633.12946,8.2855621   L 632.56686,9.2061801   L 632.10655,10.229089   L 631.69739,11.251998   L 631.44166,12.326052   L 631.28823,13.400107   L 631.23708,14.525306  " style="fill:none;stroke:#000000;stroke-width:8px;stroke-linecap:round;stroke-linejoin:round;stroke-miterlimit:4;stroke-dasharray:none;stroke-opacity:1;"/>
  <path id="path77" d="  M 1015.1859,14.525306   L 1015.1348,13.400107   L 1014.9814,12.326052   L 1014.7256,11.251998   L 1014.3165,10.229089   L 1013.8562,9.2061801   L 1013.2936,8.2855621   L 1012.6287,7.3649441   L 1011.9126,6.5466169   L 1011.0943,5.8305807   L 1010.1737,5.1656899   L 1009.2531,4.60309   L 1008.2302,4.142781   L 1007.2072,3.7336175   L 1006.1332,3.4778903   L 1005.0591,3.3244539   L 1003.9339,3.2733085  " style="fill:none;stroke:#000000;stroke-width:8px;stroke-linecap:round;stroke-linejoin:round;stroke-miterlimit:4;stroke-dasharray:none;stroke-opacity:1;"/>
  <path id="path79" d="  M 1003.9339,1268.3559   L 1005.0591,1268.3047   L 1006.1332,1268.1513   L 1007.2072,1267.8956   L 1008.2302,1267.4864   L 1009.2531,1267.0261   L 1010.1737,1266.4635   L 1011.0943,1265.7986   L 1011.9126,1265.0826   L 1012.6287,1264.2643   L 1013.2936,1263.3436   L 1013.8562,1262.423   L 1014.3165,1261.4001   L 1014.7256,1260.3772   L 1014.9814,1259.3031   L 1015.1348,1258.2291   L 1015.1859,1257.1039  " style="fill:none;stroke:#000000;stroke-width:8px;stroke-linecap:round;stroke-linejoin:round;stroke-miterlimit:4;stroke-dasharray:none;stroke-opacity:1;"/>
  <path id="path81" d="  M 631.23708,1257.1039   L 631.28823,1258.2291   L 631.44166,1259.3031   L 631.69739,1260.3772   L 632.10655,1261.4001   L 632.56686,1262.423   L 633.12946,1263.3436   L 633.79435,1264.2643   L 634.51039,1265.0826   L 635.32872,1265.7986   L 636.24933,1266.4635   L 637.16995,1267.0261   L 638.19286,1267.4864   L 639.21577,1267.8956   L 640.28982,1268.1513   L 641.36388,1268.3047   L 642.48908,1268.3559  " style="fill:none;stroke:#000000;stroke-width:8px;stroke-linecap:round;stroke-linejoin:round;stroke-miterlimit:4;stroke-dasharray:none;stroke-opacity:1;"/>
  <path id="path83" d="  M 910.69579,263.04102   L 910.64465,261.14864   L 910.49121,259.25626   L 910.23548,257.36388   L 909.82632,255.52264   L 909.36601,253.68141   L 908.80341,251.84017   L 908.13852,250.10123   L 907.32019,248.36228   L 906.45072,246.67448   L 905.5301,245.03783   L 904.45605,243.45232   L 903.33085,241.91795   L 902.10336,240.48588   L 900.77357,239.10495   L 899.39265,237.77517   L 897.96058,236.54768   L 896.42621,235.42248   L 894.8407,234.34843   L 893.20405,233.42781   L 891.51625,232.55834   L 889.7773,231.74001   L 888.03836,231.07512   L 886.19712,230.51252   L 884.35589,230.05221   L 882.51465,229.64305   L 880.62227,229.38732   L 878.72989,229.23388   L 876.83751,229.18274  " style="fill:none;stroke:#000000;stroke-width:8px;stroke-linecap:round;stroke-linejoin:round;stroke-miterlimit:4;stroke-dasharray:none;stroke-opacity:1;"/>
  <path id="path85" d="  M 769.58551,229.18274   L 767.69313,229.23388   L 765.80075,229.38732   L 763.90836,229.64305   L 762.06713,230.05221   L 760.22589,230.51252   L 758.38466,231.07512   L 756.64571,231.74001   L 754.90677,232.55834   L 753.21897,233.42781   L 751.58231,234.34843   L 749.9968,235.42248   L 748.46244,236.54768   L 747.03037,237.77517   L 745.64944,239.10495   L 744.31966,240.48588   L 743.09217,241.91795   L 741.96697,243.45232   L 740.89291,245.03783   L 739.9723,246.67448   L 739.10282,248.36228   L 738.2845,250.10123   L 737.61961,251.84017   L 737.05701,253.68141   L 736.5967,255.52264   L 736.18753,257.36388   L 735.93181,259.25626   L 735.77837,261.14864   L 735.72722,263.04102  " style="fill:none;stroke:#000000;stroke-width:8px;stroke-linecap:round;stroke-linejoin:round;stroke-miterlimit:4;stroke-dasharray:none;stroke-opacity:1;"/>
  <path id="path87" d="  M 735.72722,296.95045   L 735.77837,298.84283   L 735.93181,300.73522   L 736.18753,302.6276   L 736.5967,304.46883   L 737.05701,306.31007   L 737.61961,308.15131   L 738.2845,309.89025   L 739.10282,311.6292   L 739.9723,313.317   L 740.89291,314.95365   L 741.96697,316.53916   L 743.09217,318.07352   L 744.31966,319.50559   L 745.64944,320.88652   L 747.03037,322.2163   L 748.46244,323.44379   L 749.9968,324.56899   L 751.58231,325.64305   L 753.21897,326.56367   L 754.90677,327.43314   L 756.64571,328.25147   L 758.38466,328.91636   L 760.22589,329.47896   L 762.06713,329.93926   L 763.90836,330.34843   L 765.80075,330.60416   L 767.69313,330.75759   L 769.58551,330.80874  " style="fill:none;stroke:#000000;stroke-width:8px;stroke-linecap:round;stroke-linejoin:round;stroke-miterlimit:4;stroke-dasharray:none;stroke-opacity:1;"/>
  <path id="path89" d="  M 876.83751,330.80874   L 878.72989,330.75759   L 880.62227,330.60416   L 882.51465,330.34843   L 884.35589,329.93926   L 886.19712,329.47896   L 888.03836,328.91636   L 889.7773,328.25147   L 891.51625,327.43314   L 893.20405,326.56367   L 894.8407,325.64305   L 896.42621,324.56899   L 897.96058,323.44379   L 899.39265,322.2163   L 900.77357,320.88652   L 902.10336,319.50559   L 903.33085,318.07352   L 904.45605,316.53916   L 905.5301,314.95365   L 906.45072,313.317   L 907.32019,311.6292   L 908.13852,309.89025   L 908.80341,308.15131   L 909.36601,306.31007   L 909.82632,304.46883   L 910.23548,302.6276   L 910.49121,300.73522   L 910.64465,298.84283   L 910.69579,296.95045  " style="fill:none;stroke:#000000;stroke-width:8px;stroke-linecap:round;stroke-linejoin:round;stroke-miterlimit:4;stroke-dasharray:none;stroke-opacity:1;"/>
  <path id="path91" d="  M 769.58551,466.39531   L 767.69313,466.44646   L 765.80075,466.59989   L 763.90836,466.85562   L 762.06713,467.26478   L 760.22589,467.72509   L 758.38466,468.28769   L 756.64571,468.95258   L 754.90677,469.77091   L 753.21897,470.64038   L 751.58231,471.561   L 749.9968,472.63506   L 748.46244,473.76026   L 747.03037,474.98775   L 745.64944,476.31753   L 744.31966,477.69845   L 743.09217,479.13053   L 741.96697,480.66489   L 740.89291,482.2504   L 739.9723,483.88705   L 739.10282,485.57485   L 738.2845,487.3138   L 737.61961,489.05274   L 737.05701,490.89398   L 736.5967,492.73522   L 736.18753,494.57645   L 735.93181,496.46883   L 735.77837,498.36121   L 735.72722,500.2536  " style="fill:none;stroke:#000000;stroke-width:8px;stroke-linecap:round;stroke-linejoin:round;stroke-miterlimit:4;stroke-dasharray:none;stroke-opacity:1;"/>
  <path id="path93" d="  M 910.69579,500.2536   L 910.64465,498.36121   L 910.49121,496.46883   L 910.23548,494.57645   L 909.82632,492.73522   L 909.36601,490.89398   L 908.80341,489.05274   L 908.13852,487.3138   L 907.32019,485.57485   L 906.45072,483.88705   L 905.5301,482.2504   L 904.45605,480.66489   L 903.33085,479.13053   L 902.10336,477.69845   L 900.77357,476.31753   L 899.39265,474.98775   L 897.96058,473.76026   L 896.42621,472.63506   L 894.8407,471.561   L 893.20405,470.64038   L 891.51625,469.77091   L 889.7773,468.95258   L 888.03836,468.28769   L 886.19712,467.72509   L 884.35589,467.26478   L 882.51465,466.85562   L 880.62227,466.59989   L 878.72989,466.44646   L 876.83751,466.39531  " style="fill:none;stroke:#000000;stroke-width:8px;stroke-linecap:round;stroke-linejoin:round;stroke-miterlimit:4;stroke-dasharray:none;stroke-opacity:1;"/>
  <path id="path95" d="  M 876.83751,596.2536   L 878.72989,596.20245   L 880.62227,596.04901   L 882.51465,595.79329   L 884.35589,595.38412   L 886.19712,594.92381   L 888.03836,594.36121   L 889.7773,593.69632   L 891.51625,592.878   L 893.20405,592.00852   L 894.8407,591.08791   L 896.42621,590.01385   L 897.96058,588.88865   L 899.39265,587.66116   L 900.77357,586.33138   L 902.10336,584.95045   L 903.33085,583.51838   L 904.45605,581.98402   L 905.5301,580.39851   L 906.45072,578.76185   L 907.32019,577.07405   L 908.13852,575.33511   L 908.80341,573.59616   L 909.36601,571.75493   L 909.82632,569.91369   L 910.23548,568.07246   L 910.49121,566.18007   L 910.64465,564.28769   L 910.69579,562.39531  " style="fill:none;stroke:#000000;stroke-width:8px;stroke-linecap:round;stroke-linejoin:round;stroke-miterlimit:4;stroke-dasharray:none;stroke-opacity:1;"/>
  <path id="path97" d="  M 735.72722,562.39531   L 735.77837,564.28769   L 735.93181,566.18007   L 736.18753,568.07246   L 736.5967,569.91369   L 737.05701,571.75493   L 737.61961,573.59616   L 738.2845,575.33511   L 739.10282,577.07405   L 739.9723,578.76185   L 740.89291,580.39851   L 741.96697,581.98402   L 743.09217,583.51838   L 744.31966,584.95045   L 745.64944,586.33138   L 747.03037,587.66116   L 748.46244,588.88865   L 749.9968,590.01385   L 751.58231,591.08791   L 753.21897,592.00852   L 754.90677,592.878   L 756.64571,593.69632   L 758.38466,594.36121   L 760.22589,594.92381   L 762.06713,595.38412   L 763.90836,595.79329   L 765.80075,596.04901   L 767.69313,596.20245   L 769.58551,596.2536  " style="fill:none;stroke:#000000;stroke-width:8px;stroke-linecap:round;stroke-linejoin:round;stroke-miterlimit:4;stroke-dasharray:none;stroke-opacity:1;"/>
  <path id="path99" d="  M 769.58551,675.3756   L 767.69313,675.42674   L 765.80075,675.58018   L 763.90836,675.83591   L 762.06713,676.24507   L 760.22589,676.70538   L 758.38466,677.26798   L 756.64571,677.93287   L 754.90677,678.7512   L 753.21897,679.62067   L 751.58231,680.54129   L 749.9968,681.61534   L 748.46244,682.74054   L 747.03037,683.96803   L 745.64944,685.29782   L 744.31966,686.67874   L 743.09217,688.11082   L 741.96697,689.64518   L 740.89291,691.23069   L 739.9723,692.86734   L 739.10282,694.55514   L 738.2845,696.29409   L 737.61961,698.03303   L 737.05701,699.87427   L 736.5967,701.7155   L 736.18753,703.55674   L 735.93181,705.44912   L 735.77837,707.3415   L 735.72722,709.23388  " style="fill:none;stroke:#000000;stroke-width:8px;stroke-linecap:round;stroke-linejoin:round;stroke-miterlimit:4;stroke-dasharray:none;stroke-opacity:1;"/>
  <path id="path101" d="  M 910.69579,709.23388   L 910.64465,707.3415   L 910.49121,705.44912   L 910.23548,703.55674   L 909.82632,701.7155   L 909.36601,699.87427   L 908.80341,698.03303   L 908.13852,696.29409   L 907.32019,694.55514   L 906.45072,692.86734   L 905.5301,691.23069   L 904.45605,689.64518   L 903.33085,688.11082   L 902.10336,686.67874   L 900.77357,685.29782   L 899.39265,683.96803   L 897.96058,682.74054   L 896.42621,681.61534   L 894.8407,680.54129   L 893.20405,679.62067   L 891.51625,678.7512   L 889.7773,677.93287   L 888.03836,677.26798   L 886.19712,676.70538   L 884.35589,676.24507   L 882.51465,675.83591   L 880.62227,675.58018   L 878.72989,675.42674   L 876.83751,675.3756  " style="fill:none;stroke:#000000;stroke-width:8px;stroke-linecap:round;stroke-linejoin:round;stroke-miterlimit:4;stroke-dasharray:none;stroke-opacity:1;"/>
  <path id="path103" d="  M 876.83751,805.23388   L 878.72989,805.18274   L 880.62227,805.0293   L 882.51465,804.77357   L 884.35589,804.36441   L 886.19712,803.9041   L 888.03836,803.3415   L 889.7773,802.67661   L 891.51625,801.85828   L 893.20405,800.98881   L 894.8407,800.06819   L 896.42621,798.99414   L 897.96058,797.86894   L 899.39265,796.64145   L 900.77357,795.31167   L 902.10336,793.93074   L 903.33085,792.49867   L 904.45605,790.9643   L 905.5301,789.3788   L 906.45072,787.74214   L 907.32019,786.05434   L 908.13852,784.3154   L 908.80341,782.57645   L 909.36601,780.73522   L 909.82632,778.89398   L 910.23548,777.05274   L 910.49121,775.16036   L 910.64465,773.26798   L 910.69579,771.3756  " style="fill:none;stroke:#000000;stroke-width:8px;stroke-linecap:round;stroke-linejoin:round;stroke-miterlimit:4;stroke-dasharray:none;stroke-opacity:1;"/>
  <path id="path105" d="  M 735.72722,771.3756   L 735.77837,773.26798   L 735.93181,775.16036   L 736.18753,777.05274   L 736.5967,778.89398   L 737.05701,780.73522   L 737.61961,782.57645   L 738.2845,784.3154   L 739.10282,786.05434   L 739.9723,787.74214   L 740.89291,789.3788   L 741.96697,790.9643   L 743.09217,792.49867   L 744.31966,793.93074   L 745.64944,795.31167   L 747.03037,796.64145   L 748.46244,797.86894   L 749.9968,798.99414   L 751.58231,800.06819   L 753.21897,800.98881   L 754.90677,801.85828   L 756.64571,802.67661   L 758.38466,803.3415   L 760.22589,803.9041   L 762.06713,804.36441   L 763.90836,804.77357   L 765.80075,805.0293   L 767.69313,805.18274   L 769.58551,805.23388  " style="fill:none;stroke:#000000;stroke-width:8px;stroke-linecap:round;stroke-linejoin:round;stroke-miterlimit:4;stroke-dasharray:none;stroke-opacity:1;"/>
  <path id="path107" d="  M 910.69579,974.67874   L 910.64465,972.78636   L 910.49121,970.89398   L 910.23548,969.0016   L 909.82632,967.16036   L 909.36601,965.31913   L 908.80341,963.47789   L 908.13852,961.73895   L 907.32019,960   L 906.45072,958.3122   L 905.5301,956.67555   L 904.45605,955.09004   L 903.33085,953.55567   L 902.10336,952.1236   L 900.77357,950.74267   L 899.39265,949.41289   L 897.96058,948.1854   L 896.42621,947.0602   L 894.8407,945.98615   L 893.20405,945.06553   L 891.51625,944.19606   L 889.7773,943.37773   L 888.03836,942.71284   L 886.19712,942.15024   L 884.35589,941.68993   L 882.51465,941.28077   L 880.62227,941.02504   L 878.72989,940.8716   L 876.83751,940.82046  " style="fill:none;stroke:#000000;stroke-width:8px;stroke-linecap:round;stroke-linejoin:round;stroke-miterlimit:4;stroke-dasharray:none;stroke-opacity:1;"/>
  <path id="path109" d="  M 769.58551,940.82046   L 767.69313,940.8716   L 765.80075,941.02504   L 763.90836,941.28077   L 762.06713,941.68993   L 760.22589,942.15024   L 758.38466,942.71284   L 756.64571,943.37773   L 754.90677,944.19606   L 753.21897,945.06553   L 751.58231,945.98615   L 749.9968,947.0602   L 748.46244,948.1854   L 747.03037,949.41289   L 745.64944,950.74267   L 744.31966,952.1236   L 743.09217,953.55567   L 741.96697,955.09004   L 740.89291,956.67555   L 739.9723,958.3122   L 739.10282,960   L 738.2845,961.73895   L 737.61961,963.47789   L 737.05701,965.31913   L 736.5967,967.16036   L 736.18753,969.0016   L 735.93181,970.89398   L 735.77837,972.78636   L 735.72722,974.67874  " style="fill:none;stroke:#000000;stroke-width:8px;stroke-linecap:round;stroke-linejoin:round;stroke-miterlimit:4;stroke-dasharray:none;stroke-opacity:1;"/>
  <path id="path111" d="  M 876.83751,1042.4465   L 878.72989,1042.3953   L 880.62227,1042.2419   L 882.51465,1041.9861   L 884.35589,1041.577   L 886.19712,1041.1167   L 888.03836,1040.5541   L 889.7773,1039.8892   L 891.51625,1039.0709   L 893.20405,1038.2014   L 894.8407,1037.2808   L 896.42621,1036.2067   L 897.96058,1035.0815   L 899.39265,1033.854   L 900.77357,1032.5242   L 902.10336,1031.1433   L 903.33085,1029.7112   L 904.45605,1028.1769   L 905.5301,1026.5914   L 906.45072,1024.9547   L 907.32019,1023.2669   L 908.13852,1021.528   L 908.80341,1019.789   L 909.36601,1017.9478   L 909.82632,1016.1066   L 910.23548,1014.2653   L 910.49121,1012.3729   L 910.64465,1010.4806   L 910.69579,1008.5882  " style="fill:none;stroke:#000000;stroke-width:8px;stroke-linecap:round;stroke-linejoin:round;stroke-miterlimit:4;stroke-dasharray:none;stroke-opacity:1;"/>
  <path id="path113" d="  M 735.72722,1008.5882   L 735.77837,1010.4806   L 735.93181,1012.3729   L 736.18753,1014.2653   L 736.5967,1016.1066   L 737.05701,1017.9478   L 737.61961,1019.789   L 738.2845,1021.528   L 739.10282,1023.2669   L 739.9723,1024.9547   L 740.89291,1026.5914   L 741.96697,1028.1769   L 743.09217,1029.7112   L 744.31966,1031.1433   L 745.64944,1032.5242   L 747.03037,1033.854   L 748.46244,1035.0815   L 749.9968,1036.2067   L 751.58231,1037.2808   L 753.21897,1038.2014   L 754.90677,1039.0709   L 756.64571,1039.8892   L 758.38466,1040.5541   L 760.22589,1041.1167   L 762.06713,1041.577   L 763.90836,1041.9861   L 765.80075,1042.2419   L 767.69313,1042.3953   L 769.58551,1042.4465  " style="fill:none;stroke:#000000;stroke-width:8px;stroke-linecap:round;stroke-linejoin:round;stroke-miterlimit:4;stroke-dasharray:none;stroke-opacity:1;"/>
</svg>