<svg xmlns:dc="http://purl.org/dc/elements/1.1/" xmlns:cc="http://creativecommons.org/ns#" xmlns:rdf="http://www.w3.org/1999/02/22-rdf-syntax-ns#" xmlns:svg="http://www.w3.org/2000/svg" xmlns="http://www.w3.org/2000/svg" id="svg163" style="overflow: visible;" preserveAspectRatio="xMinyMin meet" version="1.0" 
viewBox="473.86 1.83 698.58 1271.01">
  <metadata id="metadata167">
    <rdf:RDF>  
      <cc:Work rdf:about="">
        <dc:format>image/svg+xml</dc:format>
        <dc:type rdf:resource="http://purl.org/dc/dcmitype/StillImage"/>
      </cc:Work>
    </rdf:RDF>
  </metadata>
  <defs id="defs3">
    <pattern y="0" x="0" height="6" width="6" patternUnits="userSpaceOnUse" id="WMFhbasepattern"/>
  </defs>
  <path id="path5" d="  M 786.34167,179.63598   L 786.29058,182.95689   L 785.83076,186.22672   L 783.83821,192.562   L 780.77275,198.38638   L 776.5322,203.49548   L 771.47419,207.68494   L 765.64981,210.85258   L 759.31453,212.79404   L 756.0447,213.30495   L 752.72379,213.40713  " style="fill:none;stroke:#000000;stroke-width:4px;stroke-linecap:round;stroke-linejoin:round;stroke-miterlimit:4;stroke-dasharray:none;stroke-opacity:1;"/>
  <path id="path7" d="  M 752.72379,1061.3135   L 756.0447,1061.3646   L 759.31453,1061.8755   L 765.64981,1063.8169   L 771.47419,1066.9335   L 776.5322,1071.174   L 780.72166,1076.2831   L 783.8893,1082.1075   L 785.77967,1088.4428   L 786.34167,1091.7126   L 786.39276,1095.0335  " style="fill:none;stroke:#000000;stroke-width:4px;stroke-linecap:round;stroke-linejoin:round;stroke-miterlimit:4;stroke-dasharray:none;stroke-opacity:1;"/>
  <path id="path9" d="  M 1159.1527,232.51517   L 1160.5833,229.09207   L 1161.9627,225.31134  " style="fill:none;stroke:#000000;stroke-width:4px;stroke-linecap:round;stroke-linejoin:round;stroke-miterlimit:4;stroke-dasharray:none;stroke-opacity:1;"/>
  <path id="path11" d="  M 1161.9627,1049.3582   L 1160.5833,1045.5263   L 1159.1527,1042.1543  " style="fill:none;stroke:#000000;stroke-width:4px;stroke-linecap:round;stroke-linejoin:round;stroke-miterlimit:4;stroke-dasharray:none;stroke-opacity:1;"/>
  <path id="path13" d="  M 1141.6285,195.32092   L 1145.1027,193.78819   L 1148.4236,192.76637   L 1151.4891,192.25546   L 1154.3502,192.15327   L 1157.0069,192.45982   L 1159.4082,193.124   L 1161.554,194.14582   L 1163.4955,195.47419   L 1166.5609,198.7951   L 1168.7578,203.03566   L 1170.0351,207.94039   L 1170.4439,213.45822  " style="fill:none;stroke:#000000;stroke-width:4px;stroke-linecap:round;stroke-linejoin:round;stroke-miterlimit:4;stroke-dasharray:none;stroke-opacity:1;"/>
  <path id="path15" d="  M 1141.6285,1079.3486   L 1145.1027,1080.8813   L 1148.4236,1081.9031   L 1151.4891,1082.4141   L 1154.3502,1082.5162   L 1157.0069,1082.2097   L 1159.4082,1081.4944   L 1161.554,1080.5237   L 1163.4955,1079.1953   L 1166.5609,1075.8744   L 1168.7578,1071.6338   L 1170.0351,1066.678   L 1170.4439,1061.2113  " style="fill:none;stroke:#000000;stroke-width:4px;stroke-linecap:round;stroke-linejoin:round;stroke-miterlimit:4;stroke-dasharray:none;stroke-opacity:1;"/>
  <path id="path17" d="  M 1170.4439,235.32517   L 1170.4439,239.61682   L 1170.4439,243.29537  " style="fill:none;stroke:#000000;stroke-width:4px;stroke-linecap:round;stroke-linejoin:round;stroke-miterlimit:4;stroke-dasharray:none;stroke-opacity:1;"/>
  <path id="path19" d="  M 1170.4439,1031.3741   L 1170.4439,1035.0527   L 1170.4439,1039.3443  " style="fill:none;stroke:#000000;stroke-width:4px;stroke-linecap:round;stroke-linejoin:round;stroke-miterlimit:4;stroke-dasharray:none;stroke-opacity:1;"/>
  <path id="path21" d="  M 1161.9627,225.31134   L 1164.1597,221.17296   L 1165.9989,218.05641   L 1167.4295,215.80841   L 1168.6046,214.22459   L 1169.422,213.30495   L 1169.984,212.89622   L 1170.3417,212.94731   L 1170.4439,213.45822  " style="fill:none;stroke:#000000;stroke-width:4px;stroke-linecap:round;stroke-linejoin:round;stroke-miterlimit:4;stroke-dasharray:none;stroke-opacity:1;"/>
  <path id="path23" d="  M 1170.4439,235.32517   L 1170.4439,230.47153   L 1170.4439,226.43534   L 1170.4439,223.01224   L 1170.4439,220.15114   L 1170.4439,217.80096   L 1170.4439,215.91059   L 1170.4439,214.48004   L 1170.4439,213.45822  " style="fill:none;stroke:#000000;stroke-width:4px;stroke-linecap:round;stroke-linejoin:round;stroke-miterlimit:4;stroke-dasharray:none;stroke-opacity:1;"/>
  <path id="path25" d="  M 1161.9627,1049.3582   L 1164.1597,1053.4965   L 1165.9989,1056.6131   L 1167.4295,1058.8611   L 1168.6046,1060.3938   L 1169.422,1061.3646   L 1169.984,1061.7733   L 1170.3417,1061.7222   L 1170.4439,1061.2113  " style="fill:none;stroke:#000000;stroke-width:4px;stroke-linecap:round;stroke-linejoin:round;stroke-miterlimit:4;stroke-dasharray:none;stroke-opacity:1;"/>
  <path id="path27" d="  M 1170.4439,1039.3443   L 1170.4439,1044.198   L 1170.4439,1048.2342   L 1170.4439,1051.6573   L 1170.4439,1054.5184   L 1170.4439,1056.8685   L 1170.4439,1058.7589   L 1170.4439,1060.1895   L 1170.4439,1061.2113  " style="fill:none;stroke:#000000;stroke-width:4px;stroke-linecap:round;stroke-linejoin:round;stroke-miterlimit:4;stroke-dasharray:none;stroke-opacity:1;"/>
  <path id="path29" d="  M 1159.1527,232.51517   L 1147.9127,236.65354   L 1135.9574,240.89409   L 1122.9803,245.18574   L 1109.1857,249.32411   L 1094.727,253.30921   L 1079.553,257.03885   L 1063.8169,260.35977   L 1047.57,263.22086   L 1030.8632,265.57105   L 1013.8499,267.30814   L 996.58116,268.38105   L 979.21022,268.73869   L 961.83928,268.43214   L 944.57052,267.41032   L 927.50612,265.72432   L 910.79936,263.47632   L 894.50133,260.61522   L 878.71421,257.3454   L 863.48909,253.66684   L 848.92815,249.68175   L 835.13358,245.54337   L 822.10538,241.30282   L 809.94572,237.01118   L 798.70569,232.8728   L 788.48749,228.88771   L 779.3422,225.15806   L 771.4231,221.83715   L 767.94891,220.30442   L 764.78127,218.92496   L 761.97126,217.69878   L 759.51889,216.57477   L 757.42416,215.65514   L 755.68707,214.88877   L 753.28579,213.81586   L 752.72379,213.50931   L 752.72379,213.5604  " style="fill:none;stroke:#000000;stroke-width:4px;stroke-linecap:round;stroke-linejoin:round;stroke-miterlimit:4;stroke-dasharray:none;stroke-opacity:1;"/>
  <path id="path31" d="  M 752.72379,1061.1091   L 752.82597,1061.058   L 753.33688,1060.8536   L 754.30761,1060.3938   L 755.68707,1059.7807   L 757.42416,1059.0144   L 759.51889,1058.0436   L 761.97126,1056.9707   L 764.78127,1055.7445   L 767.94891,1054.3651   L 771.4231,1052.8324   L 779.3422,1049.5114   L 788.48749,1045.7818   L 798.70569,1041.7967   L 809.89462,1037.6072   L 822.10538,1033.3667   L 835.13358,1029.1261   L 848.92815,1024.9367   L 863.48909,1021.0027   L 878.71421,1017.3241   L 894.50133,1014.0543   L 910.79936,1011.1932   L 927.50612,1008.8941   L 944.57052,1007.2592   L 961.83928,1006.2374   L 979.21022,1005.9308   L 996.58116,1006.2885   L 1013.8499,1007.3614   L 1030.8632,1009.0985   L 1047.57,1011.4486   L 1063.8169,1014.3097   L 1079.553,1017.6307   L 1094.727,1021.3092   L 1109.1857,1025.2943   L 1122.9292,1029.4838   L 1135.9574,1033.7243   L 1147.9127,1037.9649   L 1159.1527,1042.1543  " style="fill:none;stroke:#000000;stroke-width:4px;stroke-linecap:round;stroke-linejoin:round;stroke-miterlimit:4;stroke-dasharray:none;stroke-opacity:1;"/>
  <path id="path33" d="  M 786.59713,179.63598   L 786.54604,179.63598   L 787.05695,179.89143   L 789.10059,181.06652   L 790.58222,181.93507   L 792.31932,182.95689   L 796.81533,185.46035   L 802.48643,188.5769   L 809.23044,192.20436   L 817.04737,196.24055   L 825.88611,200.58329   L 835.5934,205.18148   L 846.16924,209.88185   L 857.61362,214.58222   L 869.82437,219.23151   L 882.7504,223.62533   L 896.3917,227.71261   L 910.64609,231.34007   L 925.46248,234.40553   L 940.78978,236.80681   L 956.42363,238.39063   L 972.26184,239.20809   L 988.15114,239.10591   L 1003.9894,238.13518   L 1019.5721,236.34699   L 1034.7461,233.79244   L 1049.4604,230.57371   L 1063.5615,226.84407   L 1077.0495,222.6546   L 1089.8222,218.20969   L 1101.8797,213.5604   L 1113.1197,208.86003   L 1123.5423,204.15966   L 1133.0452,199.61256   L 1141.6285,195.32092  " style="fill:none;stroke:#000000;stroke-width:4px;stroke-linecap:round;stroke-linejoin:round;stroke-miterlimit:4;stroke-dasharray:none;stroke-opacity:1;"/>
  <path id="path35" d="  M 1141.6285,1079.3486   L 1133.0452,1075.0569   L 1123.5423,1070.5098   L 1113.1197,1065.8095   L 1101.8797,1061.1091   L 1089.8222,1056.4598   L 1076.9984,1051.9638   L 1063.5104,1047.8254   L 1049.4093,1044.0447   L 1034.6951,1040.8771   L 1019.4699,1038.3225   L 1003.8872,1036.5343   L 988.10005,1035.5636   L 972.15966,1035.4614   L 956.32145,1036.2278   L 940.6876,1037.8627   L 925.3603,1040.264   L 910.54391,1043.3294   L 896.28952,1046.9569   L 882.64822,1051.0442   L 869.72219,1055.4891   L 857.51144,1060.0873   L 846.06706,1064.7877   L 835.49122,1069.5391   L 825.78393,1074.0862   L 816.99627,1078.48   L 809.17935,1082.5162   L 802.43534,1086.1437   L 796.76424,1089.2092   L 792.31932,1091.7637   L 790.53113,1092.7344   L 789.04949,1093.603   L 787.92549,1094.2672   L 787.10804,1094.727   L 786.64822,1094.9824   L 786.59713,1095.0335  " style="fill:none;stroke:#000000;stroke-width:4px;stroke-linecap:round;stroke-linejoin:round;stroke-miterlimit:4;stroke-dasharray:none;stroke-opacity:1;"/>
  <path id="path37" d="  M 752.72379,213.45822   L 617.02608,213.45822  " style="fill:none;stroke:#000000;stroke-width:4px;stroke-linecap:round;stroke-linejoin:round;stroke-miterlimit:4;stroke-dasharray:none;stroke-opacity:1;"/>
  <path id="path39" d="  M 617.02608,1061.2113   L 752.72379,1061.2113  " style="fill:none;stroke:#000000;stroke-width:4px;stroke-linecap:round;stroke-linejoin:round;stroke-miterlimit:4;stroke-dasharray:none;stroke-opacity:1;"/>
  <path id="path41" d="  M 577.53273,213.45822   L 543.6083,213.45822  " style="fill:none;stroke:#000000;stroke-width:4px;stroke-linecap:round;stroke-linejoin:round;stroke-miterlimit:4;stroke-dasharray:none;stroke-opacity:1;"/>
  <path id="path43" d="  M 543.6083,1061.2113   L 577.53273,1061.2113  " style="fill:none;stroke:#000000;stroke-width:4px;stroke-linecap:round;stroke-linejoin:round;stroke-miterlimit:4;stroke-dasharray:none;stroke-opacity:1;"/>
  <path id="path45" d="  M 605.73497,243.95955   L 588.82384,243.95955  " style="fill:none;stroke:#000000;stroke-width:4px;stroke-linecap:round;stroke-linejoin:round;stroke-miterlimit:4;stroke-dasharray:none;stroke-opacity:1;"/>
  <path id="path47" d="  M 588.82384,1030.6589   L 605.73497,1030.6589  " style="fill:none;stroke:#000000;stroke-width:4px;stroke-linecap:round;stroke-linejoin:round;stroke-miterlimit:4;stroke-dasharray:none;stroke-opacity:1;"/>
  <path id="path49" d="  M 1170.4439,213.45822   L 1170.4439,15.633848  " style="fill:none;stroke:#000000;stroke-width:4px;stroke-linecap:round;stroke-linejoin:round;stroke-miterlimit:4;stroke-dasharray:none;stroke-opacity:1;"/>
  <path id="path51" d="  M 786.44385,15.633848   L 786.44385,179.63598  " style="fill:none;stroke:#000000;stroke-width:4px;stroke-linecap:round;stroke-linejoin:round;stroke-miterlimit:4;stroke-dasharray:none;stroke-opacity:1;"/>
  <path id="path53" d="  M 786.44385,1095.0335   L 786.44385,1258.9846  " style="fill:none;stroke:#000000;stroke-width:4px;stroke-linecap:round;stroke-linejoin:round;stroke-miterlimit:4;stroke-dasharray:none;stroke-opacity:1;"/>
  <path id="path55" d="  M 1170.4439,1258.9846   L 1170.4439,1061.2113  " style="fill:none;stroke:#000000;stroke-width:4px;stroke-linecap:round;stroke-linejoin:round;stroke-miterlimit:4;stroke-dasharray:none;stroke-opacity:1;"/>
  <path id="path57" d="  M 532.31719,1049.8691   L 532.31719,224.74933  " style="fill:none;stroke:#000000;stroke-width:4px;stroke-linecap:round;stroke-linejoin:round;stroke-miterlimit:4;stroke-dasharray:none;stroke-opacity:1;"/>
  <path id="path59" d="  M 1159.1527,1042.1543   L 1159.1527,232.51517  " style="fill:none;stroke:#000000;stroke-width:4px;stroke-linecap:round;stroke-linejoin:round;stroke-miterlimit:4;stroke-dasharray:none;stroke-opacity:1;"/>
  <path id="path61" d="  M 588.82384,224.74933   L 588.82384,1049.8691  " style="fill:none;stroke:#000000;stroke-width:4px;stroke-linecap:round;stroke-linejoin:round;stroke-miterlimit:4;stroke-dasharray:none;stroke-opacity:1;"/>
  <path id="path63" d="  M 605.73497,1049.8691   L 605.73497,224.74933  " style="fill:none;stroke:#000000;stroke-width:4px;stroke-linecap:round;stroke-linejoin:round;stroke-miterlimit:4;stroke-dasharray:none;stroke-opacity:1;"/>
  <path id="path65" d="  M 1170.4439,243.29537   L 1170.4439,1031.3741  " style="fill:none;stroke:#000000;stroke-width:4px;stroke-linecap:round;stroke-linejoin:round;stroke-miterlimit:4;stroke-dasharray:none;stroke-opacity:1;"/>
  <path id="path67" d="  M 797.73497,3.8318254   L 797.73497,4.3427355   L 797.73497,4.8536456   L 1159.1527,4.8536456   L 1159.1527,4.3427355   L 1159.1527,3.8318254  z " style="fill:#000000;fill-rule:evenodd;fill-opacity:1;stroke:none;"/>
  <path id="path69" d="  M 797.73497,3.8318254   L 797.73497,4.3427355   L 797.73497,4.8536456   L 1159.1527,4.8536456   L 1159.1527,4.3427355   L 1159.1527,3.8318254   L 797.73497,3.8318254  z " style="fill:none;stroke:#000000;stroke-width:4px;stroke-linecap:round;stroke-linejoin:round;stroke-miterlimit:4;stroke-dasharray:none;stroke-opacity:1;"/>
  <path id="path71" d="  M 1159.1527,1270.8377   L 1159.1527,1270.3268   L 1159.1527,1269.8159   L 797.73497,1269.8159   L 797.73497,1270.3268   L 797.73497,1270.8377  z " style="fill:#000000;fill-rule:evenodd;fill-opacity:1;stroke:none;"/>
  <path id="path73" d="  M 1159.1527,1270.8377   L 1159.1527,1270.3268   L 1159.1527,1269.8159   L 797.73497,1269.8159   L 797.73497,1270.3268   L 797.73497,1270.8377   L 1159.1527,1270.8377  z " style="fill:none;stroke:#000000;stroke-width:4px;stroke-linecap:round;stroke-linejoin:round;stroke-miterlimit:4;stroke-dasharray:none;stroke-opacity:1;"/>
  <path id="path75" d="  M 492.82384,247.38265   L 515.40607,247.38265  " style="fill:none;stroke:#000000;stroke-width:4px;stroke-linecap:round;stroke-linejoin:round;stroke-miterlimit:4;stroke-dasharray:none;stroke-opacity:1;"/>
  <path id="path77" d="  M 475.86163,298.2182   L 475.86163,264.34486  " style="fill:none;stroke:#000000;stroke-width:4px;stroke-linecap:round;stroke-linejoin:round;stroke-miterlimit:4;stroke-dasharray:none;stroke-opacity:1;"/>
  <path id="path79" d="  M 515.40607,315.18042   L 492.82384,315.18042  " style="fill:none;stroke:#000000;stroke-width:4px;stroke-linecap:round;stroke-linejoin:round;stroke-miterlimit:4;stroke-dasharray:none;stroke-opacity:1;"/>
  <path id="path81" d="  M 492.82384,484.75146   L 515.40607,484.75146  " style="fill:none;stroke:#000000;stroke-width:4px;stroke-linecap:round;stroke-linejoin:round;stroke-miterlimit:4;stroke-dasharray:none;stroke-opacity:1;"/>
  <path id="path83" d="  M 475.86163,563.84034   L 475.86163,501.71368  " style="fill:none;stroke:#000000;stroke-width:4px;stroke-linecap:round;stroke-linejoin:round;stroke-miterlimit:4;stroke-dasharray:none;stroke-opacity:1;"/>
  <path id="path85" d="  M 515.40607,580.80255   L 492.82384,580.80255  " style="fill:none;stroke:#000000;stroke-width:4px;stroke-linecap:round;stroke-linejoin:round;stroke-miterlimit:4;stroke-dasharray:none;stroke-opacity:1;"/>
  <path id="path87" d="  M 492.82384,693.86695   L 515.40607,693.86695  " style="fill:none;stroke:#000000;stroke-width:4px;stroke-linecap:round;stroke-linejoin:round;stroke-miterlimit:4;stroke-dasharray:none;stroke-opacity:1;"/>
  <path id="path89" d="  M 475.86163,772.95583   L 475.86163,710.77807  " style="fill:none;stroke:#000000;stroke-width:4px;stroke-linecap:round;stroke-linejoin:round;stroke-miterlimit:4;stroke-dasharray:none;stroke-opacity:1;"/>
  <path id="path91" d="  M 515.40607,789.91804   L 492.82384,789.91804  " style="fill:none;stroke:#000000;stroke-width:4px;stroke-linecap:round;stroke-linejoin:round;stroke-miterlimit:4;stroke-dasharray:none;stroke-opacity:1;"/>
  <path id="path93" d="  M 492.82384,959.48909   L 515.40607,959.48909  " style="fill:none;stroke:#000000;stroke-width:4px;stroke-linecap:round;stroke-linejoin:round;stroke-miterlimit:4;stroke-dasharray:none;stroke-opacity:1;"/>
  <path id="path95" d="  M 475.86163,1010.3246   L 475.86163,976.40021  " style="fill:none;stroke:#000000;stroke-width:4px;stroke-linecap:round;stroke-linejoin:round;stroke-miterlimit:4;stroke-dasharray:none;stroke-opacity:1;"/>
  <path id="path97" d="  M 515.40607,1027.2869   L 492.82384,1027.2869  " style="fill:none;stroke:#000000;stroke-width:4px;stroke-linecap:round;stroke-linejoin:round;stroke-miterlimit:4;stroke-dasharray:none;stroke-opacity:1;"/>
  <path id="path99" d="  M 543.6083,213.45822   L 542.4843,213.50931   L 541.41139,213.66259   L 540.33848,213.96913   L 539.26557,214.32677   L 538.29484,214.78659   L 537.32411,215.34859   L 536.45556,216.01277   L 535.63811,216.77914   L 534.87174,217.59659   L 534.20756,218.46514   L 533.64556,219.43587   L 533.18574,220.4066   L 532.8281,221.47951   L 532.52155,222.55242   L 532.36828,223.62533   L 532.31719,224.74933  " style="fill:none;stroke:#000000;stroke-width:4px;stroke-linecap:round;stroke-linejoin:round;stroke-miterlimit:4;stroke-dasharray:none;stroke-opacity:1;"/>
  <path id="path101" d="  M 532.31719,1049.8691   L 532.36828,1050.9931   L 532.52155,1052.066   L 532.8281,1053.1389   L 533.18574,1054.2118   L 533.64556,1055.1825   L 534.20756,1056.1533   L 534.87174,1057.0218   L 535.63811,1057.8393   L 536.45556,1058.6056   L 537.32411,1059.2698   L 538.29484,1059.8318   L 539.26557,1060.2916   L 540.33848,1060.6493   L 541.41139,1060.9558   L 542.4843,1061.1091   L 543.6083,1061.1602  " style="fill:none;stroke:#000000;stroke-width:4px;stroke-linecap:round;stroke-linejoin:round;stroke-miterlimit:4;stroke-dasharray:none;stroke-opacity:1;"/>
  <path id="path103" d="  M 577.53273,1061.1602   L 578.65673,1061.1091   L 579.72964,1060.9558   L 580.80255,1060.6493   L 581.87547,1060.2916   L 582.84619,1059.8318   L 583.81692,1059.2698   L 584.68547,1058.6056   L 585.50293,1057.8393   L 586.26929,1057.0218   L 586.93348,1056.1533   L 587.49548,1055.1825   L 587.9553,1054.2118   L 588.31293,1053.1389   L 588.61948,1052.066   L 588.77275,1050.9931   L 588.82384,1049.8691  " style="fill:none;stroke:#000000;stroke-width:4px;stroke-linecap:round;stroke-linejoin:round;stroke-miterlimit:4;stroke-dasharray:none;stroke-opacity:1;"/>
  <path id="path105" d="  M 588.82384,224.74933   L 588.77275,223.62533   L 588.61948,222.55242   L 588.31293,221.47951   L 587.9553,220.4066   L 587.49548,219.43587   L 586.93348,218.46514   L 586.26929,217.59659   L 585.50293,216.77914   L 584.68547,216.01277   L 583.81692,215.34859   L 582.84619,214.78659   L 581.87547,214.32677   L 580.80255,213.96913   L 579.72964,213.66259   L 578.65673,213.50931   L 577.53273,213.45822  " style="fill:none;stroke:#000000;stroke-width:4px;stroke-linecap:round;stroke-linejoin:round;stroke-miterlimit:4;stroke-dasharray:none;stroke-opacity:1;"/>
  <path id="path107" d="  M 617.02608,213.45822   L 615.90208,213.50931   L 614.82916,213.66259   L 613.75625,213.96913   L 612.68334,214.32677   L 611.71261,214.78659   L 610.74188,215.34859   L 609.87334,216.01277   L 609.05588,216.77914   L 608.28952,217.59659   L 607.62533,218.46514   L 607.06333,219.43587   L 606.60351,220.4066   L 606.24588,221.47951   L 605.93933,222.55242   L 605.78606,223.62533   L 605.73497,224.74933  " style="fill:none;stroke:#000000;stroke-width:4px;stroke-linecap:round;stroke-linejoin:round;stroke-miterlimit:4;stroke-dasharray:none;stroke-opacity:1;"/>
  <path id="path109" d="  M 605.73497,1049.8691   L 605.78606,1050.9931   L 605.93933,1052.066   L 606.24588,1053.1389   L 606.60351,1054.2118   L 607.06333,1055.1825   L 607.62533,1056.1533   L 608.28952,1057.0218   L 609.05588,1057.8393   L 609.87334,1058.6056   L 610.74188,1059.2698   L 611.71261,1059.8318   L 612.68334,1060.2916   L 613.75625,1060.6493   L 614.82916,1060.9558   L 615.90208,1061.1091   L 617.02608,1061.1602  " style="fill:none;stroke:#000000;stroke-width:4px;stroke-linecap:round;stroke-linejoin:round;stroke-miterlimit:4;stroke-dasharray:none;stroke-opacity:1;"/>
  <path id="path111" d="  M 797.73497,4.3427355   L 796.61096,4.3938265   L 795.53805,4.5470995   L 794.46514,4.8536456   L 793.39223,5.2112826   L 792.4215,5.6711016   L 791.45077,6.2331027   L 790.58222,6.8972858   L 789.76477,7.6636509   L 788.9984,8.481107   L 788.33422,9.3496541   L 787.77222,10.320383   L 787.3124,11.291112   L 786.95476,12.364023   L 786.64822,13.436935   L 786.49494,14.509846   L 786.44385,15.633848  " style="fill:none;stroke:#000000;stroke-width:4px;stroke-linecap:round;stroke-linejoin:round;stroke-miterlimit:4;stroke-dasharray:none;stroke-opacity:1;"/>
  <path id="path113" d="  M 1170.4439,15.633848   L 1170.3928,14.509846   L 1170.2395,13.436935   L 1169.9329,12.364023   L 1169.5753,11.291112   L 1169.1155,10.320383   L 1168.5535,9.3496541   L 1167.8893,8.481107   L 1167.1229,7.6636509   L 1166.3055,6.8972858   L 1165.4369,6.2331027   L 1164.4662,5.6711016   L 1163.4955,5.2112826   L 1162.4226,4.8536456   L 1161.3497,4.5470995   L 1160.2767,4.3938265   L 1159.1527,4.3427355  " style="fill:none;stroke:#000000;stroke-width:4px;stroke-linecap:round;stroke-linejoin:round;stroke-miterlimit:4;stroke-dasharray:none;stroke-opacity:1;"/>
  <path id="path115" d="  M 1159.1527,1270.2757   L 1160.2767,1270.2246   L 1161.3497,1270.0713   L 1162.4226,1269.7648   L 1163.4955,1269.4071   L 1164.4662,1268.9473   L 1165.4369,1268.3853   L 1166.3055,1267.7211   L 1167.1229,1266.9548   L 1167.8893,1266.1373   L 1168.5535,1265.2688   L 1169.1155,1264.298   L 1169.5753,1263.3273   L 1169.9329,1262.2544   L 1170.2395,1261.1815   L 1170.3928,1260.1086   L 1170.4439,1258.9846  " style="fill:none;stroke:#000000;stroke-width:4px;stroke-linecap:round;stroke-linejoin:round;stroke-miterlimit:4;stroke-dasharray:none;stroke-opacity:1;"/>
  <path id="path117" d="  M 786.44385,1258.9846   L 786.49494,1260.1086   L 786.64822,1261.1815   L 786.95476,1262.2544   L 787.3124,1263.3273   L 787.77222,1264.298   L 788.33422,1265.2688   L 788.9984,1266.1373   L 789.76477,1266.9548   L 790.58222,1267.7211   L 791.45077,1268.3853   L 792.4215,1268.9473   L 793.39223,1269.4071   L 794.46514,1269.7648   L 795.53805,1270.0713   L 796.61096,1270.2246   L 797.73497,1270.2757  " style="fill:none;stroke:#000000;stroke-width:4px;stroke-linecap:round;stroke-linejoin:round;stroke-miterlimit:4;stroke-dasharray:none;stroke-opacity:1;"/>
  <path id="path119" d="  M 1159.1527,1042.1543   L 1160.2257,1042.1032   L 1161.2986,1042.0011   L 1162.3715,1041.7456   L 1163.3933,1041.388   L 1164.364,1040.9792   L 1165.3348,1040.4172   L 1166.2033,1039.8042   L 1167.0208,1039.0889   L 1167.7871,1038.3225   L 1168.4513,1037.454   L 1169.0133,1036.5343   L 1169.5242,1035.5636   L 1169.8819,1034.5418   L 1170.1884,1033.52   L 1170.3417,1032.447   L 1170.4439,1031.3741  " style="fill:none;stroke:#000000;stroke-width:4px;stroke-linecap:round;stroke-linejoin:round;stroke-miterlimit:4;stroke-dasharray:none;stroke-opacity:1;"/>
  <path id="path121" d="  M 1170.4439,243.29537   L 1170.3417,242.22246   L 1170.1884,241.14955   L 1169.8819,240.12773   L 1169.5242,239.10591   L 1169.0133,238.13518   L 1168.4513,237.21554   L 1167.7871,236.34699   L 1167.0208,235.58063   L 1166.2033,234.86535   L 1165.3348,234.25226   L 1164.364,233.69026   L 1163.3933,233.28153   L 1162.3715,232.9239   L 1161.2986,232.66844   L 1160.2257,232.56626   L 1159.1527,232.51517  " style="fill:none;stroke:#000000;stroke-width:4px;stroke-linecap:round;stroke-linejoin:round;stroke-miterlimit:4;stroke-dasharray:none;stroke-opacity:1;"/>
  <path id="path123" d="  M 1141.6796,195.32092   L 1141.9351,197.36456   L 1142.3438,199.4082   L 1142.8547,201.45184   L 1143.4678,203.44439   L 1144.1831,205.43693   L 1145.0516,207.3273   L 1145.9713,209.21767   L 1146.9931,211.05695   L 1148.1171,212.79404   L 1149.3433,214.48004   L 1150.6716,216.11495   L 1152.0511,217.69878   L 1153.5327,219.18042   L 1155.0655,220.55987   L 1156.7004,221.88824   L 1158.3864,223.11442   L 1160.1746,224.23842   L 1162.0138,225.26024  " style="fill:none;stroke:#000000;stroke-width:4px;stroke-linecap:round;stroke-linejoin:round;stroke-miterlimit:4;stroke-dasharray:none;stroke-opacity:1;"/>
  <path id="path125" d="  M 1162.0138,1049.4093   L 1160.1746,1050.4311   L 1158.3864,1051.5551   L 1156.7004,1052.7813   L 1155.0655,1054.1096   L 1153.5327,1055.4891   L 1152.0511,1056.9707   L 1150.6716,1058.5546   L 1149.3433,1060.1895   L 1148.1171,1061.8755   L 1146.9931,1063.6126   L 1145.9713,1065.4518   L 1145.0516,1067.3422   L 1144.1831,1069.2326   L 1143.4678,1071.2251   L 1142.8547,1073.2177   L 1142.3438,1075.2613   L 1141.9351,1077.3049   L 1141.6796,1079.3486  " style="fill:none;stroke:#000000;stroke-width:4px;stroke-linecap:round;stroke-linejoin:round;stroke-miterlimit:4;stroke-dasharray:none;stroke-opacity:1;"/>
  <path id="path127" d="  M 1170.4439,235.27408   L 1170.3417,234.30335   L 1170.1884,233.28153   L 1169.9329,232.3108   L 1169.5242,231.39117   L 1169.1155,230.47153   L 1168.5535,229.60298   L 1167.9404,228.83662   L 1167.2762,228.07025   L 1166.5098,227.40607   L 1165.6924,226.84407   L 1164.8238,226.33316   L 1163.9042,225.87334   L 1162.9335,225.56679   L 1161.9627,225.31134  " style="fill:none;stroke:#000000;stroke-width:4px;stroke-linecap:round;stroke-linejoin:round;stroke-miterlimit:4;stroke-dasharray:none;stroke-opacity:1;"/>
  <path id="path129" d="  M 1161.9627,1049.3071   L 1162.9335,1049.0516   L 1163.9042,1048.7451   L 1164.8238,1048.2853   L 1165.6924,1047.7743   L 1166.5098,1047.2123   L 1167.2762,1046.5482   L 1167.9404,1045.7818   L 1168.5535,1045.0154   L 1169.1155,1044.1469   L 1169.5242,1043.2272   L 1169.9329,1042.3076   L 1170.1884,1041.3369   L 1170.3417,1040.3151   L 1170.4439,1039.3443  " style="fill:none;stroke:#000000;stroke-width:4px;stroke-linecap:round;stroke-linejoin:round;stroke-miterlimit:4;stroke-dasharray:none;stroke-opacity:1;"/>
  <path id="path131" d="  M 515.40607,247.33156   L 516.73443,247.28047   L 518.0628,247.1272   L 519.34007,246.87174   L 520.61735,246.5141   L 521.89462,246.05428   L 523.06972,245.49228   L 524.24481,244.8281   L 525.36881,244.11283   L 526.39063,243.29537   L 527.36136,242.37573   L 528.281,241.405   L 529.09846,240.38318   L 529.81373,239.25918   L 530.47791,238.08409   L 531.03991,236.90899   L 531.49973,235.63172   L 531.85737,234.35444   L 532.11283,233.07717   L 532.2661,231.7488   L 532.31719,230.42044  " style="fill:none;stroke:#000000;stroke-width:4px;stroke-linecap:round;stroke-linejoin:round;stroke-miterlimit:4;stroke-dasharray:none;stroke-opacity:1;"/>
  <path id="path133" d="  M 532.31719,332.14263   L 532.2661,330.81426   L 532.11283,329.4859   L 531.85737,328.20862   L 531.49973,326.93135   L 531.03991,325.65407   L 530.47791,324.47898   L 529.81373,323.30389   L 529.09846,322.17988   L 528.281,321.15806   L 527.36136,320.18733   L 526.39063,319.2677   L 525.36881,318.45024   L 524.24481,317.73497   L 523.06972,317.07078   L 521.89462,316.50878   L 520.61735,316.04896   L 519.34007,315.69133   L 518.0628,315.43587   L 516.73443,315.2826   L 515.40607,315.23151  " style="fill:none;stroke:#000000;stroke-width:4px;stroke-linecap:round;stroke-linejoin:round;stroke-miterlimit:4;stroke-dasharray:none;stroke-opacity:1;"/>
  <path id="path135" d="  M 515.40607,484.70037   L 516.73443,484.64928   L 518.0628,484.49601   L 519.34007,484.24055   L 520.61735,483.88292   L 521.89462,483.4231   L 523.06972,482.8611   L 524.24481,482.19691   L 525.36881,481.48164   L 526.39063,480.66418   L 527.36136,479.74454   L 528.281,478.77382   L 529.09846,477.752   L 529.81373,476.62799   L 530.47791,475.4529   L 531.03991,474.27781   L 531.49973,473.00053   L 531.85737,471.72326   L 532.11283,470.44598   L 532.2661,469.11762   L 532.31719,467.78925  " style="fill:none;stroke:#000000;stroke-width:4px;stroke-linecap:round;stroke-linejoin:round;stroke-miterlimit:4;stroke-dasharray:none;stroke-opacity:1;"/>
  <path id="path137" d="  M 532.31719,597.76477   L 532.2661,596.4364   L 532.11283,595.10804   L 531.85737,593.83076   L 531.49973,592.55349   L 531.03991,591.27621   L 530.47791,590.10112   L 529.81373,588.92602   L 529.09846,587.80202   L 528.281,586.7802   L 527.36136,585.80947   L 526.39063,584.88984   L 525.36881,584.07238   L 524.24481,583.3571   L 523.06972,582.69292   L 521.89462,582.13092   L 520.61735,581.6711   L 519.34007,581.31346   L 518.0628,581.05801   L 516.73443,580.90474   L 515.40607,580.85365  " style="fill:none;stroke:#000000;stroke-width:4px;stroke-linecap:round;stroke-linejoin:round;stroke-miterlimit:4;stroke-dasharray:none;stroke-opacity:1;"/>
  <path id="path139" d="  M 515.40607,693.81586   L 516.73443,693.76477   L 518.0628,693.6115   L 519.34007,693.35604   L 520.61735,692.9984   L 521.89462,692.53858   L 523.06972,691.97658   L 524.24481,691.3124   L 525.36881,690.59713   L 526.39063,689.77967   L 527.36136,688.86003   L 528.281,687.8893   L 529.09846,686.86748   L 529.81373,685.74348   L 530.47791,684.56839   L 531.03991,683.39329   L 531.49973,682.11602   L 531.85737,680.83874   L 532.11283,679.56147   L 532.2661,678.2331   L 532.31719,676.90474  " style="fill:none;stroke:#000000;stroke-width:4px;stroke-linecap:round;stroke-linejoin:round;stroke-miterlimit:4;stroke-dasharray:none;stroke-opacity:1;"/>
  <path id="path141" d="  M 532.31719,806.88026   L 532.2661,805.55189   L 532.11283,804.22352   L 531.85737,802.94625   L 531.49973,801.66897   L 531.03991,800.3917   L 530.47791,799.2166   L 529.81373,798.04151   L 529.09846,796.91751   L 528.281,795.89569   L 527.36136,794.92496   L 526.39063,794.00532   L 525.36881,793.18787   L 524.24481,792.47259   L 523.06972,791.80841   L 521.89462,791.24641   L 520.61735,790.78659   L 519.34007,790.42895   L 518.0628,790.1735   L 516.73443,790.02022   L 515.40607,789.96913  " style="fill:none;stroke:#000000;stroke-width:4px;stroke-linecap:round;stroke-linejoin:round;stroke-miterlimit:4;stroke-dasharray:none;stroke-opacity:1;"/>
  <path id="path143" d="  M 515.40607,959.438   L 516.73443,959.38691   L 518.0628,959.23363   L 519.34007,958.97818   L 520.61735,958.62054   L 521.89462,958.16072   L 523.06972,957.59872   L 524.24481,956.93454   L 525.36881,956.21927   L 526.39063,955.40181   L 527.36136,954.48217   L 528.281,953.51144   L 529.09846,952.48962   L 529.81373,951.36562   L 530.47791,950.19053   L 531.03991,949.01543   L 531.49973,947.73816   L 531.85737,946.46088   L 532.11283,945.18361   L 532.2661,943.85524   L 532.31719,942.52688  " style="fill:none;stroke:#000000;stroke-width:4px;stroke-linecap:round;stroke-linejoin:round;stroke-miterlimit:4;stroke-dasharray:none;stroke-opacity:1;"/>
  <path id="path145" d="  M 532.31719,1044.2491   L 532.2661,1042.9207   L 532.11283,1041.5923   L 531.85737,1040.3151   L 531.49973,1039.0378   L 531.03991,1037.7605   L 530.47791,1036.5854   L 529.81373,1035.4103   L 529.09846,1034.2863   L 528.281,1033.2645   L 527.36136,1032.2938   L 526.39063,1031.3741   L 525.36881,1030.5567   L 524.24481,1029.8414   L 523.06972,1029.1772   L 521.89462,1028.6152   L 520.61735,1028.1554   L 519.34007,1027.7978   L 518.0628,1027.5423   L 516.73443,1027.389   L 515.40607,1027.3379  " style="fill:none;stroke:#000000;stroke-width:4px;stroke-linecap:round;stroke-linejoin:round;stroke-miterlimit:4;stroke-dasharray:none;stroke-opacity:1;"/>
  <path id="path147" d="  M 492.82384,247.43374   L 491.49548,247.48483   L 490.16711,247.63811   L 488.88984,247.89356   L 487.61256,248.2512   L 486.33528,248.71102   L 485.16019,249.27302   L 483.9851,249.9372   L 482.8611,250.65247   L 481.83928,251.46993   L 480.86855,252.38957   L 479.94891,253.3603   L 479.13145,254.38212   L 478.41618,255.50612   L 477.752,256.68121   L 477.18999,257.85631   L 476.73018,259.13358   L 476.37254,260.41086   L 476.11708,261.68813   L 475.96381,263.0165   L 475.91272,264.34486  " style="fill:none;stroke:#000000;stroke-width:4px;stroke-linecap:round;stroke-linejoin:round;stroke-miterlimit:4;stroke-dasharray:none;stroke-opacity:1;"/>
  <path id="path149" d="  M 475.91272,298.2182   L 475.96381,299.54657   L 476.11708,300.87493   L 476.37254,302.15221   L 476.73018,303.42948   L 477.18999,304.70676   L 477.752,305.88185   L 478.41618,307.05695   L 479.13145,308.18095   L 479.94891,309.20277   L 480.86855,310.1735   L 481.83928,311.09313   L 482.8611,311.91059   L 483.9851,312.62586   L 485.16019,313.29005   L 486.33528,313.85205   L 487.61256,314.31187   L 488.88984,314.66951   L 490.16711,314.92496   L 491.49548,315.07823   L 492.82384,315.12932  " style="fill:none;stroke:#000000;stroke-width:4px;stroke-linecap:round;stroke-linejoin:round;stroke-miterlimit:4;stroke-dasharray:none;stroke-opacity:1;"/>
  <path id="path151" d="  M 492.82384,484.80255   L 491.49548,484.85365   L 490.16711,485.00692   L 488.88984,485.26237   L 487.61256,485.62001   L 486.33528,486.07983   L 485.16019,486.64183   L 483.9851,487.30601   L 482.8611,488.02129   L 481.83928,488.83874   L 480.86855,489.75838   L 479.94891,490.72911   L 479.13145,491.75093   L 478.41618,492.87493   L 477.752,494.05003   L 477.18999,495.22512   L 476.73018,496.50239   L 476.37254,497.77967   L 476.11708,499.05695   L 475.96381,500.38531   L 475.91272,501.71368  " style="fill:none;stroke:#000000;stroke-width:4px;stroke-linecap:round;stroke-linejoin:round;stroke-miterlimit:4;stroke-dasharray:none;stroke-opacity:1;"/>
  <path id="path153" d="  M 475.91272,563.84034   L 475.96381,565.16871   L 476.11708,566.49707   L 476.37254,567.77435   L 476.73018,569.05162   L 477.18999,570.3289   L 477.752,571.50399   L 478.41618,572.67908   L 479.13145,573.80309   L 479.94891,574.82491   L 480.86855,575.79564   L 481.83928,576.71527   L 482.8611,577.53273   L 483.9851,578.248   L 485.16019,578.91219   L 486.33528,579.47419   L 487.61256,579.93401   L 488.88984,580.29164   L 490.16711,580.5471   L 491.49548,580.70037   L 492.82384,580.75146  " style="fill:none;stroke:#000000;stroke-width:4px;stroke-linecap:round;stroke-linejoin:round;stroke-miterlimit:4;stroke-dasharray:none;stroke-opacity:1;"/>
  <path id="path155" d="  M 492.82384,693.86695   L 491.49548,693.91804   L 490.16711,694.07131   L 488.88984,694.32677   L 487.61256,694.68441   L 486.33528,695.14423   L 485.16019,695.70623   L 483.9851,696.37041   L 482.8611,697.08568   L 481.83928,697.90314   L 480.86855,698.82278   L 479.94891,699.79351   L 479.13145,700.81533   L 478.41618,701.93933   L 477.752,703.11442   L 477.18999,704.28952   L 476.73018,705.56679   L 476.37254,706.84407   L 476.11708,708.12134   L 475.96381,709.44971   L 475.91272,710.77807  " style="fill:none;stroke:#000000;stroke-width:4px;stroke-linecap:round;stroke-linejoin:round;stroke-miterlimit:4;stroke-dasharray:none;stroke-opacity:1;"/>
  <path id="path157" d="  M 475.91272,772.95583   L 475.96381,774.28419   L 476.11708,775.61256   L 476.37254,776.88984   L 476.73018,778.16711   L 477.18999,779.44439   L 477.752,780.61948   L 478.41618,781.79457   L 479.13145,782.91857   L 479.94891,783.94039   L 480.86855,784.91112   L 481.83928,785.83076   L 482.8611,786.64822   L 483.9851,787.36349   L 485.16019,788.02767   L 486.33528,788.58968   L 487.61256,789.04949   L 488.88984,789.40713   L 490.16711,789.66259   L 491.49548,789.81586   L 492.82384,789.86695  " style="fill:none;stroke:#000000;stroke-width:4px;stroke-linecap:round;stroke-linejoin:round;stroke-miterlimit:4;stroke-dasharray:none;stroke-opacity:1;"/>
  <path id="path159" d="  M 492.82384,959.48909   L 491.49548,959.54018   L 490.16711,959.69345   L 488.88984,959.94891   L 487.61256,960.30655   L 486.33528,960.76637   L 485.16019,961.32837   L 483.9851,961.99255   L 482.8611,962.70782   L 481.83928,963.52528   L 480.86855,964.44492   L 479.94891,965.41565   L 479.13145,966.43747   L 478.41618,967.56147   L 477.752,968.73656   L 477.18999,969.91166   L 476.73018,971.18893   L 476.37254,972.46621   L 476.11708,973.74348   L 475.96381,975.07185   L 475.91272,976.40021  " style="fill:none;stroke:#000000;stroke-width:4px;stroke-linecap:round;stroke-linejoin:round;stroke-miterlimit:4;stroke-dasharray:none;stroke-opacity:1;"/>
  <path id="path161" d="  M 475.91272,1010.3246   L 475.96381,1011.653   L 476.11708,1012.9814   L 476.37254,1014.2586   L 476.73018,1015.5359   L 477.18999,1016.8132   L 477.752,1017.9883   L 478.41618,1019.1634   L 479.13145,1020.2874   L 479.94891,1021.3092   L 480.86855,1022.2799   L 481.83928,1023.1996   L 482.8611,1024.017   L 483.9851,1024.7323   L 485.16019,1025.3965   L 486.33528,1025.9585   L 487.61256,1026.4183   L 488.88984,1026.7759   L 490.16711,1027.0314   L 491.49548,1027.1847   L 492.82384,1027.2358  " style="fill:none;stroke:#000000;stroke-width:4px;stroke-linecap:round;stroke-linejoin:round;stroke-miterlimit:4;stroke-dasharray:none;stroke-opacity:1;"/>
</svg>