<svg xmlns:dc="http://purl.org/dc/elements/1.1/" xmlns:cc="http://creativecommons.org/ns#" xmlns:rdf="http://www.w3.org/1999/02/22-rdf-syntax-ns#" xmlns:svg="http://www.w3.org/2000/svg" xmlns="http://www.w3.org/2000/svg" id="svg161" version="1.0" viewBox="152.23 1.76 1341.96 1268.11">
  <metadata id="metadata165">
    <rdf:RDF>
      <cc:Work rdf:about="">
        <dc:format>image/svg+xml</dc:format>
        <dc:type rdf:resource="http://purl.org/dc/dcmitype/StillImage"/>
      </cc:Work>
    </rdf:RDF>
  </metadata>
  <defs id="defs3">
    <pattern y="0" x="0" height="6" width="6" patternUnits="userSpaceOnUse" id="WMFhbasepattern"/>
  </defs>
  <path id="path5" d="  M 153.74321,36.415557   L 156.04475,35.750666   L 162.64251,35.03463   L 172.51359,34.369739   L 184.17475,33.704848  " style="fill:none;stroke:#000000;stroke-width:5px;stroke-linecap:round;stroke-linejoin:round;stroke-miterlimit:4;stroke-dasharray:none;stroke-opacity:1;"/>
  <path id="path7" d="  M 184.17475,1237.9243   L 172.51359,1237.2595   L 162.64251,1236.5946   L 156.04475,1235.8785   L 153.74321,1235.2136  " style="fill:none;stroke:#000000;stroke-width:5px;stroke-linecap:round;stroke-linejoin:round;stroke-miterlimit:4;stroke-dasharray:none;stroke-opacity:1;"/>
  <path id="path9" d="  M 1462.2483,33.704848   L 1473.9094,34.369739   L 1483.7805,35.03463   L 1490.3783,35.750666   L 1492.6798,36.415557  " style="fill:none;stroke:#000000;stroke-width:5px;stroke-linecap:round;stroke-linejoin:round;stroke-miterlimit:4;stroke-dasharray:none;stroke-opacity:1;"/>
  <path id="path11" d="  M 1492.6798,1235.2136   L 1490.3783,1235.8785   L 1483.7805,1236.5946   L 1473.9094,1237.2595   L 1462.2483,1237.9243  " style="fill:none;stroke:#000000;stroke-width:5px;stroke-linecap:round;stroke-linejoin:round;stroke-miterlimit:4;stroke-dasharray:none;stroke-opacity:1;"/>
  <path id="path13" d="  M 1473.1934,1265.6963   L 1473.4491,1266.1566   L 1473.7048,1266.6169   L 1481.5812,1262.3719   L 1481.3255,1261.9116   L 1481.0698,1261.4513  z " style="fill:#000000;fill-rule:evenodd;fill-opacity:1;stroke:none;"/>
  <path id="path15" d="  M 1473.1934,1265.6963   L 1473.4491,1266.1566   L 1473.7048,1266.6169   L 1481.5812,1262.3719   L 1481.3255,1261.9116   L 1481.0698,1261.4513   L 1473.1934,1265.6963  z " style="fill:none;stroke:#000000;stroke-width:5px;stroke-linecap:round;stroke-linejoin:round;stroke-miterlimit:4;stroke-dasharray:none;stroke-opacity:1;"/>
  <path id="path17" d="  M 1481.3255,1261.9116   L 1481.5812,1262.3719   L 1481.6324,1262.3207   L 1481.6835,1262.2696  z " style="fill:#000000;fill-rule:evenodd;fill-opacity:1;stroke:none;"/>
  <path id="path19" d="  M 1481.5812,1262.3719   L 1481.6324,1262.3207   L 1481.6835,1262.2696  " style="fill:none;stroke:#000000;stroke-width:5px;stroke-linecap:round;stroke-linejoin:round;stroke-miterlimit:4;stroke-dasharray:none;stroke-opacity:1;"/>
  <path id="path21" d="  M 1480.9675,1261.5535   L 1481.3255,1261.9116   L 1481.6835,1262.2696   L 1487.821,1255.3138   L 1487.463,1254.9558   L 1487.105,1254.5978  z " style="fill:#000000;fill-rule:evenodd;fill-opacity:1;stroke:none;"/>
  <path id="path23" d="  M 1480.9675,1261.5535   L 1481.3255,1261.9116   L 1481.6835,1262.2696   L 1487.821,1255.3138   L 1487.463,1254.9558   L 1487.105,1254.5978   L 1480.9675,1261.5535  z " style="fill:none;stroke:#000000;stroke-width:5px;stroke-linecap:round;stroke-linejoin:round;stroke-miterlimit:4;stroke-dasharray:none;stroke-opacity:1;"/>
  <path id="path25" d="  M 1487.463,1254.9558   L 1487.821,1255.3138   L 1487.8721,1255.2627   L 1487.9233,1255.1604  z " style="fill:#000000;fill-rule:evenodd;fill-opacity:1;stroke:none;"/>
  <path id="path27" d="  M 1487.821,1255.3138   L 1487.8721,1255.2627   L 1487.9233,1255.1604  " style="fill:none;stroke:#000000;stroke-width:5px;stroke-linecap:round;stroke-linejoin:round;stroke-miterlimit:4;stroke-dasharray:none;stroke-opacity:1;"/>
  <path id="path29" d="  M 1487.0027,1254.7512   L 1487.463,1254.9558   L 1487.9233,1255.1604   L 1491.708,1247.1305   L 1491.2477,1246.9259   L 1490.7874,1246.7214  z " style="fill:#000000;fill-rule:evenodd;fill-opacity:1;stroke:none;"/>
  <path id="path31" d="  M 1487.0027,1254.7512   L 1487.463,1254.9558   L 1487.9233,1255.1604   L 1491.708,1247.1305   L 1491.2477,1246.9259   L 1490.7874,1246.7214   L 1487.0027,1254.7512  z " style="fill:none;stroke:#000000;stroke-width:5px;stroke-linecap:round;stroke-linejoin:round;stroke-miterlimit:4;stroke-dasharray:none;stroke-opacity:1;"/>
  <path id="path33" d="  M 1491.2477,1246.9259   L 1491.708,1247.1305   L 1491.7592,1247.0794   L 1491.7592,1247.0282  z " style="fill:#000000;fill-rule:evenodd;fill-opacity:1;stroke:none;"/>
  <path id="path35" d="  M 1491.708,1247.1305   L 1491.7592,1247.0794   L 1491.7592,1247.0282  " style="fill:none;stroke:#000000;stroke-width:5px;stroke-linecap:round;stroke-linejoin:round;stroke-miterlimit:4;stroke-dasharray:none;stroke-opacity:1;"/>
  <path id="path37" d="  M 1490.7363,1246.8237   L 1491.2477,1246.9259   L 1491.7592,1247.0282   L 1493.1913,1238.0266   L 1492.6798,1237.9243   L 1492.1684,1237.8221  z " style="fill:#000000;fill-rule:evenodd;fill-opacity:1;stroke:none;"/>
  <path id="path39" d="  M 1490.7363,1246.8237   L 1491.2477,1246.9259   L 1491.7592,1247.0282   L 1493.1913,1238.0266   L 1492.6798,1237.9243   L 1492.1684,1237.8221   L 1490.7363,1246.8237  z " style="fill:none;stroke:#000000;stroke-width:5px;stroke-linecap:round;stroke-linejoin:round;stroke-miterlimit:4;stroke-dasharray:none;stroke-opacity:1;"/>
  <path id="path41" d="  M 154.25466,1237.8221   L 153.74321,1237.9243   L 153.23175,1238.0266   L 154.66383,1247.0282   L 155.17528,1246.9259   L 155.68673,1246.8237  z " style="fill:#000000;fill-rule:evenodd;fill-opacity:1;stroke:none;"/>
  <path id="path43" d="  M 154.25466,1237.8221   L 153.74321,1237.9243   L 153.23175,1238.0266   L 154.66383,1247.0282   L 155.17528,1246.9259   L 155.68673,1246.8237   L 154.25466,1237.8221  z " style="fill:none;stroke:#000000;stroke-width:5px;stroke-linecap:round;stroke-linejoin:round;stroke-miterlimit:4;stroke-dasharray:none;stroke-opacity:1;"/>
  <path id="path45" d="  M 155.17528,1246.9259   L 154.66383,1247.0282   L 154.66383,1247.0794   L 154.71497,1247.1305  z " style="fill:#000000;fill-rule:evenodd;fill-opacity:1;stroke:none;"/>
  <path id="path47" d="  M 154.66383,1247.0282   L 154.66383,1247.0794   L 154.71497,1247.1305  " style="fill:none;stroke:#000000;stroke-width:5px;stroke-linecap:round;stroke-linejoin:round;stroke-miterlimit:4;stroke-dasharray:none;stroke-opacity:1;"/>
  <path id="path49" d="  M 155.63559,1246.7214   L 155.17528,1246.9259   L 154.71497,1247.1305   L 158.49973,1255.1604   L 158.96004,1254.9558   L 159.42035,1254.7512  z " style="fill:#000000;fill-rule:evenodd;fill-opacity:1;stroke:none;"/>
  <path id="path51" d="  M 155.63559,1246.7214   L 155.17528,1246.9259   L 154.71497,1247.1305   L 158.49973,1255.1604   L 158.96004,1254.9558   L 159.42035,1254.7512   L 155.63559,1246.7214  z " style="fill:none;stroke:#000000;stroke-width:5px;stroke-linecap:round;stroke-linejoin:round;stroke-miterlimit:4;stroke-dasharray:none;stroke-opacity:1;"/>
  <path id="path53" d="  M 158.96004,1254.9558   L 158.49973,1255.1604   L 158.55088,1255.2627   L 158.60202,1255.3138  z " style="fill:#000000;fill-rule:evenodd;fill-opacity:1;stroke:none;"/>
  <path id="path55" d="  M 158.49973,1255.1604   L 158.55088,1255.2627   L 158.60202,1255.3138  " style="fill:none;stroke:#000000;stroke-width:5px;stroke-linecap:round;stroke-linejoin:round;stroke-miterlimit:4;stroke-dasharray:none;stroke-opacity:1;"/>
  <path id="path57" d="  M 159.31806,1254.5978   L 158.96004,1254.9558   L 158.60202,1255.3138   L 164.73948,1262.2696   L 165.0975,1261.9116   L 165.45551,1261.5535  z " style="fill:#000000;fill-rule:evenodd;fill-opacity:1;stroke:none;"/>
  <path id="path59" d="  M 159.31806,1254.5978   L 158.96004,1254.9558   L 158.60202,1255.3138   L 164.73948,1262.2696   L 165.0975,1261.9116   L 165.45551,1261.5535   L 159.31806,1254.5978  z " style="fill:none;stroke:#000000;stroke-width:5px;stroke-linecap:round;stroke-linejoin:round;stroke-miterlimit:4;stroke-dasharray:none;stroke-opacity:1;"/>
  <path id="path61" d="  M 165.0975,1261.9116   L 164.73948,1262.2696   L 164.79062,1262.3207   L 164.84177,1262.3719  z " style="fill:#000000;fill-rule:evenodd;fill-opacity:1;stroke:none;"/>
  <path id="path63" d="  M 164.73948,1262.2696   L 164.79062,1262.3207   L 164.84177,1262.3719  " style="fill:none;stroke:#000000;stroke-width:5px;stroke-linecap:round;stroke-linejoin:round;stroke-miterlimit:4;stroke-dasharray:none;stroke-opacity:1;"/>
  <path id="path65" d="  M 165.35322,1261.4513   L 165.0975,1261.9116   L 164.84177,1262.3719   L 172.71817,1266.6169   L 172.97389,1266.1566   L 173.22962,1265.6963  z " style="fill:#000000;fill-rule:evenodd;fill-opacity:1;stroke:none;"/>
  <path id="path67" d="  M 165.35322,1261.4513   L 165.0975,1261.9116   L 164.84177,1262.3719   L 172.71817,1266.6169   L 172.97389,1266.1566   L 173.22962,1265.6963   L 165.35322,1261.4513  z " style="fill:none;stroke:#000000;stroke-width:5px;stroke-linecap:round;stroke-linejoin:round;stroke-miterlimit:4;stroke-dasharray:none;stroke-opacity:1;"/>
  <path id="path69" d="  M 1492.1684,33.807139   L 1492.6798,33.704848   L 1493.1913,33.602557   L 1491.7592,24.600959   L 1491.2477,24.70325   L 1490.7363,24.805541  z " style="fill:#000000;fill-rule:evenodd;fill-opacity:1;stroke:none;"/>
  <path id="path71" d="  M 1492.1684,33.807139   L 1492.6798,33.704848   L 1493.1913,33.602557   L 1491.7592,24.600959   L 1491.2477,24.70325   L 1490.7363,24.805541   L 1492.1684,33.807139  z " style="fill:none;stroke:#000000;stroke-width:5px;stroke-linecap:round;stroke-linejoin:round;stroke-miterlimit:4;stroke-dasharray:none;stroke-opacity:1;"/>
  <path id="path73" d="  M 1491.2477,24.70325   L 1491.7592,24.600959   L 1491.7592,24.549814   L 1491.708,24.498668  z " style="fill:#000000;fill-rule:evenodd;fill-opacity:1;stroke:none;"/>
  <path id="path75" d="  M 1491.7592,24.600959   L 1491.7592,24.549814   L 1491.708,24.498668  " style="fill:none;stroke:#000000;stroke-width:5px;stroke-linecap:round;stroke-linejoin:round;stroke-miterlimit:4;stroke-dasharray:none;stroke-opacity:1;"/>
  <path id="path77" d="  M 1490.7874,24.907832   L 1491.2477,24.70325   L 1491.708,24.498668   L 1487.9233,16.468833   L 1487.463,16.673415   L 1487.0027,16.877997  z " style="fill:#000000;fill-rule:evenodd;fill-opacity:1;stroke:none;"/>
  <path id="path79" d="  M 1490.7874,24.907832   L 1491.2477,24.70325   L 1491.708,24.498668   L 1487.9233,16.468833   L 1487.463,16.673415   L 1487.0027,16.877997   L 1490.7874,24.907832  z " style="fill:none;stroke:#000000;stroke-width:5px;stroke-linecap:round;stroke-linejoin:round;stroke-miterlimit:4;stroke-dasharray:none;stroke-opacity:1;"/>
  <path id="path81" d="  M 1487.463,16.673415   L 1487.9233,16.468833   L 1487.8721,16.366542   L 1487.821,16.315397  z " style="fill:#000000;fill-rule:evenodd;fill-opacity:1;stroke:none;"/>
  <path id="path83" d="  M 1487.9233,16.468833   L 1487.8721,16.366542   L 1487.821,16.315397  " style="fill:none;stroke:#000000;stroke-width:5px;stroke-linecap:round;stroke-linejoin:round;stroke-miterlimit:4;stroke-dasharray:none;stroke-opacity:1;"/>
  <path id="path85" d="  M 1487.105,17.031433   L 1487.463,16.673415   L 1487.821,16.315397   L 1481.6835,9.3596164   L 1481.3255,9.7176345   L 1480.9675,10.075653  z " style="fill:#000000;fill-rule:evenodd;fill-opacity:1;stroke:none;"/>
  <path id="path87" d="  M 1487.105,17.031433   L 1487.463,16.673415   L 1487.821,16.315397   L 1481.6835,9.3596164   L 1481.3255,9.7176345   L 1480.9675,10.075653   L 1487.105,17.031433  z " style="fill:none;stroke:#000000;stroke-width:5px;stroke-linecap:round;stroke-linejoin:round;stroke-miterlimit:4;stroke-dasharray:none;stroke-opacity:1;"/>
  <path id="path89" d="  M 1481.3255,9.7176345   L 1481.6835,9.3596164   L 1481.6324,9.308471   L 1481.5812,9.2573255  z " style="fill:#000000;fill-rule:evenodd;fill-opacity:1;stroke:none;"/>
  <path id="path91" d="  M 1481.6835,9.3596164   L 1481.6324,9.308471   L 1481.5812,9.2573255  " style="fill:none;stroke:#000000;stroke-width:5px;stroke-linecap:round;stroke-linejoin:round;stroke-miterlimit:4;stroke-dasharray:none;stroke-opacity:1;"/>
  <path id="path93" d="  M 1481.0698,10.177944   L 1481.3255,9.7176345   L 1481.5812,9.2573255   L 1473.7048,5.0122536   L 1473.4491,5.4725626   L 1473.1934,5.9328716  z " style="fill:#000000;fill-rule:evenodd;fill-opacity:1;stroke:none;"/>
  <path id="path95" d="  M 1481.0698,10.177944   L 1481.3255,9.7176345   L 1481.5812,9.2573255   L 1473.7048,5.0122536   L 1473.4491,5.4725626   L 1473.1934,5.9328716   L 1481.0698,10.177944  z " style="fill:none;stroke:#000000;stroke-width:5px;stroke-linecap:round;stroke-linejoin:round;stroke-miterlimit:4;stroke-dasharray:none;stroke-opacity:1;"/>
  <path id="path97" d="  M 173.22962,5.9328716   L 172.97389,5.4725626   L 172.71817,5.0122536   L 164.84177,9.2573255   L 165.0975,9.7176345   L 165.35322,10.177944  z " style="fill:#000000;fill-rule:evenodd;fill-opacity:1;stroke:none;"/>
  <path id="path99" d="  M 173.22962,5.9328716   L 172.97389,5.4725626   L 172.71817,5.0122536   L 164.84177,9.2573255   L 165.0975,9.7176345   L 165.35322,10.177944   L 173.22962,5.9328716  z " style="fill:none;stroke:#000000;stroke-width:5px;stroke-linecap:round;stroke-linejoin:round;stroke-miterlimit:4;stroke-dasharray:none;stroke-opacity:1;"/>
  <path id="path101" d="  M 165.0975,9.7176345   L 164.84177,9.2573255   L 164.79062,9.308471   L 164.73948,9.3596164  z " style="fill:#000000;fill-rule:evenodd;fill-opacity:1;stroke:none;"/>
  <path id="path103" d="  M 164.84177,9.2573255   L 164.79062,9.308471   L 164.73948,9.3596164  " style="fill:none;stroke:#000000;stroke-width:5px;stroke-linecap:round;stroke-linejoin:round;stroke-miterlimit:4;stroke-dasharray:none;stroke-opacity:1;"/>
  <path id="path105" d="  M 165.45551,10.075653   L 165.0975,9.7176345   L 164.73948,9.3596164   L 158.60202,16.315397   L 158.96004,16.673415   L 159.31806,17.031433  z " style="fill:#000000;fill-rule:evenodd;fill-opacity:1;stroke:none;"/>
  <path id="path107" d="  M 165.45551,10.075653   L 165.0975,9.7176345   L 164.73948,9.3596164   L 158.60202,16.315397   L 158.96004,16.673415   L 159.31806,17.031433   L 165.45551,10.075653  z " style="fill:none;stroke:#000000;stroke-width:5px;stroke-linecap:round;stroke-linejoin:round;stroke-miterlimit:4;stroke-dasharray:none;stroke-opacity:1;"/>
  <path id="path109" d="  M 158.96004,16.673415   L 158.60202,16.315397   L 158.55088,16.366542   L 158.49973,16.468833  z " style="fill:#000000;fill-rule:evenodd;fill-opacity:1;stroke:none;"/>
  <path id="path111" d="  M 158.60202,16.315397   L 158.55088,16.366542   L 158.49973,16.468833  " style="fill:none;stroke:#000000;stroke-width:5px;stroke-linecap:round;stroke-linejoin:round;stroke-miterlimit:4;stroke-dasharray:none;stroke-opacity:1;"/>
  <path id="path113" d="  M 159.42035,16.877997   L 158.96004,16.673415   L 158.49973,16.468833   L 154.71497,24.498668   L 155.17528,24.70325   L 155.63559,24.907832  z " style="fill:#000000;fill-rule:evenodd;fill-opacity:1;stroke:none;"/>
  <path id="path115" d="  M 159.42035,16.877997   L 158.96004,16.673415   L 158.49973,16.468833   L 154.71497,24.498668   L 155.17528,24.70325   L 155.63559,24.907832   L 159.42035,16.877997  z " style="fill:none;stroke:#000000;stroke-width:5px;stroke-linecap:round;stroke-linejoin:round;stroke-miterlimit:4;stroke-dasharray:none;stroke-opacity:1;"/>
  <path id="path117" d="  M 155.17528,24.70325   L 154.71497,24.498668   L 154.66383,24.549814   L 154.66383,24.600959  z " style="fill:#000000;fill-rule:evenodd;fill-opacity:1;stroke:none;"/>
  <path id="path119" d="  M 154.71497,24.498668   L 154.66383,24.549814   L 154.66383,24.600959  " style="fill:none;stroke:#000000;stroke-width:5px;stroke-linecap:round;stroke-linejoin:round;stroke-miterlimit:4;stroke-dasharray:none;stroke-opacity:1;"/>
  <path id="path121" d="  M 155.68673,24.805541   L 155.17528,24.70325   L 154.66383,24.600959   L 153.23175,33.602557   L 153.74321,33.704848   L 154.25466,33.807139  z " style="fill:#000000;fill-rule:evenodd;fill-opacity:1;stroke:none;"/>
  <path id="path123" d="  M 155.68673,24.805541   L 155.17528,24.70325   L 154.66383,24.600959   L 153.23175,33.602557   L 153.74321,33.704848   L 154.25466,33.807139   L 155.68673,24.805541  z " style="fill:none;stroke:#000000;stroke-width:5px;stroke-linecap:round;stroke-linejoin:round;stroke-miterlimit:4;stroke-dasharray:none;stroke-opacity:1;"/>
  <path id="path125" d="  M 1473.9606,1237.9243   L 1473.4491,1237.9243   L 1472.9377,1237.9243   L 1472.9377,1268.3559   L 1473.4491,1268.3559   L 1473.9606,1268.3559  z " style="fill:#000000;fill-rule:evenodd;fill-opacity:1;stroke:none;"/>
  <path id="path127" d="  M 1473.9606,1237.9243   L 1473.4491,1237.9243   L 1472.9377,1237.9243   L 1472.9377,1268.3559   L 1473.4491,1268.3559   L 1473.9606,1268.3559   L 1473.9606,1237.9243  z " style="fill:none;stroke:#000000;stroke-width:5px;stroke-linecap:round;stroke-linejoin:round;stroke-miterlimit:4;stroke-dasharray:none;stroke-opacity:1;"/>
  <path id="path129" d="  M 172.97389,1267.8444   L 172.97389,1268.3559   L 172.97389,1268.8673   L 1473.4491,1268.8673   L 1473.4491,1268.3559   L 1473.4491,1267.8444  z " style="fill:#000000;fill-rule:evenodd;fill-opacity:1;stroke:none;"/>
  <path id="path131" d="  M 172.97389,1267.8444   L 172.97389,1268.3559   L 172.97389,1268.8673   L 1473.4491,1268.8673   L 1473.4491,1268.3559   L 1473.4491,1267.8444   L 172.97389,1267.8444  z " style="fill:none;stroke:#000000;stroke-width:5px;stroke-linecap:round;stroke-linejoin:round;stroke-miterlimit:4;stroke-dasharray:none;stroke-opacity:1;"/>
  <path id="path133" d="  M 1492.6798,1237.9243   L 153.74321,1237.9243  " style="fill:none;stroke:#000000;stroke-width:5px;stroke-linecap:round;stroke-linejoin:round;stroke-miterlimit:4;stroke-dasharray:none;stroke-opacity:1;"/>
  <path id="path135" d="  M 172.46244,1268.3559   L 172.97389,1268.3559   L 173.48535,1268.3559   L 173.48535,1237.9243   L 172.97389,1237.9243   L 172.46244,1237.9243  z " style="fill:#000000;fill-rule:evenodd;fill-opacity:1;stroke:none;"/>
  <path id="path137" d="  M 172.46244,1268.3559   L 172.97389,1268.3559   L 173.48535,1268.3559   L 173.48535,1237.9243   L 172.97389,1237.9243   L 172.46244,1237.9243   L 172.46244,1268.3559  z " style="fill:none;stroke:#000000;stroke-width:5px;stroke-linecap:round;stroke-linejoin:round;stroke-miterlimit:4;stroke-dasharray:none;stroke-opacity:1;"/>
  <path id="path139" d="  M 153.74321,1237.9243   L 153.74321,33.704848  " style="fill:none;stroke:#000000;stroke-width:5px;stroke-linecap:round;stroke-linejoin:round;stroke-miterlimit:4;stroke-dasharray:none;stroke-opacity:1;"/>
  <path id="path141" d="  M 184.17475,33.704848   L 184.17475,1237.9243  " style="fill:none;stroke:#000000;stroke-width:5px;stroke-linecap:round;stroke-linejoin:round;stroke-miterlimit:4;stroke-dasharray:none;stroke-opacity:1;"/>
  <path id="path143" d="  M 153.74321,33.704848   L 1492.6798,33.704848  " style="fill:none;stroke:#000000;stroke-width:5px;stroke-linecap:round;stroke-linejoin:round;stroke-miterlimit:4;stroke-dasharray:none;stroke-opacity:1;"/>
  <path id="path145" d="  M 1462.2483,1237.9243   L 1462.2483,33.704848  " style="fill:none;stroke:#000000;stroke-width:5px;stroke-linecap:round;stroke-linejoin:round;stroke-miterlimit:4;stroke-dasharray:none;stroke-opacity:1;"/>
  <path id="path147" d="  M 1492.6798,33.704848   L 1492.6798,1237.9243  " style="fill:none;stroke:#000000;stroke-width:5px;stroke-linecap:round;stroke-linejoin:round;stroke-miterlimit:4;stroke-dasharray:none;stroke-opacity:1;"/>
  <path id="path149" d="  M 1473.4491,3.7847629   L 1473.4491,3.2733085   L 1473.4491,2.761854   L 172.97389,2.761854   L 172.97389,3.2733085   L 172.97389,3.7847629  z " style="fill:#000000;fill-rule:evenodd;fill-opacity:1;stroke:none;"/>
  <path id="path151" d="  M 1473.4491,3.7847629   L 1473.4491,3.2733085   L 1473.4491,2.761854   L 172.97389,2.761854   L 172.97389,3.2733085   L 172.97389,3.7847629   L 1473.4491,3.7847629  z " style="fill:none;stroke:#000000;stroke-width:5px;stroke-linecap:round;stroke-linejoin:round;stroke-miterlimit:4;stroke-dasharray:none;stroke-opacity:1;"/>
  <path id="path153" d="  M 1473.9606,3.2733085   L 1473.4491,3.2733085   L 1472.9377,3.2733085   L 1472.9377,33.704848   L 1473.4491,33.704848   L 1473.9606,33.704848  z " style="fill:#000000;fill-rule:evenodd;fill-opacity:1;stroke:none;"/>
  <path id="path155" d="  M 1473.9606,3.2733085   L 1473.4491,3.2733085   L 1472.9377,3.2733085   L 1472.9377,33.704848   L 1473.4491,33.704848   L 1473.9606,33.704848   L 1473.9606,3.2733085  z " style="fill:none;stroke:#000000;stroke-width:5px;stroke-linecap:round;stroke-linejoin:round;stroke-miterlimit:4;stroke-dasharray:none;stroke-opacity:1;"/>
  <path id="path157" d="  M 172.46244,33.704848   L 172.97389,33.704848   L 173.48535,33.704848   L 173.48535,3.2733085   L 172.97389,3.2733085   L 172.46244,3.2733085  z " style="fill:#000000;fill-rule:evenodd;fill-opacity:1;stroke:none;"/>
  <path id="path159" d="  M 172.46244,33.704848   L 172.97389,33.704848   L 173.48535,33.704848   L 173.48535,3.2733085   L 172.97389,3.2733085   L 172.46244,3.2733085   L 172.46244,33.704848  z " style="fill:none;stroke:#000000;stroke-width:5px;stroke-linecap:round;stroke-linejoin:round;stroke-miterlimit:4;stroke-dasharray:none;stroke-opacity:1;"/>
</svg>