<svg xmlns:dc="http://purl.org/dc/elements/1.1/" xmlns:cc="http://creativecommons.org/ns#" xmlns:rdf="http://www.w3.org/1999/02/22-rdf-syntax-ns#" xmlns:svg="http://www.w3.org/2000/svg" xmlns="http://www.w3.org/2000/svg" id="svg99" version="1.0" viewBox="1.17 81.74 1643.83 1109.58">
  <metadata id="metadata103">
    <rdf:RDF>
      <cc:Work rdf:about="">
        <dc:format>image/svg+xml</dc:format>
        <dc:type rdf:resource="http://purl.org/dc/dcmitype/StillImage"/>
      </cc:Work>
    </rdf:RDF>
  </metadata>
  <defs id="defs3">
    <pattern y="0" x="0" height="6" width="6" patternUnits="userSpaceOnUse" id="WMFhbasepattern"/>
  </defs>
  <path id="path5" d="  M 28.789916,1161.2773   L 9.9831933,1162.437   L 4.1848739,1163.042   L 2.1680672,1163.6471  " style="fill:none;stroke:#000000;stroke-width:0.5rem;stroke-linecap:round;stroke-linejoin:round;stroke-miterlimit:4;stroke-dasharray:none;stroke-opacity:1;"/>
  <path id="path7" d="  M 28.789916,1161.2773   L 21.882353,1162.437   L 19.008403,1163.6471  " style="fill:none;stroke:#000000;stroke-width:0.5rem;stroke-linecap:round;stroke-linejoin:round;stroke-miterlimit:4;stroke-dasharray:none;stroke-opacity:1;"/>
  <path id="path9" d="  M 2.1680672,109.41176   L 4.1848739,110.01681   L 9.9831933,110.62185   L 28.789916,111.78151  " style="fill:none;stroke:#000000;stroke-width:0.5rem;stroke-linecap:round;stroke-linejoin:round;stroke-miterlimit:4;stroke-dasharray:none;stroke-opacity:1;"/>
  <path id="path11" d="  M 19.008403,109.41176   L 21.882353,110.62185   L 28.789916,111.78151  " style="fill:none;stroke:#000000;stroke-width:0.5rem;stroke-linecap:round;stroke-linejoin:round;stroke-miterlimit:4;stroke-dasharray:none;stroke-opacity:1;"/>
  <path id="path13" d="  M 31.159664,109.41176   L 30,90.554622   L 29.394958,84.806723   L 28.789916,82.739496  " style="fill:none;stroke:#000000;stroke-width:0.5rem;stroke-linecap:round;stroke-linejoin:round;stroke-miterlimit:4;stroke-dasharray:none;stroke-opacity:1;"/>
  <path id="path15" d="  M 31.159664,109.41176   L 30,102.5042   L 28.789916,99.630252  " style="fill:none;stroke:#000000;stroke-width:0.5rem;stroke-linecap:round;stroke-linejoin:round;stroke-miterlimit:4;stroke-dasharray:none;stroke-opacity:1;"/>
  <path id="path17" d="  M 28.789916,1190.3193   L 29.394958,1188.2521   L 30,1182.5042   L 31.159664,1163.6471  " style="fill:none;stroke:#000000;stroke-width:0.5rem;stroke-linecap:round;stroke-linejoin:round;stroke-miterlimit:4;stroke-dasharray:none;stroke-opacity:1;"/>
  <path id="path19" d="  M 28.789916,1173.4286   L 30,1170.5546   L 31.159664,1163.6471  " style="fill:none;stroke:#000000;stroke-width:0.5rem;stroke-linecap:round;stroke-linejoin:round;stroke-miterlimit:4;stroke-dasharray:none;stroke-opacity:1;"/>
  <path id="path21" d="  M 632.87395,641.59664   L 646.33613,641.59664  " style="fill:none;stroke:#000000;stroke-width:0.5rem;stroke-linecap:round;stroke-linejoin:round;stroke-miterlimit:4;stroke-dasharray:none;stroke-opacity:1;"/>
  <path id="path23" d="  M 826.43697,835.51261   L 826.43697,822  " style="fill:none;stroke:#000000;stroke-width:0.5rem;stroke-linecap:round;stroke-linejoin:round;stroke-miterlimit:4;stroke-dasharray:none;stroke-opacity:1;"/>
  <path id="path25" d="  M 826.43697,437.54622   L 826.43697,451.05882  " style="fill:none;stroke:#000000;stroke-width:0.5rem;stroke-linecap:round;stroke-linejoin:round;stroke-miterlimit:4;stroke-dasharray:none;stroke-opacity:1;"/>
  <path id="path27" d="  M 632.87395,631.46218   L 646.33613,631.46218  " style="fill:none;stroke:#000000;stroke-width:0.5rem;stroke-linecap:round;stroke-linejoin:round;stroke-miterlimit:4;stroke-dasharray:none;stroke-opacity:1;"/>
  <path id="path29" d="  M 1030.1345,631.46218   L 1016.6723,631.46218  " style="fill:none;stroke:#000000;stroke-width:0.5rem;stroke-linecap:round;stroke-linejoin:round;stroke-miterlimit:4;stroke-dasharray:none;stroke-opacity:1;"/>
  <path id="path31" d="  M 836.57143,437.54622   L 836.57143,451.05882  " style="fill:none;stroke:#000000;stroke-width:0.5rem;stroke-linecap:round;stroke-linejoin:round;stroke-miterlimit:4;stroke-dasharray:none;stroke-opacity:1;"/>
  <path id="path33" d="  M 836.57143,835.51261   L 836.57143,822  " style="fill:none;stroke:#000000;stroke-width:0.5rem;stroke-linecap:round;stroke-linejoin:round;stroke-miterlimit:4;stroke-dasharray:none;stroke-opacity:1;"/>
  <path id="path35" d="  M 1030.1345,641.59664   L 1016.6723,641.59664  " style="fill:none;stroke:#000000;stroke-width:0.5rem;stroke-linecap:round;stroke-linejoin:round;stroke-miterlimit:4;stroke-dasharray:none;stroke-opacity:1;"/>
  <path id="path37" d="  M 2.1680672,1163.6471   L 1644,1163.6471  " style="fill:none;stroke:#000000;stroke-width:0.5rem;stroke-linecap:round;stroke-linejoin:round;stroke-miterlimit:4;stroke-dasharray:none;stroke-opacity:1;"/>
  <path id="path39" d="  M 1644,109.41176   L 2.1680672,109.41176  " style="fill:none;stroke:#000000;stroke-width:0.5rem;stroke-linecap:round;stroke-linejoin:round;stroke-miterlimit:4;stroke-dasharray:none;stroke-opacity:1;"/>
  <path id="path41" d="  M 1644,82.739496   L 1644,1190.3193  " style="fill:none;stroke:#000000;stroke-width:0.5rem;stroke-linecap:round;stroke-linejoin:round;stroke-miterlimit:4;stroke-dasharray:none;stroke-opacity:1;"/>
  <path id="path43" d="  M 28.789916,111.78151   L 103.21008,186.35294  " style="fill:none;stroke:#000000;stroke-width:0.5rem;stroke-linecap:round;stroke-linejoin:round;stroke-miterlimit:4;stroke-dasharray:none;stroke-opacity:1;"/>
  <path id="path45" d="  M 103.21008,1086.7059   L 103.21008,186.35294  " style="fill:none;stroke:#000000;stroke-width:0.5rem;stroke-linecap:round;stroke-linejoin:round;stroke-miterlimit:4;stroke-dasharray:none;stroke-opacity:1;"/>
  <path id="path47" d="  M 103.21008,1086.7059   L 28.789916,1161.2773  " style="fill:none;stroke:#000000;stroke-width:0.5rem;stroke-linecap:round;stroke-linejoin:round;stroke-miterlimit:4;stroke-dasharray:none;stroke-opacity:1;"/>
  <path id="path49" d="  M 28.789916,111.78151   L 28.789916,1161.2773  " style="fill:none;stroke:#000000;stroke-width:0.5rem;stroke-linecap:round;stroke-linejoin:round;stroke-miterlimit:4;stroke-dasharray:none;stroke-opacity:1;"/>
  <path id="path51" d="  M 31.159664,1163.6471   L 105.57983,1089.0756  " style="fill:none;stroke:#000000;stroke-width:0.5rem;stroke-linecap:round;stroke-linejoin:round;stroke-miterlimit:4;stroke-dasharray:none;stroke-opacity:1;"/>
  <path id="path53" d="  M 1644,1089.0756   L 105.57983,1089.0756  " style="fill:none;stroke:#000000;stroke-width:0.5rem;stroke-linecap:round;stroke-linejoin:round;stroke-miterlimit:4;stroke-dasharray:none;stroke-opacity:1;"/>
  <path id="path55" d="  M 105.57983,183.98319   L 1644,183.98319  " style="fill:none;stroke:#000000;stroke-width:0.5rem;stroke-linecap:round;stroke-linejoin:round;stroke-miterlimit:4;stroke-dasharray:none;stroke-opacity:1;"/>
  <path id="path57" d="  M 105.57983,183.98319   L 31.159664,109.41176  " style="fill:none;stroke:#000000;stroke-width:0.5rem;stroke-linecap:round;stroke-linejoin:round;stroke-miterlimit:4;stroke-dasharray:none;stroke-opacity:1;"/>
  <path id="path59" d="  M 2.1680672,1163.6471   L 2.1680672,109.41176  " style="fill:none;stroke:#000000;stroke-width:0.5rem;stroke-linecap:round;stroke-linejoin:round;stroke-miterlimit:4;stroke-dasharray:none;stroke-opacity:1;"/>
  <path id="path61" d="  M 28.789916,82.739496   L 1644,82.739496  " style="fill:none;stroke:#000000;stroke-width:0.5rem;stroke-linecap:round;stroke-linejoin:round;stroke-miterlimit:4;stroke-dasharray:none;stroke-opacity:1;"/>
  <path id="path63" d="  M 1644,1190.3193   L 28.789916,1190.3193  " style="fill:none;stroke:#000000;stroke-width:0.5rem;stroke-linecap:round;stroke-linejoin:round;stroke-miterlimit:4;stroke-dasharray:none;stroke-opacity:1;"/>
  <path id="path65" d="  M 28.789916,99.630252   L 28.789916,82.739496  " style="fill:none;stroke:#000000;stroke-width:0.5rem;stroke-linecap:round;stroke-linejoin:round;stroke-miterlimit:4;stroke-dasharray:none;stroke-opacity:1;"/>
  <path id="path67" d="  M 28.789916,1173.4286   L 28.789916,1190.3193  " style="fill:none;stroke:#000000;stroke-width:0.5rem;stroke-linecap:round;stroke-linejoin:round;stroke-miterlimit:4;stroke-dasharray:none;stroke-opacity:1;"/>
  <path id="path69" d="  M 1617.3782,183.98319   L 1617.3782,1089.0756  " style="fill:none;stroke:#000000;stroke-width:0.5rem;stroke-linecap:round;stroke-linejoin:round;stroke-miterlimit:4;stroke-dasharray:none;stroke-opacity:1;"/>
  <path id="path71" d="  M 45.630252,123.88235   L 45.630252,128.67227  " style="fill:none;stroke:#000000;stroke-width:0.5rem;stroke-linecap:round;stroke-linejoin:round;stroke-miterlimit:4;stroke-dasharray:none;stroke-opacity:1;"/>
  <path id="path73" d="  M 45.630252,1144.3866   L 45.630252,1149.1765  " style="fill:none;stroke:#000000;stroke-width:0.5rem;stroke-linecap:round;stroke-linejoin:round;stroke-miterlimit:4;stroke-dasharray:none;stroke-opacity:1;"/>
  <path id="path75" d="  M 632.87395,641.54622   L 633.07563,646.43697   L 633.37815,651.32773   L 633.78151,656.16807   L 634.33613,661.0084   L 634.9916,665.84874   L 635.7479,670.68908   L 636.65546,675.47899   L 637.66387,680.21849   L 638.82353,684.95798   L 640.03361,689.69748   L 641.39496,694.38655   L 642.90756,699.02521   L 644.47059,703.66387   L 646.18487,708.20168   L 648,712.7395   L 649.91597,717.22689   L 651.93277,721.66387   L 654.05042,726.05042   L 656.31933,730.38655   L 658.63866,734.67227   L 661.10924,738.85714   L 663.68067,742.9916   L 666.35294,747.12605   L 669.07563,751.10924   L 671.94958,755.09244   L 674.87395,758.97479   L 677.94958,762.7563   L 681.07563,766.48739   L 684.30252,770.16807   L 687.63025,773.7479   L 691.0084,777.22689   L 694.48739,780.65546   L 698.06723,783.93277   L 701.69748,787.15966   L 705.42857,790.33613   L 709.2605,793.36134   L 713.09244,796.33613   L 717.07563,799.21008   L 721.05882,801.93277   L 725.14286,804.60504   L 729.27731,807.17647   L 733.51261,809.64706   L 737.79832,811.96639   L 742.08403,814.23529   L 746.47059,816.35294   L 750.90756,818.42017   L 755.39496,820.33613   L 759.88235,822.15126   L 764.47059,823.86555   L 769.05882,825.42857   L 773.69748,826.89076   L 778.38655,828.2521   L 783.07563,829.51261   L 787.81513,830.67227   L 792.60504,831.68067   L 797.39496,832.53782   L 802.18487,833.34454   L 807.02521,834   L 811.86555,834.55462   L 816.70588,834.95798   L 821.54622,835.2605   L 826.43697,835.46218  " style="fill:none;stroke:#000000;stroke-width:0.5rem;stroke-linecap:round;stroke-linejoin:round;stroke-miterlimit:4;stroke-dasharray:none;stroke-opacity:1;"/>
  <path id="path77" d="  M 646.33613,641.54622   L 646.53782,646.23529   L 646.84034,650.92437   L 647.2437,655.61345   L 647.79832,660.2521   L 648.45378,664.89076   L 649.2605,669.52941   L 650.11765,674.11765   L 651.12605,678.70588   L 652.28571,683.2437   L 653.4958,687.78151   L 654.85714,692.26891   L 656.31933,696.70588   L 657.88235,701.14286   L 659.54622,705.47899   L 661.36134,709.81513   L 663.27731,714.10084   L 665.29412,718.33613   L 667.41176,722.52101   L 669.63025,726.65546   L 671.94958,730.68908   L 674.36975,734.72269   L 676.89076,738.65546   L 679.51261,742.53782   L 682.23529,746.36975   L 685.05882,750.10084   L 687.98319,753.78151   L 691.0084,757.36134   L 694.08403,760.89076   L 697.2605,764.31933   L 700.53782,767.64706   L 703.86555,770.92437   L 707.29412,774.15126   L 710.82353,777.22689   L 714.40336,780.2521   L 718.08403,783.17647   L 721.81513,786   L 725.59664,788.72269   L 729.47899,791.34454   L 733.41176,793.86555   L 737.44538,796.28571   L 741.47899,798.60504   L 745.61345,800.87395   L 749.79832,802.9916   L 753.98319,805.0084   L 758.26891,806.87395   L 762.60504,808.68908   L 766.9916,810.40336   L 771.37815,811.96639   L 775.81513,813.42857   L 780.30252,814.78992   L 784.84034,816   L 789.37815,817.15966   L 793.91597,818.16807   L 798.5042,819.02521   L 803.14286,819.83193   L 807.78151,820.48739   L 812.42017,820.9916   L 817.05882,821.44538   L 821.7479,821.7479   L 826.43697,821.94958  " style="fill:none;stroke:#000000;stroke-width:0.5rem;stroke-linecap:round;stroke-linejoin:round;stroke-miterlimit:4;stroke-dasharray:none;stroke-opacity:1;"/>
  <path id="path79" d="  M 826.43697,437.54622   L 821.54622,437.7479   L 816.70588,438.05042   L 811.86555,438.45378   L 807.02521,439.0084   L 802.18487,439.66387   L 797.39496,440.47059   L 792.60504,441.32773   L 787.81513,442.33613   L 783.07563,443.4958   L 778.38655,444.7563   L 773.69748,446.11765   L 769.05882,447.57983   L 764.47059,449.14286   L 759.88235,450.85714   L 755.39496,452.67227   L 750.90756,454.58824   L 746.47059,456.65546   L 742.08403,458.77311   L 737.79832,461.04202   L 733.51261,463.36134   L 729.27731,465.83193   L 725.14286,468.40336   L 721.05882,471.07563   L 717.07563,473.79832   L 713.09244,476.67227   L 709.2605,479.64706   L 705.42857,482.67227   L 701.69748,485.84874   L 698.06723,489.07563   L 694.48739,492.35294   L 691.0084,495.78151   L 687.63025,499.2605   L 684.30252,502.84034   L 681.07563,506.52101   L 677.94958,510.2521   L 674.87395,514.03361   L 671.94958,517.91597   L 669.07563,521.89916   L 666.35294,525.88235   L 663.68067,530.01681   L 661.10924,534.15126   L 658.63866,538.33613   L 656.31933,542.62185   L 654.05042,546.95798   L 651.93277,551.34454   L 649.91597,555.78151   L 648,560.26891   L 646.18487,564.80672   L 644.47059,569.34454   L 642.90756,573.98319   L 641.39496,578.62185   L 640.03361,583.31092   L 638.82353,588.05042   L 637.66387,592.78992   L 636.65546,597.52941   L 635.7479,602.31933   L 634.9916,607.15966   L 634.33613,612   L 633.78151,616.84034   L 633.37815,621.68067   L 633.07563,626.57143   L 632.87395,631.46218  " style="fill:none;stroke:#000000;stroke-width:0.5rem;stroke-linecap:round;stroke-linejoin:round;stroke-miterlimit:4;stroke-dasharray:none;stroke-opacity:1;"/>
  <path id="path81" d="  M 826.43697,451.05882   L 821.7479,451.2605   L 817.05882,451.56303   L 812.42017,452.01681   L 807.78151,452.52101   L 803.14286,453.17647   L 798.5042,453.98319   L 793.91597,454.84034   L 789.37815,455.84874   L 784.84034,457.0084   L 780.30252,458.21849   L 775.81513,459.57983   L 771.37815,461.04202   L 766.9916,462.60504   L 762.60504,464.31933   L 758.26891,466.13445   L 753.98319,468   L 749.79832,470.01681   L 745.61345,472.13445   L 741.47899,474.40336   L 737.44538,476.72269   L 733.41176,479.14286   L 729.47899,481.66387   L 725.59664,484.28571   L 721.81513,487.0084   L 718.08403,489.83193   L 714.40336,492.7563   L 710.82353,495.78151   L 707.29412,498.85714   L 703.86555,502.08403   L 700.53782,505.36134   L 697.2605,508.68908   L 694.08403,512.11765   L 691.0084,515.64706   L 687.98319,519.22689   L 685.05882,522.90756   L 682.23529,526.63866   L 679.51261,530.47059   L 676.89076,534.35294   L 674.36975,538.28571   L 671.94958,542.31933   L 669.63025,546.35294   L 667.41176,550.48739   L 665.29412,554.67227   L 663.27731,558.90756   L 661.36134,563.19328   L 659.54622,567.52941   L 657.88235,571.86555   L 656.31933,576.30252   L 654.85714,580.7395   L 653.4958,585.22689   L 652.28571,589.76471   L 651.12605,594.30252   L 650.11765,598.89076   L 649.2605,603.47899   L 648.45378,608.11765   L 647.79832,612.7563   L 647.2437,617.39496   L 646.84034,622.08403   L 646.53782,626.77311   L 646.33613,631.46218  " style="fill:none;stroke:#000000;stroke-width:0.5rem;stroke-linecap:round;stroke-linejoin:round;stroke-miterlimit:4;stroke-dasharray:none;stroke-opacity:1;"/>
  <path id="path83" d="  M 1030.084,631.46218   L 1029.8824,626.57143   L 1029.5798,621.68067   L 1029.1765,616.84034   L 1028.6218,612   L 1027.9664,607.15966   L 1027.2101,602.31933   L 1026.3025,597.52941   L 1025.2941,592.78992   L 1024.1345,588.05042   L 1022.9244,583.31092   L 1021.563,578.62185   L 1020.0504,573.98319   L 1018.4874,569.34454   L 1016.7731,564.80672   L 1014.958,560.26891   L 1013.042,555.78151   L 1011.0252,551.34454   L 1008.9076,546.95798   L 1006.6387,542.62185   L 1004.3193,538.33613   L 1001.8487,534.15126   L 999.27731,530.01681   L 996.60504,525.88235   L 993.88235,521.89916   L 991.0084,517.91597   L 988.08403,514.03361   L 985.0084,510.2521   L 981.88235,506.52101   L 978.65546,502.84034   L 975.32773,499.2605   L 971.94958,495.78151   L 968.47059,492.35294   L 964.89076,489.07563   L 961.2605,485.84874   L 957.52941,482.67227   L 953.69748,479.64706   L 949.86555,476.67227   L 945.88235,473.79832   L 941.89916,471.07563   L 937.81513,468.40336   L 933.68067,465.83193   L 929.44538,463.36134   L 925.15966,461.04202   L 920.87395,458.77311   L 916.48739,456.65546   L 912.05042,454.58824   L 907.56303,452.67227   L 903.07563,450.85714   L 898.48739,449.14286   L 893.89916,447.57983   L 889.2605,446.11765   L 884.57143,444.7563   L 879.88235,443.4958   L 875.14286,442.33613   L 870.35294,441.32773   L 865.56303,440.47059   L 860.77311,439.66387   L 855.93277,439.0084   L 851.09244,438.45378   L 846.2521,438.05042   L 841.41176,437.7479   L 836.52101,437.54622  " style="fill:none;stroke:#000000;stroke-width:0.5rem;stroke-linecap:round;stroke-linejoin:round;stroke-miterlimit:4;stroke-dasharray:none;stroke-opacity:1;"/>
  <path id="path85" d="  M 1016.6218,631.46218   L 1016.4202,626.77311   L 1016.1176,622.08403   L 1015.7143,617.39496   L 1015.1597,612.7563   L 1014.5042,608.11765   L 1013.6975,603.47899   L 1012.8403,598.89076   L 1011.8319,594.30252   L 1010.6723,589.76471   L 1009.4622,585.22689   L 1008.1008,580.7395   L 1006.6387,576.30252   L 1005.0756,571.86555   L 1003.4118,567.52941   L 1001.5966,563.19328   L 999.68067,558.90756   L 997.66387,554.67227   L 995.54622,550.48739   L 993.32773,546.35294   L 991.0084,542.31933   L 988.58824,538.28571   L 986.06723,534.35294   L 983.44538,530.47059   L 980.72269,526.63866   L 977.89916,522.90756   L 974.97479,519.22689   L 971.94958,515.64706   L 968.87395,512.11765   L 965.69748,508.68908   L 962.42017,505.36134   L 959.09244,502.08403   L 955.66387,498.85714   L 952.13445,495.78151   L 948.55462,492.7563   L 944.87395,489.83193   L 941.14286,487.0084   L 937.36134,484.28571   L 933.47899,481.66387   L 929.54622,479.14286   L 925.51261,476.72269   L 921.47899,474.40336   L 917.34454,472.13445   L 913.15966,470.01681   L 908.97479,468   L 904.68908,466.13445   L 900.35294,464.31933   L 895.96639,462.60504   L 891.57983,461.04202   L 887.14286,459.57983   L 882.65546,458.21849   L 878.11765,457.0084   L 873.57983,455.84874   L 869.04202,454.84034   L 864.45378,453.98319   L 859.81513,453.17647   L 855.17647,452.52101   L 850.53782,452.01681   L 845.89916,451.56303   L 841.21008,451.2605   L 836.52101,451.05882  " style="fill:none;stroke:#000000;stroke-width:0.5rem;stroke-linecap:round;stroke-linejoin:round;stroke-miterlimit:4;stroke-dasharray:none;stroke-opacity:1;"/>
  <path id="path87" d="  M 836.52101,835.46218   L 841.41176,835.2605   L 846.2521,834.95798   L 851.09244,834.55462   L 855.93277,834   L 860.77311,833.34454   L 865.56303,832.53782   L 870.35294,831.68067   L 875.14286,830.67227   L 879.88235,829.51261   L 884.57143,828.2521   L 889.2605,826.89076   L 893.89916,825.42857   L 898.48739,823.86555   L 903.07563,822.15126   L 907.56303,820.33613   L 912.05042,818.42017   L 916.48739,816.35294   L 920.87395,814.23529   L 925.15966,811.96639   L 929.44538,809.64706   L 933.68067,807.17647   L 937.81513,804.60504   L 941.89916,801.93277   L 945.88235,799.21008   L 949.86555,796.33613   L 953.69748,793.36134   L 957.52941,790.33613   L 961.2605,787.15966   L 964.89076,783.93277   L 968.47059,780.65546   L 971.94958,777.22689   L 975.32773,773.7479   L 978.65546,770.16807   L 981.88235,766.48739   L 985.0084,762.7563   L 988.08403,758.97479   L 991.0084,755.09244   L 993.88235,751.10924   L 996.60504,747.12605   L 999.27731,742.9916   L 1001.8487,738.85714   L 1004.3193,734.67227   L 1006.6387,730.38655   L 1008.9076,726.05042   L 1011.0252,721.66387   L 1013.042,717.22689   L 1014.958,712.7395   L 1016.7731,708.20168   L 1018.4874,703.66387   L 1020.0504,699.02521   L 1021.563,694.38655   L 1022.9244,689.69748   L 1024.1345,684.95798   L 1025.2941,680.21849   L 1026.3025,675.47899   L 1027.2101,670.68908   L 1027.9664,665.84874   L 1028.6218,661.0084   L 1029.1765,656.16807   L 1029.5798,651.32773   L 1029.8824,646.43697   L 1030.084,641.54622  " style="fill:none;stroke:#000000;stroke-width:0.5rem;stroke-linecap:round;stroke-linejoin:round;stroke-miterlimit:4;stroke-dasharray:none;stroke-opacity:1;"/>
  <path id="path89" d="  M 836.52101,821.94958   L 841.21008,821.7479   L 845.89916,821.44538   L 850.53782,820.9916   L 855.17647,820.48739   L 859.81513,819.83193   L 864.45378,819.02521   L 869.04202,818.16807   L 873.57983,817.15966   L 878.11765,816   L 882.65546,814.78992   L 887.14286,813.42857   L 891.57983,811.96639   L 895.96639,810.40336   L 900.35294,808.68908   L 904.68908,806.87395   L 908.97479,805.0084   L 913.15966,802.9916   L 917.34454,800.87395   L 921.47899,798.60504   L 925.51261,796.28571   L 929.54622,793.86555   L 933.47899,791.34454   L 937.36134,788.72269   L 941.14286,786   L 944.87395,783.17647   L 948.55462,780.2521   L 952.13445,777.22689   L 955.66387,774.15126   L 959.09244,770.92437   L 962.42017,767.64706   L 965.69748,764.31933   L 968.87395,760.89076   L 971.94958,757.36134   L 974.97479,753.78151   L 977.89916,750.10084   L 980.72269,746.36975   L 983.44538,742.53782   L 986.06723,738.65546   L 988.58824,734.72269   L 991.0084,730.68908   L 993.32773,726.65546   L 995.54622,722.52101   L 997.66387,718.33613   L 999.68067,714.10084   L 1001.5966,709.81513   L 1003.4118,705.47899   L 1005.0756,701.14286   L 1006.6387,696.70588   L 1008.1008,692.26891   L 1009.4622,687.78151   L 1010.6723,683.2437   L 1011.8319,678.70588   L 1012.8403,674.11765   L 1013.6975,669.52941   L 1014.5042,664.89076   L 1015.1597,660.2521   L 1015.7143,655.61345   L 1016.1176,650.92437   L 1016.4202,646.23529   L 1016.6218,641.54622  " style="fill:none;stroke:#000000;stroke-width:0.5rem;stroke-linecap:round;stroke-linejoin:round;stroke-miterlimit:4;stroke-dasharray:none;stroke-opacity:1;"/>
  <path id="path91" d="  M 28.789916,82.789916   L 27.07563,82.840336   L 25.310924,83.042017   L 23.596639,83.294118   L 21.932773,83.697479   L 20.268908,84.201681   L 18.605042,84.806723   L 17.042017,85.512605   L 15.478992,86.369748   L 14.016807,87.277311   L 12.605042,88.285714   L 11.294118,89.394958   L 9.9831933,90.605042   L 8.8235294,91.865546   L 7.7142857,93.226891   L 6.7058824,94.638655   L 5.7983193,96.10084   L 4.9411765,97.613445   L 4.2352941,99.226891   L 3.6302521,100.84034   L 3.1260504,102.5042   L 2.7226891,104.21849   L 2.4705882,105.93277   L 2.2689076,107.64706   L 2.2184874,109.41176  " style="fill:none;stroke:#000000;stroke-width:0.5rem;stroke-linecap:round;stroke-linejoin:round;stroke-miterlimit:4;stroke-dasharray:none;stroke-opacity:1;"/>
  <path id="path93" d="  M 28.789916,99.630252   L 27.831933,99.680672   L 26.87395,99.831933   L 25.966387,100.03361   L 25.058824,100.38655   L 24.201681,100.78992   L 23.394958,101.29412   L 22.638655,101.84874   L 21.932773,102.5042   L 21.277311,103.21008   L 20.722689,103.96639   L 20.218487,104.82353   L 19.815126,105.68067   L 19.462185,106.58824   L 19.260504,107.4958   L 19.109244,108.45378   L 19.058824,109.41176  " style="fill:none;stroke:#000000;stroke-width:0.5rem;stroke-linecap:round;stroke-linejoin:round;stroke-miterlimit:4;stroke-dasharray:none;stroke-opacity:1;"/>
  <path id="path95" d="  M 2.2184874,1163.6471   L 2.2689076,1165.4118   L 2.4705882,1167.1261   L 2.7226891,1168.8403   L 3.1260504,1170.5546   L 3.6302521,1172.2185   L 4.2352941,1173.8319   L 4.9411765,1175.4454   L 5.7983193,1176.958   L 6.7058824,1178.4202   L 7.7142857,1179.8319   L 8.8235294,1181.1933   L 9.9831933,1182.4538   L 11.294118,1183.6639   L 12.605042,1184.7731   L 14.016807,1185.7815   L 15.478992,1186.6891   L 17.042017,1187.5462   L 18.605042,1188.2521   L 20.268908,1188.8571   L 21.932773,1189.3613   L 23.596639,1189.7647   L 25.310924,1190.0168   L 27.07563,1190.2185   L 28.789916,1190.2689  " style="fill:none;stroke:#000000;stroke-width:0.5rem;stroke-linecap:round;stroke-linejoin:round;stroke-miterlimit:4;stroke-dasharray:none;stroke-opacity:1;"/>
  <path id="path97" d="  M 19.058824,1163.6471   L 19.109244,1164.605   L 19.260504,1165.563   L 19.462185,1166.4706   L 19.815126,1167.3782   L 20.218487,1168.2353   L 20.722689,1169.0924   L 21.277311,1169.8487   L 21.932773,1170.5546   L 22.638655,1171.2101   L 23.394958,1171.7647   L 24.201681,1172.2689   L 25.058824,1172.6723   L 25.966387,1173.0252   L 26.87395,1173.2269   L 27.831933,1173.3782   L 28.789916,1173.4286  " style="fill:none;stroke:#000000;stroke-width:0.5rem;stroke-linecap:round;stroke-linejoin:round;stroke-miterlimit:4;stroke-dasharray:none;stroke-opacity:1;"/>
</svg>