<svg xmlns:dc="http://purl.org/dc/elements/1.1/" xmlns:cc="http://creativecommons.org/ns#" xmlns:rdf="http://www.w3.org/1999/02/22-rdf-syntax-ns#" xmlns:svg="http://www.w3.org/2000/svg" xmlns="http://www.w3.org/2000/svg" id="svg165" version="1.0" viewBox="261.12 1.76 1124.18 1268.11">
  <metadata id="metadata169">
    <rdf:RDF>
      <cc:Work rdf:about="">
        <dc:format>image/svg+xml</dc:format>
        <dc:type rdf:resource="http://purl.org/dc/dcmitype/StillImage"/>
      </cc:Work>
    </rdf:RDF>
  </metadata>
  <defs id="defs3">
    <pattern y="0" x="0" height="6" width="6" patternUnits="userSpaceOnUse" id="WMFhbasepattern"/>
  </defs>
  <path id="path5" d="  M 1363.4353,23.629196   L 1377.8583,24.549814   L 1382.2568,24.958977   L 1383.7912,25.419286  " style="fill:none;stroke:#000000;stroke-width:8px;stroke-linecap:round;stroke-linejoin:round;stroke-miterlimit:4;stroke-dasharray:none;stroke-opacity:1;"/>
  <path id="path7" d="  M 1383.7912,1246.2099   L 1382.2568,1246.6702   L 1377.8583,1247.0794   L 1363.4353,1248  " style="fill:none;stroke:#000000;stroke-width:8px;stroke-linecap:round;stroke-linejoin:round;stroke-miterlimit:4;stroke-dasharray:none;stroke-opacity:1;"/>
  <path id="path9" d="  M 282.98775,1248   L 268.56473,1247.0794   L 264.16622,1246.6702   L 262.63186,1246.2099  " style="fill:none;stroke:#000000;stroke-width:8px;stroke-linecap:round;stroke-linejoin:round;stroke-miterlimit:4;stroke-dasharray:none;stroke-opacity:1;"/>
  <path id="path11" d="  M 262.63186,25.419286   L 264.16622,24.958977   L 268.56473,24.549814   L 282.98775,23.629196  " style="fill:none;stroke:#000000;stroke-width:8px;stroke-linecap:round;stroke-linejoin:round;stroke-miterlimit:4;stroke-dasharray:none;stroke-opacity:1;"/>
  <path id="path13" d="  M 263.14331,1247.8977   L 262.63186,1248   L 262.1204,1248.1023   L 263.09217,1254.1375   L 263.60362,1254.0352   L 264.11508,1253.9329  z " style="fill:#000000;fill-rule:evenodd;fill-opacity:1;stroke:none;"/>
  <path id="path15" d="  M 263.14331,1247.8977   L 262.63186,1248   L 262.1204,1248.1023   L 263.09217,1254.1375   L 263.60362,1254.0352   L 264.11508,1253.9329   L 263.14331,1247.8977  z " style="fill:none;stroke:#000000;stroke-width:8px;stroke-linecap:round;stroke-linejoin:round;stroke-miterlimit:4;stroke-dasharray:none;stroke-opacity:1;"/>
  <path id="path17" d="  M 263.60362,1254.0352   L 263.09217,1254.1375   L 263.09217,1254.1886   L 263.14331,1254.2397  z " style="fill:#000000;fill-rule:evenodd;fill-opacity:1;stroke:none;"/>
  <path id="path19" d="  M 263.09217,1254.1375   L 263.09217,1254.1886   L 263.14331,1254.2397  " style="fill:none;stroke:#000000;stroke-width:8px;stroke-linecap:round;stroke-linejoin:round;stroke-miterlimit:4;stroke-dasharray:none;stroke-opacity:1;"/>
  <path id="path21" d="  M 264.06393,1253.8306   L 263.60362,1254.0352   L 263.14331,1254.2397   L 265.64944,1259.61   L 266.10975,1259.4054   L 266.57006,1259.2009  z " style="fill:#000000;fill-rule:evenodd;fill-opacity:1;stroke:none;"/>
  <path id="path23" d="  M 264.06393,1253.8306   L 263.60362,1254.0352   L 263.14331,1254.2397   L 265.64944,1259.61   L 266.10975,1259.4054   L 266.57006,1259.2009   L 264.06393,1253.8306  z " style="fill:none;stroke:#000000;stroke-width:8px;stroke-linecap:round;stroke-linejoin:round;stroke-miterlimit:4;stroke-dasharray:none;stroke-opacity:1;"/>
  <path id="path25" d="  M 266.10975,1259.4054   L 265.64944,1259.61   L 265.70059,1259.7123   L 265.75173,1259.7635  z " style="fill:#000000;fill-rule:evenodd;fill-opacity:1;stroke:none;"/>
  <path id="path27" d="  M 265.64944,1259.61   L 265.70059,1259.7123   L 265.75173,1259.7635  " style="fill:none;stroke:#000000;stroke-width:8px;stroke-linecap:round;stroke-linejoin:round;stroke-miterlimit:4;stroke-dasharray:none;stroke-opacity:1;"/>
  <path id="path29" d="  M 266.46777,1259.0474   L 266.10975,1259.4054   L 265.75173,1259.7635   L 269.89451,1264.4177   L 270.25253,1264.0597   L 270.61055,1263.7017  z " style="fill:#000000;fill-rule:evenodd;fill-opacity:1;stroke:none;"/>
  <path id="path31" d="  M 266.46777,1259.0474   L 266.10975,1259.4054   L 265.75173,1259.7635   L 269.89451,1264.4177   L 270.25253,1264.0597   L 270.61055,1263.7017   L 266.46777,1259.0474  z " style="fill:none;stroke:#000000;stroke-width:8px;stroke-linecap:round;stroke-linejoin:round;stroke-miterlimit:4;stroke-dasharray:none;stroke-opacity:1;"/>
  <path id="path33" d="  M 270.25253,1264.0597   L 269.89451,1264.4177   L 269.94566,1264.4688   L 269.9968,1264.52  z " style="fill:#000000;fill-rule:evenodd;fill-opacity:1;stroke:none;"/>
  <path id="path35" d="  M 269.89451,1264.4177   L 269.94566,1264.4688   L 269.9968,1264.52  " style="fill:none;stroke:#000000;stroke-width:8px;stroke-linecap:round;stroke-linejoin:round;stroke-miterlimit:4;stroke-dasharray:none;stroke-opacity:1;"/>
  <path id="path37" d="  M 270.50826,1263.5994   L 270.25253,1264.0597   L 269.9968,1264.52   L 275.26478,1267.333   L 275.52051,1266.8727   L 275.77624,1266.4124  z " style="fill:#000000;fill-rule:evenodd;fill-opacity:1;stroke:none;"/>
  <path id="path39" d="  M 270.50826,1263.5994   L 270.25253,1264.0597   L 269.9968,1264.52   L 275.26478,1267.333   L 275.52051,1266.8727   L 275.77624,1266.4124   L 270.50826,1263.5994  z " style="fill:none;stroke:#000000;stroke-width:8px;stroke-linecap:round;stroke-linejoin:round;stroke-miterlimit:4;stroke-dasharray:none;stroke-opacity:1;"/>
  <path id="path41" d="  M 1370.6468,1266.4124   L 1370.9025,1266.8727   L 1371.1582,1267.333   L 1376.4262,1264.52   L 1376.1705,1264.0597   L 1375.9148,1263.5994  z " style="fill:#000000;fill-rule:evenodd;fill-opacity:1;stroke:none;"/>
  <path id="path43" d="  M 1370.6468,1266.4124   L 1370.9025,1266.8727   L 1371.1582,1267.333   L 1376.4262,1264.52   L 1376.1705,1264.0597   L 1375.9148,1263.5994   L 1370.6468,1266.4124  z " style="fill:none;stroke:#000000;stroke-width:8px;stroke-linecap:round;stroke-linejoin:round;stroke-miterlimit:4;stroke-dasharray:none;stroke-opacity:1;"/>
  <path id="path45" d="  M 1376.1705,1264.0597   L 1376.4262,1264.52   L 1376.4774,1264.4688   L 1376.5285,1264.4177  z " style="fill:#000000;fill-rule:evenodd;fill-opacity:1;stroke:none;"/>
  <path id="path47" d="  M 1376.4262,1264.52   L 1376.4774,1264.4688   L 1376.5285,1264.4177  " style="fill:none;stroke:#000000;stroke-width:8px;stroke-linecap:round;stroke-linejoin:round;stroke-miterlimit:4;stroke-dasharray:none;stroke-opacity:1;"/>
  <path id="path49" d="  M 1375.8125,1263.7017   L 1376.1705,1264.0597   L 1376.5285,1264.4177   L 1380.6713,1259.7635   L 1380.3133,1259.4054   L 1379.9552,1259.0474  z " style="fill:#000000;fill-rule:evenodd;fill-opacity:1;stroke:none;"/>
  <path id="path51" d="  M 1375.8125,1263.7017   L 1376.1705,1264.0597   L 1376.5285,1264.4177   L 1380.6713,1259.7635   L 1380.3133,1259.4054   L 1379.9552,1259.0474   L 1375.8125,1263.7017  z " style="fill:none;stroke:#000000;stroke-width:8px;stroke-linecap:round;stroke-linejoin:round;stroke-miterlimit:4;stroke-dasharray:none;stroke-opacity:1;"/>
  <path id="path53" d="  M 1380.3133,1259.4054   L 1380.6713,1259.7635   L 1380.7224,1259.7123   L 1380.7736,1259.61  z " style="fill:#000000;fill-rule:evenodd;fill-opacity:1;stroke:none;"/>
  <path id="path55" d="  M 1380.6713,1259.7635   L 1380.7224,1259.7123   L 1380.7736,1259.61  " style="fill:none;stroke:#000000;stroke-width:8px;stroke-linecap:round;stroke-linejoin:round;stroke-miterlimit:4;stroke-dasharray:none;stroke-opacity:1;"/>
  <path id="path57" d="  M 1379.853,1259.2009   L 1380.3133,1259.4054   L 1380.7736,1259.61   L 1383.2797,1254.2397   L 1382.8194,1254.0352   L 1382.3591,1253.8306  z " style="fill:#000000;fill-rule:evenodd;fill-opacity:1;stroke:none;"/>
  <path id="path59" d="  M 1379.853,1259.2009   L 1380.3133,1259.4054   L 1380.7736,1259.61   L 1383.2797,1254.2397   L 1382.8194,1254.0352   L 1382.3591,1253.8306   L 1379.853,1259.2009  z " style="fill:none;stroke:#000000;stroke-width:8px;stroke-linecap:round;stroke-linejoin:round;stroke-miterlimit:4;stroke-dasharray:none;stroke-opacity:1;"/>
  <path id="path61" d="  M 1382.8194,1254.0352   L 1383.2797,1254.2397   L 1383.3308,1254.1886   L 1383.3308,1254.1375  z " style="fill:#000000;fill-rule:evenodd;fill-opacity:1;stroke:none;"/>
  <path id="path63" d="  M 1383.2797,1254.2397   L 1383.3308,1254.1886   L 1383.3308,1254.1375  " style="fill:none;stroke:#000000;stroke-width:8px;stroke-linecap:round;stroke-linejoin:round;stroke-miterlimit:4;stroke-dasharray:none;stroke-opacity:1;"/>
  <path id="path65" d="  M 1382.3079,1253.9329   L 1382.8194,1254.0352   L 1383.3308,1254.1375   L 1384.3026,1248.1023   L 1383.7912,1248   L 1383.2797,1247.8977  z " style="fill:#000000;fill-rule:evenodd;fill-opacity:1;stroke:none;"/>
  <path id="path67" d="  M 1382.3079,1253.9329   L 1382.8194,1254.0352   L 1383.3308,1254.1375   L 1384.3026,1248.1023   L 1383.7912,1248   L 1383.2797,1247.8977   L 1382.3079,1253.9329  z " style="fill:none;stroke:#000000;stroke-width:8px;stroke-linecap:round;stroke-linejoin:round;stroke-miterlimit:4;stroke-dasharray:none;stroke-opacity:1;"/>
  <path id="path69" d="  M 1383.2797,23.731486   L 1383.7912,23.629196   L 1384.3026,23.526905   L 1383.3308,17.491742   L 1382.8194,17.594033   L 1382.3079,17.696324  z " style="fill:#000000;fill-rule:evenodd;fill-opacity:1;stroke:none;"/>
  <path id="path71" d="  M 1383.2797,23.731486   L 1383.7912,23.629196   L 1384.3026,23.526905   L 1383.3308,17.491742   L 1382.8194,17.594033   L 1382.3079,17.696324   L 1383.2797,23.731486  z " style="fill:none;stroke:#000000;stroke-width:8px;stroke-linecap:round;stroke-linejoin:round;stroke-miterlimit:4;stroke-dasharray:none;stroke-opacity:1;"/>
  <path id="path73" d="  M 1382.8194,17.594033   L 1383.3308,17.491742   L 1383.3308,17.440597   L 1383.2797,17.389451  z " style="fill:#000000;fill-rule:evenodd;fill-opacity:1;stroke:none;"/>
  <path id="path75" d="  M 1383.3308,17.491742   L 1383.3308,17.440597   L 1383.2797,17.389451  " style="fill:none;stroke:#000000;stroke-width:8px;stroke-linecap:round;stroke-linejoin:round;stroke-miterlimit:4;stroke-dasharray:none;stroke-opacity:1;"/>
  <path id="path77" d="  M 1382.3591,17.798615   L 1382.8194,17.594033   L 1383.2797,17.389451   L 1380.7736,12.01918   L 1380.3133,12.223761   L 1379.853,12.428343  z " style="fill:#000000;fill-rule:evenodd;fill-opacity:1;stroke:none;"/>
  <path id="path79" d="  M 1382.3591,17.798615   L 1382.8194,17.594033   L 1383.2797,17.389451   L 1380.7736,12.01918   L 1380.3133,12.223761   L 1379.853,12.428343   L 1382.3591,17.798615  z " style="fill:none;stroke:#000000;stroke-width:8px;stroke-linecap:round;stroke-linejoin:round;stroke-miterlimit:4;stroke-dasharray:none;stroke-opacity:1;"/>
  <path id="path81" d="  M 1380.3133,12.223761   L 1380.7736,12.01918   L 1380.7224,11.916889   L 1380.6713,11.865743  z " style="fill:#000000;fill-rule:evenodd;fill-opacity:1;stroke:none;"/>
  <path id="path83" d="  M 1380.7736,12.01918   L 1380.7224,11.916889   L 1380.6713,11.865743  " style="fill:none;stroke:#000000;stroke-width:8px;stroke-linecap:round;stroke-linejoin:round;stroke-miterlimit:4;stroke-dasharray:none;stroke-opacity:1;"/>
  <path id="path85" d="  M 1379.9552,12.581779   L 1380.3133,12.223761   L 1380.6713,11.865743   L 1376.5285,7.2115077   L 1376.1705,7.5695258   L 1375.8125,7.927544  z " style="fill:#000000;fill-rule:evenodd;fill-opacity:1;stroke:none;"/>
  <path id="path87" d="  M 1379.9552,12.581779   L 1380.3133,12.223761   L 1380.6713,11.865743   L 1376.5285,7.2115077   L 1376.1705,7.5695258   L 1375.8125,7.927544   L 1379.9552,12.581779  z " style="fill:none;stroke:#000000;stroke-width:8px;stroke-linecap:round;stroke-linejoin:round;stroke-miterlimit:4;stroke-dasharray:none;stroke-opacity:1;"/>
  <path id="path89" d="  M 1376.1705,7.5695258   L 1376.5285,7.2115077   L 1376.4774,7.1603623   L 1376.4262,7.1092168  z " style="fill:#000000;fill-rule:evenodd;fill-opacity:1;stroke:none;"/>
  <path id="path91" d="  M 1376.5285,7.2115077   L 1376.4774,7.1603623   L 1376.4262,7.1092168  " style="fill:none;stroke:#000000;stroke-width:8px;stroke-linecap:round;stroke-linejoin:round;stroke-miterlimit:4;stroke-dasharray:none;stroke-opacity:1;"/>
  <path id="path93" d="  M 1375.9148,8.0298348   L 1376.1705,7.5695258   L 1376.4262,7.1092168   L 1371.1582,4.2962174   L 1370.9025,4.7565264   L 1370.6468,5.2168354  z " style="fill:#000000;fill-rule:evenodd;fill-opacity:1;stroke:none;"/>
  <path id="path95" d="  M 1375.9148,8.0298348   L 1376.1705,7.5695258   L 1376.4262,7.1092168   L 1371.1582,4.2962174   L 1370.9025,4.7565264   L 1370.6468,5.2168354   L 1375.9148,8.0298348  z " style="fill:none;stroke:#000000;stroke-width:8px;stroke-linecap:round;stroke-linejoin:round;stroke-miterlimit:4;stroke-dasharray:none;stroke-opacity:1;"/>
  <path id="path97" d="  M 275.77624,5.2168354   L 275.52051,4.7565264   L 275.26478,4.2962174   L 269.9968,7.1092168   L 270.25253,7.5695258   L 270.50826,8.0298348  z " style="fill:#000000;fill-rule:evenodd;fill-opacity:1;stroke:none;"/>
  <path id="path99" d="  M 275.77624,5.2168354   L 275.52051,4.7565264   L 275.26478,4.2962174   L 269.9968,7.1092168   L 270.25253,7.5695258   L 270.50826,8.0298348   L 275.77624,5.2168354  z " style="fill:none;stroke:#000000;stroke-width:8px;stroke-linecap:round;stroke-linejoin:round;stroke-miterlimit:4;stroke-dasharray:none;stroke-opacity:1;"/>
  <path id="path101" d="  M 270.25253,7.5695258   L 269.9968,7.1092168   L 269.94566,7.1603623   L 269.89451,7.2115077  z " style="fill:#000000;fill-rule:evenodd;fill-opacity:1;stroke:none;"/>
  <path id="path103" d="  M 269.9968,7.1092168   L 269.94566,7.1603623   L 269.89451,7.2115077  " style="fill:none;stroke:#000000;stroke-width:8px;stroke-linecap:round;stroke-linejoin:round;stroke-miterlimit:4;stroke-dasharray:none;stroke-opacity:1;"/>
  <path id="path105" d="  M 270.61055,7.927544   L 270.25253,7.5695258   L 269.89451,7.2115077   L 265.75173,11.865743   L 266.10975,12.223761   L 266.46777,12.581779  z " style="fill:#000000;fill-rule:evenodd;fill-opacity:1;stroke:none;"/>
  <path id="path107" d="  M 270.61055,7.927544   L 270.25253,7.5695258   L 269.89451,7.2115077   L 265.75173,11.865743   L 266.10975,12.223761   L 266.46777,12.581779   L 270.61055,7.927544  z " style="fill:none;stroke:#000000;stroke-width:8px;stroke-linecap:round;stroke-linejoin:round;stroke-miterlimit:4;stroke-dasharray:none;stroke-opacity:1;"/>
  <path id="path109" d="  M 266.10975,12.223761   L 265.75173,11.865743   L 265.70059,11.916889   L 265.64944,12.01918  z " style="fill:#000000;fill-rule:evenodd;fill-opacity:1;stroke:none;"/>
  <path id="path111" d="  M 265.75173,11.865743   L 265.70059,11.916889   L 265.64944,12.01918  " style="fill:none;stroke:#000000;stroke-width:8px;stroke-linecap:round;stroke-linejoin:round;stroke-miterlimit:4;stroke-dasharray:none;stroke-opacity:1;"/>
  <path id="path113" d="  M 266.57006,12.428343   L 266.10975,12.223761   L 265.64944,12.01918   L 263.14331,17.389451   L 263.60362,17.594033   L 264.06393,17.798615  z " style="fill:#000000;fill-rule:evenodd;fill-opacity:1;stroke:none;"/>
  <path id="path115" d="  M 266.57006,12.428343   L 266.10975,12.223761   L 265.64944,12.01918   L 263.14331,17.389451   L 263.60362,17.594033   L 264.06393,17.798615   L 266.57006,12.428343  z " style="fill:none;stroke:#000000;stroke-width:8px;stroke-linecap:round;stroke-linejoin:round;stroke-miterlimit:4;stroke-dasharray:none;stroke-opacity:1;"/>
  <path id="path117" d="  M 263.60362,17.594033   L 263.14331,17.389451   L 263.09217,17.440597   L 263.09217,17.491742  z " style="fill:#000000;fill-rule:evenodd;fill-opacity:1;stroke:none;"/>
  <path id="path119" d="  M 263.14331,17.389451   L 263.09217,17.440597   L 263.09217,17.491742  " style="fill:none;stroke:#000000;stroke-width:8px;stroke-linecap:round;stroke-linejoin:round;stroke-miterlimit:4;stroke-dasharray:none;stroke-opacity:1;"/>
  <path id="path121" d="  M 264.11508,17.696324   L 263.60362,17.594033   L 263.09217,17.491742   L 262.1204,23.526905   L 262.63186,23.629196   L 263.14331,23.731486  z " style="fill:#000000;fill-rule:evenodd;fill-opacity:1;stroke:none;"/>
  <path id="path123" d="  M 264.11508,17.696324   L 263.60362,17.594033   L 263.09217,17.491742   L 262.1204,23.526905   L 262.63186,23.629196   L 263.14331,23.731486   L 264.11508,17.696324  z " style="fill:none;stroke:#000000;stroke-width:8px;stroke-linecap:round;stroke-linejoin:round;stroke-miterlimit:4;stroke-dasharray:none;stroke-opacity:1;"/>
  <path id="path125" d="  M 1371.414,1247.5908   L 1370.9025,1247.5908   L 1370.391,1247.5908   L 1370.391,1268.3559   L 1370.9025,1268.3559   L 1371.414,1268.3559  z " style="fill:#000000;fill-rule:evenodd;fill-opacity:1;stroke:none;"/>
  <path id="path127" d="  M 1371.414,1247.5908   L 1370.9025,1247.5908   L 1370.391,1247.5908   L 1370.391,1268.3559   L 1370.9025,1268.3559   L 1371.414,1268.3559   L 1371.414,1247.5908  z " style="fill:none;stroke:#000000;stroke-width:8px;stroke-linecap:round;stroke-linejoin:round;stroke-miterlimit:4;stroke-dasharray:none;stroke-opacity:1;"/>
  <path id="path129" d="  M 275.52051,1267.8444   L 275.52051,1268.3559   L 275.52051,1268.8673   L 1370.9025,1268.8673   L 1370.9025,1268.3559   L 1370.9025,1267.8444  z " style="fill:#000000;fill-rule:evenodd;fill-opacity:1;stroke:none;"/>
  <path id="path131" d="  M 275.52051,1267.8444   L 275.52051,1268.3559   L 275.52051,1268.8673   L 1370.9025,1268.8673   L 1370.9025,1268.3559   L 1370.9025,1267.8444   L 275.52051,1267.8444  z " style="fill:none;stroke:#000000;stroke-width:8px;stroke-linecap:round;stroke-linejoin:round;stroke-miterlimit:4;stroke-dasharray:none;stroke-opacity:1;"/>
  <path id="path133" d="  M 1363.4353,1248   L 262.63186,1248  " style="fill:none;stroke:#000000;stroke-width:8px;stroke-linecap:round;stroke-linejoin:round;stroke-miterlimit:4;stroke-dasharray:none;stroke-opacity:1;"/>
  <path id="path135" d="  M 275.00906,1268.3559   L 275.52051,1268.3559   L 276.03197,1268.3559   L 276.03197,1248   L 275.52051,1248   L 275.00906,1248  z " style="fill:#000000;fill-rule:evenodd;fill-opacity:1;stroke:none;"/>
  <path id="path137" d="  M 275.00906,1268.3559   L 275.52051,1268.3559   L 276.03197,1268.3559   L 276.03197,1248   L 275.52051,1248   L 275.00906,1248   L 275.00906,1268.3559  z " style="fill:none;stroke:#000000;stroke-width:8px;stroke-linecap:round;stroke-linejoin:round;stroke-miterlimit:4;stroke-dasharray:none;stroke-opacity:1;"/>
  <path id="path139" d="  M 1383.7912,23.629196   L 1383.7912,1248  " style="fill:none;stroke:#000000;stroke-width:8px;stroke-linecap:round;stroke-linejoin:round;stroke-miterlimit:4;stroke-dasharray:none;stroke-opacity:1;"/>
  <path id="path141" d="  M 1363.4353,1248   L 1363.4353,23.629196  " style="fill:none;stroke:#000000;stroke-width:8px;stroke-linecap:round;stroke-linejoin:round;stroke-miterlimit:4;stroke-dasharray:none;stroke-opacity:1;"/>
  <path id="path143" d="  M 282.98775,23.629196   L 282.98775,1248  " style="fill:none;stroke:#000000;stroke-width:8px;stroke-linecap:round;stroke-linejoin:round;stroke-miterlimit:4;stroke-dasharray:none;stroke-opacity:1;"/>
  <path id="path145" d="  M 262.63186,23.629196   L 1383.7912,23.629196  " style="fill:none;stroke:#000000;stroke-width:8px;stroke-linecap:round;stroke-linejoin:round;stroke-miterlimit:4;stroke-dasharray:none;stroke-opacity:1;"/>
  <path id="path147" d="  M 262.63186,1248   L 262.63186,23.629196  " style="fill:none;stroke:#000000;stroke-width:8px;stroke-linecap:round;stroke-linejoin:round;stroke-miterlimit:4;stroke-dasharray:none;stroke-opacity:1;"/>
  <path id="path149" d="  M 1370.9025,3.7847629   L 1370.9025,3.2733085   L 1370.9025,2.761854   L 275.52051,2.761854   L 275.52051,3.2733085   L 275.52051,3.7847629  z " style="fill:#000000;fill-rule:evenodd;fill-opacity:1;stroke:none;"/>
  <path id="path151" d="  M 1370.9025,3.7847629   L 1370.9025,3.2733085   L 1370.9025,2.761854   L 275.52051,2.761854   L 275.52051,3.2733085   L 275.52051,3.7847629   L 1370.9025,3.7847629  z " style="fill:none;stroke:#000000;stroke-width:8px;stroke-linecap:round;stroke-linejoin:round;stroke-miterlimit:4;stroke-dasharray:none;stroke-opacity:1;"/>
  <path id="path153" d="  M 1371.414,3.2733085   L 1370.9025,3.2733085   L 1370.391,3.2733085   L 1370.391,23.629196   L 1370.9025,23.629196   L 1371.414,23.629196  z " style="fill:#000000;fill-rule:evenodd;fill-opacity:1;stroke:none;"/>
  <path id="path155" d="  M 1371.414,3.2733085   L 1370.9025,3.2733085   L 1370.391,3.2733085   L 1370.391,23.629196   L 1370.9025,23.629196   L 1371.414,23.629196   L 1371.414,3.2733085  z " style="fill:none;stroke:#000000;stroke-width:8px;stroke-linecap:round;stroke-linejoin:round;stroke-miterlimit:4;stroke-dasharray:none;stroke-opacity:1;"/>
  <path id="path157" d="  M 275.00906,23.629196   L 275.52051,23.629196   L 276.03197,23.629196   L 276.03197,3.2733085   L 275.52051,3.2733085   L 275.00906,3.2733085  z " style="fill:#000000;fill-rule:evenodd;fill-opacity:1;stroke:none;"/>
  <path id="path159" d="  M 275.00906,23.629196   L 275.52051,23.629196   L 276.03197,23.629196   L 276.03197,3.2733085   L 275.52051,3.2733085   L 275.00906,3.2733085   L 275.00906,23.629196  z " style="fill:none;stroke:#000000;stroke-width:8px;stroke-linecap:round;stroke-linejoin:round;stroke-miterlimit:4;stroke-dasharray:none;stroke-opacity:1;"/>
  <path id="path161" d="  M 1330.8556,291.88705   L 1330.8045,286.41449   L 1330.5999,280.94193   L 1330.293,275.46937   L 1329.8327,270.04795   L 1329.2701,264.62653   L 1328.6052,259.15397   L 1327.7869,253.7837   L 1326.8663,248.36228   L 1325.7922,242.99201   L 1324.6159,237.67288   L 1323.2861,232.35376   L 1321.9052,227.08578   L 1320.3197,221.81779   L 1318.683,216.6521   L 1316.8929,211.48641   L 1315.0005,206.32072   L 1312.9547,201.25733   L 1310.8066,196.19393   L 1308.5562,191.23282   L 1306.2035,186.32286   L 1303.7485,181.41289   L 1301.1401,176.60522   L 1298.4294,171.84869   L 1295.6164,167.14331   L 1292.7523,162.54022   L 1289.6835,157.98828   L 1286.5637,153.48748   L 1283.3415,149.08897   L 1280.017,144.74161   L 1276.5903,140.44539   L 1273.1124,136.25147   L 1269.4811,132.15983   L 1265.7475,128.17048   L 1261.9627,124.23229   L 1258.0757,120.39638   L 1254.0863,116.61161   L 1250.0458,112.98029   L 1245.903,109.40011   L 1241.658,105.92222   L 1237.3617,102.54662   L 1232.9632,99.273308   L 1228.5136,96.102291   L 1224.0128,93.033564   L 1219.4097,90.067128   L 1214.7555,87.202983   L 1210.0501,84.441129   L 1205.2424,81.781566   L 1200.3836,79.27544   L 1195.4736,76.820458   L 1190.5125,74.518913   L 1185.5003,72.319659   L 1180.488,70.273841   L 1175.3735,68.279169   L 1170.2078,66.437933   L 1165.0421,64.750133   L 1159.7741,63.113479   L 1154.5061,61.630261   L 1149.2381,60.300479   L 1143.919,59.021843   L 1138.5487,57.896644   L 1133.1785,56.92488   L 1127.7571,56.055408   L 1122.3868,55.288226   L 1116.9142,54.674481   L 1111.4928,54.163026   L 1106.0202,53.805008   L 1100.5477,53.549281   L 1095.0751,53.395844   L 1089.6537,53.395844   L 1084.1811,53.549281   L 1078.7086,53.805008   L 1073.236,54.163026   L 1067.8146,54.674481   L 1062.342,55.288226   L 1056.9718,56.055408   L 1051.5503,56.92488   L 1046.1801,57.896644   L 1040.8098,59.021843   L 1035.4907,60.300479   L 1030.2227,61.630261   L 1024.9547,63.113479   L 1019.6867,64.750133   L 1014.521,66.437933   L 1009.3554,68.279169   L 1004.2408,70.273841   L 999.22856,72.319659   L 994.2163,74.518913   L 989.25519,76.820458   L 984.34523,79.27544   L 979.48641,81.781566   L 974.67874,84.441129   L 969.97336,87.202983   L 965.31913,90.067128   L 960.71604,93.033564   L 956.21524,96.102291   L 951.76558,99.273308   L 947.36708,102.54662   L 943.07086,105.92222   L 938.82579,109.40011   L 934.683,112.98029   L 930.64251,116.61161   L 926.65317,120.39638   L 922.76612,124.23229   L 918.98135,128.17048   L 915.24774,132.15983   L 911.61641,136.25147   L 908.13852,140.44539   L 904.71177,144.74161   L 901.38732,149.08897   L 898.16516,153.48748   L 895.04529,157.98828   L 891.97656,162.54022   L 889.11241,167.14331   L 886.29941,171.84869   L 883.58871,176.60522   L 880.98029,181.41289   L 878.52531,186.32286   L 876.17262,191.23282   L 873.92222,196.19393   L 871.77411,201.25733   L 869.72829,206.32072   L 867.83591,211.48641   L 866.04582,216.6521   L 864.40916,221.81779   L 862.82365,227.08578   L 861.44273,232.35376   L 860.11295,237.67288   L 858.9366,242.99201   L 857.86255,248.36228   L 856.94193,253.7837   L 856.1236,259.15397   L 855.45871,264.62653   L 854.89611,270.04795   L 854.4358,275.46937   L 854.12893,280.94193   L 853.92435,286.41449   L 853.8732,291.88705   L 853.92435,297.35962   L 854.12893,302.83218   L 854.4358,308.30474   L 854.89611,313.72616   L 855.45871,319.14758   L 856.1236,324.62014   L 856.94193,329.99041   L 857.86255,335.41183   L 858.9366,340.7821   L 860.11295,346.10123   L 861.44273,351.42035   L 862.82365,356.68833   L 864.40916,361.95631   L 866.04582,367.122   L 867.83591,372.28769   L 869.72829,377.45338   L 871.77411,382.51678   L 873.92222,387.58018   L 876.17262,392.54129   L 878.52531,397.45125   L 880.98029,402.36121   L 883.58871,407.16889   L 886.29941,411.92541   L 889.11241,416.63079   L 891.97656,421.23388   L 895.04529,425.78583   L 898.16516,430.28663   L 901.38732,434.68514   L 904.71177,439.0325   L 908.13852,443.32872   L 911.61641,447.52264   L 915.24774,451.61428   L 918.98135,455.60362   L 922.76612,459.54182   L 926.65317,463.37773   L 930.64251,467.16249   L 934.683,470.79382   L 938.82579,474.374   L 943.07086,477.85189   L 947.36708,481.22749   L 951.76558,484.5008   L 956.21524,487.67182   L 960.71604,490.74054   L 965.31913,493.70698   L 969.97336,496.57112   L 974.67874,499.33298   L 979.48641,501.99254   L 984.34523,504.49867   L 989.25519,506.95365   L 994.2163,509.25519   L 999.22856,511.45445   L 1004.2408,513.50027   L 1009.3554,515.49494   L 1014.521,517.33617   L 1019.6867,519.02397   L 1024.9547,520.66063   L 1030.2227,522.14385   L 1035.4907,523.47363   L 1040.8098,524.75226   L 1046.1801,525.87746   L 1051.5503,526.84923   L 1056.9718,527.7187   L 1062.342,528.48588   L 1067.8146,529.09963   L 1073.236,529.61108   L 1078.7086,529.9691   L 1084.1811,530.22483   L 1089.6537,530.37826   L 1095.0751,530.37826   L 1100.5477,530.22483   L 1106.0202,529.9691   L 1111.4928,529.61108   L 1116.9142,529.09963   L 1122.3868,528.48588   L 1127.7571,527.7187   L 1133.1785,526.84923   L 1138.5487,525.87746   L 1143.919,524.75226   L 1149.2381,523.47363   L 1154.5061,522.14385   L 1159.7741,520.66063   L 1165.0421,519.02397   L 1170.2078,517.33617   L 1175.3735,515.49494   L 1180.488,513.50027   L 1185.5003,511.45445   L 1190.5125,509.25519   L 1195.4736,506.95365   L 1200.3836,504.49867   L 1205.2424,501.99254   L 1210.0501,499.33298   L 1214.7555,496.57112   L 1219.4097,493.70698   L 1224.0128,490.74054   L 1228.5136,487.67182   L 1232.9632,484.5008   L 1237.3617,481.22749   L 1241.658,477.85189   L 1245.903,474.374   L 1250.0458,470.79382   L 1254.0863,467.16249   L 1258.0757,463.37773   L 1261.9627,459.54182   L 1265.7475,455.60362   L 1269.4811,451.61428   L 1273.1124,447.52264   L 1276.5903,443.32872   L 1280.017,439.0325   L 1283.3415,434.68514   L 1286.5637,430.28663   L 1289.6835,425.78583   L 1292.7523,421.23388   L 1295.6164,416.63079   L 1298.4294,411.92541   L 1301.1401,407.16889   L 1303.7485,402.36121   L 1306.2035,397.45125   L 1308.5562,392.54129   L 1310.8066,387.58018   L 1312.9547,382.51678   L 1315.0005,377.45338   L 1316.8929,372.28769   L 1318.683,367.122   L 1320.3197,361.95631   L 1321.9052,356.68833   L 1323.2861,351.42035   L 1324.6159,346.10123   L 1325.7922,340.7821   L 1326.8663,335.41183   L 1327.7869,329.99041   L 1328.6052,324.62014   L 1329.2701,319.14758   L 1329.8327,313.72616   L 1330.293,308.30474   L 1330.5999,302.83218   L 1330.8045,297.35962   L 1330.8556,291.88705  z " style="fill:none;stroke:#000000;stroke-width:8px;stroke-linecap:round;stroke-linejoin:round;stroke-miterlimit:4;stroke-dasharray:none;stroke-opacity:1;"/>
  <path id="path163" d="  M 1258.4848,291.88705   L 1258.4337,287.33511   L 1258.2291,282.83431   L 1257.9222,278.28237   L 1257.5131,273.78157   L 1256.9505,269.28077   L 1256.2344,264.77997   L 1255.4672,260.33031   L 1254.5466,255.88066   L 1253.4726,251.43101   L 1252.3474,247.08364   L 1251.0176,242.73628   L 1249.6367,238.38892   L 1248.1023,234.14385   L 1246.4656,229.89877   L 1244.7267,225.70485   L 1242.8855,221.56207   L 1240.8908,217.47043   L 1238.7938,213.42994   L 1236.5946,209.49174   L 1234.293,205.55354   L 1231.8892,201.71763   L 1229.3831,197.93287   L 1226.7746,194.2504   L 1224.0639,190.61907   L 1221.2509,187.03889   L 1218.3356,183.561   L 1215.3181,180.1854   L 1212.1982,176.86095   L 1209.0272,173.63879   L 1205.7539,170.46777   L 1202.3783,167.45019   L 1198.9515,164.48375   L 1195.4225,161.61961   L 1191.8423,158.85775   L 1188.1598,156.14704   L 1184.4262,153.58977   L 1180.5903,151.13479   L 1176.7544,148.7821   L 1172.8162,146.5317   L 1168.7757,144.38359   L 1164.7352,142.33777   L 1160.6436,140.44539   L 1156.4497,138.6553   L 1152.2557,136.91636   L 1148.0107,135.38199   L 1143.7144,133.89877   L 1139.3671,132.56899   L 1134.9686,131.3415   L 1130.5701,130.2163   L 1126.1716,129.24454   L 1121.7219,128.37507   L 1117.2211,127.65903   L 1112.7203,127.04529   L 1108.2195,126.53383   L 1103.7187,126.17581   L 1099.1668,125.92009   L 1094.6148,125.76665   L 1090.114,125.76665   L 1085.5621,125.92009   L 1081.0101,126.17581   L 1076.5093,126.53383   L 1072.0085,127.04529   L 1067.5077,127.65903   L 1063.0069,128.37507   L 1058.5573,129.24454   L 1054.1588,130.2163   L 1049.7603,131.3415   L 1045.3617,132.56899   L 1041.0144,133.89877   L 1036.7182,135.38199   L 1032.4731,136.91636   L 1028.2792,138.6553   L 1024.0852,140.44539   L 1019.9936,142.33777   L 1015.9531,144.38359   L 1011.9126,146.5317   L 1007.9744,148.7821   L 1004.1385,151.13479   L 1000.3026,153.58977   L 996.56899,156.14704   L 992.88652,158.85775   L 989.30634,161.61961   L 985.7773,164.48375   L 982.35056,167.45019   L 978.97496,170.46777   L 975.70165,173.63879   L 972.53063,176.86095   L 969.41076,180.1854   L 966.39318,183.561   L 963.47789,187.03889   L 960.66489,190.61907   L 957.95418,194.2504   L 955.34576,197.93287   L 952.83964,201.71763   L 950.4358,205.55354   L 948.13426,209.49174   L 945.935,213.42994   L 943.83804,217.47043   L 941.84337,221.56207   L 940.00213,225.70485   L 938.26319,229.89877   L 936.62653,234.14385   L 935.09217,238.38892   L 933.71124,242.73628   L 932.38146,247.08364   L 931.25626,251.43101   L 930.18221,255.88066   L 929.26159,260.33031   L 928.49441,264.77997   L 927.77837,269.28077   L 927.21577,273.78157   L 926.80661,278.28237   L 926.49973,282.83431   L 926.29515,287.33511   L 926.24401,291.88705   L 926.29515,296.439   L 926.49973,300.9398   L 926.80661,305.49174   L 927.21577,309.99254   L 927.77837,314.49334   L 928.49441,318.99414   L 929.26159,323.44379   L 930.18221,327.89345   L 931.25626,332.3431   L 932.38146,336.69046   L 933.71124,341.03783   L 935.09217,345.38519   L 936.62653,349.63026   L 938.26319,353.87533   L 940.00213,358.06926   L 941.84337,362.21204   L 943.83804,366.30368   L 945.935,370.34417   L 948.13426,374.28237   L 950.4358,378.22056   L 952.83964,382.05647   L 955.34576,385.84124   L 957.95418,389.52371   L 960.66489,393.15503   L 963.47789,396.73522   L 966.39318,400.21311   L 969.41076,403.58871   L 972.53063,406.91316   L 975.70165,410.13532   L 978.97496,413.30634   L 982.35056,416.32392   L 985.7773,419.29036   L 989.30634,422.1545   L 992.88652,424.91636   L 996.56899,427.62706   L 1000.3026,430.18434   L 1004.1385,432.63932   L 1007.9744,434.99201   L 1011.9126,437.24241   L 1015.9531,439.39052   L 1019.9936,441.43633   L 1024.0852,443.32872   L 1028.2792,445.11881   L 1032.4731,446.85775   L 1036.7182,448.39212   L 1041.0144,449.87533   L 1045.3617,451.20511   L 1049.7603,452.43261   L 1054.1588,453.55781   L 1058.5573,454.52957   L 1063.0069,455.39904   L 1067.5077,456.11508   L 1072.0085,456.72882   L 1076.5093,457.24028   L 1081.0101,457.5983   L 1085.5621,457.85402   L 1090.114,458.00746   L 1094.6148,458.00746   L 1099.1668,457.85402   L 1103.7187,457.5983   L 1108.2195,457.24028   L 1112.7203,456.72882   L 1117.2211,456.11508   L 1121.7219,455.39904   L 1126.1716,454.52957   L 1130.5701,453.55781   L 1134.9686,452.43261   L 1139.3671,451.20511   L 1143.7144,449.87533   L 1148.0107,448.39212   L 1152.2557,446.85775   L 1156.4497,445.11881   L 1160.6436,443.32872   L 1164.7352,441.43633   L 1168.7757,439.39052   L 1172.8162,437.24241   L 1176.7544,434.99201   L 1180.5903,432.63932   L 1184.4262,430.18434   L 1188.1598,427.62706   L 1191.8423,424.91636   L 1195.4225,422.1545   L 1198.9515,419.29036   L 1202.3783,416.32392   L 1205.7539,413.30634   L 1209.0272,410.13532   L 1212.1982,406.91316   L 1215.3181,403.58871   L 1218.3356,400.21311   L 1221.2509,396.73522   L 1224.0639,393.15503   L 1226.7746,389.52371   L 1229.3831,385.84124   L 1231.8892,382.05647   L 1234.293,378.22056   L 1236.5946,374.28237   L 1238.7938,370.34417   L 1240.8908,366.30368   L 1242.8855,362.21204   L 1244.7267,358.06926   L 1246.4656,353.87533   L 1248.1023,349.63026   L 1249.6367,345.38519   L 1251.0176,341.03783   L 1252.3474,336.69046   L 1253.4726,332.3431   L 1254.5466,327.89345   L 1255.4672,323.44379   L 1256.2344,318.99414   L 1256.9505,314.49334   L 1257.5131,309.99254   L 1257.9222,305.49174   L 1258.2291,300.9398   L 1258.4337,296.439   L 1258.4848,291.88705  z " style="fill:none;stroke:#000000;stroke-width:8px;stroke-linecap:round;stroke-linejoin:round;stroke-miterlimit:4;stroke-dasharray:none;stroke-opacity:1;"/>
</svg>