<svg xmlns:dc="http://purl.org/dc/elements/1.1/" xmlns:cc="http://creativecommons.org/ns#" xmlns:rdf="http://www.w3.org/1999/02/22-rdf-syntax-ns#" xmlns:svg="http://www.w3.org/2000/svg" xmlns="http://www.w3.org/2000/svg" id="svg161" version="1.0" viewBox="209.42 0.83 1228.13 1269.33">
  <metadata id="metadata165">
    <rdf:RDF>
      <cc:Work rdf:about="">
        <dc:format>image/svg+xml</dc:format>
        <dc:type rdf:resource="http://purl.org/dc/dcmitype/StillImage"/>
      </cc:Work>
    </rdf:RDF>
  </metadata>
  <defs id="defs3">
    <pattern y="0" x="0" height="6" width="6" patternUnits="userSpaceOnUse" id="WMFhbasepattern"/>
  </defs>
  <path id="path5" d="  M 210.4186,22.731501   L 211.9408,23.188161   L 216.35518,23.64482   L 223.00211,24.10148   L 230.81607,24.55814  " style="fill:none;stroke:#000000;stroke-width:0.5rem;stroke-linecap:round;stroke-linejoin:round;stroke-miterlimit:4;stroke-dasharray:none;stroke-opacity:1;"/>
  <path id="path7" d="  M 230.81607,1246.4271   L 223.00211,1246.8837   L 216.35518,1247.3404   L 211.9408,1247.797   L 210.4186,1248.2537  " style="fill:none;stroke:#000000;stroke-width:0.5rem;stroke-linecap:round;stroke-linejoin:round;stroke-miterlimit:4;stroke-dasharray:none;stroke-opacity:1;"/>
  <path id="path9" d="  M 230.81607,1246.4271   L 225.48837,1247.3404   L 223.86469,1247.797   L 223.30655,1248.2537  " style="fill:none;stroke:#000000;stroke-width:0.5rem;stroke-linecap:round;stroke-linejoin:round;stroke-miterlimit:4;stroke-dasharray:none;stroke-opacity:1;"/>
  <path id="path11" d="  M 230.30867,1268.4989   L 230.81607,1268.6512   L 231.32347,1268.8034   L 231.78013,1267.2304   L 231.27273,1267.0782   L 230.76533,1266.926  z " style="fill:#000000;fill-rule:evenodd;fill-opacity:1;stroke:none;"/>
  <path id="path13" d="  M 230.30867,1268.4989   L 230.81607,1268.6512   L 231.32347,1268.8034   L 231.78013,1267.2304   L 231.27273,1267.0782   L 230.76533,1266.926   L 230.30867,1268.4989  z " style="fill:none;stroke:#000000;stroke-width:0.5rem;stroke-linecap:round;stroke-linejoin:round;stroke-miterlimit:4;stroke-dasharray:none;stroke-opacity:1;"/>
  <path id="path15" d="  M 231.27273,1267.0782   L 231.78013,1267.2304   L 231.78013,1267.1797   L 231.78013,1267.129  z " style="fill:#000000;fill-rule:evenodd;fill-opacity:1;stroke:none;"/>
  <path id="path17" d="  M 231.78013,1267.2304   L 231.78013,1267.1797   L 231.78013,1267.129  " style="fill:none;stroke:#000000;stroke-width:0.5rem;stroke-linecap:round;stroke-linejoin:round;stroke-miterlimit:4;stroke-dasharray:none;stroke-opacity:1;"/>
  <path id="path19" d="  M 230.76533,1267.0275   L 231.27273,1267.0782   L 231.78013,1267.129   L 232.23679,1262.7146   L 231.72939,1262.6638   L 231.22199,1262.6131  z " style="fill:#000000;fill-rule:evenodd;fill-opacity:1;stroke:none;"/>
  <path id="path21" d="  M 230.76533,1267.0275   L 231.27273,1267.0782   L 231.78013,1267.129   L 232.23679,1262.7146   L 231.72939,1262.6638   L 231.22199,1262.6131   L 230.76533,1267.0275  z " style="fill:none;stroke:#000000;stroke-width:0.5rem;stroke-linecap:round;stroke-linejoin:round;stroke-miterlimit:4;stroke-dasharray:none;stroke-opacity:1;"/>
  <path id="path23" d="  M 231.72939,1262.6638   L 232.23679,1262.7146   L 232.23679,1262.7146   L 232.23679,1262.7146  z " style="fill:#000000;fill-rule:evenodd;fill-opacity:1;stroke:none;"/>
  <path id="path25" d="  M 232.23679,1262.7146   L 232.23679,1262.7146   L 232.23679,1262.7146  z " style="fill:none;stroke:#000000;stroke-width:0.5rem;stroke-linecap:round;stroke-linejoin:round;stroke-miterlimit:4;stroke-dasharray:none;stroke-opacity:1;"/>
  <path id="path27" d="  M 231.22199,1262.6131   L 231.72939,1262.6638   L 232.23679,1262.7146   L 232.69345,1256.1184   L 232.18605,1256.0677   L 231.67865,1256.0169  z " style="fill:#000000;fill-rule:evenodd;fill-opacity:1;stroke:none;"/>
  <path id="path29" d="  M 231.22199,1262.6131   L 231.72939,1262.6638   L 232.23679,1262.7146   L 232.69345,1256.1184   L 232.18605,1256.0677   L 231.67865,1256.0169   L 231.22199,1262.6131  z " style="fill:none;stroke:#000000;stroke-width:0.5rem;stroke-linecap:round;stroke-linejoin:round;stroke-miterlimit:4;stroke-dasharray:none;stroke-opacity:1;"/>
  <path id="path31" d="  M 232.18605,1256.0677   L 232.69345,1256.1184   L 232.69345,1256.1184   L 232.69345,1256.1184  z " style="fill:#000000;fill-rule:evenodd;fill-opacity:1;stroke:none;"/>
  <path id="path33" d="  M 232.69345,1256.1184   L 232.69345,1256.1184   L 232.69345,1256.1184  z " style="fill:none;stroke:#000000;stroke-width:0.5rem;stroke-linecap:round;stroke-linejoin:round;stroke-miterlimit:4;stroke-dasharray:none;stroke-opacity:1;"/>
  <path id="path35" d="  M 231.67865,1256.0169   L 232.18605,1256.0677   L 232.69345,1256.1184   L 233.15011,1248.3044   L 232.64271,1248.2537   L 232.13531,1248.203  z " style="fill:#000000;fill-rule:evenodd;fill-opacity:1;stroke:none;"/>
  <path id="path37" d="  M 231.67865,1256.0169   L 232.18605,1256.0677   L 232.69345,1256.1184   L 233.15011,1248.3044   L 232.64271,1248.2537   L 232.13531,1248.203   L 231.67865,1256.0169  z " style="fill:none;stroke:#000000;stroke-width:0.5rem;stroke-linecap:round;stroke-linejoin:round;stroke-miterlimit:4;stroke-dasharray:none;stroke-opacity:1;"/>
  <path id="path39" d="  M 230.81607,1255.7125   L 231.27273,1255.1543   L 231.72939,1253.5307   L 232.64271,1248.2537  " style="fill:none;stroke:#000000;stroke-width:0.5rem;stroke-linecap:round;stroke-linejoin:round;stroke-miterlimit:4;stroke-dasharray:none;stroke-opacity:1;"/>
  <path id="path41" d="  M 223.30655,22.731501   L 223.86469,23.188161   L 225.48837,23.64482   L 230.81607,24.55814  " style="fill:none;stroke:#000000;stroke-width:0.5rem;stroke-linecap:round;stroke-linejoin:round;stroke-miterlimit:4;stroke-dasharray:none;stroke-opacity:1;"/>
  <path id="path43" d="  M 232.13531,22.782241   L 232.64271,22.731501   L 233.15011,22.680761   L 232.69345,14.866808   L 232.18605,14.917548   L 231.67865,14.968288  z " style="fill:#000000;fill-rule:evenodd;fill-opacity:1;stroke:none;"/>
  <path id="path45" d="  M 232.13531,22.782241   L 232.64271,22.731501   L 233.15011,22.680761   L 232.69345,14.866808   L 232.18605,14.917548   L 231.67865,14.968288   L 232.13531,22.782241  z " style="fill:none;stroke:#000000;stroke-width:0.5rem;stroke-linecap:round;stroke-linejoin:round;stroke-miterlimit:4;stroke-dasharray:none;stroke-opacity:1;"/>
  <path id="path47" d="  M 232.18605,14.917548   L 232.69345,14.866808   L 232.69345,14.866808   L 232.69345,14.866808  z " style="fill:#000000;fill-rule:evenodd;fill-opacity:1;stroke:none;"/>
  <path id="path49" d="  M 232.69345,14.866808   L 232.69345,14.866808   L 232.69345,14.866808  z " style="fill:none;stroke:#000000;stroke-width:0.5rem;stroke-linecap:round;stroke-linejoin:round;stroke-miterlimit:4;stroke-dasharray:none;stroke-opacity:1;"/>
  <path id="path51" d="  M 231.67865,14.968288   L 232.18605,14.917548   L 232.69345,14.866808   L 232.23679,8.2706131   L 231.72939,8.3213531   L 231.22199,8.372093  z " style="fill:#000000;fill-rule:evenodd;fill-opacity:1;stroke:none;"/>
  <path id="path53" d="  M 231.67865,14.968288   L 232.18605,14.917548   L 232.69345,14.866808   L 232.23679,8.2706131   L 231.72939,8.3213531   L 231.22199,8.372093   L 231.67865,14.968288  z " style="fill:none;stroke:#000000;stroke-width:0.5rem;stroke-linecap:round;stroke-linejoin:round;stroke-miterlimit:4;stroke-dasharray:none;stroke-opacity:1;"/>
  <path id="path55" d="  M 231.72939,8.3213531   L 232.23679,8.2706131   L 232.23679,8.2706131   L 232.23679,8.2706131  z " style="fill:#000000;fill-rule:evenodd;fill-opacity:1;stroke:none;"/>
  <path id="path57" d="  M 232.23679,8.2706131   L 232.23679,8.2706131   L 232.23679,8.2706131  z " style="fill:none;stroke:#000000;stroke-width:0.5rem;stroke-linecap:round;stroke-linejoin:round;stroke-miterlimit:4;stroke-dasharray:none;stroke-opacity:1;"/>
  <path id="path59" d="  M 231.22199,8.372093   L 231.72939,8.3213531   L 232.23679,8.2706131   L 231.78013,3.8562368   L 231.27273,3.9069767   L 230.76533,3.9577167  z " style="fill:#000000;fill-rule:evenodd;fill-opacity:1;stroke:none;"/>
  <path id="path61" d="  M 231.22199,8.372093   L 231.72939,8.3213531   L 232.23679,8.2706131   L 231.78013,3.8562368   L 231.27273,3.9069767   L 230.76533,3.9577167   L 231.22199,8.372093  z " style="fill:none;stroke:#000000;stroke-width:0.5rem;stroke-linecap:round;stroke-linejoin:round;stroke-miterlimit:4;stroke-dasharray:none;stroke-opacity:1;"/>
  <path id="path63" d="  M 231.27273,3.9069767   L 231.78013,3.8562368   L 231.78013,3.8054968   L 231.78013,3.7547569  z " style="fill:#000000;fill-rule:evenodd;fill-opacity:1;stroke:none;"/>
  <path id="path65" d="  M 231.78013,3.8562368   L 231.78013,3.8054968   L 231.78013,3.7547569  " style="fill:none;stroke:#000000;stroke-width:0.5rem;stroke-linecap:round;stroke-linejoin:round;stroke-miterlimit:4;stroke-dasharray:none;stroke-opacity:1;"/>
  <path id="path67" d="  M 230.76533,4.0591966   L 231.27273,3.9069767   L 231.78013,3.7547569   L 231.32347,2.1818182   L 230.81607,2.3340381   L 230.30867,2.4862579  z " style="fill:#000000;fill-rule:evenodd;fill-opacity:1;stroke:none;"/>
  <path id="path69" d="  M 230.76533,4.0591966   L 231.27273,3.9069767   L 231.78013,3.7547569   L 231.32347,2.1818182   L 230.81607,2.3340381   L 230.30867,2.4862579   L 230.76533,4.0591966  z " style="fill:none;stroke:#000000;stroke-width:0.5rem;stroke-linecap:round;stroke-linejoin:round;stroke-miterlimit:4;stroke-dasharray:none;stroke-opacity:1;"/>
  <path id="path71" d="  M 232.64271,22.731501   L 231.72939,17.454545   L 231.27273,15.830867   L 230.81607,15.272727  " style="fill:none;stroke:#000000;stroke-width:0.5rem;stroke-linecap:round;stroke-linejoin:round;stroke-miterlimit:4;stroke-dasharray:none;stroke-opacity:1;"/>
  <path id="path73" d="  M 230.81607,24.55814   L 287.79704,81.589852  " style="fill:none;stroke:#000000;stroke-width:0.5rem;stroke-linecap:round;stroke-linejoin:round;stroke-miterlimit:4;stroke-dasharray:none;stroke-opacity:1;"/>
  <path id="path75" d="  M 287.79704,1189.3953   L 287.79704,81.589852  " style="fill:none;stroke:#000000;stroke-width:0.5rem;stroke-linecap:round;stroke-linejoin:round;stroke-miterlimit:4;stroke-dasharray:none;stroke-opacity:1;"/>
  <path id="path77" d="  M 287.79704,1189.3953   L 230.81607,1246.4271  " style="fill:none;stroke:#000000;stroke-width:0.5rem;stroke-linecap:round;stroke-linejoin:round;stroke-miterlimit:4;stroke-dasharray:none;stroke-opacity:1;"/>
  <path id="path79" d="  M 230.81607,24.55814   L 230.81607,1246.4271  " style="fill:none;stroke:#000000;stroke-width:0.5rem;stroke-linecap:round;stroke-linejoin:round;stroke-miterlimit:4;stroke-dasharray:none;stroke-opacity:1;"/>
  <path id="path81" d="  M 232.64271,1248.2537   L 289.62368,1191.222  " style="fill:none;stroke:#000000;stroke-width:0.5rem;stroke-linecap:round;stroke-linejoin:round;stroke-miterlimit:4;stroke-dasharray:none;stroke-opacity:1;"/>
  <path id="path83" d="  M 1436.0423,1191.222   L 289.62368,1191.222  " style="fill:none;stroke:#000000;stroke-width:0.5rem;stroke-linecap:round;stroke-linejoin:round;stroke-miterlimit:4;stroke-dasharray:none;stroke-opacity:1;"/>
  <path id="path85" d="  M 210.4186,1248.2537   L 210.4186,22.731501  " style="fill:none;stroke:#000000;stroke-width:0.5rem;stroke-linecap:round;stroke-linejoin:round;stroke-miterlimit:4;stroke-dasharray:none;stroke-opacity:1;"/>
  <path id="path87" d="  M 1436.0423,1269.1586   L 1436.0423,1268.6512   L 1436.0423,1268.1438   L 230.81607,1268.1438   L 230.81607,1268.6512   L 230.81607,1269.1586  z " style="fill:#000000;fill-rule:evenodd;fill-opacity:1;stroke:none;"/>
  <path id="path89" d="  M 1436.0423,1269.1586   L 1436.0423,1268.6512   L 1436.0423,1268.1438   L 230.81607,1268.1438   L 230.81607,1268.6512   L 230.81607,1269.1586   L 1436.0423,1269.1586  z " style="fill:none;stroke:#000000;stroke-width:0.5rem;stroke-linecap:round;stroke-linejoin:round;stroke-miterlimit:4;stroke-dasharray:none;stroke-opacity:1;"/>
  <path id="path91" d="  M 1436.5497,2.3340381   L 1436.0423,2.3340381   L 1435.5349,2.3340381   L 1435.5349,1268.6512   L 1436.0423,1268.6512   L 1436.5497,1268.6512  z " style="fill:#000000;fill-rule:evenodd;fill-opacity:1;stroke:none;"/>
  <path id="path93" d="  M 1436.5497,2.3340381   L 1436.0423,2.3340381   L 1435.5349,2.3340381   L 1435.5349,1268.6512   L 1436.0423,1268.6512   L 1436.5497,1268.6512   L 1436.5497,2.3340381  z " style="fill:none;stroke:#000000;stroke-width:0.5rem;stroke-linecap:round;stroke-linejoin:round;stroke-miterlimit:4;stroke-dasharray:none;stroke-opacity:1;"/>
  <path id="path95" d="  M 289.62368,79.763214   L 1436.0423,79.763214  " style="fill:none;stroke:#000000;stroke-width:0.5rem;stroke-linecap:round;stroke-linejoin:round;stroke-miterlimit:4;stroke-dasharray:none;stroke-opacity:1;"/>
  <path id="path97" d="  M 289.62368,79.763214   L 232.64271,22.731501  " style="fill:none;stroke:#000000;stroke-width:0.5rem;stroke-linecap:round;stroke-linejoin:round;stroke-miterlimit:4;stroke-dasharray:none;stroke-opacity:1;"/>
  <path id="path99" d="  M 230.81607,1.8266385   L 230.81607,2.3340381   L 230.81607,2.8414376   L 1436.0423,2.8414376   L 1436.0423,2.3340381   L 1436.0423,1.8266385  z " style="fill:#000000;fill-rule:evenodd;fill-opacity:1;stroke:none;"/>
  <path id="path101" d="  M 230.81607,1.8266385   L 230.81607,2.3340381   L 230.81607,2.8414376   L 1436.0423,2.8414376   L 1436.0423,2.3340381   L 1436.0423,1.8266385   L 230.81607,1.8266385  z " style="fill:none;stroke:#000000;stroke-width:0.5rem;stroke-linecap:round;stroke-linejoin:round;stroke-miterlimit:4;stroke-dasharray:none;stroke-opacity:1;"/>
  <path id="path103" d="  M 231.32347,1255.7125   L 230.81607,1255.7125   L 230.30867,1255.7125   L 230.30867,1268.6512   L 230.81607,1268.6512   L 231.32347,1268.6512  z " style="fill:#000000;fill-rule:evenodd;fill-opacity:1;stroke:none;"/>
  <path id="path105" d="  M 231.32347,1255.7125   L 230.81607,1255.7125   L 230.30867,1255.7125   L 230.30867,1268.6512   L 230.81607,1268.6512   L 231.32347,1268.6512   L 231.32347,1255.7125  z " style="fill:none;stroke:#000000;stroke-width:0.5rem;stroke-linecap:round;stroke-linejoin:round;stroke-miterlimit:4;stroke-dasharray:none;stroke-opacity:1;"/>
  <path id="path107" d="  M 210.4186,1248.2537   L 1436.0423,1248.2537  " style="fill:none;stroke:#000000;stroke-width:0.5rem;stroke-linecap:round;stroke-linejoin:round;stroke-miterlimit:4;stroke-dasharray:none;stroke-opacity:1;"/>
  <path id="path109" d="  M 230.30867,15.272727   L 230.81607,15.272727   L 231.32347,15.272727   L 231.32347,2.3340381   L 230.81607,2.3340381   L 230.30867,2.3340381  z " style="fill:#000000;fill-rule:evenodd;fill-opacity:1;stroke:none;"/>
  <path id="path111" d="  M 230.30867,15.272727   L 230.81607,15.272727   L 231.32347,15.272727   L 231.32347,2.3340381   L 230.81607,2.3340381   L 230.30867,2.3340381   L 230.30867,15.272727  z " style="fill:none;stroke:#000000;stroke-width:0.5rem;stroke-linecap:round;stroke-linejoin:round;stroke-miterlimit:4;stroke-dasharray:none;stroke-opacity:1;"/>
  <path id="path113" d="  M 1436.0423,22.731501   L 210.4186,22.731501  " style="fill:none;stroke:#000000;stroke-width:0.5rem;stroke-linecap:round;stroke-linejoin:round;stroke-miterlimit:4;stroke-dasharray:none;stroke-opacity:1;"/>
  <path id="path115" d="  M 677.47992,639.37421   L 687.83087,639.37421  " style="fill:none;stroke:#000000;stroke-width:0.5rem;stroke-linecap:round;stroke-linejoin:round;stroke-miterlimit:4;stroke-dasharray:none;stroke-opacity:1;"/>
  <path id="path117" d="  M 825.79281,787.6871   L 825.79281,777.33615  " style="fill:none;stroke:#000000;stroke-width:0.5rem;stroke-linecap:round;stroke-linejoin:round;stroke-miterlimit:4;stroke-dasharray:none;stroke-opacity:1;"/>
  <path id="path119" d="  M 825.79281,483.2981   L 825.79281,493.64905  " style="fill:none;stroke:#000000;stroke-width:0.5rem;stroke-linecap:round;stroke-linejoin:round;stroke-miterlimit:4;stroke-dasharray:none;stroke-opacity:1;"/>
  <path id="path121" d="  M 677.47992,631.61099   L 687.83087,631.61099  " style="fill:none;stroke:#000000;stroke-width:0.5rem;stroke-linecap:round;stroke-linejoin:round;stroke-miterlimit:4;stroke-dasharray:none;stroke-opacity:1;"/>
  <path id="path123" d="  M 981.86892,631.61099   L 971.56871,631.61099  " style="fill:none;stroke:#000000;stroke-width:0.5rem;stroke-linecap:round;stroke-linejoin:round;stroke-miterlimit:4;stroke-dasharray:none;stroke-opacity:1;"/>
  <path id="path125" d="  M 833.55603,483.2981   L 833.55603,493.64905  " style="fill:none;stroke:#000000;stroke-width:0.5rem;stroke-linecap:round;stroke-linejoin:round;stroke-miterlimit:4;stroke-dasharray:none;stroke-opacity:1;"/>
  <path id="path127" d="  M 833.55603,787.6871   L 833.55603,777.33615  " style="fill:none;stroke:#000000;stroke-width:0.5rem;stroke-linecap:round;stroke-linejoin:round;stroke-miterlimit:4;stroke-dasharray:none;stroke-opacity:1;"/>
  <path id="path129" d="  M 981.86892,639.37421   L 971.56871,639.37421  " style="fill:none;stroke:#000000;stroke-width:0.5rem;stroke-linecap:round;stroke-linejoin:round;stroke-miterlimit:4;stroke-dasharray:none;stroke-opacity:1;"/>
  <path id="path131" d="  M 1415.6448,79.763214   L 1415.6448,1191.222  " style="fill:none;stroke:#000000;stroke-width:0.5rem;stroke-linecap:round;stroke-linejoin:round;stroke-miterlimit:4;stroke-dasharray:none;stroke-opacity:1;"/>
  <path id="path133" d="  M 243.70402,33.792812   L 243.70402,37.446089  " style="fill:none;stroke:#000000;stroke-width:0.5rem;stroke-linecap:round;stroke-linejoin:round;stroke-miterlimit:4;stroke-dasharray:none;stroke-opacity:1;"/>
  <path id="path135" d="  M 243.70402,1233.5391   L 243.70402,1237.1924  " style="fill:none;stroke:#000000;stroke-width:0.5rem;stroke-linecap:round;stroke-linejoin:round;stroke-miterlimit:4;stroke-dasharray:none;stroke-opacity:1;"/>
  <path id="path137" d="  M 210.46934,1248.2537   L 210.52008,1249.7252   L 210.6723,1251.1459   L 210.926,1252.5666   L 211.28118,1253.9873   L 211.73784,1255.3573   L 212.29598,1256.7273   L 212.9556,1257.9958   L 213.7167,1259.2643   L 214.52854,1260.4313   L 215.44186,1261.5983   L 216.40592,1262.6638   L 217.47146,1263.6279   L 218.63848,1264.5412   L 219.8055,1265.3531   L 221.074,1266.1142   L 222.34249,1266.7738   L 223.71247,1267.3319   L 225.08245,1267.7886   L 226.50317,1268.1438   L 227.92389,1268.3975   L 229.34461,1268.5497   L 230.81607,1268.6004  " style="fill:none;stroke:#000000;stroke-width:0.5rem;stroke-linecap:round;stroke-linejoin:round;stroke-miterlimit:4;stroke-dasharray:none;stroke-opacity:1;"/>
  <path id="path139" d="  M 223.35729,1248.2537   L 223.40803,1249.0655   L 223.56025,1249.9281   L 223.76321,1250.74   L 224.11839,1251.5011   L 224.52431,1252.2114   L 224.98097,1252.9218   L 225.53911,1253.5307   L 226.14799,1254.0888   L 226.85835,1254.5455   L 227.56871,1254.9514   L 228.32981,1255.3066   L 229.14165,1255.5095   L 230.00423,1255.6617   L 230.81607,1255.7125  " style="fill:none;stroke:#000000;stroke-width:0.5rem;stroke-linecap:round;stroke-linejoin:round;stroke-miterlimit:4;stroke-dasharray:none;stroke-opacity:1;"/>
  <path id="path141" d="  M 230.81607,2.384778   L 229.34461,2.435518   L 227.92389,2.5877378   L 226.50317,2.8414376   L 225.08245,3.1966173   L 223.71247,3.653277   L 222.34249,4.2114165   L 221.074,4.8710359   L 219.8055,5.6321353   L 218.63848,6.4439746   L 217.47146,7.3572939   L 216.40592,8.3213531   L 215.44186,9.3868922   L 214.52854,10.553911   L 213.7167,11.72093   L 212.9556,12.989429   L 212.29598,14.257928   L 211.73784,15.627907   L 211.28118,16.997886   L 210.926,18.418605   L 210.6723,19.839323   L 210.52008,21.260042   L 210.46934,22.731501  " style="fill:none;stroke:#000000;stroke-width:0.5rem;stroke-linecap:round;stroke-linejoin:round;stroke-miterlimit:4;stroke-dasharray:none;stroke-opacity:1;"/>
  <path id="path143" d="  M 230.81607,15.272727   L 230.00423,15.323467   L 229.14165,15.475687   L 228.32981,15.678647   L 227.56871,16.033827   L 226.85835,16.439746   L 226.14799,16.896406   L 225.53911,17.454545   L 224.98097,18.063425   L 224.52431,18.773784   L 224.11839,19.484144   L 223.76321,20.245243   L 223.56025,21.057082   L 223.40803,21.919662   L 223.35729,22.731501  " style="fill:none;stroke:#000000;stroke-width:0.5rem;stroke-linecap:round;stroke-linejoin:round;stroke-miterlimit:4;stroke-dasharray:none;stroke-opacity:1;"/>
  <path id="path145" d="  M 677.53066,639.32347   L 677.68288,643.63636   L 677.98732,647.89852   L 678.39323,652.16068   L 678.95137,656.42283   L 679.56025,660.63425   L 680.32135,664.84567   L 681.23467,669.05708   L 682.24947,673.21776   L 683.36575,677.3277   L 684.58351,681.43763   L 685.95349,685.49683   L 687.42495,689.55603   L 688.99789,693.51374   L 690.6723,697.47146   L 692.49894,701.3277   L 694.37632,705.18393   L 696.40592,708.98943   L 698.537,712.69345   L 700.76956,716.34672   L 703.05285,719.94926   L 705.48837,723.50106   L 708.02537,726.95137   L 710.66385,730.35095   L 713.35307,733.64905   L 716.1945,736.89641   L 719.08668,740.04228   L 722.08034,743.08668   L 725.12474,746.08034   L 728.27061,748.97252   L 731.51797,751.81395   L 734.81607,754.50317   L 738.21564,757.14165   L 741.66596,759.67865   L 745.21776,762.11416   L 748.8203,764.39746   L 752.47357,766.63002   L 756.17759,768.7611   L 759.98309,770.7907   L 763.83932,772.66808   L 767.69556,774.49471   L 771.65328,776.16913   L 775.61099,777.74207   L 779.67019,779.21353   L 783.72939,780.58351   L 787.83932,781.80127   L 791.94926,782.91755   L 796.10994,783.93235   L 800.32135,784.84567   L 804.53277,785.60677   L 808.74419,786.21564   L 813.00634,786.77378   L 817.2685,787.1797   L 821.53066,787.48414   L 825.84355,787.63636  " style="fill:none;stroke:#000000;stroke-width:0.5rem;stroke-linecap:round;stroke-linejoin:round;stroke-miterlimit:4;stroke-dasharray:none;stroke-opacity:1;"/>
  <path id="path147" d="  M 687.88161,639.32347   L 688.03383,643.48414   L 688.33827,647.59408   L 688.74419,651.70402   L 689.30233,655.81395   L 689.96195,659.87315   L 690.72304,663.98309   L 691.63636,667.99154   L 692.60042,672   L 693.76744,676.00846   L 694.9852,679.96617   L 696.35518,683.87315   L 697.82664,687.72939   L 699.39958,691.53488   L 701.074,695.34038   L 702.84989,699.0444   L 704.77801,702.69767   L 706.80761,706.30021   L 708.88795,709.90275   L 711.12051,713.35307   L 713.45455,716.80338   L 715.89006,720.15222   L 718.37632,723.45032   L 721.0148,726.64693   L 723.70402,729.74207   L 726.49471,732.83721   L 729.38689,735.78013   L 732.32981,738.6723   L 735.42495,741.463   L 738.52008,744.15222   L 741.7167,746.7907   L 745.0148,749.27696   L 748.36364,751.71247   L 751.81395,754.04651   L 755.26427,756.27907   L 758.86681,758.35941   L 762.46934,760.38901   L 766.12262,762.31712   L 769.82664,764.09302   L 773.63214,765.76744   L 777.43763,767.34038   L 781.29387,768.81184   L 785.20085,770.18182   L 789.15856,771.39958   L 793.16702,772.5666   L 797.17548,773.53066   L 801.18393,774.44397   L 805.29387,775.20507   L 809.35307,775.86469   L 813.463,776.42283   L 817.57294,776.82875   L 821.68288,777.13319   L 825.84355,777.28541  " style="fill:none;stroke:#000000;stroke-width:0.5rem;stroke-linecap:round;stroke-linejoin:round;stroke-miterlimit:4;stroke-dasharray:none;stroke-opacity:1;"/>
  <path id="path149" d="  M 825.84355,483.2981   L 821.53066,483.45032   L 817.2685,483.75476   L 813.00634,484.16068   L 808.74419,484.71882   L 804.53277,485.3277   L 800.32135,486.08879   L 796.10994,487.00211   L 791.94926,488.01691   L 787.83932,489.13319   L 783.72939,490.35095   L 779.67019,491.72093   L 775.61099,493.19239   L 771.65328,494.76533   L 767.69556,496.43975   L 763.83932,498.26638   L 759.98309,500.14376   L 756.17759,502.17336   L 752.47357,504.30444   L 748.8203,506.537   L 745.21776,508.8203   L 741.66596,511.25581   L 738.21564,513.79281   L 734.81607,516.43129   L 731.51797,519.12051   L 728.27061,521.96195   L 725.12474,524.85412   L 722.08034,527.84778   L 719.08668,530.89218   L 716.1945,534.03805   L 713.35307,537.28541   L 710.66385,540.58351   L 708.02537,543.98309   L 705.48837,547.4334   L 703.05285,550.9852   L 700.76956,554.58774   L 698.537,558.24101   L 696.40592,561.94503   L 694.37632,565.75053   L 692.49894,569.60677   L 690.6723,573.463   L 688.99789,577.42072   L 687.42495,581.37844   L 685.95349,585.43763   L 684.58351,589.49683   L 683.36575,593.60677   L 682.24947,597.7167   L 681.23467,601.87738   L 680.32135,606.08879   L 679.56025,610.30021   L 678.95137,614.51163   L 678.39323,618.77378   L 677.98732,623.03594   L 677.68288,627.2981   L 677.53066,631.61099  " style="fill:none;stroke:#000000;stroke-width:0.5rem;stroke-linecap:round;stroke-linejoin:round;stroke-miterlimit:4;stroke-dasharray:none;stroke-opacity:1;"/>
  <path id="path151" d="  M 825.84355,493.64905   L 821.68288,493.80127   L 817.57294,494.10571   L 813.463,494.51163   L 809.35307,495.06977   L 805.29387,495.72939   L 801.18393,496.49049   L 797.17548,497.40381   L 793.16702,498.36786   L 789.15856,499.53488   L 785.20085,500.75264   L 781.29387,502.12262   L 777.43763,503.59408   L 773.63214,505.16702   L 769.82664,506.84144   L 766.12262,508.61734   L 762.46934,510.54545   L 758.86681,512.57505   L 755.26427,514.65539   L 751.81395,516.88795   L 748.36364,519.22199   L 745.0148,521.65751   L 741.7167,524.14376   L 738.52008,526.78224   L 735.42495,529.47146   L 732.32981,532.26216   L 729.38689,535.15433   L 726.49471,538.09725   L 723.70402,541.19239   L 721.0148,544.28753   L 718.37632,547.48414   L 715.89006,550.78224   L 713.45455,554.13108   L 711.12051,557.5814   L 708.88795,561.03171   L 706.80761,564.63425   L 704.77801,568.23679   L 702.84989,571.89006   L 701.074,575.59408   L 699.39958,579.39958   L 697.82664,583.20507   L 696.35518,587.06131   L 694.9852,590.96829   L 693.76744,594.926   L 692.60042,598.93446   L 691.63636,602.94292   L 690.72304,606.95137   L 689.96195,611.06131   L 689.30233,615.12051   L 688.74419,619.23044   L 688.33827,623.34038   L 688.03383,627.45032   L 687.88161,631.61099  " style="fill:none;stroke:#000000;stroke-width:0.5rem;stroke-linecap:round;stroke-linejoin:round;stroke-miterlimit:4;stroke-dasharray:none;stroke-opacity:1;"/>
  <path id="path153" d="  M 981.86892,631.61099   L 981.7167,627.2981   L 981.41226,623.03594   L 981.00634,618.77378   L 980.4482,614.51163   L 979.83932,610.30021   L 979.07822,606.08879   L 978.1649,601.87738   L 977.15011,597.7167   L 976.03383,593.60677   L 974.81607,589.49683   L 973.44609,585.43763   L 971.97463,581.37844   L 970.40169,577.42072   L 968.72727,573.463   L 966.90063,569.60677   L 965.02326,565.75053   L 962.99366,561.94503   L 960.86258,558.24101   L 958.63002,554.58774   L 956.34672,550.9852   L 953.91121,547.4334   L 951.37421,543.98309   L 948.73573,540.58351   L 946.04651,537.28541   L 943.20507,534.03805   L 940.3129,530.89218   L 937.31924,527.84778   L 934.27484,524.85412   L 931.12896,521.96195   L 927.88161,519.12051   L 924.58351,516.43129   L 921.18393,513.79281   L 917.73362,511.25581   L 914.18182,508.8203   L 910.57928,506.537   L 906.926,504.30444   L 903.22199,502.17336   L 899.41649,500.14376   L 895.56025,498.26638   L 891.70402,496.43975   L 887.7463,494.76533   L 883.78858,493.19239   L 879.72939,491.72093   L 875.67019,490.35095   L 871.56025,489.13319   L 867.45032,488.01691   L 863.28964,487.00211   L 859.07822,486.08879   L 854.86681,485.3277   L 850.65539,484.71882   L 846.39323,484.16068   L 842.13108,483.75476   L 837.86892,483.45032   L 833.55603,483.2981  " style="fill:none;stroke:#000000;stroke-width:0.5rem;stroke-linecap:round;stroke-linejoin:round;stroke-miterlimit:4;stroke-dasharray:none;stroke-opacity:1;"/>
  <path id="path155" d="  M 971.51797,631.61099   L 971.36575,627.45032   L 971.06131,623.34038   L 970.65539,619.23044   L 970.09725,615.12051   L 969.43763,611.06131   L 968.67653,606.95137   L 967.76321,602.94292   L 966.79915,598.93446   L 965.63214,594.926   L 964.41438,590.96829   L 963.0444,587.06131   L 961.57294,583.20507   L 960,579.39958   L 958.32558,575.59408   L 956.54968,571.89006   L 954.62156,568.23679   L 952.59197,564.63425   L 950.51163,561.03171   L 948.27907,557.5814   L 945.94503,554.13108   L 943.50951,550.78224   L 941.02326,547.48414   L 938.38478,544.28753   L 935.69556,541.19239   L 932.90486,538.09725   L 930.01268,535.15433   L 927.06977,532.26216   L 923.97463,529.47146   L 920.87949,526.78224   L 917.68288,524.14376   L 914.38478,521.65751   L 911.03594,519.22199   L 907.58562,516.88795   L 904.13531,514.65539   L 900.53277,512.57505   L 896.93023,510.54545   L 893.27696,508.61734   L 889.57294,506.84144   L 885.76744,505.16702   L 881.96195,503.59408   L 878.10571,502.12262   L 874.19873,500.75264   L 870.24101,499.53488   L 866.23256,498.36786   L 862.2241,497.40381   L 858.21564,496.49049   L 854.10571,495.72939   L 850.04651,495.06977   L 845.93658,494.51163   L 841.82664,494.10571   L 837.7167,493.80127   L 833.55603,493.64905  " style="fill:none;stroke:#000000;stroke-width:0.5rem;stroke-linecap:round;stroke-linejoin:round;stroke-miterlimit:4;stroke-dasharray:none;stroke-opacity:1;"/>
  <path id="path157" d="  M 833.55603,787.63636   L 837.86892,787.48414   L 842.13108,787.1797   L 846.39323,786.77378   L 850.65539,786.21564   L 854.86681,785.60677   L 859.07822,784.84567   L 863.28964,783.93235   L 867.45032,782.91755   L 871.56025,781.80127   L 875.67019,780.58351   L 879.72939,779.21353   L 883.78858,777.74207   L 887.7463,776.16913   L 891.70402,774.49471   L 895.56025,772.66808   L 899.41649,770.7907   L 903.22199,768.7611   L 906.926,766.63002   L 910.57928,764.39746   L 914.18182,762.11416   L 917.73362,759.67865   L 921.18393,757.14165   L 924.58351,754.50317   L 927.88161,751.81395   L 931.12896,748.97252   L 934.27484,746.08034   L 937.31924,743.08668   L 940.3129,740.04228   L 943.20507,736.89641   L 946.04651,733.64905   L 948.73573,730.35095   L 951.37421,726.95137   L 953.91121,723.50106   L 956.34672,719.94926   L 958.63002,716.34672   L 960.86258,712.69345   L 962.99366,708.98943   L 965.02326,705.18393   L 966.90063,701.3277   L 968.72727,697.47146   L 970.40169,693.51374   L 971.97463,689.55603   L 973.44609,685.49683   L 974.81607,681.43763   L 976.03383,677.3277   L 977.15011,673.21776   L 978.1649,669.05708   L 979.07822,664.84567   L 979.83932,660.63425   L 980.4482,656.42283   L 981.00634,652.16068   L 981.41226,647.89852   L 981.7167,643.63636   L 981.86892,639.32347  " style="fill:none;stroke:#000000;stroke-width:0.5rem;stroke-linecap:round;stroke-linejoin:round;stroke-miterlimit:4;stroke-dasharray:none;stroke-opacity:1;"/>
  <path id="path159" d="  M 833.55603,777.28541   L 837.7167,777.13319   L 841.82664,776.82875   L 845.93658,776.42283   L 850.04651,775.86469   L 854.10571,775.20507   L 858.21564,774.44397   L 862.2241,773.53066   L 866.23256,772.5666   L 870.24101,771.39958   L 874.19873,770.18182   L 878.10571,768.81184   L 881.96195,767.34038   L 885.76744,765.76744   L 889.57294,764.09302   L 893.27696,762.31712   L 896.93023,760.38901   L 900.53277,758.35941   L 904.13531,756.27907   L 907.58562,754.04651   L 911.03594,751.71247   L 914.38478,749.27696   L 917.68288,746.7907   L 920.87949,744.15222   L 923.97463,741.463   L 927.06977,738.6723   L 930.01268,735.78013   L 932.90486,732.83721   L 935.69556,729.74207   L 938.38478,726.64693   L 941.02326,723.45032   L 943.50951,720.15222   L 945.94503,716.80338   L 948.27907,713.35307   L 950.51163,709.90275   L 952.59197,706.30021   L 954.62156,702.69767   L 956.54968,699.0444   L 958.32558,695.34038   L 960,691.53488   L 961.57294,687.72939   L 963.0444,683.87315   L 964.41438,679.96617   L 965.63214,676.00846   L 966.79915,672   L 967.76321,667.99154   L 968.67653,663.98309   L 969.43763,659.87315   L 970.09725,655.81395   L 970.65539,651.70402   L 971.06131,647.59408   L 971.36575,643.48414   L 971.51797,639.32347  " style="fill:none;stroke:#000000;stroke-width:0.5rem;stroke-linecap:round;stroke-linejoin:round;stroke-miterlimit:4;stroke-dasharray:none;stroke-opacity:1;"/>
</svg>