<svg xmlns:dc="http://purl.org/dc/elements/1.1/" xmlns:cc="http://creativecommons.org/ns#" xmlns:rdf="http://www.w3.org/1999/02/22-rdf-syntax-ns#" xmlns:svg="http://www.w3.org/2000/svg" xmlns="http://www.w3.org/2000/svg" id="svg101" preserveAspectRatio="xMinyMin meet" version="1.0" viewBox="280.69 2.66 1085.03 1267.62">
  <metadata id="metadata105">
    <rdf:RDF>
      <cc:Work rdf:about="">
        <dc:format>image/svg+xml</dc:format>
        <dc:type rdf:resource="http://purl.org/dc/dcmitype/StillImage"/>
      </cc:Work>
    </rdf:RDF>
  </metadata>
  <defs id="defs3">
    <pattern y="0" x="0" height="6" width="6" patternUnits="userSpaceOnUse" id="WMFhbasepattern"/>
  </defs>
  <path id="path5" d="  M 283.19494,35.557429   L 283.8019,35.911486   L 285.5216,36.214963   L 288.30348,36.56902   L 292.09694,36.923077   L 296.69968,37.277134   L 301.90938,37.580611   L 313.54268,38.288725  " style="fill:none;stroke:#000000;stroke-width:0.5rem;stroke-linecap:round;stroke-linejoin:round;stroke-miterlimit:4;stroke-dasharray:none;stroke-opacity:1;"/>
  <path id="path7" d="  M 313.54268,1234.647   L 301.90938,1235.3551   L 296.69968,1235.6586   L 292.09694,1236.0126   L 288.30348,1236.3667   L 285.5216,1236.7208   L 283.8019,1237.0242   L 283.19494,1237.3783  " style="fill:none;stroke:#000000;stroke-width:0.5rem;stroke-linecap:round;stroke-linejoin:round;stroke-miterlimit:4;stroke-dasharray:none;stroke-opacity:1;"/>
  <path id="path9" d="  M 313.54268,1234.647   L 309.29399,1235.3551   L 305.65227,1236.0126   L 303.27503,1236.7208   L 302.41517,1237.3783  " style="fill:none;stroke:#000000;stroke-width:0.5rem;stroke-linecap:round;stroke-linejoin:round;stroke-miterlimit:4;stroke-dasharray:none;stroke-opacity:1;"/>
  <path id="path11" d="  M 313.54268,1267.7766   L 313.84615,1267.1697   L 314.20021,1265.4499   L 314.55427,1262.6175   L 314.90832,1258.8746   L 315.2118,1254.2719   L 315.56586,1249.0116   L 316.22339,1237.3783  " style="fill:none;stroke:#000000;stroke-width:0.5rem;stroke-linecap:round;stroke-linejoin:round;stroke-miterlimit:4;stroke-dasharray:none;stroke-opacity:1;"/>
  <path id="path13" d="  M 313.54268,1248.5564   L 314.20021,1247.6965   L 314.90832,1245.2687   L 315.56586,1241.627   L 316.22339,1237.3783  " style="fill:none;stroke:#000000;stroke-width:0.5rem;stroke-linecap:round;stroke-linejoin:round;stroke-miterlimit:4;stroke-dasharray:none;stroke-opacity:1;"/>
  <path id="path15" d="  M 302.41517,35.557429   L 303.27503,36.214963   L 305.65227,36.923077   L 309.29399,37.580611   L 313.54268,38.288725  " style="fill:none;stroke:#000000;stroke-width:0.5rem;stroke-linecap:round;stroke-linejoin:round;stroke-miterlimit:4;stroke-dasharray:none;stroke-opacity:1;"/>
  <path id="path17" d="  M 316.22339,35.557429   L 315.56586,23.924131   L 315.2118,18.663857   L 314.90832,14.061117   L 314.55427,10.31823   L 314.20021,7.4857745   L 313.84615,5.7660695   L 313.54268,5.1591149  " style="fill:none;stroke:#000000;stroke-width:0.5rem;stroke-linecap:round;stroke-linejoin:round;stroke-miterlimit:4;stroke-dasharray:none;stroke-opacity:1;"/>
  <path id="path19" d="  M 316.22339,35.557429   L 315.56586,31.308746   L 314.90832,27.667018   L 314.20021,25.239199   L 313.54268,24.379347  " style="fill:none;stroke:#000000;stroke-width:0.5rem;stroke-linecap:round;stroke-linejoin:round;stroke-miterlimit:4;stroke-dasharray:none;stroke-opacity:1;"/>
  <path id="path21" d="  M 606.29715,642.25922   L 621.67334,642.25922  " style="fill:none;stroke:#000000;stroke-width:0.5rem;stroke-linecap:round;stroke-linejoin:round;stroke-miterlimit:4;stroke-dasharray:none;stroke-opacity:1;"/>
  <path id="path23" d="  M 827.02634,863.29189   L 827.02634,847.9157  " style="fill:none;stroke:#000000;stroke-width:0.5rem;stroke-linecap:round;stroke-linejoin:round;stroke-miterlimit:4;stroke-dasharray:none;stroke-opacity:1;"/>
  <path id="path25" d="  M 827.02634,409.64384   L 827.02634,425.02002  " style="fill:none;stroke:#000000;stroke-width:0.5rem;stroke-linecap:round;stroke-linejoin:round;stroke-miterlimit:4;stroke-dasharray:none;stroke-opacity:1;"/>
  <path id="path27" d="  M 606.29715,630.6765   L 621.67334,630.6765  " style="fill:none;stroke:#000000;stroke-width:0.5rem;stroke-linecap:round;stroke-linejoin:round;stroke-miterlimit:4;stroke-dasharray:none;stroke-opacity:1;"/>
  <path id="path29" d="  M 1059.2877,630.6765   L 1043.9115,630.6765  " style="fill:none;stroke:#000000;stroke-width:0.5rem;stroke-linecap:round;stroke-linejoin:round;stroke-miterlimit:4;stroke-dasharray:none;stroke-opacity:1;"/>
  <path id="path31" d="  M 838.55848,409.64384   L 838.55848,425.02002  " style="fill:none;stroke:#000000;stroke-width:0.5rem;stroke-linecap:round;stroke-linejoin:round;stroke-miterlimit:4;stroke-dasharray:none;stroke-opacity:1;"/>
  <path id="path33" d="  M 838.55848,863.29189   L 838.55848,847.9157  " style="fill:none;stroke:#000000;stroke-width:0.5rem;stroke-linecap:round;stroke-linejoin:round;stroke-miterlimit:4;stroke-dasharray:none;stroke-opacity:1;"/>
  <path id="path35" d="  M 1059.2877,642.25922   L 1043.9115,642.25922  " style="fill:none;stroke:#000000;stroke-width:0.5rem;stroke-linecap:round;stroke-linejoin:round;stroke-miterlimit:4;stroke-dasharray:none;stroke-opacity:1;"/>
  <path id="path37" d="  M 283.19494,1237.3783   L 1363.2202,1237.3783  " style="fill:none;stroke:#000000;stroke-width:0.5rem;stroke-linecap:round;stroke-linejoin:round;stroke-miterlimit:4;stroke-dasharray:none;stroke-opacity:1;"/>
  <path id="path39" d="  M 283.19494,35.557429   L 315.91992,35.557429  " style="fill:none;stroke:#000000;stroke-width:0.5rem;stroke-linecap:round;stroke-linejoin:round;stroke-miterlimit:4;stroke-dasharray:none;stroke-opacity:1;"/>
  <path id="path41" d="  M 1363.2202,5.1591149   L 1363.2202,1267.7766  " style="fill:none;stroke:#000000;stroke-width:0.5rem;stroke-linecap:round;stroke-linejoin:round;stroke-miterlimit:4;stroke-dasharray:none;stroke-opacity:1;"/>
  <path id="path43" d="  M 313.54268,38.288725   L 398.41517,123.26238  " style="fill:none;stroke:#000000;stroke-width:0.5rem;stroke-linecap:round;stroke-linejoin:round;stroke-miterlimit:4;stroke-dasharray:none;stroke-opacity:1;"/>
  <path id="path45" d="  M 398.41517,1149.6733   L 398.41517,123.26238  " style="fill:none;stroke:#000000;stroke-width:0.5rem;stroke-linecap:round;stroke-linejoin:round;stroke-miterlimit:4;stroke-dasharray:none;stroke-opacity:1;"/>
  <path id="path47" d="  M 313.54268,38.288725   L 313.54268,1234.647  " style="fill:none;stroke:#000000;stroke-width:0.5rem;stroke-linecap:round;stroke-linejoin:round;stroke-miterlimit:4;stroke-dasharray:none;stroke-opacity:1;"/>
  <path id="path49" d="  M 398.41517,1149.6733   L 313.54268,1234.647  " style="fill:none;stroke:#000000;stroke-width:0.5rem;stroke-linecap:round;stroke-linejoin:round;stroke-miterlimit:4;stroke-dasharray:none;stroke-opacity:1;"/>
  <path id="path51" d="  M 316.22339,1237.3783   L 401.09589,1152.4046  " style="fill:none;stroke:#000000;stroke-width:0.5rem;stroke-linecap:round;stroke-linejoin:round;stroke-miterlimit:4;stroke-dasharray:none;stroke-opacity:1;"/>
  <path id="path53" d="  M 1363.2202,1152.4046   L 401.09589,1152.4046  " style="fill:none;stroke:#000000;stroke-width:0.5rem;stroke-linecap:round;stroke-linejoin:round;stroke-miterlimit:4;stroke-dasharray:none;stroke-opacity:1;"/>
  <path id="path55" d="  M 283.19494,1237.3783   L 283.19494,35.557429  " style="fill:none;stroke:#000000;stroke-width:0.5rem;stroke-linecap:round;stroke-linejoin:round;stroke-miterlimit:4;stroke-dasharray:none;stroke-opacity:1;"/>
  <path id="path57" d="  M 1363.2202,1267.7766   L 313.54268,1267.7766  " style="fill:none;stroke:#000000;stroke-width:0.5rem;stroke-linecap:round;stroke-linejoin:round;stroke-miterlimit:4;stroke-dasharray:none;stroke-opacity:1;"/>
  <path id="path59" d="  M 401.09589,120.53109   L 1363.2202,120.53109  " style="fill:none;stroke:#000000;stroke-width:0.5rem;stroke-linecap:round;stroke-linejoin:round;stroke-miterlimit:4;stroke-dasharray:none;stroke-opacity:1;"/>
  <path id="path61" d="  M 1363.2202,35.557429   L 316.22339,35.557429  " style="fill:none;stroke:#000000;stroke-width:0.5rem;stroke-linecap:round;stroke-linejoin:round;stroke-miterlimit:4;stroke-dasharray:none;stroke-opacity:1;"/>
  <path id="path63" d="  M 401.09589,120.53109   L 316.22339,35.557429  " style="fill:none;stroke:#000000;stroke-width:0.5rem;stroke-linecap:round;stroke-linejoin:round;stroke-miterlimit:4;stroke-dasharray:none;stroke-opacity:1;"/>
  <path id="path65" d="  M 313.54268,5.1591149   L 1363.2202,5.1591149  " style="fill:none;stroke:#000000;stroke-width:0.5rem;stroke-linecap:round;stroke-linejoin:round;stroke-miterlimit:4;stroke-dasharray:none;stroke-opacity:1;"/>
  <path id="path67" d="  M 313.54268,1248.5564   L 313.54268,1267.7766  " style="fill:none;stroke:#000000;stroke-width:0.5rem;stroke-linecap:round;stroke-linejoin:round;stroke-miterlimit:4;stroke-dasharray:none;stroke-opacity:1;"/>
  <path id="path69" d="  M 313.54268,24.379347   L 313.54268,5.1591149  " style="fill:none;stroke:#000000;stroke-width:0.5rem;stroke-linecap:round;stroke-linejoin:round;stroke-miterlimit:4;stroke-dasharray:none;stroke-opacity:1;"/>
  <path id="path71" d="  M 1332.8725,120.53109   L 1332.8725,1152.4046  " style="fill:none;stroke:#000000;stroke-width:0.5rem;stroke-linecap:round;stroke-linejoin:round;stroke-miterlimit:4;stroke-dasharray:none;stroke-opacity:1;"/>
  <path id="path73" d="  M 332.71233,52.046365   L 332.71233,57.508957  " style="fill:none;stroke:#000000;stroke-width:0.5rem;stroke-linecap:round;stroke-linejoin:round;stroke-miterlimit:4;stroke-dasharray:none;stroke-opacity:1;"/>
  <path id="path75" d="  M 332.71233,1215.4268   L 332.71233,1220.8894  " style="fill:none;stroke:#000000;stroke-width:0.5rem;stroke-linecap:round;stroke-linejoin:round;stroke-miterlimit:4;stroke-dasharray:none;stroke-opacity:1;"/>
  <path id="path77" d="  M 606.29715,642.25922   L 606.49947,647.46891   L 606.80295,652.67861   L 607.25817,657.8883   L 607.81454,663.098   L 608.47208,668.30769   L 609.28135,673.46681   L 610.19178,678.57534   L 611.20337,683.73446   L 612.3667,688.79241   L 613.63119,693.90095   L 614.99684,698.90832   L 616.46365,703.9157   L 618.08219,708.92308   L 619.8019,713.82929   L 621.67334,718.73551   L 623.59536,723.59115   L 625.66913,728.39621   L 627.84405,733.15068   L 630.12013,737.85458   L 632.49737,742.45732   L 634.97576,747.06006   L 637.55532,751.61222   L 640.28662,756.06322   L 643.06849,760.46365   L 645.95153,764.81349   L 648.9863,769.11275   L 652.07165,773.31085   L 655.25817,777.45838   L 658.54584,781.50474   L 661.93467,785.50053   L 665.37408,789.39515   L 668.96523,793.18862   L 672.60695,796.93151   L 676.34984,800.57323   L 680.14331,804.16438   L 684.03793,807.60379   L 688.03372,810.99262   L 692.08008,814.33087   L 696.17703,817.51739   L 700.37513,820.60274   L 704.67439,823.63751   L 708.97366,826.52055   L 713.37408,829.30242   L 717.87566,832.03372   L 722.37724,834.61328   L 726.97998,837.14226   L 731.6333,839.51949   L 736.28662,841.79557   L 741.0411,843.9705   L 745.84615,845.99368   L 750.70179,847.96628   L 755.55743,849.78714   L 760.51423,851.50685   L 765.47102,853.1254   L 770.4784,854.64278   L 775.48577,856.00843   L 780.54373,857.27292   L 785.65227,858.43625   L 790.7608,859.44784   L 795.86934,860.35827   L 801.02845,861.16754   L 806.23815,861.82508   L 811.39726,862.38145   L 816.60695,862.83667   L 821.81665,863.14015   L 827.02634,863.34247  " style="fill:none;stroke:#000000;stroke-width:0.5rem;stroke-linecap:round;stroke-linejoin:round;stroke-miterlimit:4;stroke-dasharray:none;stroke-opacity:1;"/>
  <path id="path79" d="  M 621.72392,642.25922   L 621.87566,647.2666   L 622.22972,652.27397   L 622.63435,657.28135   L 623.19073,662.23815   L 623.84826,667.19494   L 624.65753,672.15174   L 625.56797,677.05796   L 626.57956,681.96417   L 627.69231,686.87039   L 628.9568,691.72603   L 630.32244,696.53109   L 631.78925,701.33614   L 633.35722,706.09062   L 635.07692,710.79452   L 636.89779,715.44784   L 638.81981,720.10116   L 640.84299,724.65332   L 642.96733,729.20548   L 645.24341,733.65648   L 647.57007,738.10748   L 650.04847,742.45732   L 652.57745,746.75659   L 655.25817,751.00527   L 658.04004,755.15279   L 660.8725,759.30032   L 663.80611,763.34668   L 666.89146,767.29189   L 670.0274,771.18651   L 673.26449,775.03056   L 676.55216,778.77345   L 679.99157,782.46575   L 683.48156,786.00632   L 687.07271,789.54689   L 690.71444,792.93572   L 694.45732,796.27397   L 698.25079,799.51106   L 702.14542,802.647   L 706.1412,805.68177   L 710.18757,808.66596   L 714.28451,811.49842   L 718.43203,814.2803   L 722.68072,816.96101   L 726.97998,819.48999   L 731.32982,821.96839   L 735.78082,824.34563   L 740.23182,826.57113   L 744.7334,828.69547   L 749.33614,830.76923   L 753.93888,832.69125   L 758.5922,834.51212   L 763.2961,836.18124   L 768.05058,837.79979   L 772.85564,839.2666   L 777.6607,840.63224   L 782.51633,841.89673   L 787.37197,843.00948   L 792.27819,844.02107   L 797.1844,844.93151   L 802.1412,845.74078   L 807.098,846.39831   L 812.05479,846.95469   L 817.06217,847.35933   L 822.01897,847.71338   L 827.02634,847.86512  " style="fill:none;stroke:#000000;stroke-width:0.5rem;stroke-linecap:round;stroke-linejoin:round;stroke-miterlimit:4;stroke-dasharray:none;stroke-opacity:1;"/>
  <path id="path81" d="  M 827.02634,409.64384   L 821.81665,409.84615   L 816.60695,410.14963   L 811.39726,410.60485   L 806.23815,411.16122   L 801.02845,411.81876   L 795.86934,412.62803   L 790.7608,413.53846   L 785.65227,414.55005   L 780.54373,415.71338   L 775.48577,416.97787   L 770.4784,418.34352   L 765.47102,419.86091   L 760.51423,421.47945   L 755.55743,423.19916   L 750.70179,425.02002   L 745.84615,426.99262   L 741.0411,429.01581   L 736.28662,431.19073   L 731.6333,433.46681   L 726.97998,435.84405   L 722.37724,438.37302   L 717.87566,440.95258   L 713.37408,443.68388   L 708.97366,446.46575   L 704.67439,449.34879   L 700.37513,452.38356   L 696.17703,455.46891   L 692.08008,458.65543   L 688.03372,461.99368   L 684.03793,465.38251   L 680.14331,468.82192   L 676.34984,472.41307   L 672.60695,476.05479   L 668.96523,479.79768   L 665.37408,483.59115   L 661.93467,487.48577   L 658.54584,491.48156   L 655.25817,495.52792   L 652.07165,499.67545   L 648.9863,503.87355   L 645.95153,508.17281   L 643.06849,512.52266   L 640.28662,516.92308   L 637.55532,521.37408   L 634.97576,525.92624   L 632.49737,530.52898   L 630.12013,535.13172   L 627.84405,539.83562   L 625.66913,544.59009   L 623.59536,549.39515   L 621.67334,554.25079   L 619.8019,559.15701   L 618.08219,564.06322   L 616.46365,569.0706   L 614.99684,574.07798   L 613.63119,579.08535   L 612.3667,584.19389   L 611.20337,589.25184   L 610.19178,594.41096   L 609.28135,599.51949   L 608.47208,604.67861   L 607.81454,609.8883   L 607.25817,615.098   L 606.80295,620.30769   L 606.49947,625.51739   L 606.29715,630.72708  " style="fill:none;stroke:#000000;stroke-width:0.5rem;stroke-linecap:round;stroke-linejoin:round;stroke-miterlimit:4;stroke-dasharray:none;stroke-opacity:1;"/>
  <path id="path83" d="  M 827.02634,425.12118   L 822.01897,425.27292   L 817.06217,425.62698   L 812.05479,426.03161   L 807.098,426.58799   L 802.1412,427.24552   L 797.1844,428.05479   L 792.27819,428.96523   L 787.37197,429.97682   L 782.51633,431.08957   L 777.6607,432.35406   L 772.85564,433.7197   L 768.05058,435.18651   L 763.2961,436.80506   L 758.5922,438.47418   L 753.93888,440.29505   L 749.33614,442.21707   L 744.7334,444.29083   L 740.23182,446.41517   L 735.78082,448.64067   L 731.32982,451.01791   L 726.97998,453.49631   L 722.68072,456.02529   L 718.43203,458.70601   L 714.28451,461.48788   L 710.18757,464.32034   L 706.1412,467.30453   L 702.14542,470.3393   L 698.25079,473.47524   L 694.45732,476.71233   L 690.71444,480.05058   L 687.07271,483.43941   L 683.48156,486.97998   L 679.99157,490.52055   L 676.55216,494.21286   L 673.26449,497.95574   L 670.0274,501.79979   L 666.89146,505.69442   L 663.80611,509.63962   L 660.8725,513.68599   L 658.04004,517.83351   L 655.25817,521.98103   L 652.57745,526.22972   L 650.04847,530.52898   L 647.57007,534.87882   L 645.24341,539.32982   L 642.96733,543.78082   L 640.84299,548.33298   L 638.81981,552.88514   L 636.89779,557.53846   L 635.07692,562.19178   L 633.35722,566.89568   L 631.78925,571.65016   L 630.32244,576.45522   L 628.9568,581.26027   L 627.69231,586.11591   L 626.57956,591.02213   L 625.56797,595.92835   L 624.65753,600.83456   L 623.84826,605.79136   L 623.19073,610.74816   L 622.63435,615.70495   L 622.22972,620.71233   L 621.87566,625.7197   L 621.72392,630.72708  " style="fill:none;stroke:#000000;stroke-width:0.5rem;stroke-linecap:round;stroke-linejoin:round;stroke-miterlimit:4;stroke-dasharray:none;stroke-opacity:1;"/>
  <path id="path85" d="  M 1059.2877,630.72708   L 1059.0854,625.51739   L 1058.7819,620.30769   L 1058.3267,615.098   L 1057.7703,609.8883   L 1057.1128,604.67861   L 1056.3035,599.51949   L 1055.393,594.41096   L 1054.3815,589.25184   L 1053.2181,584.19389   L 1051.9536,579.08535   L 1050.588,574.07798   L 1049.1212,569.0706   L 1047.5026,564.06322   L 1045.7829,559.15701   L 1043.9115,554.25079   L 1041.9895,549.39515   L 1039.9157,544.59009   L 1037.7408,539.83562   L 1035.4647,535.13172   L 1033.0875,530.52898   L 1030.6091,525.92624   L 1028.0295,521.37408   L 1025.2982,516.92308   L 1022.5163,512.52266   L 1019.6333,508.17281   L 1016.5985,503.87355   L 1013.5132,499.67545   L 1010.3267,495.52792   L 1007.039,491.48156   L 1003.6502,487.48577   L 1000.2107,483.59115   L 996.6196,479.79768   L 992.97787,476.05479   L 989.23498,472.41307   L 985.44152,468.82192   L 981.54689,465.38251   L 977.55111,461.99368   L 973.50474,458.65543   L 969.4078,455.46891   L 965.20969,452.38356   L 960.91043,449.34879   L 956.61117,446.46575   L 952.21075,443.68388   L 947.70917,440.95258   L 943.20759,438.37302   L 938.60485,435.84405   L 933.95153,433.46681   L 929.29821,431.19073   L 924.54373,429.01581   L 919.73867,426.99262   L 914.88303,425.02002   L 910.0274,423.19916   L 905.0706,421.47945   L 900.1138,419.86091   L 895.10643,418.34352   L 890.09905,416.97787   L 885.0411,415.71338   L 879.93256,414.55005   L 874.82403,413.53846   L 869.71549,412.62803   L 864.55638,411.81876   L 859.34668,411.16122   L 854.18757,410.60485   L 848.97787,410.14963   L 843.76818,409.84615   L 838.55848,409.64384  " style="fill:none;stroke:#000000;stroke-width:0.5rem;stroke-linecap:round;stroke-linejoin:round;stroke-miterlimit:4;stroke-dasharray:none;stroke-opacity:1;"/>
  <path id="path87" d="  M 1043.8609,630.72708   L 1043.7092,625.7197   L 1043.3551,620.71233   L 1042.9505,615.70495   L 1042.3941,610.74816   L 1041.7366,605.79136   L 1040.9273,600.83456   L 1040.0169,595.92835   L 1039.0053,591.02213   L 1037.8925,586.11591   L 1036.628,581.26027   L 1035.2624,576.45522   L 1033.7956,571.65016   L 1032.2276,566.89568   L 1030.5079,562.19178   L 1028.687,557.53846   L 1026.765,552.88514   L 1024.7418,548.33298   L 1022.6175,543.78082   L 1020.3414,539.32982   L 1018.0148,534.87882   L 1015.5364,530.52898   L 1013.0074,526.22972   L 1010.3267,521.98103   L 1007.5448,517.83351   L 1004.7123,513.68599   L 1001.7787,509.63962   L 998.69336,505.69442   L 995.55743,501.79979   L 992.32034,497.95574   L 989.03267,494.21286   L 985.59326,490.52055   L 982.10327,486.97998   L 978.51212,483.43941   L 974.87039,480.05058   L 971.1275,476.71233   L 967.33404,473.47524   L 963.43941,470.3393   L 959.44362,467.30453   L 955.39726,464.32034   L 951.30032,461.48788   L 947.15279,458.70601   L 942.90411,456.02529   L 938.60485,453.49631   L 934.25501,451.01791   L 929.804,448.64067   L 925.353,446.41517   L 920.85142,444.29083   L 916.24868,442.21707   L 911.64594,440.29505   L 906.99262,438.47418   L 902.28872,436.80506   L 897.53425,435.18651   L 892.72919,433.7197   L 887.92413,432.35406   L 883.06849,431.08957   L 878.21286,429.97682   L 873.30664,428.96523   L 868.40042,428.05479   L 863.44362,427.24552   L 858.48683,426.58799   L 853.53003,426.03161   L 848.52266,425.62698   L 843.56586,425.27292   L 838.55848,425.12118  " style="fill:none;stroke:#000000;stroke-width:0.5rem;stroke-linecap:round;stroke-linejoin:round;stroke-miterlimit:4;stroke-dasharray:none;stroke-opacity:1;"/>
  <path id="path89" d="  M 838.55848,863.34247   L 843.76818,863.14015   L 848.97787,862.83667   L 854.18757,862.38145   L 859.34668,861.82508   L 864.55638,861.16754   L 869.71549,860.35827   L 874.82403,859.44784   L 879.93256,858.43625   L 885.0411,857.27292   L 890.09905,856.00843   L 895.10643,854.64278   L 900.1138,853.1254   L 905.0706,851.50685   L 910.0274,849.78714   L 914.88303,847.96628   L 919.73867,845.99368   L 924.54373,843.9705   L 929.29821,841.79557   L 933.95153,839.51949   L 938.60485,837.14226   L 943.20759,834.61328   L 947.70917,832.03372   L 952.21075,829.30242   L 956.61117,826.52055   L 960.91043,823.63751   L 965.20969,820.60274   L 969.4078,817.51739   L 973.50474,814.33087   L 977.55111,810.99262   L 981.54689,807.60379   L 985.44152,804.16438   L 989.23498,800.57323   L 992.97787,796.93151   L 996.6196,793.18862   L 1000.2107,789.39515   L 1003.6502,785.50053   L 1007.039,781.50474   L 1010.3267,777.45838   L 1013.5132,773.31085   L 1016.5985,769.11275   L 1019.6333,764.81349   L 1022.5163,760.46365   L 1025.2982,756.06322   L 1028.0295,751.61222   L 1030.6091,747.06006   L 1033.0875,742.45732   L 1035.4647,737.85458   L 1037.7408,733.15068   L 1039.9157,728.39621   L 1041.9895,723.59115   L 1043.9115,718.73551   L 1045.7829,713.82929   L 1047.5026,708.92308   L 1049.1212,703.9157   L 1050.588,698.90832   L 1051.9536,693.90095   L 1053.2181,688.79241   L 1054.3815,683.73446   L 1055.393,678.57534   L 1056.3035,673.46681   L 1057.1128,668.30769   L 1057.7703,663.098   L 1058.3267,657.8883   L 1058.7819,652.67861   L 1059.0854,647.46891   L 1059.2877,642.25922  " style="fill:none;stroke:#000000;stroke-width:0.5rem;stroke-linecap:round;stroke-linejoin:round;stroke-miterlimit:4;stroke-dasharray:none;stroke-opacity:1;"/>
  <path id="path91" d="  M 838.55848,847.86512   L 843.56586,847.71338   L 848.52266,847.35933   L 853.53003,846.95469   L 858.48683,846.39831   L 863.44362,845.74078   L 868.40042,844.93151   L 873.30664,844.02107   L 878.21286,843.00948   L 883.06849,841.89673   L 887.92413,840.63224   L 892.72919,839.2666   L 897.53425,837.79979   L 902.28872,836.18124   L 906.99262,834.51212   L 911.64594,832.69125   L 916.24868,830.76923   L 920.85142,828.69547   L 925.353,826.57113   L 929.804,824.34563   L 934.25501,821.96839   L 938.60485,819.48999   L 942.90411,816.96101   L 947.15279,814.2803   L 951.30032,811.49842   L 955.39726,808.66596   L 959.44362,805.68177   L 963.43941,802.647   L 967.33404,799.51106   L 971.1275,796.27397   L 974.87039,792.93572   L 978.51212,789.54689   L 982.10327,786.00632   L 985.59326,782.46575   L 989.03267,778.77345   L 992.32034,775.03056   L 995.55743,771.18651   L 998.69336,767.29189   L 1001.7787,763.34668   L 1004.7123,759.30032   L 1007.5448,755.15279   L 1010.3267,751.00527   L 1013.0074,746.75659   L 1015.5364,742.45732   L 1018.0148,738.10748   L 1020.3414,733.65648   L 1022.6175,729.20548   L 1024.7418,724.65332   L 1026.765,720.10116   L 1028.687,715.44784   L 1030.5079,710.79452   L 1032.2276,706.09062   L 1033.7956,701.33614   L 1035.2624,696.53109   L 1036.628,691.72603   L 1037.8925,686.87039   L 1039.0053,681.96417   L 1040.0169,677.05796   L 1040.9273,672.15174   L 1041.7366,667.19494   L 1042.3941,662.23815   L 1042.9505,657.28135   L 1043.3551,652.27397   L 1043.7092,647.2666   L 1043.8609,642.25922  " style="fill:none;stroke:#000000;stroke-width:0.5rem;stroke-linecap:round;stroke-linejoin:round;stroke-miterlimit:4;stroke-dasharray:none;stroke-opacity:1;"/>
  <path id="path93" d="  M 283.24552,1237.3783   L 283.2961,1239.1992   L 283.44784,1241.02   L 283.75132,1242.8409   L 284.10537,1244.6617   L 284.61117,1246.432   L 285.21812,1248.1517   L 285.92624,1249.8209   L 286.73551,1251.49   L 287.59536,1253.058   L 288.60695,1254.6259   L 289.66913,1256.0927   L 290.88303,1257.509   L 292.09694,1258.824   L 293.46259,1260.0885   L 294.87882,1261.2518   L 296.34563,1262.3646   L 297.86301,1263.3256   L 299.48156,1264.236   L 301.10011,1265.0453   L 302.81981,1265.7534   L 304.53952,1266.3604   L 306.3098,1266.8662   L 308.08008,1267.2202   L 309.90095,1267.5237   L 311.72181,1267.6754   L 313.54268,1267.726  " style="fill:none;stroke:#000000;stroke-width:0.5rem;stroke-linecap:round;stroke-linejoin:round;stroke-miterlimit:4;stroke-dasharray:none;stroke-opacity:1;"/>
  <path id="path95" d="  M 302.41517,1237.3783   L 302.46575,1238.491   L 302.61749,1239.5532   L 302.87039,1240.6154   L 303.27503,1241.627   L 303.73024,1242.6386   L 304.28662,1243.549   L 304.94415,1244.4594   L 305.65227,1245.2687   L 306.46154,1245.9768   L 307.37197,1246.6344   L 308.2824,1247.1907   L 309.29399,1247.6459   L 310.30558,1248.0506   L 311.36776,1248.3035   L 312.42993,1248.4552   L 313.54268,1248.5058  " style="fill:none;stroke:#000000;stroke-width:0.5rem;stroke-linecap:round;stroke-linejoin:round;stroke-miterlimit:4;stroke-dasharray:none;stroke-opacity:1;"/>
  <path id="path97" d="  M 313.54268,5.2096944   L 311.72181,5.260274   L 309.90095,5.4120126   L 308.08008,5.71549   L 306.3098,6.0695469   L 304.53952,6.5753425   L 302.81981,7.1822972   L 301.10011,7.890411   L 299.48156,8.6996839   L 297.86301,9.6101159   L 296.34563,10.571128   L 294.87882,11.683878   L 293.46259,12.847208   L 292.09694,14.111697   L 290.88303,15.426765   L 289.66913,16.842993   L 288.60695,18.3098   L 287.59536,19.877766   L 286.73551,21.445732   L 285.92624,23.114858   L 285.21812,24.783983   L 284.61117,26.503688   L 284.10537,28.273973   L 283.75132,30.094837   L 283.44784,31.915701   L 283.2961,33.736565   L 283.24552,35.557429  " style="fill:none;stroke:#000000;stroke-width:0.5rem;stroke-linecap:round;stroke-linejoin:round;stroke-miterlimit:4;stroke-dasharray:none;stroke-opacity:1;"/>
  <path id="path99" d="  M 313.54268,24.429926   L 312.42993,24.480506   L 311.36776,24.632244   L 310.30558,24.885142   L 309.29399,25.289779   L 308.2824,25.744995   L 307.37197,26.30137   L 306.46154,26.958904   L 305.65227,27.667018   L 304.94415,28.476291   L 304.28662,29.386723   L 303.73024,30.297155   L 303.27503,31.308746   L 302.87039,32.320337   L 302.61749,33.382508   L 302.46575,34.444679   L 302.41517,35.557429  " style="fill:none;stroke:#000000;stroke-width:0.5rem;stroke-linecap:round;stroke-linejoin:round;stroke-miterlimit:4;stroke-dasharray:none;stroke-opacity:1;"/>
</svg>