<svg xmlns:dc="http://purl.org/dc/elements/1.1/" xmlns:cc="http://creativecommons.org/ns#" xmlns:rdf="http://www.w3.org/1999/02/22-rdf-syntax-ns#" xmlns:svg="http://www.w3.org/2000/svg" xmlns="http://www.w3.org/2000/svg" id="svg161" version="1.0" viewBox="261.12 1.76 1124.18 1268.11">
  <metadata id="metadata165">
    <rdf:RDF>
      <cc:Work rdf:about="">
        <dc:format>image/svg+xml</dc:format>
        <dc:type rdf:resource="http://purl.org/dc/dcmitype/StillImage"/>
      </cc:Work>
    </rdf:RDF>
  </metadata>
  <defs id="defs3">
    <pattern y="0" x="0" height="6" width="6" patternUnits="userSpaceOnUse" id="WMFhbasepattern"/>
  </defs>
  <path id="path5" d="  M 1363.4353,23.629196   L 1377.8583,24.549814   L 1382.2568,24.958977   L 1383.7912,25.419286  " style="fill:none;stroke:#000000;stroke-width:8px;stroke-linecap:round;stroke-linejoin:round;stroke-miterlimit:4;stroke-dasharray:none;stroke-opacity:1;"/>
  <path id="path7" d="  M 1383.7912,1246.2099   L 1382.2568,1246.6702   L 1377.8583,1247.0794   L 1363.4353,1248  " style="fill:none;stroke:#000000;stroke-width:8px;stroke-linecap:round;stroke-linejoin:round;stroke-miterlimit:4;stroke-dasharray:none;stroke-opacity:1;"/>
  <path id="path9" d="  M 282.98775,1248   L 268.56473,1247.0794   L 264.16622,1246.6702   L 262.63186,1246.2099  " style="fill:none;stroke:#000000;stroke-width:8px;stroke-linecap:round;stroke-linejoin:round;stroke-miterlimit:4;stroke-dasharray:none;stroke-opacity:1;"/>
  <path id="path11" d="  M 262.63186,25.419286   L 264.16622,24.958977   L 268.56473,24.549814   L 282.98775,23.629196  " style="fill:none;stroke:#000000;stroke-width:8px;stroke-linecap:round;stroke-linejoin:round;stroke-miterlimit:4;stroke-dasharray:none;stroke-opacity:1;"/>
  <path id="path13" d="  M 263.14331,1247.8977   L 262.63186,1248   L 262.1204,1248.1023   L 263.09217,1254.1375   L 263.60362,1254.0352   L 264.11508,1253.9329  z " style="fill:#000000;fill-rule:evenodd;fill-opacity:1;stroke:none;"/>
  <path id="path15" d="  M 263.14331,1247.8977   L 262.63186,1248   L 262.1204,1248.1023   L 263.09217,1254.1375   L 263.60362,1254.0352   L 264.11508,1253.9329   L 263.14331,1247.8977  z " style="fill:none;stroke:#000000;stroke-width:8px;stroke-linecap:round;stroke-linejoin:round;stroke-miterlimit:4;stroke-dasharray:none;stroke-opacity:1;"/>
  <path id="path17" d="  M 263.60362,1254.0352   L 263.09217,1254.1375   L 263.09217,1254.1886   L 263.14331,1254.2397  z " style="fill:#000000;fill-rule:evenodd;fill-opacity:1;stroke:none;"/>
  <path id="path19" d="  M 263.09217,1254.1375   L 263.09217,1254.1886   L 263.14331,1254.2397  " style="fill:none;stroke:#000000;stroke-width:8px;stroke-linecap:round;stroke-linejoin:round;stroke-miterlimit:4;stroke-dasharray:none;stroke-opacity:1;"/>
  <path id="path21" d="  M 264.06393,1253.8306   L 263.60362,1254.0352   L 263.14331,1254.2397   L 265.64944,1259.61   L 266.10975,1259.4054   L 266.57006,1259.2009  z " style="fill:#000000;fill-rule:evenodd;fill-opacity:1;stroke:none;"/>
  <path id="path23" d="  M 264.06393,1253.8306   L 263.60362,1254.0352   L 263.14331,1254.2397   L 265.64944,1259.61   L 266.10975,1259.4054   L 266.57006,1259.2009   L 264.06393,1253.8306  z " style="fill:none;stroke:#000000;stroke-width:8px;stroke-linecap:round;stroke-linejoin:round;stroke-miterlimit:4;stroke-dasharray:none;stroke-opacity:1;"/>
  <path id="path25" d="  M 266.10975,1259.4054   L 265.64944,1259.61   L 265.70059,1259.7123   L 265.75173,1259.7635  z " style="fill:#000000;fill-rule:evenodd;fill-opacity:1;stroke:none;"/>
  <path id="path27" d="  M 265.64944,1259.61   L 265.70059,1259.7123   L 265.75173,1259.7635  " style="fill:none;stroke:#000000;stroke-width:8px;stroke-linecap:round;stroke-linejoin:round;stroke-miterlimit:4;stroke-dasharray:none;stroke-opacity:1;"/>
  <path id="path29" d="  M 266.46777,1259.0474   L 266.10975,1259.4054   L 265.75173,1259.7635   L 269.89451,1264.4177   L 270.25253,1264.0597   L 270.61055,1263.7017  z " style="fill:#000000;fill-rule:evenodd;fill-opacity:1;stroke:none;"/>
  <path id="path31" d="  M 266.46777,1259.0474   L 266.10975,1259.4054   L 265.75173,1259.7635   L 269.89451,1264.4177   L 270.25253,1264.0597   L 270.61055,1263.7017   L 266.46777,1259.0474  z " style="fill:none;stroke:#000000;stroke-width:8px;stroke-linecap:round;stroke-linejoin:round;stroke-miterlimit:4;stroke-dasharray:none;stroke-opacity:1;"/>
  <path id="path33" d="  M 270.25253,1264.0597   L 269.89451,1264.4177   L 269.94566,1264.4688   L 269.9968,1264.52  z " style="fill:#000000;fill-rule:evenodd;fill-opacity:1;stroke:none;"/>
  <path id="path35" d="  M 269.89451,1264.4177   L 269.94566,1264.4688   L 269.9968,1264.52  " style="fill:none;stroke:#000000;stroke-width:8px;stroke-linecap:round;stroke-linejoin:round;stroke-miterlimit:4;stroke-dasharray:none;stroke-opacity:1;"/>
  <path id="path37" d="  M 270.50826,1263.5994   L 270.25253,1264.0597   L 269.9968,1264.52   L 275.26478,1267.333   L 275.52051,1266.8727   L 275.77624,1266.4124  z " style="fill:#000000;fill-rule:evenodd;fill-opacity:1;stroke:none;"/>
  <path id="path39" d="  M 270.50826,1263.5994   L 270.25253,1264.0597   L 269.9968,1264.52   L 275.26478,1267.333   L 275.52051,1266.8727   L 275.77624,1266.4124   L 270.50826,1263.5994  z " style="fill:none;stroke:#000000;stroke-width:8px;stroke-linecap:round;stroke-linejoin:round;stroke-miterlimit:4;stroke-dasharray:none;stroke-opacity:1;"/>
  <path id="path41" d="  M 1370.6468,1266.4124   L 1370.9025,1266.8727   L 1371.1582,1267.333   L 1376.4262,1264.52   L 1376.1705,1264.0597   L 1375.9148,1263.5994  z " style="fill:#000000;fill-rule:evenodd;fill-opacity:1;stroke:none;"/>
  <path id="path43" d="  M 1370.6468,1266.4124   L 1370.9025,1266.8727   L 1371.1582,1267.333   L 1376.4262,1264.52   L 1376.1705,1264.0597   L 1375.9148,1263.5994   L 1370.6468,1266.4124  z " style="fill:none;stroke:#000000;stroke-width:8px;stroke-linecap:round;stroke-linejoin:round;stroke-miterlimit:4;stroke-dasharray:none;stroke-opacity:1;"/>
  <path id="path45" d="  M 1376.1705,1264.0597   L 1376.4262,1264.52   L 1376.4774,1264.4688   L 1376.5285,1264.4177  z " style="fill:#000000;fill-rule:evenodd;fill-opacity:1;stroke:none;"/>
  <path id="path47" d="  M 1376.4262,1264.52   L 1376.4774,1264.4688   L 1376.5285,1264.4177  " style="fill:none;stroke:#000000;stroke-width:8px;stroke-linecap:round;stroke-linejoin:round;stroke-miterlimit:4;stroke-dasharray:none;stroke-opacity:1;"/>
  <path id="path49" d="  M 1375.8125,1263.7017   L 1376.1705,1264.0597   L 1376.5285,1264.4177   L 1380.6713,1259.7635   L 1380.3133,1259.4054   L 1379.9552,1259.0474  z " style="fill:#000000;fill-rule:evenodd;fill-opacity:1;stroke:none;"/>
  <path id="path51" d="  M 1375.8125,1263.7017   L 1376.1705,1264.0597   L 1376.5285,1264.4177   L 1380.6713,1259.7635   L 1380.3133,1259.4054   L 1379.9552,1259.0474   L 1375.8125,1263.7017  z " style="fill:none;stroke:#000000;stroke-width:8px;stroke-linecap:round;stroke-linejoin:round;stroke-miterlimit:4;stroke-dasharray:none;stroke-opacity:1;"/>
  <path id="path53" d="  M 1380.3133,1259.4054   L 1380.6713,1259.7635   L 1380.7224,1259.7123   L 1380.7736,1259.61  z " style="fill:#000000;fill-rule:evenodd;fill-opacity:1;stroke:none;"/>
  <path id="path55" d="  M 1380.6713,1259.7635   L 1380.7224,1259.7123   L 1380.7736,1259.61  " style="fill:none;stroke:#000000;stroke-width:8px;stroke-linecap:round;stroke-linejoin:round;stroke-miterlimit:4;stroke-dasharray:none;stroke-opacity:1;"/>
  <path id="path57" d="  M 1379.853,1259.2009   L 1380.3133,1259.4054   L 1380.7736,1259.61   L 1383.2797,1254.2397   L 1382.8194,1254.0352   L 1382.3591,1253.8306  z " style="fill:#000000;fill-rule:evenodd;fill-opacity:1;stroke:none;"/>
  <path id="path59" d="  M 1379.853,1259.2009   L 1380.3133,1259.4054   L 1380.7736,1259.61   L 1383.2797,1254.2397   L 1382.8194,1254.0352   L 1382.3591,1253.8306   L 1379.853,1259.2009  z " style="fill:none;stroke:#000000;stroke-width:8px;stroke-linecap:round;stroke-linejoin:round;stroke-miterlimit:4;stroke-dasharray:none;stroke-opacity:1;"/>
  <path id="path61" d="  M 1382.8194,1254.0352   L 1383.2797,1254.2397   L 1383.3308,1254.1886   L 1383.3308,1254.1375  z " style="fill:#000000;fill-rule:evenodd;fill-opacity:1;stroke:none;"/>
  <path id="path63" d="  M 1383.2797,1254.2397   L 1383.3308,1254.1886   L 1383.3308,1254.1375  " style="fill:none;stroke:#000000;stroke-width:8px;stroke-linecap:round;stroke-linejoin:round;stroke-miterlimit:4;stroke-dasharray:none;stroke-opacity:1;"/>
  <path id="path65" d="  M 1382.3079,1253.9329   L 1382.8194,1254.0352   L 1383.3308,1254.1375   L 1384.3026,1248.1023   L 1383.7912,1248   L 1383.2797,1247.8977  z " style="fill:#000000;fill-rule:evenodd;fill-opacity:1;stroke:none;"/>
  <path id="path67" d="  M 1382.3079,1253.9329   L 1382.8194,1254.0352   L 1383.3308,1254.1375   L 1384.3026,1248.1023   L 1383.7912,1248   L 1383.2797,1247.8977   L 1382.3079,1253.9329  z " style="fill:none;stroke:#000000;stroke-width:8px;stroke-linecap:round;stroke-linejoin:round;stroke-miterlimit:4;stroke-dasharray:none;stroke-opacity:1;"/>
  <path id="path69" d="  M 1383.2797,23.731486   L 1383.7912,23.629196   L 1384.3026,23.526905   L 1383.3308,17.491742   L 1382.8194,17.594033   L 1382.3079,17.696324  z " style="fill:#000000;fill-rule:evenodd;fill-opacity:1;stroke:none;"/>
  <path id="path71" d="  M 1383.2797,23.731486   L 1383.7912,23.629196   L 1384.3026,23.526905   L 1383.3308,17.491742   L 1382.8194,17.594033   L 1382.3079,17.696324   L 1383.2797,23.731486  z " style="fill:none;stroke:#000000;stroke-width:8px;stroke-linecap:round;stroke-linejoin:round;stroke-miterlimit:4;stroke-dasharray:none;stroke-opacity:1;"/>
  <path id="path73" d="  M 1382.8194,17.594033   L 1383.3308,17.491742   L 1383.3308,17.440597   L 1383.2797,17.389451  z " style="fill:#000000;fill-rule:evenodd;fill-opacity:1;stroke:none;"/>
  <path id="path75" d="  M 1383.3308,17.491742   L 1383.3308,17.440597   L 1383.2797,17.389451  " style="fill:none;stroke:#000000;stroke-width:8px;stroke-linecap:round;stroke-linejoin:round;stroke-miterlimit:4;stroke-dasharray:none;stroke-opacity:1;"/>
  <path id="path77" d="  M 1382.3591,17.798615   L 1382.8194,17.594033   L 1383.2797,17.389451   L 1380.7736,12.01918   L 1380.3133,12.223761   L 1379.853,12.428343  z " style="fill:#000000;fill-rule:evenodd;fill-opacity:1;stroke:none;"/>
  <path id="path79" d="  M 1382.3591,17.798615   L 1382.8194,17.594033   L 1383.2797,17.389451   L 1380.7736,12.01918   L 1380.3133,12.223761   L 1379.853,12.428343   L 1382.3591,17.798615  z " style="fill:none;stroke:#000000;stroke-width:8px;stroke-linecap:round;stroke-linejoin:round;stroke-miterlimit:4;stroke-dasharray:none;stroke-opacity:1;"/>
  <path id="path81" d="  M 1380.3133,12.223761   L 1380.7736,12.01918   L 1380.7224,11.916889   L 1380.6713,11.865743  z " style="fill:#000000;fill-rule:evenodd;fill-opacity:1;stroke:none;"/>
  <path id="path83" d="  M 1380.7736,12.01918   L 1380.7224,11.916889   L 1380.6713,11.865743  " style="fill:none;stroke:#000000;stroke-width:8px;stroke-linecap:round;stroke-linejoin:round;stroke-miterlimit:4;stroke-dasharray:none;stroke-opacity:1;"/>
  <path id="path85" d="  M 1379.9552,12.581779   L 1380.3133,12.223761   L 1380.6713,11.865743   L 1376.5285,7.2115077   L 1376.1705,7.5695258   L 1375.8125,7.927544  z " style="fill:#000000;fill-rule:evenodd;fill-opacity:1;stroke:none;"/>
  <path id="path87" d="  M 1379.9552,12.581779   L 1380.3133,12.223761   L 1380.6713,11.865743   L 1376.5285,7.2115077   L 1376.1705,7.5695258   L 1375.8125,7.927544   L 1379.9552,12.581779  z " style="fill:none;stroke:#000000;stroke-width:8px;stroke-linecap:round;stroke-linejoin:round;stroke-miterlimit:4;stroke-dasharray:none;stroke-opacity:1;"/>
  <path id="path89" d="  M 1376.1705,7.5695258   L 1376.5285,7.2115077   L 1376.4774,7.1603623   L 1376.4262,7.1092168  z " style="fill:#000000;fill-rule:evenodd;fill-opacity:1;stroke:none;"/>
  <path id="path91" d="  M 1376.5285,7.2115077   L 1376.4774,7.1603623   L 1376.4262,7.1092168  " style="fill:none;stroke:#000000;stroke-width:8px;stroke-linecap:round;stroke-linejoin:round;stroke-miterlimit:4;stroke-dasharray:none;stroke-opacity:1;"/>
  <path id="path93" d="  M 1375.9148,8.0298348   L 1376.1705,7.5695258   L 1376.4262,7.1092168   L 1371.1582,4.2962174   L 1370.9025,4.7565264   L 1370.6468,5.2168354  z " style="fill:#000000;fill-rule:evenodd;fill-opacity:1;stroke:none;"/>
  <path id="path95" d="  M 1375.9148,8.0298348   L 1376.1705,7.5695258   L 1376.4262,7.1092168   L 1371.1582,4.2962174   L 1370.9025,4.7565264   L 1370.6468,5.2168354   L 1375.9148,8.0298348  z " style="fill:none;stroke:#000000;stroke-width:8px;stroke-linecap:round;stroke-linejoin:round;stroke-miterlimit:4;stroke-dasharray:none;stroke-opacity:1;"/>
  <path id="path97" d="  M 275.77624,5.2168354   L 275.52051,4.7565264   L 275.26478,4.2962174   L 269.9968,7.1092168   L 270.25253,7.5695258   L 270.50826,8.0298348  z " style="fill:#000000;fill-rule:evenodd;fill-opacity:1;stroke:none;"/>
  <path id="path99" d="  M 275.77624,5.2168354   L 275.52051,4.7565264   L 275.26478,4.2962174   L 269.9968,7.1092168   L 270.25253,7.5695258   L 270.50826,8.0298348   L 275.77624,5.2168354  z " style="fill:none;stroke:#000000;stroke-width:8px;stroke-linecap:round;stroke-linejoin:round;stroke-miterlimit:4;stroke-dasharray:none;stroke-opacity:1;"/>
  <path id="path101" d="  M 270.25253,7.5695258   L 269.9968,7.1092168   L 269.94566,7.1603623   L 269.89451,7.2115077  z " style="fill:#000000;fill-rule:evenodd;fill-opacity:1;stroke:none;"/>
  <path id="path103" d="  M 269.9968,7.1092168   L 269.94566,7.1603623   L 269.89451,7.2115077  " style="fill:none;stroke:#000000;stroke-width:8px;stroke-linecap:round;stroke-linejoin:round;stroke-miterlimit:4;stroke-dasharray:none;stroke-opacity:1;"/>
  <path id="path105" d="  M 270.61055,7.927544   L 270.25253,7.5695258   L 269.89451,7.2115077   L 265.75173,11.865743   L 266.10975,12.223761   L 266.46777,12.581779  z " style="fill:#000000;fill-rule:evenodd;fill-opacity:1;stroke:none;"/>
  <path id="path107" d="  M 270.61055,7.927544   L 270.25253,7.5695258   L 269.89451,7.2115077   L 265.75173,11.865743   L 266.10975,12.223761   L 266.46777,12.581779   L 270.61055,7.927544  z " style="fill:none;stroke:#000000;stroke-width:8px;stroke-linecap:round;stroke-linejoin:round;stroke-miterlimit:4;stroke-dasharray:none;stroke-opacity:1;"/>
  <path id="path109" d="  M 266.10975,12.223761   L 265.75173,11.865743   L 265.70059,11.916889   L 265.64944,12.01918  z " style="fill:#000000;fill-rule:evenodd;fill-opacity:1;stroke:none;"/>
  <path id="path111" d="  M 265.75173,11.865743   L 265.70059,11.916889   L 265.64944,12.01918  " style="fill:none;stroke:#000000;stroke-width:8px;stroke-linecap:round;stroke-linejoin:round;stroke-miterlimit:4;stroke-dasharray:none;stroke-opacity:1;"/>
  <path id="path113" d="  M 266.57006,12.428343   L 266.10975,12.223761   L 265.64944,12.01918   L 263.14331,17.389451   L 263.60362,17.594033   L 264.06393,17.798615  z " style="fill:#000000;fill-rule:evenodd;fill-opacity:1;stroke:none;"/>
  <path id="path115" d="  M 266.57006,12.428343   L 266.10975,12.223761   L 265.64944,12.01918   L 263.14331,17.389451   L 263.60362,17.594033   L 264.06393,17.798615   L 266.57006,12.428343  z " style="fill:none;stroke:#000000;stroke-width:8px;stroke-linecap:round;stroke-linejoin:round;stroke-miterlimit:4;stroke-dasharray:none;stroke-opacity:1;"/>
  <path id="path117" d="  M 263.60362,17.594033   L 263.14331,17.389451   L 263.09217,17.440597   L 263.09217,17.491742  z " style="fill:#000000;fill-rule:evenodd;fill-opacity:1;stroke:none;"/>
  <path id="path119" d="  M 263.14331,17.389451   L 263.09217,17.440597   L 263.09217,17.491742  " style="fill:none;stroke:#000000;stroke-width:8px;stroke-linecap:round;stroke-linejoin:round;stroke-miterlimit:4;stroke-dasharray:none;stroke-opacity:1;"/>
  <path id="path121" d="  M 264.11508,17.696324   L 263.60362,17.594033   L 263.09217,17.491742   L 262.1204,23.526905   L 262.63186,23.629196   L 263.14331,23.731486  z " style="fill:#000000;fill-rule:evenodd;fill-opacity:1;stroke:none;"/>
  <path id="path123" d="  M 264.11508,17.696324   L 263.60362,17.594033   L 263.09217,17.491742   L 262.1204,23.526905   L 262.63186,23.629196   L 263.14331,23.731486   L 264.11508,17.696324  z " style="fill:none;stroke:#000000;stroke-width:8px;stroke-linecap:round;stroke-linejoin:round;stroke-miterlimit:4;stroke-dasharray:none;stroke-opacity:1;"/>
  <path id="path125" d="  M 1371.414,1247.5908   L 1370.9025,1247.5908   L 1370.391,1247.5908   L 1370.391,1268.3559   L 1370.9025,1268.3559   L 1371.414,1268.3559  z " style="fill:#000000;fill-rule:evenodd;fill-opacity:1;stroke:none;"/>
  <path id="path127" d="  M 1371.414,1247.5908   L 1370.9025,1247.5908   L 1370.391,1247.5908   L 1370.391,1268.3559   L 1370.9025,1268.3559   L 1371.414,1268.3559   L 1371.414,1247.5908  z " style="fill:none;stroke:#000000;stroke-width:8px;stroke-linecap:round;stroke-linejoin:round;stroke-miterlimit:4;stroke-dasharray:none;stroke-opacity:1;"/>
  <path id="path129" d="  M 275.52051,1267.8444   L 275.52051,1268.3559   L 275.52051,1268.8673   L 1370.9025,1268.8673   L 1370.9025,1268.3559   L 1370.9025,1267.8444  z " style="fill:#000000;fill-rule:evenodd;fill-opacity:1;stroke:none;"/>
  <path id="path131" d="  M 275.52051,1267.8444   L 275.52051,1268.3559   L 275.52051,1268.8673   L 1370.9025,1268.8673   L 1370.9025,1268.3559   L 1370.9025,1267.8444   L 275.52051,1267.8444  z " style="fill:none;stroke:#000000;stroke-width:8px;stroke-linecap:round;stroke-linejoin:round;stroke-miterlimit:4;stroke-dasharray:none;stroke-opacity:1;"/>
  <path id="path133" d="  M 1363.4353,1248   L 262.63186,1248  " style="fill:none;stroke:#000000;stroke-width:8px;stroke-linecap:round;stroke-linejoin:round;stroke-miterlimit:4;stroke-dasharray:none;stroke-opacity:1;"/>
  <path id="path135" d="  M 275.00906,1268.3559   L 275.52051,1268.3559   L 276.03197,1268.3559   L 276.03197,1248   L 275.52051,1248   L 275.00906,1248  z " style="fill:#000000;fill-rule:evenodd;fill-opacity:1;stroke:none;"/>
  <path id="path137" d="  M 275.00906,1268.3559   L 275.52051,1268.3559   L 276.03197,1268.3559   L 276.03197,1248   L 275.52051,1248   L 275.00906,1248   L 275.00906,1268.3559  z " style="fill:none;stroke:#000000;stroke-width:8px;stroke-linecap:round;stroke-linejoin:round;stroke-miterlimit:4;stroke-dasharray:none;stroke-opacity:1;"/>
  <path id="path139" d="  M 1383.7912,23.629196   L 1383.7912,1248  " style="fill:none;stroke:#000000;stroke-width:8px;stroke-linecap:round;stroke-linejoin:round;stroke-miterlimit:4;stroke-dasharray:none;stroke-opacity:1;"/>
  <path id="path141" d="  M 1363.4353,1248   L 1363.4353,23.629196  " style="fill:none;stroke:#000000;stroke-width:8px;stroke-linecap:round;stroke-linejoin:round;stroke-miterlimit:4;stroke-dasharray:none;stroke-opacity:1;"/>
  <path id="path143" d="  M 282.98775,23.629196   L 282.98775,1248  " style="fill:none;stroke:#000000;stroke-width:8px;stroke-linecap:round;stroke-linejoin:round;stroke-miterlimit:4;stroke-dasharray:none;stroke-opacity:1;"/>
  <path id="path145" d="  M 262.63186,23.629196   L 1383.7912,23.629196  " style="fill:none;stroke:#000000;stroke-width:8px;stroke-linecap:round;stroke-linejoin:round;stroke-miterlimit:4;stroke-dasharray:none;stroke-opacity:1;"/>
  <path id="path147" d="  M 262.63186,1248   L 262.63186,23.629196  " style="fill:none;stroke:#000000;stroke-width:8px;stroke-linecap:round;stroke-linejoin:round;stroke-miterlimit:4;stroke-dasharray:none;stroke-opacity:1;"/>
  <path id="path149" d="  M 1370.9025,3.7847629   L 1370.9025,3.2733085   L 1370.9025,2.761854   L 275.52051,2.761854   L 275.52051,3.2733085   L 275.52051,3.7847629  z " style="fill:#000000;fill-rule:evenodd;fill-opacity:1;stroke:none;"/>
  <path id="path151" d="  M 1370.9025,3.7847629   L 1370.9025,3.2733085   L 1370.9025,2.761854   L 275.52051,2.761854   L 275.52051,3.2733085   L 275.52051,3.7847629   L 1370.9025,3.7847629  z " style="fill:none;stroke:#000000;stroke-width:8px;stroke-linecap:round;stroke-linejoin:round;stroke-miterlimit:4;stroke-dasharray:none;stroke-opacity:1;"/>
  <path id="path153" d="  M 1371.414,3.2733085   L 1370.9025,3.2733085   L 1370.391,3.2733085   L 1370.391,23.629196   L 1370.9025,23.629196   L 1371.414,23.629196  z " style="fill:#000000;fill-rule:evenodd;fill-opacity:1;stroke:none;"/>
  <path id="path155" d="  M 1371.414,3.2733085   L 1370.9025,3.2733085   L 1370.391,3.2733085   L 1370.391,23.629196   L 1370.9025,23.629196   L 1371.414,23.629196   L 1371.414,3.2733085  z " style="fill:none;stroke:#000000;stroke-width:8px;stroke-linecap:round;stroke-linejoin:round;stroke-miterlimit:4;stroke-dasharray:none;stroke-opacity:1;"/>
  <path id="path157" d="  M 275.00906,23.629196   L 275.52051,23.629196   L 276.03197,23.629196   L 276.03197,3.2733085   L 275.52051,3.2733085   L 275.00906,3.2733085  z " style="fill:#000000;fill-rule:evenodd;fill-opacity:1;stroke:none;"/>
  <path id="path159" d="  M 275.00906,23.629196   L 275.52051,23.629196   L 276.03197,23.629196   L 276.03197,3.2733085   L 275.52051,3.2733085   L 275.00906,3.2733085   L 275.00906,23.629196  z " style="fill:none;stroke:#000000;stroke-width:8px;stroke-linecap:round;stroke-linejoin:round;stroke-miterlimit:4;stroke-dasharray:none;stroke-opacity:1;"/>
</svg>